<?xml version="1.0" encoding="UTF-8" standalone="no"?>
<svg xmlns:xlink="http://www.w3.org/1999/xlink" height="18.45px" width="110.85px" xmlns="http://www.w3.org/2000/svg">
  <g transform="matrix(1.0, 0.0, 0.0, 1.0, -1.1, -4.75)">
    <g transform="matrix(1.0, 0.0, 0.0, 1.0, 0.0, 0.0)">
      <use fill="#507d89" height="18.45" transform="matrix(0.5273, 0.0, 0.0, 0.5273, 0.0, 22.0)" width="110.85" xlink:href="#font_SignPainter-HouseInformal_L0"/>
      <use fill="#507d89" height="18.45" transform="matrix(0.5273, 0.0, 0.0, 0.5273, 12.95, 22.0)" width="110.85" xlink:href="#font_SignPainter-HouseInformal_O0"/>
      <use fill="#507d89" height="18.45" transform="matrix(0.5273, 0.0, 0.0, 0.5273, 32.65, 22.0)" width="110.85" xlink:href="#font_SignPainter-HouseInformal_A0"/>
      <use fill="#507d89" height="18.45" transform="matrix(0.5273, 0.0, 0.0, 0.5273, 48.3, 22.0)" width="110.85" xlink:href="#font_SignPainter-HouseInformal_D0"/>
      <use fill="#507d89" height="18.45" transform="matrix(0.5273, 0.0, 0.0, 0.5273, 67.5, 22.0)" width="110.85" xlink:href="#font_SignPainter-HouseInformal_I0"/>
      <use fill="#507d89" height="18.45" transform="matrix(0.5273, 0.0, 0.0, 0.5273, 74.3, 22.0)" width="110.85" xlink:href="#font_SignPainter-HouseInformal_N0"/>
      <use fill="#507d89" height="18.45" transform="matrix(0.5273, 0.0, 0.0, 0.5273, 90.95, 22.0)" width="110.85" xlink:href="#font_SignPainter-HouseInformal_G0"/>
    </g>
  </g>
  <defs>
    <g id="font_SignPainter-HouseInformal_L0">
      <path d="M20.9 0.7 L20.9 0.7 Q24.05 0.45 26.0 -1.3 27.45 -3.15 24.75 -3.25 L17.5 -2.7 12.8 -2.5 Q10.45 -2.25 10.6 -4.2 10.6 -9.45 11.05 -16.7 L11.8 -29.25 Q12.15 -33.2 7.15 -31.5 5.05 -30.85 3.8 -29.6 2.5 -28.3 2.3 -25.6 2.05 -20.55 2.1 -13.2 2.2 -5.8 2.7 -0.7 2.95 1.0 3.8 1.5 4.65 1.95 6.0 1.9 L13.75 1.45 20.9 0.7 20.9 0.7" fill-rule="evenodd" stroke="none"/>
    </g>
    <g id="font_SignPainter-HouseInformal_O0">
      <path d="M21.85 -27.15 L21.85 -27.15 Q25.95 -27.05 28.45 -23.8 30.95 -20.55 31.05 -15.95 31.1 -11.3 28.4 -7.6 25.75 -3.95 19.9 -3.35 16.3 -3.1 13.75 -5.4 11.25 -7.75 11.05 -13.25 11.15 -19.45 14.3 -23.25 17.5 -27.05 21.85 -27.15 L21.85 -27.15 M11.05 -27.4 L11.05 -27.4 Q5.4 -25.4 3.1 -21.25 0.8 -17.05 1.05 -12.9 1.5 -5.85 5.95 -2.75 10.35 0.3 16.4 0.3 20.55 0.45 26.6 -1.75 32.6 -4.0 37.2 -9.45 40.25 -13.4 40.1 -17.85 39.9 -22.3 35.5 -26.65 32.7 -29.2 29.15 -30.1 L22.45 -30.9 Q19.1 -30.85 16.75 -29.7 14.35 -28.55 11.05 -27.4 L11.05 -27.4" fill-rule="evenodd" stroke="none"/>
    </g>
    <g id="font_SignPainter-HouseInformal_A0">
      <path d="M9.25 -9.05 L9.25 -9.05 12.7 -16.85 16.05 -23.95 21.15 -10.7 9.25 -9.05 9.25 -9.05 M22.3 -30.15 L22.3 -30.15 Q21.55 -32.1 19.25 -31.35 L15.55 -30.1 Q14.0 -29.4 13.25 -27.9 L6.1 -11.5 1.1 -0.55 Q0.15 1.65 0.95 2.2 1.8 2.8 3.1 2.2 5.3 1.4 6.95 -3.35 L7.6 -5.15 14.85 -6.4 22.3 -7.45 25.4 1.1 Q26.15 3.0 28.55 1.7 30.45 0.85 31.6 -0.8 32.55 -1.95 31.7 -4.25 L27.3 -16.9 22.3 -30.15 22.3 -30.15" fill-rule="evenodd" stroke="none"/>
    </g>
    <g id="font_SignPainter-HouseInformal_D0">
      <path d="M13.35 -21.95 L13.35 -21.95 Q19.95 -20.35 25.25 -18.05 30.5 -15.75 30.8 -12.95 30.4 -9.55 24.75 -6.55 19.15 -3.6 13.45 -2.75 13.25 -10.95 13.35 -21.95 L13.35 -21.95 M4.25 -23.9 L4.25 -23.9 4.7 -12.15 Q4.95 -6.8 5.35 -1.7 5.4 -0.05 6.5 0.55 7.65 1.2 10.6 1.1 17.0 0.85 23.5 -1.5 30.05 -3.9 34.5 -7.6 38.95 -11.3 39.1 -15.6 38.65 -20.75 32.55 -24.05 26.4 -27.4 19.3 -29.1 12.2 -30.8 8.85 -31.05 4.6 -31.45 3.2 -29.95 1.6 -28.55 0.6 -26.7 -0.55 -24.95 1.95 -24.3 L4.25 -23.9 4.25 -23.9" fill-rule="evenodd" stroke="none"/>
    </g>
    <g id="font_SignPainter-HouseInformal_I0">
      <path d="M7.85 1.2 L7.85 1.2 Q9.9 0.4 10.75 -0.8 11.6 -2.0 11.55 -4.3 L11.65 -16.0 11.75 -28.7 Q11.9 -32.65 7.05 -30.85 4.8 -30.1 3.55 -28.8 2.25 -27.5 2.4 -24.75 L3.05 -12.85 3.8 -0.55 Q4.1 2.8 7.85 1.2 L7.85 1.2" fill-rule="evenodd" stroke="none"/>
    </g>
    <g id="font_SignPainter-HouseInformal_N0">
      <path d="M6.7 -18.6 L6.7 -18.6 Q9.0 -9.3 12.2 -5.2 15.35 -1.05 18.25 -0.1 21.2 0.9 22.65 0.75 L25.95 0.2 Q27.25 -0.4 29.2 -1.95 31.55 -3.8 31.75 -5.65 32.0 -7.55 31.85 -10.45 L31.9 -16.0 32.15 -22.45 32.4 -27.45 Q32.35 -29.6 30.95 -30.95 27.7 -33.45 27.25 -29.8 L27.3 -17.65 27.65 -4.95 Q27.8 -3.75 26.35 -3.6 22.45 -3.45 18.8 -9.35 15.2 -15.25 13.15 -28.55 12.75 -30.7 10.95 -30.95 9.1 -31.2 6.3 -30.3 3.65 -29.45 2.9 -28.35 2.15 -27.2 2.3 -25.6 2.55 -11.95 2.4 0.45 2.8 4.55 5.7 2.2 8.0 -0.35 7.3 -5.9 6.9 -10.85 6.7 -18.6 L6.7 -18.6" fill-rule="evenodd" stroke="none"/>
    </g>
    <g id="font_SignPainter-HouseInformal_G0">
      <path d="M38.65 -17.2 L38.65 -17.2 37.0 -18.65 34.8 -18.9 Q31.1 -18.65 26.75 -17.6 22.4 -16.5 19.6 -15.35 17.0 -14.45 15.8 -12.6 14.85 -11.0 14.55 -9.0 14.3 -6.8 16.55 -7.7 L23.95 -10.05 32.05 -11.85 Q31.15 -8.4 27.9 -5.85 24.65 -3.35 20.15 -3.05 15.65 -2.95 13.2 -5.45 10.7 -7.95 10.5 -12.2 10.45 -19.8 14.05 -23.3 17.65 -26.8 20.9 -26.75 23.95 -26.8 26.35 -23.45 29.65 -20.05 33.35 -20.55 37.4 -20.85 36.0 -23.55 34.8 -26.45 31.35 -28.85 27.9 -31.25 23.15 -31.25 20.15 -31.1 17.7 -30.0 L12.5 -27.55 Q8.05 -25.7 4.4 -22.35 0.75 -18.95 1.05 -11.7 1.5 -6.1 5.7 -2.5 9.95 1.05 17.45 0.9 24.45 0.5 31.0 -3.6 37.5 -7.65 39.75 -13.8 40.3 -15.35 38.65 -17.2 L38.65 -17.2" fill-rule="evenodd" stroke="none"/>
    </g>
  </defs>
</svg>
