<?xml version="1.0" encoding="UTF-8" standalone="no"?>
<svg xmlns:xlink="http://www.w3.org/1999/xlink" height="13.85px" width="141.3px" xmlns="http://www.w3.org/2000/svg">
  <g transform="matrix(1.0, 0.0, 0.0, 1.0, -24.65, -3.65)">
    <g transform="matrix(1.0, 0.0, 0.0, 1.0, 0.0, 0.0)">
      <use fill="#e5e6c7" height="13.85" transform="matrix(0.3906, 0.0, 0.0, 0.3906, 25.0, 17.0)" width="141.3" xlink:href="#font_SignPainter-HouseInformal_B0"/>
      <use fill="#e5e6c7" height="13.85" transform="matrix(0.3906, 0.0, 0.0, 0.3906, 38.6, 17.0)" width="141.3" xlink:href="#font_SignPainter-HouseInformal_l0"/>
      <use fill="#e5e6c7" height="13.85" transform="matrix(0.3906, 0.0, 0.0, 0.3906, 46.95, 17.0)" width="141.3" xlink:href="#font_SignPainter-HouseInformal_o0"/>
      <use fill="#e5e6c7" height="13.85" transform="matrix(0.3906, 0.0, 0.0, 0.3906, 61.55, 17.0)" width="141.3" xlink:href="#font_SignPainter-HouseInformal_o0"/>
      <use fill="#e5e6c7" height="13.85" transform="matrix(0.3906, 0.0, 0.0, 0.3906, 75.7, 17.0)" width="141.3" xlink:href="#font_SignPainter-HouseInformal_d0"/>
      <use fill="#e5e6c7" height="13.85" transform="matrix(0.3906, 0.0, 0.0, 0.3906, 89.95, 17.0)" width="141.3" xlink:href="#font_SignPainter-HouseInformal_s0"/>
      <use fill="#e5e6c7" height="13.85" transform="matrix(0.3906, 0.0, 0.0, 0.3906, 103.0, 17.0)" width="141.3" xlink:href="#font_SignPainter-HouseInformal_u0"/>
      <use fill="#e5e6c7" height="13.85" transform="matrix(0.3906, 0.0, 0.0, 0.3906, 115.75, 17.0)" width="141.3" xlink:href="#font_SignPainter-HouseInformal_c0"/>
      <use fill="#e5e6c7" height="13.85" transform="matrix(0.3906, 0.0, 0.0, 0.3906, 129.15, 17.0)" width="141.3" xlink:href="#font_SignPainter-HouseInformal_k0"/>
      <use fill="#e5e6c7" height="13.85" transform="matrix(0.3906, 0.0, 0.0, 0.3906, 141.5, 17.0)" width="141.3" xlink:href="#font_SignPainter-HouseInformal_e0"/>
      <use fill="#e5e6c7" height="13.85" transform="matrix(0.3906, 0.0, 0.0, 0.3906, 151.6, 17.0)" width="141.3" xlink:href="#font_SignPainter-HouseInformal_r0"/>
    </g>
  </g>
  <defs>
    <g id="font_SignPainter-HouseInformal_B0">
      <path d="M19.4 -13.35 L19.4 -13.35 Q22.65 -12.55 25.55 -11.2 28.5 -9.85 28.7 -8.35 28.25 -6.0 23.5 -4.4 18.7 -2.8 13.45 -2.65 L13.35 -11.5 Q16.55 -12.25 19.4 -13.35 L19.4 -13.35 M13.35 -15.3 L13.35 -15.3 13.35 -23.35 21.05 -21.75 Q24.25 -20.9 24.55 -20.05 24.45 -19.0 20.8 -17.55 17.2 -16.1 13.35 -15.3 L13.35 -15.3 M4.2 -24.75 L4.2 -24.75 4.65 -12.55 Q4.9 -7.0 5.3 -1.7 5.3 -0.05 6.3 0.6 7.35 1.2 11.0 1.2 16.55 1.15 22.6 -0.4 28.65 -1.9 32.85 -4.55 37.1 -7.15 37.3 -10.5 37.15 -12.5 34.4 -14.45 31.65 -16.4 28.05 -17.7 32.25 -20.55 32.4 -23.15 32.1 -25.85 27.6 -27.65 23.05 -29.45 17.55 -30.45 L8.8 -31.75 5.25 -31.6 Q4.05 -31.2 3.2 -30.5 1.65 -29.05 0.65 -27.15 -0.6 -25.65 1.95 -25.1 L4.2 -24.75 4.2 -24.75" fill-rule="evenodd" stroke="none"/>
    </g>
    <g id="font_SignPainter-HouseInformal_l0">
      <path d="M20.9 0.7 L20.9 0.7 Q24.05 0.45 26.0 -1.3 27.45 -3.15 24.75 -3.25 L17.5 -2.7 12.8 -2.5 Q10.45 -2.25 10.6 -4.2 10.6 -9.45 11.05 -16.7 L11.8 -29.25 Q12.15 -33.2 7.15 -31.5 5.05 -30.85 3.8 -29.6 2.5 -28.3 2.3 -25.6 2.05 -20.55 2.1 -13.2 2.2 -5.8 2.7 -0.7 2.95 1.0 3.8 1.5 4.65 1.95 6.0 1.9 L13.75 1.45 20.9 0.7 20.9 0.7" fill-rule="evenodd" stroke="none"/>
    </g>
    <g id="font_SignPainter-HouseInformal_o0">
      <path d="M21.85 -27.15 L21.85 -27.15 Q25.95 -27.05 28.45 -23.8 30.95 -20.55 31.05 -15.95 31.1 -11.3 28.4 -7.6 25.75 -3.95 19.9 -3.35 16.3 -3.1 13.75 -5.4 11.25 -7.75 11.05 -13.25 11.15 -19.45 14.3 -23.25 17.5 -27.05 21.85 -27.15 L21.85 -27.15 M11.05 -27.4 L11.05 -27.4 Q5.4 -25.4 3.1 -21.25 0.8 -17.05 1.05 -12.9 1.5 -5.85 5.95 -2.75 10.35 0.3 16.4 0.3 20.55 0.45 26.6 -1.75 32.6 -4.0 37.2 -9.45 40.25 -13.4 40.1 -17.85 39.9 -22.3 35.5 -26.65 32.7 -29.2 29.15 -30.1 L22.45 -30.9 Q19.1 -30.85 16.75 -29.7 14.35 -28.55 11.05 -27.4 L11.05 -27.4" fill-rule="evenodd" stroke="none"/>
    </g>
    <g id="font_SignPainter-HouseInformal_d0">
      <path d="M13.35 -21.95 L13.35 -21.95 Q19.95 -20.35 25.25 -18.05 30.5 -15.75 30.8 -12.95 30.4 -9.55 24.75 -6.55 19.15 -3.6 13.45 -2.75 13.25 -10.95 13.35 -21.95 L13.35 -21.95 M4.25 -23.9 L4.25 -23.9 4.7 -12.15 Q4.95 -6.8 5.35 -1.7 5.4 -0.05 6.5 0.55 7.65 1.2 10.6 1.1 17.0 0.85 23.5 -1.5 30.05 -3.9 34.5 -7.6 38.95 -11.3 39.1 -15.6 38.65 -20.75 32.55 -24.05 26.4 -27.4 19.3 -29.1 12.2 -30.8 8.85 -31.05 4.6 -31.45 3.2 -29.95 1.6 -28.55 0.6 -26.7 -0.55 -24.95 1.95 -24.3 L4.25 -23.9 4.25 -23.9" fill-rule="evenodd" stroke="none"/>
    </g>
    <g id="font_SignPainter-HouseInformal_s0">
      <path d="M29.2 -7.15 L29.2 -7.15 Q29.1 -6.3 25.5 -5.0 21.9 -3.7 16.45 -3.45 12.05 -3.45 8.9 -4.45 5.7 -5.45 3.8 -6.65 1.2 -8.4 1.05 -5.8 1.45 -2.25 4.3 -0.9 7.95 0.85 14.45 0.9 20.6 0.9 27.25 -2.2 32.35 -4.75 34.15 -6.7 35.95 -8.65 35.85 -9.95 35.75 -11.35 34.3 -11.95 32.85 -12.55 30.9 -12.55 L24.8 -12.25 18.5 -11.8 Q13.7 -11.6 12.1 -12.65 10.55 -13.7 10.65 -15.65 10.85 -20.15 13.3 -23.5 15.8 -26.85 18.1 -27.0 20.25 -26.9 21.65 -25.15 L24.1 -21.6 Q25.5 -19.6 27.4 -19.05 L31.05 -18.8 Q34.3 -18.85 33.5 -21.7 32.45 -25.35 29.1 -28.4 25.8 -31.45 21.1 -31.65 18.8 -31.55 16.65 -30.5 14.5 -29.45 11.55 -28.15 7.7 -26.7 4.7 -23.75 1.7 -20.8 1.55 -15.4 1.45 -11.7 4.25 -9.3 7.0 -6.9 13.35 -6.8 L23.6 -7.55 Q28.7 -8.15 29.2 -7.15 L29.2 -7.15" fill-rule="evenodd" stroke="none"/>
    </g>
    <g id="font_SignPainter-HouseInformal_u0">
      <path d="M25.15 -8.65 L25.15 -8.65 25.4 -0.7 Q25.6 2.65 29.4 1.15 31.55 0.4 32.4 -0.8 33.3 -2.0 33.3 -4.3 L33.6 -16.0 33.85 -28.7 Q34.15 -32.8 29.4 -30.95 24.9 -29.75 24.75 -24.6 L24.9 -18.05 Q23.0 -9.15 18.8 -5.7 14.65 -2.2 12.0 -3.65 10.3 -4.85 10.0 -9.0 9.7 -13.1 10.15 -18.4 10.65 -23.75 11.4 -28.5 11.9 -31.25 9.55 -30.95 7.55 -30.7 5.55 -29.55 3.55 -28.4 2.75 -25.65 2.25 -23.65 1.75 -19.7 1.2 -15.75 1.35 -11.35 1.45 -6.95 2.9 -3.5 4.65 0.75 11.3 0.95 13.75 1.05 17.55 -0.9 21.4 -2.9 25.15 -8.65 L25.15 -8.65" fill-rule="evenodd" stroke="none"/>
    </g>
    <g id="font_SignPainter-HouseInformal_c0">
      <path d="M36.8 -21.1 L36.8 -21.1 Q35.6 -24.9 31.8 -28.0 28.0 -31.1 23.15 -31.15 20.15 -31.05 17.65 -29.9 L12.5 -27.45 Q8.05 -25.6 4.4 -22.25 0.75 -18.85 1.05 -11.6 1.45 -6.0 5.45 -2.45 9.5 1.15 17.25 1.15 22.3 1.05 27.05 -0.8 31.8 -2.7 34.6 -6.2 35.6 -7.65 34.85 -8.25 L32.95 -8.2 27.6 -4.8 Q24.5 -3.15 20.15 -2.9 15.7 -2.85 13.2 -5.35 10.7 -7.8 10.5 -12.1 10.5 -19.7 14.35 -23.15 18.2 -26.6 20.9 -26.55 23.1 -26.45 24.4 -24.85 L26.9 -21.3 Q28.35 -19.15 30.35 -18.5 L34.2 -18.0 Q37.9 -18.05 36.8 -21.1 L36.8 -21.1" fill-rule="evenodd" stroke="none"/>
    </g>
    <g id="font_SignPainter-HouseInformal_k0">
      <path d="M11.1 -15.7 L11.1 -15.7 11.5 -29.25 Q11.75 -33.15 6.75 -31.4 4.7 -30.8 3.35 -29.5 2.0 -28.2 2.05 -25.5 L2.25 -17.7 2.6 -8.25 2.95 -0.1 Q3.1 3.25 6.9 1.7 9.05 1.0 9.9 -0.2 10.75 -1.4 10.75 -3.65 L10.85 -5.95 22.75 -4.4 Q25.45 -3.95 28.45 -4.3 31.45 -4.7 33.2 -6.6 35.8 -9.5 32.0 -10.2 L23.85 -11.55 13.9 -13.3 28.0 -23.9 Q33.05 -27.2 34.1 -30.6 34.45 -32.45 33.75 -33.05 33.1 -33.65 31.35 -32.35 L21.7 -24.55 11.1 -15.7 11.1 -15.7" fill-rule="evenodd" stroke="none"/>
    </g>
    <g id="font_SignPainter-HouseInformal_e0">
      <path d="M11.1 -13.0 L11.1 -13.0 11.4 -19.7 11.85 -25.95 18.4 -26.5 23.4 -26.9 Q27.9 -27.55 27.85 -29.55 27.45 -30.75 25.35 -30.55 L16.25 -30.3 5.95 -30.2 Q3.6 -30.25 2.8 -29.5 2.05 -28.8 2.1 -27.15 L2.2 -18.95 2.5 -9.85 Q2.7 -5.5 3.0 -3.2 3.5 -0.2 5.65 0.65 7.75 1.5 10.7 1.3 L18.15 0.6 24.7 -0.65 Q26.9 -1.15 27.7 -2.85 28.25 -4.3 26.2 -4.1 L19.0 -3.1 13.85 -2.7 Q11.25 -2.35 11.1 -5.0 11.0 -6.45 11.05 -9.25 L15.5 -9.8 19.8 -10.25 Q23.7 -10.4 25.35 -12.55 26.3 -14.4 23.7 -14.1 L18.1 -13.55 11.1 -13.0 11.1 -13.0" fill-rule="evenodd" stroke="none"/>
    </g>
    <g id="font_SignPainter-HouseInformal_r0">
      <path d="M13.45 -12.1 L13.45 -12.1 13.65 -22.9 23.8 -20.95 Q28.35 -19.9 28.8 -18.8 28.55 -17.3 23.45 -15.35 18.35 -13.35 13.45 -12.1 L13.45 -12.1 M4.45 -24.35 L4.45 -24.35 5.1 -12.25 5.7 -0.8 Q5.8 0.95 6.85 1.15 7.9 1.35 9.75 0.75 11.7 0.15 12.6 -0.95 13.45 -2.05 13.4 -4.35 L13.4 -7.8 26.35 -4.95 Q31.5 -3.55 35.0 -4.45 38.65 -5.85 34.75 -7.1 L19.05 -10.1 Q26.05 -12.25 31.8 -15.3 37.55 -18.4 37.85 -21.3 37.5 -24.3 32.2 -26.35 26.9 -28.45 20.4 -29.6 L10.0 -31.05 6.15 -31.1 3.95 -30.45 Q2.05 -29.25 1.05 -27.75 0.4 -27.05 0.4 -26.1 0.4 -25.15 3.2 -24.55 L4.45 -24.35 4.45 -24.35" fill-rule="evenodd" stroke="none"/>
    </g>
  </defs>
</svg>
