<?xml version="1.0" encoding="UTF-8" standalone="no"?>
<svg xmlns:xlink="http://www.w3.org/1999/xlink" height="43.6px" width="70.55px" xmlns="http://www.w3.org/2000/svg">
  <g transform="matrix(1.0, 0.0, 0.0, 1.0, 0.05, -2.6)">
    <g transform="matrix(1.0, 0.0, 0.0, 1.0, 0.0, 0.0)">
      <use fill="#000000" height="43.6" transform="matrix(0.2734, 0.0, 0.0, 0.2734, 0.0, 12.0)" width="70.55" xlink:href="#font_American_Typewriter_Condensed_Y0"/>
      <use fill="#000000" height="43.6" transform="matrix(0.2734, 0.0, 0.0, 0.2734, 7.6, 12.0)" width="70.55" xlink:href="#font_American_Typewriter_Condensed_o0"/>
      <use fill="#000000" height="43.6" transform="matrix(0.2734, 0.0, 0.0, 0.2734, 13.6, 12.0)" width="70.55" xlink:href="#font_American_Typewriter_Condensed_u0"/>
      <use fill="#000000" height="43.6" transform="matrix(0.2734, 0.0, 0.0, 0.2734, 23.8, 12.0)" width="70.55" xlink:href="#font_American_Typewriter_Condensed_r0"/>
      <use fill="#000000" height="43.6" transform="matrix(0.2734, 0.0, 0.0, 0.2734, 29.25, 12.0)" width="70.55" xlink:href="#font_American_Typewriter_Condensed_e0"/>
      <use fill="#000000" height="43.6" transform="matrix(0.2734, 0.0, 0.0, 0.2734, 35.05, 12.0)" width="70.55" xlink:href="#font_American_Typewriter_Condensed_a0"/>
      <use fill="#000000" height="43.6" transform="matrix(0.2734, 0.0, 0.0, 0.2734, 41.25, 12.0)" width="70.55" xlink:href="#font_American_Typewriter_Condensed_l0"/>
      <use fill="#000000" height="43.6" transform="matrix(0.2734, 0.0, 0.0, 0.2734, 44.55, 12.0)" width="70.55" xlink:href="#font_American_Typewriter_Condensed_i0"/>
      <use fill="#000000" height="43.6" transform="matrix(0.2734, 0.0, 0.0, 0.2734, 48.0, 12.0)" width="70.55" xlink:href="#font_American_Typewriter_Condensed_z0"/>
      <use fill="#000000" height="43.6" transform="matrix(0.2734, 0.0, 0.0, 0.2734, 54.0, 12.0)" width="70.55" xlink:href="#font_American_Typewriter_Condensed_e0"/>
      <use fill="#000000" height="43.6" transform="matrix(0.2734, 0.0, 0.0, 0.2734, 59.8, 12.0)" width="70.55" xlink:href="#font_American_Typewriter_Condensed__1"/>
      <use fill="#000000" height="43.6" transform="matrix(0.2734, 0.0, 0.0, 0.2734, 66.3, 12.0)" width="70.55" xlink:href="#font_American_Typewriter_Condensed_I0"/>
    </g>
    <g transform="matrix(1.0, 0.0, 0.0, 1.0, 0.0, 0.0)">
      <use fill="#000000" height="43.6" transform="matrix(0.2734, 0.0, 0.0, 0.2734, 0.0, 29.0)" width="70.55" xlink:href="#font_American_Typewriter_Condensed_d0"/>
      <use fill="#000000" height="43.6" transform="matrix(0.2734, 0.0, 0.0, 0.2734, 6.35, 29.0)" width="70.55" xlink:href="#font_American_Typewriter_Condensed_o0"/>
      <use fill="#000000" height="43.6" transform="matrix(0.2734, 0.0, 0.0, 0.2734, 12.35, 29.0)" width="70.55" xlink:href="#font_American_Typewriter_Condensed_n0"/>
      <use fill="#000000" height="43.6" transform="matrix(0.2734, 0.0, 0.0, 0.2734, 19.4, 29.0)" width="70.55" xlink:href="#font_American_Typewriter_Condensed__2"/>
      <use fill="#000000" height="43.6" transform="matrix(0.2734, 0.0, 0.0, 0.2734, 22.5, 29.0)" width="70.55" xlink:href="#font_American_Typewriter_Condensed_t0"/>
      <use fill="#000000" height="43.6" transform="matrix(0.2734, 0.0, 0.0, 0.2734, 30.5, 29.0)" width="70.55" xlink:href="#font_American_Typewriter_Condensed_w0"/>
      <use fill="#000000" height="43.6" transform="matrix(0.2734, 0.0, 0.0, 0.2734, 39.3, 29.0)" width="70.55" xlink:href="#font_American_Typewriter_Condensed_a0"/>
      <use fill="#000000" height="43.6" transform="matrix(0.2734, 0.0, 0.0, 0.2734, 45.5, 29.0)" width="70.55" xlink:href="#font_American_Typewriter_Condensed_n0"/>
      <use fill="#000000" height="43.6" transform="matrix(0.2734, 0.0, 0.0, 0.2734, 52.55, 29.0)" width="70.55" xlink:href="#font_American_Typewriter_Condensed_t0"/>
      <use fill="#000000" height="43.6" transform="matrix(0.2734, 0.0, 0.0, 0.2734, 60.55, 29.0)" width="70.55" xlink:href="#font_American_Typewriter_Condensed_t0"/>
      <use fill="#000000" height="43.6" transform="matrix(0.2734, 0.0, 0.0, 0.2734, 65.05, 29.0)" width="70.55" xlink:href="#font_American_Typewriter_Condensed_o0"/>
    </g>
    <g transform="matrix(1.0, 0.0, 0.0, 1.0, 0.0, 0.0)">
      <use fill="#000000" height="43.6" transform="matrix(0.2734, 0.0, 0.0, 0.2734, 0.0, 46.0)" width="70.55" xlink:href="#font_American_Typewriter_Condensed_d0"/>
      <use fill="#000000" height="43.6" transform="matrix(0.2734, 0.0, 0.0, 0.2734, 6.35, 46.0)" width="70.55" xlink:href="#font_American_Typewriter_Condensed_o0"/>
      <use fill="#000000" height="43.6" transform="matrix(0.2734, 0.0, 0.0, 0.2734, 15.85, 46.0)" width="70.55" xlink:href="#font_American_Typewriter_Condensed_t0"/>
      <use fill="#000000" height="43.6" transform="matrix(0.2734, 0.0, 0.0, 0.2734, 20.35, 46.0)" width="70.55" xlink:href="#font_American_Typewriter_Condensed_h0"/>
      <use fill="#000000" height="43.6" transform="matrix(0.2734, 0.0, 0.0, 0.2734, 27.2, 46.0)" width="70.55" xlink:href="#font_American_Typewriter_Condensed_i0"/>
      <use fill="#000000" height="43.6" transform="matrix(0.2734, 0.0, 0.0, 0.2734, 30.65, 46.0)" width="70.55" xlink:href="#font_American_Typewriter_Condensed_s0"/>
      <use fill="#000000" height="43.6" transform="matrix(0.2734, 0.0, 0.0, 0.2734, 36.4, 46.0)" width="70.55" xlink:href="#font_American_Typewriter_Condensed__3"/>
    </g>
  </g>
  <defs>
    <g id="font_American_Typewriter_Condensed_Y0">
      <path d="M9.0 -28.7 L9.0 -28.7 8.55 -29.75 8.5 -29.95 Q8.5 -30.6 9.0 -30.6 L9.65 -30.6 10.35 -30.6 Q12.0 -30.6 12.0 -32.4 12.0 -33.25 11.5 -33.8 10.95 -34.4 10.2 -34.4 L8.35 -34.1 6.2 -33.8 3.75 -34.1 1.65 -34.4 Q-0.2 -34.4 -0.2 -32.45 -0.2 -30.6 1.4 -30.6 L2.15 -30.6 2.85 -30.65 Q3.65 -30.65 4.3 -29.45 L11.0 -15.2 11.65 -13.65 Q12.0 -12.8 12.0 -11.5 L12.0 -10.35 11.9 -6.4 Q11.6 -3.15 10.3 -3.15 L9.3 -3.25 8.3 -3.4 Q6.6 -3.4 6.6 -1.6 6.6 0.4 8.5 0.4 L11.2 0.05 13.95 -0.35 16.5 0.05 19.05 0.4 Q19.8 0.4 20.3 -0.2 20.8 -0.75 20.8 -1.6 20.8 -3.4 19.2 -3.4 L18.2 -3.25 17.25 -3.15 Q15.6 -3.15 15.6 -6.05 L15.6 -11.35 15.7 -12.55 Q15.75 -13.35 16.05 -13.85 L22.55 -27.5 23.15 -28.7 23.65 -29.65 Q24.25 -30.7 25.0 -30.7 L25.75 -30.65 26.55 -30.6 Q28.2 -30.6 28.2 -32.45 28.2 -34.4 26.45 -34.4 L24.65 -34.1 21.95 -33.8 19.8 -34.1 17.95 -34.4 Q16.2 -34.4 16.2 -32.45 16.2 -30.6 17.65 -30.6 L18.35 -30.6 19.05 -30.6 Q19.65 -30.6 19.65 -29.9 L19.25 -28.85 14.05 -17.0 9.5 -27.45 9.0 -28.7" fill-rule="evenodd" stroke="none"/>
    </g>
    <g id="font_American_Typewriter_Condensed_o0">
      <path d="M11.0 -22.2 L11.0 -22.2 Q13.55 -22.2 15.1 -19.5 16.6 -16.85 16.6 -12.45 16.6 -8.1 15.1 -5.45 13.55 -2.8 11.0 -2.8 8.45 -2.8 6.9 -5.45 5.4 -8.1 5.4 -12.45 5.4 -16.85 6.9 -19.5 8.45 -22.2 11.0 -22.2 M10.9 0.6 L10.9 0.6 Q15.1 0.6 17.55 -2.9 20.0 -6.45 20.0 -12.45 20.0 -18.45 17.55 -22.05 15.1 -25.6 10.9 -25.6 6.7 -25.6 4.25 -22.05 1.8 -18.45 1.8 -12.45 1.8 -6.45 4.25 -2.9 6.7 0.6 10.9 0.6" fill-rule="evenodd" stroke="none"/>
    </g>
    <g id="font_American_Typewriter_Condensed_u0">
      <path d="M17.2 -1.2 L17.2 -1.2 Q17.2 0.4 18.1 0.4 L19.05 0.15 20.1 -0.1 21.4 0.15 22.7 0.4 Q24.2 0.4 24.2 -1.35 24.2 -3.0 22.9 -3.0 L22.1 -3.0 21.85 -3.0 Q21.0 -3.0 20.8 -3.85 20.6 -4.75 20.6 -8.0 L20.6 -19.15 20.6 -23.25 20.6 -24.0 Q20.6 -25.4 19.8 -25.4 L18.55 -25.2 17.35 -24.95 16.15 -25.2 15.05 -25.4 Q14.4 -25.4 13.9 -24.85 13.4 -24.3 13.4 -23.6 13.4 -22.0 15.0 -22.0 L15.3 -22.0 15.55 -22.0 15.9 -22.0 Q17.15 -22.0 17.2 -20.25 L17.2 -17.55 17.2 -13.85 17.2 -12.4 Q17.2 -2.8 12.05 -2.8 9.5 -2.8 8.45 -4.55 7.4 -6.35 7.4 -10.6 L7.4 -15.05 7.4 -21.75 7.8 -23.95 7.8 -24.45 Q7.8 -25.4 7.0 -25.4 L6.85 -25.4 6.6 -25.35 5.75 -25.15 4.55 -25.0 3.3 -25.2 2.0 -25.4 Q1.35 -25.4 0.9 -24.85 0.4 -24.35 0.4 -23.6 0.4 -22.0 1.75 -22.0 L2.1 -22.0 2.55 -22.0 2.65 -22.0 2.75 -22.0 Q3.55 -22.0 3.8 -21.1 4.0 -20.25 4.0 -17.05 L3.9 -10.25 4.0 -6.85 Q4.05 -4.85 4.85 -3.2 5.7 -1.55 7.55 -0.45 9.4 0.6 11.4 0.6 14.95 0.6 17.2 -2.35 L17.2 -1.2" fill-rule="evenodd" stroke="none"/>
    </g>
    <g id="font_American_Typewriter_Condensed_r0">
      <path d="M8.0 -23.9 L8.0 -23.9 Q7.95 -25.4 7.5 -25.4 L7.1 -25.35 5.45 -25.0 4.1 -25.2 2.8 -25.4 Q2.15 -25.4 1.7 -24.85 1.2 -24.35 1.2 -23.6 1.2 -22.0 2.55 -22.0 L2.9 -22.0 3.35 -22.0 3.45 -22.0 3.55 -22.0 Q4.35 -22.0 4.6 -21.1 4.8 -20.25 4.8 -16.95 L4.8 -7.85 4.65 -3.75 Q4.45 -3.0 3.65 -3.0 L3.2 -3.0 2.65 -3.0 Q1.2 -3.0 1.2 -1.3 1.2 0.4 2.85 0.4 L4.65 0.15 6.75 -0.15 8.9 0.0 11.15 0.4 Q12.8 0.4 12.8 -1.4 12.8 -3.0 11.3 -3.0 L10.35 -3.0 9.45 -3.0 Q8.6 -3.0 8.4 -4.05 8.2 -5.05 8.2 -9.45 L8.2 -13.6 Q8.2 -22.2 12.55 -22.2 13.75 -22.2 14.55 -21.3 15.4 -20.45 15.4 -19.2 L15.35 -18.35 Q13.2 -18.05 13.2 -16.05 13.2 -15.0 13.9 -14.3 14.65 -13.6 15.7 -13.6 17.05 -13.6 17.95 -15.0 18.8 -16.45 18.8 -18.7 18.8 -21.75 17.15 -23.65 15.5 -25.6 12.8 -25.6 10.1 -25.6 8.0 -23.25 L8.0 -23.9" fill-rule="evenodd" stroke="none"/>
    </g>
    <g id="font_American_Typewriter_Condensed_e0">
      <path d="M5.8 -16.1 L5.8 -16.1 5.85 -16.6 6.45 -18.8 Q7.8 -22.2 10.8 -22.2 12.75 -22.2 14.1 -20.55 15.4 -18.9 15.4 -16.4 15.4 -15.6 15.1 -15.4 L13.55 -15.2 7.15 -15.2 Q5.8 -15.2 5.8 -16.1 M19.2 -14.55 L19.2 -14.55 Q19.2 -19.4 16.95 -22.5 14.65 -25.6 11.05 -25.6 6.95 -25.6 4.35 -21.85 1.8 -18.15 1.8 -12.25 1.8 -6.35 4.2 -2.85 6.65 0.6 10.65 0.6 13.95 0.6 16.45 -1.9 18.9 -4.35 18.9 -7.7 18.9 -9.5 17.3 -9.5 15.85 -9.5 15.5 -8.05 L15.05 -6.3 Q14.65 -4.75 13.45 -3.75 12.3 -2.8 10.8 -2.8 8.45 -2.8 7.05 -4.9 5.6 -7.0 5.6 -10.35 5.6 -11.35 5.9 -11.55 L7.45 -11.8 17.6 -11.8 Q18.7 -11.8 18.95 -12.2 L19.2 -14.55" fill-rule="evenodd" stroke="none"/>
    </g>
    <g id="font_American_Typewriter_Condensed_a0">
      <path d="M13.7 -7.7 L13.7 -7.7 Q13.35 -5.5 12.0 -4.15 10.65 -2.8 8.85 -2.8 7.15 -2.8 6.05 -3.9 5.0 -5.0 5.0 -6.8 5.0 -10.3 8.8 -10.95 L11.1 -11.35 Q12.5 -11.6 13.95 -12.2 L13.7 -7.7 M18.0 0.6 L18.0 0.6 Q20.5 0.6 21.45 -1.1 22.4 -2.8 22.4 -7.25 22.4 -10.2 20.7 -10.2 19.2 -10.2 19.2 -7.95 L19.2 -7.45 19.2 -6.45 Q19.2 -2.8 18.2 -2.8 17.45 -2.8 17.4 -4.25 L17.4 -16.75 Q17.4 -20.35 16.85 -21.85 16.15 -23.7 14.2 -24.7 12.45 -25.6 10.3 -25.6 7.05 -25.6 4.95 -23.75 2.8 -21.9 2.8 -19.1 2.8 -15.8 5.5 -15.8 7.8 -15.8 7.8 -18.0 7.8 -18.85 7.15 -19.85 6.8 -20.35 6.8 -20.6 6.8 -21.45 8.15 -22.05 9.4 -22.6 10.35 -22.6 14.0 -22.6 14.0 -18.45 14.0 -16.45 13.2 -15.65 12.35 -14.8 10.1 -14.5 6.15 -13.95 4.3 -12.75 1.6 -11.0 1.6 -6.85 1.6 -3.55 3.55 -1.5 5.45 0.6 8.4 0.6 12.05 0.6 14.25 -2.4 15.05 0.6 18.0 0.6" fill-rule="evenodd" stroke="none"/>
    </g>
    <g id="font_American_Typewriter_Condensed_l0">
      <path d="M7.8 -27.2 L7.8 -27.2 8.0 -30.4 8.0 -32.4 8.0 -33.05 Q8.0 -34.2 7.05 -34.2 L5.8 -34.0 4.45 -33.85 3.45 -33.95 2.25 -34.2 Q1.6 -34.2 1.1 -33.65 0.6 -33.1 0.6 -32.4 0.6 -30.8 2.25 -30.8 L2.8 -30.8 3.1 -30.8 Q4.35 -30.8 4.4 -29.05 L4.4 -26.35 4.4 -24.1 4.4 -22.6 4.4 -10.05 4.4 -7.8 4.15 -3.7 Q4.0 -3.0 3.15 -3.0 L2.7 -3.0 2.1 -3.0 Q0.6 -3.0 0.6 -1.3 0.6 0.4 2.2 0.4 L3.65 0.05 5.35 -0.15 7.6 0.05 9.7 0.4 Q11.4 0.4 11.4 -1.3 11.4 -2.0 11.0 -2.5 10.6 -3.0 10.05 -3.0 L9.45 -3.0 9.0 -3.0 Q8.15 -3.0 8.0 -3.75 7.8 -4.5 7.8 -7.8 L7.8 -23.7 7.8 -27.2" fill-rule="evenodd" stroke="none"/>
    </g>
    <g id="font_American_Typewriter_Condensed_i0">
      <path d="M6.2 -27.4 L6.2 -27.4 Q7.3 -27.4 8.05 -28.3 8.8 -29.25 8.8 -30.55 8.8 -31.8 8.05 -32.7 7.35 -33.6 6.3 -33.6 5.35 -33.6 4.6 -32.65 3.8 -31.65 3.8 -30.5 3.8 -29.15 4.5 -28.25 5.2 -27.4 6.2 -27.4 M8.2 -21.6 L8.2 -21.6 8.6 -23.0 8.6 -23.7 8.6 -24.35 Q8.6 -25.6 7.8 -25.6 L6.5 -25.3 5.15 -24.95 4.05 -25.2 2.85 -25.6 Q2.2 -25.6 1.7 -25.05 1.2 -24.5 1.2 -23.8 1.2 -22.2 2.7 -22.2 L2.95 -22.2 3.2 -22.2 3.55 -22.2 Q4.75 -22.2 4.75 -20.4 L4.8 -17.7 4.8 -15.45 4.8 -13.9 4.8 -7.9 4.65 -3.75 Q4.45 -3.0 3.65 -3.0 L3.2 -3.0 2.65 -3.0 Q1.2 -3.0 1.2 -1.3 1.2 0.4 2.85 0.4 L4.45 0.15 6.25 -0.15 8.25 0.15 10.2 0.4 Q11.8 0.4 11.8 -1.3 11.8 -3.0 10.45 -3.0 L9.85 -3.0 9.4 -3.0 Q8.55 -3.0 8.4 -3.75 8.2 -4.5 8.2 -7.9 L8.2 -10.15 8.2 -12.9 8.2 -16.25 8.2 -21.6" fill-rule="evenodd" stroke="none"/>
    </g>
    <g id="font_American_Typewriter_Condensed_z0">
      <path d="M3.15 -5.85 L3.15 -5.85 Q1.6 -3.85 1.6 -2.2 1.6 0.4 4.65 0.4 L11.0 0.0 13.4 0.0 15.9 0.2 16.75 0.4 17.4 0.4 Q19.4 0.4 19.4 -1.6 L19.35 -2.9 19.3 -4.2 19.4 -6.7 19.55 -9.2 Q19.55 -11.0 18.05 -11.0 16.3 -11.0 16.3 -8.5 L16.35 -7.45 16.45 -5.65 Q16.45 -4.0 15.15 -3.6 L12.35 -3.4 5.55 -3.4 19.05 -21.05 Q20.0 -22.25 20.0 -23.55 20.0 -25.6 17.4 -25.6 L14.05 -25.6 10.7 -25.6 9.25 -25.6 8.4 -25.6 5.85 -25.6 4.45 -25.6 Q2.6 -25.6 2.6 -23.85 L2.7 -22.45 2.8 -21.05 2.7 -19.2 2.6 -17.35 Q2.6 -15.6 4.3 -15.6 6.0 -15.6 6.0 -17.55 L6.0 -18.1 6.0 -18.75 6.0 -19.6 Q6.0 -21.4 7.1 -21.9 L9.85 -22.2 15.5 -22.2 3.15 -5.85" fill-rule="evenodd" stroke="none"/>
    </g>
    <g id="font_American_Typewriter_Condensed__1">
      <path d="M5.6 1.45 L5.6 1.45 Q5.6 3.3 4.4 5.7 L3.9 6.7 3.7 7.45 Q3.7 8.4 4.7 8.4 5.35 8.4 6.1 7.15 L6.75 5.9 Q8.4 2.75 8.4 -0.95 8.4 -6.0 5.25 -6.0 2.6 -6.0 2.6 -2.7 2.6 0.4 4.7 0.4 L5.45 0.4 5.6 1.45" fill-rule="evenodd" stroke="none"/>
    </g>
    <g id="font_American_Typewriter_Condensed_I0">
      <path d="M4.55 -3.25 L4.55 -3.25 3.6 -3.35 2.85 -3.4 Q1.2 -3.4 1.2 -1.65 1.2 -0.8 1.8 -0.2 2.35 0.4 3.15 0.4 L5.5 0.05 8.05 -0.35 10.2 -0.1 12.65 0.4 Q13.5 0.4 14.05 -0.2 14.6 -0.8 14.6 -1.65 14.6 -2.4 14.15 -2.9 13.65 -3.4 12.95 -3.4 L12.15 -3.35 11.25 -3.25 Q10.25 -3.25 10.05 -4.8 9.8 -6.3 9.8 -12.15 L9.8 -21.9 Q9.8 -27.85 10.05 -29.35 10.25 -30.85 11.25 -30.85 L12.2 -30.7 12.95 -30.6 Q14.6 -30.6 14.6 -32.35 14.6 -34.4 12.6 -34.4 L10.2 -34.1 7.8 -33.8 5.45 -34.1 3.15 -34.4 Q1.2 -34.4 1.2 -32.35 1.2 -30.6 2.85 -30.6 L3.7 -30.7 4.55 -30.85 Q5.5 -30.85 5.75 -29.35 L6.0 -21.9 6.0 -12.15 5.75 -4.8 Q5.5 -3.25 4.55 -3.25" fill-rule="evenodd" stroke="none"/>
    </g>
    <g id="font_American_Typewriter_Condensed_d0">
      <path d="M10.7 -21.8 L10.7 -21.8 Q13.3 -21.8 14.6 -19.1 15.6 -16.95 15.6 -12.35 15.6 -8.05 14.3 -5.6 12.95 -3.2 10.6 -3.2 8.25 -3.2 6.9 -5.6 5.6 -8.05 5.6 -12.45 L5.6 -12.85 Q5.6 -16.85 7.0 -19.3 8.45 -21.8 10.7 -21.8 M10.75 -25.6 L10.75 -25.6 Q6.8 -25.6 4.3 -21.85 1.8 -18.1 1.8 -12.15 1.8 -6.5 4.2 -2.95 6.6 0.6 10.35 0.6 13.15 0.6 15.6 -2.1 L15.6 -0.9 Q15.6 0.4 16.5 0.4 L17.5 0.15 18.65 -0.1 20.15 0.15 21.2 0.4 Q22.8 0.4 22.8 -1.35 22.8 -3.0 21.4 -3.0 L20.55 -3.0 20.35 -3.0 Q19.3 -3.0 19.0 -5.05 L19.0 -7.95 19.0 -19.85 19.0 -23.6 19.2 -27.25 19.2 -30.35 19.2 -32.9 19.2 -33.1 Q19.2 -34.2 18.4 -34.2 L17.3 -34.0 15.95 -33.9 14.8 -34.05 13.6 -34.2 Q12.95 -34.2 12.5 -33.65 12.0 -33.1 12.0 -32.4 12.0 -30.8 13.45 -30.8 L13.95 -30.8 14.25 -30.8 Q15.4 -30.8 15.4 -29.05 L15.5 -28.05 15.6 -26.45 15.6 -23.45 Q13.5 -25.6 10.75 -25.6" fill-rule="evenodd" stroke="none"/>
    </g>
    <g id="font_American_Typewriter_Condensed_n0">
      <path d="M8.2 -24.2 L8.2 -24.2 Q8.2 -25.4 7.4 -25.4 L6.35 -25.15 5.2 -25.0 3.9 -25.2 2.6 -25.4 Q1.95 -25.4 1.5 -24.85 1.0 -24.35 1.0 -23.6 1.0 -22.0 2.45 -22.0 L2.8 -22.0 3.3 -22.0 3.4 -22.0 3.5 -22.0 Q4.35 -22.0 4.6 -21.1 4.8 -20.25 4.8 -16.95 L4.8 -7.85 4.65 -3.75 Q4.45 -3.0 3.6 -3.0 L3.1 -3.0 2.5 -3.0 Q1.0 -3.0 1.0 -1.3 1.0 0.4 2.6 0.4 L4.35 0.05 6.3 -0.15 8.25 0.0 10.2 0.4 Q11.8 0.4 11.8 -1.3 11.8 -3.0 10.45 -3.0 L9.85 -3.0 9.4 -3.0 Q8.55 -3.0 8.4 -3.75 8.2 -4.45 8.2 -7.75 L8.2 -14.0 Q8.2 -17.75 9.65 -19.95 11.1 -22.2 13.6 -22.2 16.05 -22.2 17.15 -20.5 18.2 -18.8 18.2 -14.95 L18.2 -9.95 18.2 -7.75 18.0 -3.65 Q17.85 -3.0 17.1 -3.0 L16.6 -3.0 16.0 -3.0 Q15.45 -3.0 15.0 -2.5 14.6 -2.0 14.6 -1.3 14.6 0.4 16.25 0.4 L18.2 0.15 20.15 -0.15 21.95 0.15 23.65 0.4 Q25.2 0.4 25.2 -1.3 25.2 -3.0 23.85 -3.0 L23.25 -3.0 22.8 -3.0 Q21.95 -3.0 21.8 -3.75 21.6 -4.5 21.6 -7.8 L21.6 -15.15 Q21.6 -20.55 20.35 -22.65 18.5 -25.6 14.25 -25.6 10.45 -25.6 8.2 -23.05 L8.2 -24.2" fill-rule="evenodd" stroke="none"/>
    </g>
    <g id="font_American_Typewriter_Condensed__2">
      <path d="M5.9 -27.25 L5.9 -27.25 5.75 -26.25 Q5.25 -24.1 4.55 -23.05 L3.95 -22.05 3.7 -21.3 Q3.7 -20.4 4.7 -20.4 5.45 -20.4 6.15 -21.7 L6.75 -22.9 Q8.4 -26.25 8.4 -29.6 8.4 -34.6 5.25 -34.6 2.6 -34.6 2.6 -31.3 2.6 -29.95 3.25 -29.05 3.9 -28.2 4.85 -28.2 L5.7 -28.2 5.9 -27.25" fill-rule="evenodd" stroke="none"/>
    </g>
    <g id="font_American_Typewriter_Condensed_t0">
      <path d="M3.6 -25.95 L3.6 -25.95 Q3.55 -25.2 3.05 -25.2 L2.5 -25.4 1.95 -25.6 Q0.4 -25.6 0.4 -23.75 0.4 -21.8 1.95 -21.8 L2.25 -21.8 2.5 -21.8 3.1 -21.75 Q3.7 -21.75 3.7 -20.65 L3.7 -8.55 Q3.7 -4.8 4.15 -3.2 5.15 0.4 9.15 0.4 14.2 0.4 14.8 -6.05 L15.1 -9.3 Q15.1 -12.35 13.3 -12.35 12.1 -12.35 11.75 -11.2 11.6 -10.75 11.6 -9.1 L11.6 -8.6 Q11.6 -3.4 9.3 -3.4 7.55 -3.4 7.1 -6.15 L7.0 -10.2 7.0 -20.25 Q7.0 -21.25 7.15 -21.5 7.35 -21.8 7.95 -21.8 L9.75 -21.8 11.5 -21.8 Q13.6 -21.8 13.6 -23.75 13.6 -25.6 11.5 -25.6 L9.75 -25.3 8.1 -25.2 7.2 -25.4 Q7.0 -25.65 7.0 -26.55 L7.0 -30.7 Q7.0 -33.0 5.35 -33.0 3.7 -33.0 3.7 -30.7 L3.7 -26.6 3.6 -25.95" fill-rule="evenodd" stroke="none"/>
    </g>
    <g id="font_American_Typewriter_Condensed_w0">
      <path d="M7.7 -18.95 L7.7 -18.95 7.45 -20.85 Q7.45 -22.0 8.45 -22.0 L9.1 -22.0 Q10.6 -22.0 10.6 -23.75 10.6 -25.4 9.15 -25.4 L7.05 -25.15 5.0 -24.85 3.2 -25.1 1.45 -25.4 Q-0.2 -25.4 -0.2 -23.7 -0.2 -23.1 0.2 -22.55 0.65 -21.95 1.15 -22.0 L1.85 -22.0 2.0 -22.0 Q2.9 -22.0 3.3 -21.1 L3.8 -19.45 7.9 -2.2 Q8.55 0.6 10.45 0.6 12.45 0.6 13.0 -2.2 L16.25 -18.95 19.6 -2.65 Q20.3 0.6 22.35 0.6 24.5 0.6 25.05 -2.2 L27.85 -16.8 Q28.45 -19.9 29.0 -21.0 29.55 -22.05 30.5 -22.05 32.4 -22.05 32.4 -23.7 32.4 -25.4 31.0 -25.4 L29.15 -25.1 27.2 -24.8 25.2 -25.1 23.25 -25.4 Q21.8 -25.4 21.8 -23.65 21.8 -22.0 23.15 -22.0 L23.85 -22.0 24.0 -22.0 Q25.05 -22.0 25.05 -20.85 L24.8 -18.6 22.35 -4.45 18.75 -22.65 Q18.45 -24.25 17.9 -24.8 17.4 -25.4 16.25 -25.4 14.2 -25.4 13.75 -22.65 L10.6 -4.45 7.7 -18.95" fill-rule="evenodd" stroke="none"/>
    </g>
    <g id="font_American_Typewriter_Condensed_h0">
      <path d="M7.6 -32.9 L7.6 -32.9 Q7.6 -34.2 6.8 -34.2 L5.8 -34.05 4.4 -33.9 3.2 -34.05 2.05 -34.2 Q1.4 -34.2 0.9 -33.65 0.4 -33.1 0.4 -32.4 0.4 -30.8 2.05 -30.8 L2.6 -30.8 2.9 -30.8 Q4.15 -30.8 4.2 -29.05 L4.2 -26.35 4.2 -24.1 4.2 -22.6 4.2 -10.05 4.2 -7.8 3.95 -3.7 Q3.8 -3.0 2.95 -3.0 L2.5 -3.0 1.9 -3.0 Q0.4 -3.0 0.4 -1.3 0.4 0.4 2.1 0.4 L4.1 0.15 6.1 -0.15 7.9 0.0 9.75 0.4 Q11.4 0.4 11.4 -1.3 11.4 -3.0 9.95 -3.0 L9.35 -3.0 8.85 -3.0 Q8.0 -3.0 7.8 -3.75 7.6 -4.5 7.6 -7.85 L7.6 -10.05 7.6 -12.8 7.6 -13.5 Q7.6 -16.6 8.65 -19.2 9.8 -22.2 13.2 -22.2 17.8 -22.2 17.8 -15.35 L17.8 -7.85 17.65 -3.75 Q17.45 -3.0 16.65 -3.0 L16.15 -3.0 15.6 -3.0 Q14.2 -3.0 14.2 -1.3 14.2 0.4 15.8 0.4 L17.25 0.0 18.9 -0.2 21.5 0.15 23.2 0.4 Q24.8 0.4 24.8 -1.3 24.8 -3.0 23.45 -3.0 L22.85 -3.0 22.4 -3.0 Q21.55 -3.0 21.4 -3.75 21.2 -4.5 21.2 -7.8 L21.2 -16.05 Q21.2 -20.35 19.85 -22.4 17.9 -25.6 13.75 -25.6 10.35 -25.6 7.6 -22.75 L7.6 -32.8 7.6 -32.9" fill-rule="evenodd" stroke="none"/>
    </g>
    <g id="font_American_Typewriter_Condensed_s0">
      <path d="M10.15 -25.6 L10.15 -25.6 Q6.9 -25.6 4.75 -23.4 2.6 -21.25 2.6 -17.95 2.6 -14.55 4.95 -12.9 6.7 -11.7 10.5 -11.05 13.35 -10.55 14.5 -9.65 15.6 -8.75 15.6 -6.95 15.6 -5.25 14.4 -4.1 13.15 -3.0 11.25 -3.0 5.8 -3.0 5.6 -8.55 5.5 -10.6 3.9 -10.6 2.4 -10.6 2.4 -8.95 L2.5 -7.05 2.6 -5.15 2.55 -2.75 2.4 -1.15 Q2.4 0.8 4.15 0.8 5.8 0.8 5.8 -1.4 L5.8 -1.85 Q8.3 0.4 11.15 0.4 14.6 0.4 16.8 -1.8 19.0 -4.05 19.0 -7.45 19.0 -10.85 16.65 -12.65 15.15 -13.8 11.2 -14.6 8.3 -15.25 7.25 -16.05 6.2 -16.85 6.2 -18.55 6.2 -20.25 7.3 -21.3 8.4 -22.4 10.15 -22.4 12.15 -22.4 13.3 -21.15 14.4 -19.95 14.4 -17.8 14.4 -15.4 16.25 -15.4 17.8 -15.4 17.8 -17.1 L17.6 -18.65 17.4 -20.25 17.7 -23.0 17.8 -24.1 Q17.8 -26.0 16.2 -26.0 14.7 -26.0 14.7 -23.85 12.45 -25.6 10.15 -25.6" fill-rule="evenodd" stroke="none"/>
    </g>
    <g id="font_American_Typewriter_Condensed__3">
      <path d="M27.6 0.4 L27.6 0.4 Q28.75 0.4 29.5 -0.45 30.2 -1.3 30.2 -2.7 30.2 -4.05 29.5 -4.9 28.75 -5.8 27.6 -5.8 26.5 -5.8 25.75 -4.9 25.0 -4.05 25.0 -2.7 25.0 -1.3 25.75 -0.45 26.5 0.4 27.6 0.4 M16.4 0.4 L16.4 0.4 Q17.55 0.4 18.25 -0.45 19.0 -1.3 19.0 -2.7 19.0 -4.05 18.25 -4.9 17.55 -5.8 16.4 -5.8 15.3 -5.8 14.55 -4.9 13.8 -4.05 13.8 -2.7 13.8 -1.3 14.55 -0.45 15.3 0.4 16.4 0.4 M5.45 0.4 L5.45 0.4 Q6.55 0.4 7.3 -0.45 8.0 -1.3 8.0 -2.7 8.0 -4.05 7.3 -4.9 6.55 -5.8 5.45 -5.8 4.3 -5.8 3.55 -4.9 2.8 -4.05 2.8 -2.7 2.8 -1.3 3.55 -0.45 4.3 0.4 5.45 0.4" fill-rule="evenodd" stroke="none"/>
    </g>
  </defs>
</svg>
