<?xml version="1.0" encoding="UTF-8" standalone="no"?>
<svg xmlns:xlink="http://www.w3.org/1999/xlink" height="14.65px" width="69.7px" xmlns="http://www.w3.org/2000/svg">
  <g transform="matrix(1.0, 0.0, 0.0, 1.0, -60.9, -3.2)">
    <g transform="matrix(1.0, 0.0, 0.0, 1.0, 0.0, 0.0)">
      <use fill="#e5e6c7" height="14.65" transform="matrix(0.3906, 0.0, 0.0, 0.3906, 60.0, 17.0)" width="69.7" xlink:href="#font_SignPainter-HouseInformal_F0"/>
      <use fill="#e5e6c7" height="14.65" transform="matrix(0.3906, 0.0, 0.0, 0.3906, 69.7, 17.0)" width="69.7" xlink:href="#font_SignPainter-HouseInformal_l0"/>
      <use fill="#e5e6c7" height="14.65" transform="matrix(0.3906, 0.0, 0.0, 0.3906, 79.1, 17.0)" width="69.7" xlink:href="#font_SignPainter-HouseInformal_u0"/>
      <use fill="#e5e6c7" height="14.65" transform="matrix(0.3906, 0.0, 0.0, 0.3906, 91.85, 17.0)" width="69.7" xlink:href="#font_SignPainter-HouseInformal_n0"/>
      <use fill="#e5e6c7" height="14.65" transform="matrix(0.3906, 0.0, 0.0, 0.3906, 104.15, 17.0)" width="69.7" xlink:href="#font_SignPainter-HouseInformal_k0"/>
      <use fill="#e5e6c7" height="14.65" transform="matrix(0.3906, 0.0, 0.0, 0.3906, 116.5, 17.0)" width="69.7" xlink:href="#font_SignPainter-HouseInformal_y0"/>
    </g>
  </g>
  <defs>
    <g id="font_SignPainter-HouseInformal_F0">
      <path d="M11.35 -16.3 L11.35 -16.3 Q11.55 -21.7 11.9 -25.95 L18.2 -26.5 22.95 -26.9 Q27.45 -27.55 27.4 -29.55 27.0 -30.75 24.85 -30.55 L16.1 -30.3 6.05 -30.2 Q3.7 -30.25 2.9 -29.5 2.15 -28.8 2.2 -27.15 L2.35 -18.85 2.7 -8.75 3.15 -0.5 Q3.75 2.0 6.95 0.8 8.35 0.35 9.55 -0.45 10.7 -1.25 10.85 -3.25 L11.15 -12.65 18.7 -13.45 Q22.65 -13.6 24.3 -15.75 25.25 -17.65 22.65 -17.35 L17.7 -16.85 11.35 -16.3 11.35 -16.3" fill-rule="evenodd" stroke="none"/>
    </g>
    <g id="font_SignPainter-HouseInformal_l0">
      <path d="M20.9 0.7 L20.9 0.7 Q24.05 0.45 26.0 -1.3 27.45 -3.15 24.75 -3.25 L17.5 -2.7 12.8 -2.5 Q10.45 -2.25 10.6 -4.2 10.6 -9.45 11.05 -16.7 L11.8 -29.25 Q12.15 -33.2 7.15 -31.5 5.05 -30.85 3.8 -29.6 2.5 -28.3 2.3 -25.6 2.05 -20.55 2.1 -13.2 2.2 -5.8 2.7 -0.7 2.95 1.0 3.8 1.5 4.65 1.95 6.0 1.9 L13.75 1.45 20.9 0.7 20.9 0.7" fill-rule="evenodd" stroke="none"/>
    </g>
    <g id="font_SignPainter-HouseInformal_u0">
      <path d="M25.15 -8.65 L25.15 -8.65 25.4 -0.7 Q25.6 2.65 29.4 1.15 31.55 0.4 32.4 -0.8 33.3 -2.0 33.3 -4.3 L33.6 -16.0 33.85 -28.7 Q34.15 -32.8 29.4 -30.95 24.9 -29.75 24.75 -24.6 L24.9 -18.05 Q23.0 -9.15 18.8 -5.7 14.65 -2.2 12.0 -3.65 10.3 -4.85 10.0 -9.0 9.7 -13.1 10.15 -18.4 10.65 -23.75 11.4 -28.5 11.9 -31.25 9.55 -30.95 7.55 -30.7 5.55 -29.55 3.55 -28.4 2.75 -25.65 2.25 -23.65 1.75 -19.7 1.2 -15.75 1.35 -11.35 1.45 -6.95 2.9 -3.5 4.65 0.75 11.3 0.95 13.75 1.05 17.55 -0.9 21.4 -2.9 25.15 -8.65 L25.15 -8.65" fill-rule="evenodd" stroke="none"/>
    </g>
    <g id="font_SignPainter-HouseInformal_n0">
      <path d="M6.7 -18.6 L6.7 -18.6 Q9.0 -9.3 12.2 -5.2 15.35 -1.05 18.25 -0.1 21.2 0.9 22.65 0.75 L25.95 0.2 Q27.25 -0.4 29.2 -1.95 31.55 -3.8 31.75 -5.65 32.0 -7.55 31.85 -10.45 L31.9 -16.0 32.15 -22.45 32.4 -27.45 Q32.35 -29.6 30.95 -30.95 27.7 -33.45 27.25 -29.8 L27.3 -17.65 27.65 -4.95 Q27.8 -3.75 26.35 -3.6 22.45 -3.45 18.8 -9.35 15.2 -15.25 13.15 -28.55 12.75 -30.7 10.95 -30.95 9.1 -31.2 6.3 -30.3 3.65 -29.45 2.9 -28.35 2.15 -27.2 2.3 -25.6 2.55 -11.95 2.4 0.45 2.8 4.55 5.7 2.2 8.0 -0.35 7.3 -5.9 6.9 -10.85 6.7 -18.6 L6.7 -18.6" fill-rule="evenodd" stroke="none"/>
    </g>
    <g id="font_SignPainter-HouseInformal_k0">
      <path d="M11.1 -15.7 L11.1 -15.7 11.5 -29.25 Q11.75 -33.15 6.75 -31.4 4.7 -30.8 3.35 -29.5 2.0 -28.2 2.05 -25.5 L2.25 -17.7 2.6 -8.25 2.95 -0.1 Q3.1 3.25 6.9 1.7 9.05 1.0 9.9 -0.2 10.75 -1.4 10.75 -3.65 L10.85 -5.95 22.75 -4.4 Q25.45 -3.95 28.45 -4.3 31.45 -4.7 33.2 -6.6 35.8 -9.5 32.0 -10.2 L23.85 -11.55 13.9 -13.3 28.0 -23.9 Q33.05 -27.2 34.1 -30.6 34.45 -32.45 33.75 -33.05 33.1 -33.65 31.35 -32.35 L21.7 -24.55 11.1 -15.7 11.1 -15.7" fill-rule="evenodd" stroke="none"/>
    </g>
    <g id="font_SignPainter-HouseInformal_y0">
      <path d="M22.2 -12.7 L22.2 -12.7 31.8 -24.3 Q35.95 -28.7 35.95 -32.05 35.6 -36.05 32.7 -33.1 29.8 -29.6 26.35 -24.75 L19.35 -15.1 Q12.55 -23.2 6.7 -30.65 4.4 -33.65 2.45 -30.9 -1.15 -26.55 2.45 -21.85 L7.35 -16.0 13.75 -8.9 14.15 -0.3 Q14.35 3.05 18.15 1.45 20.25 0.75 21.15 -0.4 22.0 -1.55 22.0 -3.9 21.95 -7.5 22.2 -12.7 L22.2 -12.7" fill-rule="evenodd" stroke="none"/>
    </g>
  </defs>
</svg>
