<?xml version="1.0" encoding="UTF-8" standalone="no"?>
<svg xmlns:xlink="http://www.w3.org/1999/xlink" height="13.85px" width="130.9px" xmlns="http://www.w3.org/2000/svg">
  <g transform="matrix(1.0, 0.0, 0.0, 1.0, -30.15, -4.0)">
    <g transform="matrix(1.0, 0.0, 0.0, 1.0, 0.0, 0.0)">
      <use fill="#e5e6c7" height="13.85" transform="matrix(0.3906, 0.0, 0.0, 0.3906, 29.0, 17.0)" width="130.9" xlink:href="#font_SignPainter-HouseInformal_H0"/>
      <use fill="#e5e6c7" height="13.85" transform="matrix(0.3906, 0.0, 0.0, 0.3906, 42.55, 17.0)" width="130.9" xlink:href="#font_SignPainter-HouseInformal_e0"/>
      <use fill="#e5e6c7" height="13.85" transform="matrix(0.3906, 0.0, 0.0, 0.3906, 52.65, 17.0)" width="130.9" xlink:href="#font_SignPainter-HouseInformal_a0"/>
      <use fill="#e5e6c7" height="13.85" transform="matrix(0.3906, 0.0, 0.0, 0.3906, 63.1, 17.0)" width="130.9" xlink:href="#font_SignPainter-HouseInformal_d0"/>
      <use fill="#e5e6c7" height="13.85" transform="matrix(0.3906, 0.0, 0.0, 0.3906, 85.95, 17.0)" width="130.9" xlink:href="#font_SignPainter-HouseInformal_H0"/>
      <use fill="#e5e6c7" height="13.85" transform="matrix(0.3906, 0.0, 0.0, 0.3906, 99.5, 17.0)" width="130.9" xlink:href="#font_SignPainter-HouseInformal_u0"/>
      <use fill="#e5e6c7" height="13.85" transform="matrix(0.3906, 0.0, 0.0, 0.3906, 112.25, 17.0)" width="130.9" xlink:href="#font_SignPainter-HouseInformal_n0"/>
      <use fill="#e5e6c7" height="13.85" transform="matrix(0.3906, 0.0, 0.0, 0.3906, 124.55, 17.0)" width="130.9" xlink:href="#font_SignPainter-HouseInformal_t0"/>
      <use fill="#e5e6c7" height="13.85" transform="matrix(0.3906, 0.0, 0.0, 0.3906, 135.75, 17.0)" width="130.9" xlink:href="#font_SignPainter-HouseInformal_e0"/>
      <use fill="#e5e6c7" height="13.85" transform="matrix(0.3906, 0.0, 0.0, 0.3906, 145.85, 17.0)" width="130.9" xlink:href="#font_SignPainter-HouseInformal_r0"/>
    </g>
  </g>
  <defs>
    <g id="font_SignPainter-HouseInformal_H0">
      <path d="M11.55 -7.35 L11.55 -7.35 27.0 -8.8 Q27.15 -3.55 27.45 0.1 27.6 3.25 31.45 1.5 33.2 0.7 34.15 -0.4 35.1 -1.5 35.2 -4.1 L35.5 -16.3 35.9 -29.85 Q35.8 -33.45 31.5 -31.7 29.4 -31.0 28.0 -29.4 26.65 -27.8 26.6 -24.6 L26.65 -19.9 26.9 -12.75 11.55 -11.65 11.55 -21.3 11.5 -30.1 Q11.2 -33.65 6.9 -31.75 4.75 -31.0 3.4 -29.9 2.0 -28.8 2.0 -26.15 L2.3 -19.2 3.0 -8.95 3.75 -0.1 Q3.95 2.85 7.8 1.2 9.7 0.45 10.6 -0.8 11.55 -2.0 11.55 -4.3 L11.55 -7.35 11.55 -7.35" fill-rule="evenodd" stroke="none"/>
    </g>
    <g id="font_SignPainter-HouseInformal_e0">
      <path d="M11.1 -13.0 L11.1 -13.0 11.4 -19.7 11.85 -25.95 18.4 -26.5 23.4 -26.9 Q27.9 -27.55 27.85 -29.55 27.45 -30.75 25.35 -30.55 L16.25 -30.3 5.95 -30.2 Q3.6 -30.25 2.8 -29.5 2.05 -28.8 2.1 -27.15 L2.2 -18.95 2.5 -9.85 Q2.7 -5.5 3.0 -3.2 3.5 -0.2 5.65 0.65 7.75 1.5 10.7 1.3 L18.15 0.6 24.7 -0.65 Q26.9 -1.15 27.7 -2.85 28.25 -4.3 26.2 -4.1 L19.0 -3.1 13.85 -2.7 Q11.25 -2.35 11.1 -5.0 11.0 -6.45 11.05 -9.25 L15.5 -9.8 19.8 -10.25 Q23.7 -10.4 25.35 -12.55 26.3 -14.4 23.7 -14.1 L18.1 -13.55 11.1 -13.0 11.1 -13.0" fill-rule="evenodd" stroke="none"/>
    </g>
    <g id="font_SignPainter-HouseInformal_a0">
      <path d="M9.25 -9.05 L9.25 -9.05 12.7 -16.85 16.05 -23.95 21.15 -10.7 9.25 -9.05 9.25 -9.05 M22.3 -30.15 L22.3 -30.15 Q21.55 -32.1 19.25 -31.35 L15.55 -30.1 Q14.0 -29.4 13.25 -27.9 L6.1 -11.5 1.1 -0.55 Q0.15 1.65 0.95 2.2 1.8 2.8 3.1 2.2 5.3 1.4 6.95 -3.35 L7.6 -5.15 14.85 -6.4 22.3 -7.45 25.4 1.1 Q26.15 3.0 28.55 1.7 30.45 0.85 31.6 -0.8 32.55 -1.95 31.7 -4.25 L27.3 -16.9 22.3 -30.15 22.3 -30.15" fill-rule="evenodd" stroke="none"/>
    </g>
    <g id="font_SignPainter-HouseInformal_d0">
      <path d="M13.35 -21.95 L13.35 -21.95 Q19.95 -20.35 25.25 -18.05 30.5 -15.75 30.8 -12.95 30.4 -9.55 24.75 -6.55 19.15 -3.6 13.45 -2.75 13.25 -10.95 13.35 -21.95 L13.35 -21.95 M4.25 -23.9 L4.25 -23.9 4.7 -12.15 Q4.95 -6.8 5.35 -1.7 5.4 -0.05 6.5 0.55 7.65 1.2 10.6 1.1 17.0 0.85 23.5 -1.5 30.05 -3.9 34.5 -7.6 38.95 -11.3 39.1 -15.6 38.65 -20.75 32.55 -24.05 26.4 -27.4 19.3 -29.1 12.2 -30.8 8.85 -31.05 4.6 -31.45 3.2 -29.95 1.6 -28.55 0.6 -26.7 -0.55 -24.95 1.95 -24.3 L4.25 -23.9 4.25 -23.9" fill-rule="evenodd" stroke="none"/>
    </g>
    <g id="font_SignPainter-HouseInformal_u0">
      <path d="M25.15 -8.65 L25.15 -8.65 25.4 -0.7 Q25.6 2.65 29.4 1.15 31.55 0.4 32.4 -0.8 33.3 -2.0 33.3 -4.3 L33.6 -16.0 33.85 -28.7 Q34.15 -32.8 29.4 -30.95 24.9 -29.75 24.75 -24.6 L24.9 -18.05 Q23.0 -9.15 18.8 -5.7 14.65 -2.2 12.0 -3.65 10.3 -4.85 10.0 -9.0 9.7 -13.1 10.15 -18.4 10.65 -23.75 11.4 -28.5 11.9 -31.25 9.55 -30.95 7.55 -30.7 5.55 -29.55 3.55 -28.4 2.75 -25.65 2.25 -23.65 1.75 -19.7 1.2 -15.75 1.35 -11.35 1.45 -6.95 2.9 -3.5 4.65 0.75 11.3 0.95 13.75 1.05 17.55 -0.9 21.4 -2.9 25.15 -8.65 L25.15 -8.65" fill-rule="evenodd" stroke="none"/>
    </g>
    <g id="font_SignPainter-HouseInformal_n0">
      <path d="M6.7 -18.6 L6.7 -18.6 Q9.0 -9.3 12.2 -5.2 15.35 -1.05 18.25 -0.1 21.2 0.9 22.65 0.75 L25.95 0.2 Q27.25 -0.4 29.2 -1.95 31.55 -3.8 31.75 -5.65 32.0 -7.55 31.85 -10.45 L31.9 -16.0 32.15 -22.45 32.4 -27.45 Q32.35 -29.6 30.95 -30.95 27.7 -33.45 27.25 -29.8 L27.3 -17.65 27.65 -4.95 Q27.8 -3.75 26.35 -3.6 22.45 -3.45 18.8 -9.35 15.2 -15.25 13.15 -28.55 12.75 -30.7 10.95 -30.95 9.1 -31.2 6.3 -30.3 3.65 -29.45 2.9 -28.35 2.15 -27.2 2.3 -25.6 2.55 -11.95 2.4 0.45 2.8 4.55 5.7 2.2 8.0 -0.35 7.3 -5.9 6.9 -10.85 6.7 -18.6 L6.7 -18.6" fill-rule="evenodd" stroke="none"/>
    </g>
    <g id="font_SignPainter-HouseInformal_t0">
      <path d="M32.6 -28.9 L32.6 -28.9 Q34.05 -30.6 31.35 -30.7 L18.35 -30.7 Q11.0 -30.7 5.25 -30.35 2.3 -30.3 0.95 -28.45 -0.6 -25.95 2.65 -26.15 L11.65 -26.5 11.85 -18.5 12.05 -9.0 12.3 -1.05 Q12.45 2.3 16.45 0.65 18.45 -0.05 19.4 -1.25 20.35 -2.4 20.4 -4.7 L20.7 -15.15 20.95 -26.9 27.85 -27.35 Q31.5 -27.45 32.6 -28.9 L32.6 -28.9" fill-rule="evenodd" stroke="none"/>
    </g>
    <g id="font_SignPainter-HouseInformal_r0">
      <path d="M13.45 -12.1 L13.45 -12.1 13.65 -22.9 23.8 -20.95 Q28.35 -19.9 28.8 -18.8 28.55 -17.3 23.45 -15.35 18.35 -13.35 13.45 -12.1 L13.45 -12.1 M4.45 -24.35 L4.45 -24.35 5.1 -12.25 5.7 -0.8 Q5.8 0.95 6.85 1.15 7.9 1.35 9.75 0.75 11.7 0.15 12.6 -0.95 13.45 -2.05 13.4 -4.35 L13.4 -7.8 26.35 -4.95 Q31.5 -3.55 35.0 -4.45 38.65 -5.85 34.75 -7.1 L19.05 -10.1 Q26.05 -12.25 31.8 -15.3 37.55 -18.4 37.85 -21.3 37.5 -24.3 32.2 -26.35 26.9 -28.45 20.4 -29.6 L10.0 -31.05 6.15 -31.1 3.95 -30.45 Q2.05 -29.25 1.05 -27.75 0.4 -27.05 0.4 -26.1 0.4 -25.15 3.2 -24.55 L4.45 -24.35 4.45 -24.35" fill-rule="evenodd" stroke="none"/>
    </g>
  </defs>
</svg>
