<?xml version="1.0" encoding="UTF-8" standalone="no"?>
<svg xmlns:xlink="http://www.w3.org/1999/xlink" height="13.45px" width="117.55px" xmlns="http://www.w3.org/2000/svg">
  <g transform="matrix(1.0, 0.0, 0.0, 1.0, -36.75, -4.15)">
    <g transform="matrix(1.0, 0.0, 0.0, 1.0, 0.0, 0.0)">
      <use fill="#e5e6c7" height="13.45" transform="matrix(0.3906, 0.0, 0.0, 0.3906, 36.0, 17.0)" width="117.55" xlink:href="#font_SignPainter-HouseInformal_L0"/>
      <use fill="#e5e6c7" height="13.45" transform="matrix(0.3906, 0.0, 0.0, 0.3906, 45.4, 17.0)" width="117.55" xlink:href="#font_SignPainter-HouseInformal_e0"/>
      <use fill="#e5e6c7" height="13.45" transform="matrix(0.3906, 0.0, 0.0, 0.3906, 55.1, 17.0)" width="117.55" xlink:href="#font_SignPainter-HouseInformal_g0"/>
      <use fill="#e5e6c7" height="13.45" transform="matrix(0.3906, 0.0, 0.0, 0.3906, 68.1, 17.0)" width="117.55" xlink:href="#font_SignPainter-HouseInformal_a0"/>
      <use fill="#e5e6c7" height="13.45" transform="matrix(0.3906, 0.0, 0.0, 0.3906, 79.7, 17.0)" width="117.55" xlink:href="#font_SignPainter-HouseInformal_l0"/>
      <use fill="#e5e6c7" height="13.45" transform="matrix(0.3906, 0.0, 0.0, 0.3906, 97.9, 17.0)" width="117.55" xlink:href="#font_SignPainter-HouseInformal_E0"/>
      <use fill="#e5e6c7" height="13.45" transform="matrix(0.3906, 0.0, 0.0, 0.3906, 108.0, 17.0)" width="117.55" xlink:href="#font_SignPainter-HouseInformal_a0"/>
      <use fill="#e5e6c7" height="13.45" transform="matrix(0.3906, 0.0, 0.0, 0.3906, 119.6, 17.0)" width="117.55" xlink:href="#font_SignPainter-HouseInformal_g0"/>
      <use fill="#e5e6c7" height="13.45" transform="matrix(0.3906, 0.0, 0.0, 0.3906, 134.15, 17.0)" width="117.55" xlink:href="#font_SignPainter-HouseInformal_l0"/>
      <use fill="#e5e6c7" height="13.45" transform="matrix(0.3906, 0.0, 0.0, 0.3906, 143.5, 17.0)" width="117.55" xlink:href="#font_SignPainter-HouseInformal_e0"/>
    </g>
  </g>
  <defs>
    <g id="font_SignPainter-HouseInformal_L0">
      <path d="M20.9 0.7 L20.9 0.7 Q24.05 0.45 26.0 -1.3 27.45 -3.15 24.75 -3.25 L17.5 -2.7 12.8 -2.5 Q10.45 -2.25 10.6 -4.2 10.6 -9.45 11.05 -16.7 L11.8 -29.25 Q12.15 -33.2 7.15 -31.5 5.05 -30.85 3.8 -29.6 2.5 -28.3 2.3 -25.6 2.05 -20.55 2.1 -13.2 2.2 -5.8 2.7 -0.7 2.95 1.0 3.8 1.5 4.65 1.95 6.0 1.9 L13.75 1.45 20.9 0.7 20.9 0.7" fill-rule="evenodd" stroke="none"/>
    </g>
    <g id="font_SignPainter-HouseInformal_e0">
      <path d="M11.1 -13.0 L11.1 -13.0 11.4 -19.7 11.85 -25.95 18.4 -26.5 23.4 -26.9 Q27.9 -27.55 27.85 -29.55 27.45 -30.75 25.35 -30.55 L16.25 -30.3 5.95 -30.2 Q3.6 -30.25 2.8 -29.5 2.05 -28.8 2.1 -27.15 L2.2 -18.95 2.5 -9.85 Q2.7 -5.5 3.0 -3.2 3.5 -0.2 5.65 0.65 7.75 1.5 10.7 1.3 L18.15 0.6 24.7 -0.65 Q26.9 -1.15 27.7 -2.85 28.25 -4.3 26.2 -4.1 L19.0 -3.1 13.85 -2.7 Q11.25 -2.35 11.1 -5.0 11.0 -6.45 11.05 -9.25 L15.5 -9.8 19.8 -10.25 Q23.7 -10.4 25.35 -12.55 26.3 -14.4 23.7 -14.1 L18.1 -13.55 11.1 -13.0 11.1 -13.0" fill-rule="evenodd" stroke="none"/>
    </g>
    <g id="font_SignPainter-HouseInformal_g0">
      <path d="M38.65 -17.2 L38.65 -17.2 37.0 -18.65 34.8 -18.9 Q31.1 -18.65 26.75 -17.6 22.4 -16.5 19.6 -15.35 17.0 -14.45 15.8 -12.6 14.85 -11.0 14.55 -9.0 14.3 -6.8 16.55 -7.7 L23.95 -10.05 32.05 -11.85 Q31.15 -8.4 27.9 -5.85 24.65 -3.35 20.15 -3.05 15.65 -2.95 13.2 -5.45 10.7 -7.95 10.5 -12.2 10.45 -19.8 14.05 -23.3 17.65 -26.8 20.9 -26.75 23.95 -26.8 26.35 -23.45 29.65 -20.05 33.35 -20.55 37.4 -20.85 36.0 -23.55 34.8 -26.45 31.35 -28.85 27.9 -31.25 23.15 -31.25 20.15 -31.1 17.7 -30.0 L12.5 -27.55 Q8.05 -25.7 4.4 -22.35 0.75 -18.95 1.05 -11.7 1.5 -6.1 5.7 -2.5 9.95 1.05 17.45 0.9 24.45 0.5 31.0 -3.6 37.5 -7.65 39.75 -13.8 40.3 -15.35 38.65 -17.2 L38.65 -17.2" fill-rule="evenodd" stroke="none"/>
    </g>
    <g id="font_SignPainter-HouseInformal_a0">
      <path d="M9.25 -9.05 L9.25 -9.05 12.7 -16.85 16.05 -23.95 21.15 -10.7 9.25 -9.05 9.25 -9.05 M22.3 -30.15 L22.3 -30.15 Q21.55 -32.1 19.25 -31.35 L15.55 -30.1 Q14.0 -29.4 13.25 -27.9 L6.1 -11.5 1.1 -0.55 Q0.15 1.65 0.95 2.2 1.8 2.8 3.1 2.2 5.3 1.4 6.95 -3.35 L7.6 -5.15 14.85 -6.4 22.3 -7.45 25.4 1.1 Q26.15 3.0 28.55 1.7 30.45 0.85 31.6 -0.8 32.55 -1.95 31.7 -4.25 L27.3 -16.9 22.3 -30.15 22.3 -30.15" fill-rule="evenodd" stroke="none"/>
    </g>
    <g id="font_SignPainter-HouseInformal_l0">
      <path d="M20.9 0.7 L20.9 0.7 Q24.05 0.45 26.0 -1.3 27.45 -3.15 24.75 -3.25 L17.5 -2.7 12.8 -2.5 Q10.45 -2.25 10.6 -4.2 10.6 -9.45 11.05 -16.7 L11.8 -29.25 Q12.15 -33.2 7.15 -31.5 5.05 -30.85 3.8 -29.6 2.5 -28.3 2.3 -25.6 2.05 -20.55 2.1 -13.2 2.2 -5.8 2.7 -0.7 2.95 1.0 3.8 1.5 4.65 1.95 6.0 1.9 L13.75 1.45 20.9 0.7 20.9 0.7" fill-rule="evenodd" stroke="none"/>
    </g>
    <g id="font_SignPainter-HouseInformal_E0">
      <path d="M11.1 -13.0 L11.1 -13.0 11.4 -19.7 11.85 -25.95 18.4 -26.5 23.4 -26.9 Q27.9 -27.55 27.85 -29.55 27.45 -30.75 25.35 -30.55 L16.25 -30.3 5.95 -30.2 Q3.6 -30.25 2.8 -29.5 2.05 -28.8 2.1 -27.15 L2.2 -18.95 2.5 -9.85 Q2.7 -5.5 3.0 -3.2 3.5 -0.2 5.65 0.65 7.75 1.5 10.7 1.3 L18.15 0.6 24.7 -0.65 Q26.9 -1.15 27.7 -2.85 28.25 -4.3 26.2 -4.1 L19.0 -3.1 13.85 -2.7 Q11.25 -2.35 11.1 -5.0 11.0 -6.45 11.05 -9.25 L15.5 -9.8 19.8 -10.25 Q23.7 -10.4 25.35 -12.55 26.3 -14.4 23.7 -14.1 L18.1 -13.55 11.1 -13.0 11.1 -13.0" fill-rule="evenodd" stroke="none"/>
    </g>
  </defs>
</svg>
