<?xml version="1.0" encoding="UTF-8" standalone="no"?>
<svg xmlns:xlink="http://www.w3.org/1999/xlink" height="14.2px" width="117.3px" xmlns="http://www.w3.org/2000/svg">
  <g transform="matrix(1.0, 0.0, 0.0, 1.0, -37.0, -3.65)">
    <g transform="matrix(1.0, 0.0, 0.0, 1.0, 0.0, 0.0)">
      <use fill="#e5e6c7" height="14.2" transform="matrix(0.3906, 0.0, 0.0, 0.3906, 36.0, 17.0)" width="117.3" xlink:href="#font_SignPainter-HouseInformal_L0"/>
      <use fill="#e5e6c7" height="14.2" transform="matrix(0.3906, 0.0, 0.0, 0.3906, 44.4, 17.0)" width="117.3" xlink:href="#font_SignPainter-HouseInformal_o0"/>
      <use fill="#e5e6c7" height="14.2" transform="matrix(0.3906, 0.0, 0.0, 0.3906, 57.35, 17.0)" width="117.3" xlink:href="#font_SignPainter-HouseInformal_a0"/>
      <use fill="#e5e6c7" height="14.2" transform="matrix(0.3906, 0.0, 0.0, 0.3906, 68.95, 17.0)" width="117.3" xlink:href="#font_SignPainter-HouseInformal_n0"/>
      <use fill="#e5e6c7" height="14.2" transform="matrix(0.3906, 0.0, 0.0, 0.3906, 89.9, 17.0)" width="117.3" xlink:href="#font_SignPainter-HouseInformal_S0"/>
      <use fill="#e5e6c7" height="14.2" transform="matrix(0.3906, 0.0, 0.0, 0.3906, 103.0, 17.0)" width="117.3" xlink:href="#font_SignPainter-HouseInformal_h0"/>
      <use fill="#e5e6c7" height="14.2" transform="matrix(0.3906, 0.0, 0.0, 0.3906, 116.15, 17.0)" width="117.3" xlink:href="#font_SignPainter-HouseInformal_a0"/>
      <use fill="#e5e6c7" height="14.2" transform="matrix(0.3906, 0.0, 0.0, 0.3906, 126.9, 17.0)" width="117.3" xlink:href="#font_SignPainter-HouseInformal_r0"/>
      <use fill="#e5e6c7" height="14.2" transform="matrix(0.3906, 0.0, 0.0, 0.3906, 140.7, 17.0)" width="117.3" xlink:href="#font_SignPainter-HouseInformal_k0"/>
    </g>
  </g>
  <defs>
    <g id="font_SignPainter-HouseInformal_L0">
      <path d="M20.9 0.7 L20.9 0.7 Q24.05 0.45 26.0 -1.3 27.45 -3.15 24.75 -3.25 L17.5 -2.7 12.8 -2.5 Q10.45 -2.25 10.6 -4.2 10.6 -9.45 11.05 -16.7 L11.8 -29.25 Q12.15 -33.2 7.15 -31.5 5.05 -30.85 3.8 -29.6 2.5 -28.3 2.3 -25.6 2.05 -20.55 2.1 -13.2 2.2 -5.8 2.7 -0.7 2.95 1.0 3.8 1.5 4.65 1.95 6.0 1.9 L13.75 1.45 20.9 0.7 20.9 0.7" fill-rule="evenodd" stroke="none"/>
    </g>
    <g id="font_SignPainter-HouseInformal_o0">
      <path d="M21.85 -27.15 L21.85 -27.15 Q25.95 -27.05 28.45 -23.8 30.95 -20.55 31.05 -15.95 31.1 -11.3 28.4 -7.6 25.75 -3.95 19.9 -3.35 16.3 -3.1 13.75 -5.4 11.25 -7.75 11.05 -13.25 11.15 -19.45 14.3 -23.25 17.5 -27.05 21.85 -27.15 L21.85 -27.15 M11.05 -27.4 L11.05 -27.4 Q5.4 -25.4 3.1 -21.25 0.8 -17.05 1.05 -12.9 1.5 -5.85 5.95 -2.75 10.35 0.3 16.4 0.3 20.55 0.45 26.6 -1.75 32.6 -4.0 37.2 -9.45 40.25 -13.4 40.1 -17.85 39.9 -22.3 35.5 -26.65 32.7 -29.2 29.15 -30.1 L22.45 -30.9 Q19.1 -30.85 16.75 -29.7 14.35 -28.55 11.05 -27.4 L11.05 -27.4" fill-rule="evenodd" stroke="none"/>
    </g>
    <g id="font_SignPainter-HouseInformal_a0">
      <path d="M9.25 -9.05 L9.25 -9.05 12.7 -16.85 16.05 -23.95 21.15 -10.7 9.25 -9.05 9.25 -9.05 M22.3 -30.15 L22.3 -30.15 Q21.55 -32.1 19.25 -31.35 L15.55 -30.1 Q14.0 -29.4 13.25 -27.9 L6.1 -11.5 1.1 -0.55 Q0.15 1.65 0.95 2.2 1.8 2.8 3.1 2.2 5.3 1.4 6.95 -3.35 L7.6 -5.15 14.85 -6.4 22.3 -7.45 25.4 1.1 Q26.15 3.0 28.55 1.7 30.45 0.85 31.6 -0.8 32.55 -1.95 31.7 -4.25 L27.3 -16.9 22.3 -30.15 22.3 -30.15" fill-rule="evenodd" stroke="none"/>
    </g>
    <g id="font_SignPainter-HouseInformal_n0">
      <path d="M6.7 -18.6 L6.7 -18.6 Q9.0 -9.3 12.2 -5.2 15.35 -1.05 18.25 -0.1 21.2 0.9 22.65 0.75 L25.95 0.2 Q27.25 -0.4 29.2 -1.95 31.55 -3.8 31.75 -5.65 32.0 -7.55 31.85 -10.45 L31.9 -16.0 32.15 -22.45 32.4 -27.45 Q32.35 -29.6 30.95 -30.95 27.7 -33.45 27.25 -29.8 L27.3 -17.65 27.65 -4.95 Q27.8 -3.75 26.35 -3.6 22.45 -3.45 18.8 -9.35 15.2 -15.25 13.15 -28.55 12.75 -30.7 10.95 -30.95 9.1 -31.2 6.3 -30.3 3.65 -29.45 2.9 -28.35 2.15 -27.2 2.3 -25.6 2.55 -11.95 2.4 0.45 2.8 4.55 5.7 2.2 8.0 -0.35 7.3 -5.9 6.9 -10.85 6.7 -18.6 L6.7 -18.6" fill-rule="evenodd" stroke="none"/>
    </g>
    <g id="font_SignPainter-HouseInformal_S0">
      <path d="M29.2 -7.15 L29.2 -7.15 Q29.1 -6.3 25.5 -5.0 21.9 -3.7 16.45 -3.45 12.05 -3.45 8.9 -4.45 5.7 -5.45 3.8 -6.65 1.2 -8.4 1.05 -5.8 1.45 -2.25 4.3 -0.9 7.95 0.85 14.45 0.9 20.6 0.9 27.25 -2.2 32.35 -4.75 34.15 -6.7 35.95 -8.65 35.85 -9.95 35.75 -11.35 34.3 -11.95 32.85 -12.55 30.9 -12.55 L24.8 -12.25 18.5 -11.8 Q13.7 -11.6 12.1 -12.65 10.55 -13.7 10.65 -15.65 10.85 -20.15 13.3 -23.5 15.8 -26.85 18.1 -27.0 20.25 -26.9 21.65 -25.15 L24.1 -21.6 Q25.5 -19.6 27.4 -19.05 L31.05 -18.8 Q34.3 -18.85 33.5 -21.7 32.45 -25.35 29.1 -28.4 25.8 -31.45 21.1 -31.65 18.8 -31.55 16.65 -30.5 14.5 -29.45 11.55 -28.15 7.7 -26.7 4.7 -23.75 1.7 -20.8 1.55 -15.4 1.45 -11.7 4.25 -9.3 7.0 -6.9 13.35 -6.8 L23.6 -7.55 Q28.7 -8.15 29.2 -7.15 L29.2 -7.15" fill-rule="evenodd" stroke="none"/>
    </g>
    <g id="font_SignPainter-HouseInformal_h0">
      <path d="M11.55 -7.35 L11.55 -7.35 27.0 -8.8 Q27.15 -3.55 27.45 0.1 27.6 3.25 31.45 1.5 33.2 0.7 34.15 -0.4 35.1 -1.5 35.2 -4.1 L35.5 -16.3 35.9 -29.85 Q35.8 -33.45 31.5 -31.7 29.4 -31.0 28.0 -29.4 26.65 -27.8 26.6 -24.6 L26.65 -19.9 26.9 -12.75 11.55 -11.65 11.55 -21.3 11.5 -30.1 Q11.2 -33.65 6.9 -31.75 4.75 -31.0 3.4 -29.9 2.0 -28.8 2.0 -26.15 L2.3 -19.2 3.0 -8.95 3.75 -0.1 Q3.95 2.85 7.8 1.2 9.7 0.45 10.6 -0.8 11.55 -2.0 11.55 -4.3 L11.55 -7.35 11.55 -7.35" fill-rule="evenodd" stroke="none"/>
    </g>
    <g id="font_SignPainter-HouseInformal_r0">
      <path d="M13.45 -12.1 L13.45 -12.1 13.65 -22.9 23.8 -20.95 Q28.35 -19.9 28.8 -18.8 28.55 -17.3 23.45 -15.35 18.35 -13.35 13.45 -12.1 L13.45 -12.1 M4.45 -24.35 L4.45 -24.35 5.1 -12.25 5.7 -0.8 Q5.8 0.95 6.85 1.15 7.9 1.35 9.75 0.75 11.7 0.15 12.6 -0.95 13.45 -2.05 13.4 -4.35 L13.4 -7.8 26.35 -4.95 Q31.5 -3.55 35.0 -4.45 38.65 -5.85 34.75 -7.1 L19.05 -10.1 Q26.05 -12.25 31.8 -15.3 37.55 -18.4 37.85 -21.3 37.5 -24.3 32.2 -26.35 26.9 -28.45 20.4 -29.6 L10.0 -31.05 6.15 -31.1 3.95 -30.45 Q2.05 -29.25 1.05 -27.75 0.4 -27.05 0.4 -26.1 0.4 -25.15 3.2 -24.55 L4.45 -24.35 4.45 -24.35" fill-rule="evenodd" stroke="none"/>
    </g>
    <g id="font_SignPainter-HouseInformal_k0">
      <path d="M11.1 -15.7 L11.1 -15.7 11.5 -29.25 Q11.75 -33.15 6.75 -31.4 4.7 -30.8 3.35 -29.5 2.0 -28.2 2.05 -25.5 L2.25 -17.7 2.6 -8.25 2.95 -0.1 Q3.1 3.25 6.9 1.7 9.05 1.0 9.9 -0.2 10.75 -1.4 10.75 -3.65 L10.85 -5.95 22.75 -4.4 Q25.45 -3.95 28.45 -4.3 31.45 -4.7 33.2 -6.6 35.8 -9.5 32.0 -10.2 L23.85 -11.55 13.9 -13.3 28.0 -23.9 Q33.05 -27.2 34.1 -30.6 34.45 -32.45 33.75 -33.05 33.1 -33.65 31.35 -32.35 L21.7 -24.55 11.1 -15.7 11.1 -15.7" fill-rule="evenodd" stroke="none"/>
    </g>
  </defs>
</svg>
