<?xml version="1.0" encoding="UTF-8" standalone="no"?>
<svg xmlns:xlink="http://www.w3.org/1999/xlink" height="13.85px" width="125.95px" xmlns="http://www.w3.org/2000/svg">
  <g transform="matrix(1.0, 0.0, 0.0, 1.0, -32.35, -4.0)">
    <g transform="matrix(1.0, 0.0, 0.0, 1.0, 0.0, 0.0)">
      <use fill="#e5e6c7" height="13.85" transform="matrix(0.3906, 0.0, 0.0, 0.3906, 32.0, 17.0)" width="125.95" xlink:href="#font_SignPainter-HouseInformal_T0"/>
      <use fill="#e5e6c7" height="13.85" transform="matrix(0.3906, 0.0, 0.0, 0.3906, 43.7, 17.0)" width="125.95" xlink:href="#font_SignPainter-HouseInformal_h0"/>
      <use fill="#e5e6c7" height="13.85" transform="matrix(0.3906, 0.0, 0.0, 0.3906, 57.25, 17.0)" width="125.95" xlink:href="#font_SignPainter-HouseInformal_e0"/>
      <use fill="#e5e6c7" height="13.85" transform="matrix(0.3906, 0.0, 0.0, 0.3906, 75.95, 17.0)" width="125.95" xlink:href="#font_SignPainter-HouseInformal_M0"/>
      <use fill="#e5e6c7" height="13.85" transform="matrix(0.3906, 0.0, 0.0, 0.3906, 91.95, 17.0)" width="125.95" xlink:href="#font_SignPainter-HouseInformal_i0"/>
      <use fill="#e5e6c7" height="13.85" transform="matrix(0.3906, 0.0, 0.0, 0.3906, 96.95, 17.0)" width="125.95" xlink:href="#font_SignPainter-HouseInformal_n0"/>
      <use fill="#e5e6c7" height="13.85" transform="matrix(0.3906, 0.0, 0.0, 0.3906, 109.3, 17.0)" width="125.95" xlink:href="#font_SignPainter-HouseInformal_g0"/>
      <use fill="#e5e6c7" height="13.85" transform="matrix(0.3906, 0.0, 0.0, 0.3906, 123.85, 17.0)" width="125.95" xlink:href="#font_SignPainter-HouseInformal_l0"/>
      <use fill="#e5e6c7" height="13.85" transform="matrix(0.3906, 0.0, 0.0, 0.3906, 133.2, 17.0)" width="125.95" xlink:href="#font_SignPainter-HouseInformal_e0"/>
      <use fill="#e5e6c7" height="13.85" transform="matrix(0.3906, 0.0, 0.0, 0.3906, 143.3, 17.0)" width="125.95" xlink:href="#font_SignPainter-HouseInformal_r0"/>
    </g>
  </g>
  <defs>
    <g id="font_SignPainter-HouseInformal_T0">
      <path d="M32.6 -28.9 L32.6 -28.9 Q34.05 -30.6 31.35 -30.7 L18.35 -30.7 Q11.0 -30.7 5.25 -30.35 2.3 -30.3 0.95 -28.45 -0.6 -25.95 2.65 -26.15 L11.65 -26.5 11.85 -18.5 12.05 -9.0 12.3 -1.05 Q12.45 2.3 16.45 0.65 18.45 -0.05 19.4 -1.25 20.35 -2.4 20.4 -4.7 L20.7 -15.15 20.95 -26.9 27.85 -27.35 Q31.5 -27.45 32.6 -28.9 L32.6 -28.9" fill-rule="evenodd" stroke="none"/>
    </g>
    <g id="font_SignPainter-HouseInformal_h0">
      <path d="M11.55 -7.35 L11.55 -7.35 27.0 -8.8 Q27.15 -3.55 27.45 0.1 27.6 3.25 31.45 1.5 33.2 0.7 34.15 -0.4 35.1 -1.5 35.2 -4.1 L35.5 -16.3 35.9 -29.85 Q35.8 -33.45 31.5 -31.7 29.4 -31.0 28.0 -29.4 26.65 -27.8 26.6 -24.6 L26.65 -19.9 26.9 -12.75 11.55 -11.65 11.55 -21.3 11.5 -30.1 Q11.2 -33.65 6.9 -31.75 4.75 -31.0 3.4 -29.9 2.0 -28.8 2.0 -26.15 L2.3 -19.2 3.0 -8.95 3.75 -0.1 Q3.95 2.85 7.8 1.2 9.7 0.45 10.6 -0.8 11.55 -2.0 11.55 -4.3 L11.55 -7.35 11.55 -7.35" fill-rule="evenodd" stroke="none"/>
    </g>
    <g id="font_SignPainter-HouseInformal_e0">
      <path d="M11.1 -13.0 L11.1 -13.0 11.4 -19.7 11.85 -25.95 18.4 -26.5 23.4 -26.9 Q27.9 -27.55 27.85 -29.55 27.45 -30.75 25.35 -30.55 L16.25 -30.3 5.95 -30.2 Q3.6 -30.25 2.8 -29.5 2.05 -28.8 2.1 -27.15 L2.2 -18.95 2.5 -9.85 Q2.7 -5.5 3.0 -3.2 3.5 -0.2 5.65 0.65 7.75 1.5 10.7 1.3 L18.15 0.6 24.7 -0.65 Q26.9 -1.15 27.7 -2.85 28.25 -4.3 26.2 -4.1 L19.0 -3.1 13.85 -2.7 Q11.25 -2.35 11.1 -5.0 11.0 -6.45 11.05 -9.25 L15.5 -9.8 19.8 -10.25 Q23.7 -10.4 25.35 -12.55 26.3 -14.4 23.7 -14.1 L18.1 -13.55 11.1 -13.0 11.1 -13.0" fill-rule="evenodd" stroke="none"/>
    </g>
    <g id="font_SignPainter-HouseInformal_M0">
      <path d="M31.4 -20.1 L31.4 -20.1 34.35 -9.95 Q35.9 -4.65 37.2 -1.05 38.45 2.15 41.75 0.0 45.25 -2.05 43.95 -6.4 L41.1 -17.15 37.75 -29.25 Q37.25 -31.1 36.2 -31.5 35.15 -31.9 32.9 -31.05 30.65 -30.3 30.0 -29.45 29.35 -28.6 29.15 -27.1 28.1 -22.4 26.1 -16.95 24.1 -11.5 22.15 -8.75 L21.15 -8.8 Q19.3 -11.9 18.7 -17.55 18.1 -23.25 18.2 -28.5 18.2 -30.7 17.2 -31.2 L15.05 -31.4 10.0 -29.95 Q7.6 -29.3 7.45 -26.7 6.2 -20.05 4.3 -13.25 L0.8 -0.5 Q0.4 1.45 1.3 1.7 2.25 1.9 3.55 1.2 5.3 0.55 6.2 -3.25 L8.0 -11.0 10.6 -21.05 Q10.45 -15.7 12.1 -10.1 13.8 -4.5 17.85 -2.4 20.85 -1.35 22.65 -3.1 24.2 -4.65 26.85 -9.65 29.5 -14.65 31.4 -20.1 L31.4 -20.1" fill-rule="evenodd" stroke="none"/>
    </g>
    <g id="font_SignPainter-HouseInformal_i0">
      <path d="M7.85 1.2 L7.85 1.2 Q9.9 0.4 10.75 -0.8 11.6 -2.0 11.55 -4.3 L11.65 -16.0 11.75 -28.7 Q11.9 -32.65 7.05 -30.85 4.8 -30.1 3.55 -28.8 2.25 -27.5 2.4 -24.75 L3.05 -12.85 3.8 -0.55 Q4.1 2.8 7.85 1.2 L7.85 1.2" fill-rule="evenodd" stroke="none"/>
    </g>
    <g id="font_SignPainter-HouseInformal_n0">
      <path d="M6.7 -18.6 L6.7 -18.6 Q9.0 -9.3 12.2 -5.2 15.35 -1.05 18.25 -0.1 21.2 0.9 22.65 0.75 L25.95 0.2 Q27.25 -0.4 29.2 -1.95 31.55 -3.8 31.75 -5.65 32.0 -7.55 31.85 -10.45 L31.9 -16.0 32.15 -22.45 32.4 -27.45 Q32.35 -29.6 30.95 -30.95 27.7 -33.45 27.25 -29.8 L27.3 -17.65 27.65 -4.95 Q27.8 -3.75 26.35 -3.6 22.45 -3.45 18.8 -9.35 15.2 -15.25 13.15 -28.55 12.75 -30.7 10.95 -30.95 9.1 -31.2 6.3 -30.3 3.65 -29.45 2.9 -28.35 2.15 -27.2 2.3 -25.6 2.55 -11.95 2.4 0.45 2.8 4.55 5.7 2.2 8.0 -0.35 7.3 -5.9 6.9 -10.85 6.7 -18.6 L6.7 -18.6" fill-rule="evenodd" stroke="none"/>
    </g>
    <g id="font_SignPainter-HouseInformal_g0">
      <path d="M38.65 -17.2 L38.65 -17.2 37.0 -18.65 34.8 -18.9 Q31.1 -18.65 26.75 -17.6 22.4 -16.5 19.6 -15.35 17.0 -14.45 15.8 -12.6 14.85 -11.0 14.55 -9.0 14.3 -6.8 16.55 -7.7 L23.95 -10.05 32.05 -11.85 Q31.15 -8.4 27.9 -5.85 24.65 -3.35 20.15 -3.05 15.65 -2.95 13.2 -5.45 10.7 -7.95 10.5 -12.2 10.45 -19.8 14.05 -23.3 17.65 -26.8 20.9 -26.75 23.95 -26.8 26.35 -23.45 29.65 -20.05 33.35 -20.55 37.4 -20.85 36.0 -23.55 34.8 -26.45 31.35 -28.85 27.9 -31.25 23.15 -31.25 20.15 -31.1 17.7 -30.0 L12.5 -27.55 Q8.05 -25.7 4.4 -22.35 0.75 -18.95 1.05 -11.7 1.5 -6.1 5.7 -2.5 9.95 1.05 17.45 0.9 24.45 0.5 31.0 -3.6 37.5 -7.65 39.75 -13.8 40.3 -15.35 38.65 -17.2 L38.65 -17.2" fill-rule="evenodd" stroke="none"/>
    </g>
    <g id="font_SignPainter-HouseInformal_l0">
      <path d="M20.9 0.7 L20.9 0.7 Q24.05 0.45 26.0 -1.3 27.45 -3.15 24.75 -3.25 L17.5 -2.7 12.8 -2.5 Q10.45 -2.25 10.6 -4.2 10.6 -9.45 11.05 -16.7 L11.8 -29.25 Q12.15 -33.2 7.15 -31.5 5.05 -30.85 3.8 -29.6 2.5 -28.3 2.3 -25.6 2.05 -20.55 2.1 -13.2 2.2 -5.8 2.7 -0.7 2.95 1.0 3.8 1.5 4.65 1.95 6.0 1.9 L13.75 1.45 20.9 0.7 20.9 0.7" fill-rule="evenodd" stroke="none"/>
    </g>
    <g id="font_SignPainter-HouseInformal_r0">
      <path d="M13.45 -12.1 L13.45 -12.1 13.65 -22.9 23.8 -20.95 Q28.35 -19.9 28.8 -18.8 28.55 -17.3 23.45 -15.35 18.35 -13.35 13.45 -12.1 L13.45 -12.1 M4.45 -24.35 L4.45 -24.35 5.1 -12.25 5.7 -0.8 Q5.8 0.95 6.85 1.15 7.9 1.35 9.75 0.75 11.7 0.15 12.6 -0.95 13.45 -2.05 13.4 -4.35 L13.4 -7.8 26.35 -4.95 Q31.5 -3.55 35.0 -4.45 38.65 -5.85 34.75 -7.1 L19.05 -10.1 Q26.05 -12.25 31.8 -15.3 37.55 -18.4 37.85 -21.3 37.5 -24.3 32.2 -26.35 26.9 -28.45 20.4 -29.6 L10.0 -31.05 6.15 -31.1 3.95 -30.45 Q2.05 -29.25 1.05 -27.75 0.4 -27.05 0.4 -26.1 0.4 -25.15 3.2 -24.55 L4.45 -24.35 4.45 -24.35" fill-rule="evenodd" stroke="none"/>
    </g>
  </defs>
</svg>
