<?xml version="1.0" encoding="UTF-8" standalone="no"?>
<svg xmlns:xlink="http://www.w3.org/1999/xlink" height="60.65px" width="59.6px" xmlns="http://www.w3.org/2000/svg">
  <g transform="matrix(1.0, 0.0, 0.0, 1.0, -0.1, -2.55)">
    <g transform="matrix(1.0, 0.0, 0.0, 1.0, 0.0, 0.0)">
      <use fill="#000000" height="60.65" transform="matrix(0.2734, 0.0, 0.0, 0.2734, 0.0, 12.0)" width="59.6" xlink:href="#font_American_Typewriter_Condensed_D0"/>
      <use fill="#000000" height="60.65" transform="matrix(0.2734, 0.0, 0.0, 0.2734, 8.0, 12.0)" width="59.6" xlink:href="#font_American_Typewriter_Condensed_o0"/>
      <use fill="#000000" height="60.65" transform="matrix(0.2734, 0.0, 0.0, 0.2734, 14.0, 12.0)" width="59.6" xlink:href="#font_American_Typewriter_Condensed_n0"/>
      <use fill="#000000" height="60.65" transform="matrix(0.2734, 0.0, 0.0, 0.2734, 21.05, 12.0)" width="59.6" xlink:href="#font_American_Typewriter_Condensed__0"/>
      <use fill="#000000" height="60.65" transform="matrix(0.2734, 0.0, 0.0, 0.2734, 24.15, 12.0)" width="59.6" xlink:href="#font_American_Typewriter_Condensed_t0"/>
      <use fill="#000000" height="60.65" transform="matrix(0.2734, 0.0, 0.0, 0.2734, 32.15, 12.0)" width="59.6" xlink:href="#font_American_Typewriter_Condensed_y0"/>
      <use fill="#000000" height="60.65" transform="matrix(0.2734, 0.0, 0.0, 0.2734, 38.75, 12.0)" width="59.6" xlink:href="#font_American_Typewriter_Condensed_o0"/>
      <use fill="#000000" height="60.65" transform="matrix(0.2734, 0.0, 0.0, 0.2734, 44.75, 12.0)" width="59.6" xlink:href="#font_American_Typewriter_Condensed_u0"/>
    </g>
    <g transform="matrix(1.0, 0.0, 0.0, 1.0, 0.0, 0.0)">
      <use fill="#000000" height="60.65" transform="matrix(0.2734, 0.0, 0.0, 0.2734, 0.0, 29.0)" width="59.6" xlink:href="#font_American_Typewriter_Condensed_t0"/>
      <use fill="#000000" height="60.65" transform="matrix(0.2734, 0.0, 0.0, 0.2734, 4.5, 29.0)" width="59.6" xlink:href="#font_American_Typewriter_Condensed_h0"/>
      <use fill="#000000" height="60.65" transform="matrix(0.2734, 0.0, 0.0, 0.2734, 11.35, 29.0)" width="59.6" xlink:href="#font_American_Typewriter_Condensed_i0"/>
      <use fill="#000000" height="60.65" transform="matrix(0.2734, 0.0, 0.0, 0.2734, 14.8, 29.0)" width="59.6" xlink:href="#font_American_Typewriter_Condensed_n0"/>
      <use fill="#000000" height="60.65" transform="matrix(0.2734, 0.0, 0.0, 0.2734, 21.85, 29.0)" width="59.6" xlink:href="#font_American_Typewriter_Condensed_k0"/>
      <use fill="#000000" height="60.65" transform="matrix(0.2734, 0.0, 0.0, 0.2734, 31.9, 29.0)" width="59.6" xlink:href="#font_American_Typewriter_Condensed_w0"/>
      <use fill="#000000" height="60.65" transform="matrix(0.2734, 0.0, 0.0, 0.2734, 40.7, 29.0)" width="59.6" xlink:href="#font_American_Typewriter_Condensed_e0"/>
    </g>
    <g transform="matrix(1.0, 0.0, 0.0, 1.0, 0.0, 0.0)">
      <use fill="#000000" height="60.65" transform="matrix(0.2734, 0.0, 0.0, 0.2734, 0.0, 46.0)" width="59.6" xlink:href="#font_American_Typewriter_Condensed_s0"/>
      <use fill="#000000" height="60.65" transform="matrix(0.2734, 0.0, 0.0, 0.2734, 5.75, 46.0)" width="59.6" xlink:href="#font_American_Typewriter_Condensed_h0"/>
      <use fill="#000000" height="60.65" transform="matrix(0.2734, 0.0, 0.0, 0.2734, 12.6, 46.0)" width="59.6" xlink:href="#font_American_Typewriter_Condensed_o0"/>
      <use fill="#000000" height="60.65" transform="matrix(0.2734, 0.0, 0.0, 0.2734, 18.6, 46.0)" width="59.6" xlink:href="#font_American_Typewriter_Condensed_u0"/>
      <use fill="#000000" height="60.65" transform="matrix(0.2734, 0.0, 0.0, 0.2734, 25.3, 46.0)" width="59.6" xlink:href="#font_American_Typewriter_Condensed_l0"/>
      <use fill="#000000" height="60.65" transform="matrix(0.2734, 0.0, 0.0, 0.2734, 28.6, 46.0)" width="59.6" xlink:href="#font_American_Typewriter_Condensed_d0"/>
      <use fill="#000000" height="60.65" transform="matrix(0.2734, 0.0, 0.0, 0.2734, 38.45, 46.0)" width="59.6" xlink:href="#font_American_Typewriter_Condensed_t0"/>
      <use fill="#000000" height="60.65" transform="matrix(0.2734, 0.0, 0.0, 0.2734, 42.95, 46.0)" width="59.6" xlink:href="#font_American_Typewriter_Condensed_a0"/>
      <use fill="#000000" height="60.65" transform="matrix(0.2734, 0.0, 0.0, 0.2734, 49.15, 46.0)" width="59.6" xlink:href="#font_American_Typewriter_Condensed_l0"/>
      <use fill="#000000" height="60.65" transform="matrix(0.2734, 0.0, 0.0, 0.2734, 52.45, 46.0)" width="59.6" xlink:href="#font_American_Typewriter_Condensed_k0"/>
    </g>
    <g transform="matrix(1.0, 0.0, 0.0, 1.0, 0.0, 0.0)">
      <use fill="#000000" height="60.65" transform="matrix(0.2734, 0.0, 0.0, 0.2734, 0.0, 63.0)" width="59.6" xlink:href="#font_American_Typewriter_Condensed_a0"/>
      <use fill="#000000" height="60.65" transform="matrix(0.2734, 0.0, 0.0, 0.2734, 6.2, 63.0)" width="59.6" xlink:href="#font_American_Typewriter_Condensed_b0"/>
      <use fill="#000000" height="60.65" transform="matrix(0.2734, 0.0, 0.0, 0.2734, 12.3, 63.0)" width="59.6" xlink:href="#font_American_Typewriter_Condensed_o0"/>
      <use fill="#000000" height="60.65" transform="matrix(0.2734, 0.0, 0.0, 0.2734, 18.3, 63.0)" width="59.6" xlink:href="#font_American_Typewriter_Condensed_u0"/>
      <use fill="#000000" height="60.65" transform="matrix(0.2734, 0.0, 0.0, 0.2734, 25.0, 63.0)" width="59.6" xlink:href="#font_American_Typewriter_Condensed_t0"/>
      <use fill="#000000" height="60.65" transform="matrix(0.2734, 0.0, 0.0, 0.2734, 33.0, 63.0)" width="59.6" xlink:href="#font_American_Typewriter_Condensed_t0"/>
      <use fill="#000000" height="60.65" transform="matrix(0.2734, 0.0, 0.0, 0.2734, 37.5, 63.0)" width="59.6" xlink:href="#font_American_Typewriter_Condensed_h0"/>
      <use fill="#000000" height="60.65" transform="matrix(0.2734, 0.0, 0.0, 0.2734, 44.35, 63.0)" width="59.6" xlink:href="#font_American_Typewriter_Condensed_i0"/>
      <use fill="#000000" height="60.65" transform="matrix(0.2734, 0.0, 0.0, 0.2734, 47.8, 63.0)" width="59.6" xlink:href="#font_American_Typewriter_Condensed_s0"/>
      <use fill="#000000" height="60.65" transform="matrix(0.2734, 0.0, 0.0, 0.2734, 53.55, 63.0)" width="59.6" xlink:href="#font_American_Typewriter_Condensed__2"/>
    </g>
  </g>
  <defs>
    <g id="font_American_Typewriter_Condensed_D0">
      <path d="M9.8 -26.1 L9.8 -26.1 9.8 -26.4 Q9.8 -29.1 10.3 -29.75 10.95 -30.8 13.6 -30.8 L17.25 -30.35 Q20.25 -29.65 21.95 -26.25 23.6 -22.8 23.6 -17.3 23.6 -10.5 20.85 -6.3 18.8 -3.2 14.55 -3.2 L11.3 -3.5 Q9.85 -4.0 9.8 -5.95 L9.8 -26.1 M4.75 -3.2 L4.75 -3.2 3.8 -3.4 3.05 -3.6 Q1.4 -3.6 1.4 -1.85 1.4 -1.0 1.95 -0.4 2.5 0.2 3.3 0.2 L5.7 -0.1 7.9 -0.35 11.6 0.0 14.5 0.2 Q27.2 0.2 27.2 -17.0 27.2 -34.2 14.95 -34.2 L12.4 -34.2 8.65 -33.8 6.3 -34.0 3.35 -34.4 Q1.4 -34.4 1.4 -32.45 1.4 -30.8 3.05 -30.8 L3.9 -30.8 4.75 -30.85 Q5.7 -30.85 5.95 -29.35 L6.2 -21.9 6.2 -12.1 5.95 -4.7 Q5.7 -3.2 4.75 -3.2" fill-rule="evenodd" stroke="none"/>
    </g>
    <g id="font_American_Typewriter_Condensed_o0">
      <path d="M11.0 -22.2 L11.0 -22.2 Q13.55 -22.2 15.1 -19.5 16.6 -16.85 16.6 -12.45 16.6 -8.1 15.1 -5.45 13.55 -2.8 11.0 -2.8 8.45 -2.8 6.9 -5.45 5.4 -8.1 5.4 -12.45 5.4 -16.85 6.9 -19.5 8.45 -22.2 11.0 -22.2 M10.9 0.6 L10.9 0.6 Q15.1 0.6 17.55 -2.9 20.0 -6.45 20.0 -12.45 20.0 -18.45 17.55 -22.05 15.1 -25.6 10.9 -25.6 6.7 -25.6 4.25 -22.05 1.8 -18.45 1.8 -12.45 1.8 -6.45 4.25 -2.9 6.7 0.6 10.9 0.6" fill-rule="evenodd" stroke="none"/>
    </g>
    <g id="font_American_Typewriter_Condensed_n0">
      <path d="M8.2 -24.2 L8.2 -24.2 Q8.2 -25.4 7.4 -25.4 L6.35 -25.15 5.2 -25.0 3.9 -25.2 2.6 -25.4 Q1.95 -25.4 1.5 -24.85 1.0 -24.35 1.0 -23.6 1.0 -22.0 2.45 -22.0 L2.8 -22.0 3.3 -22.0 3.4 -22.0 3.5 -22.0 Q4.35 -22.0 4.6 -21.1 4.8 -20.25 4.8 -16.95 L4.8 -7.85 4.65 -3.75 Q4.45 -3.0 3.6 -3.0 L3.1 -3.0 2.5 -3.0 Q1.0 -3.0 1.0 -1.3 1.0 0.4 2.6 0.4 L4.35 0.05 6.3 -0.15 8.25 0.0 10.2 0.4 Q11.8 0.4 11.8 -1.3 11.8 -3.0 10.45 -3.0 L9.85 -3.0 9.4 -3.0 Q8.55 -3.0 8.4 -3.75 8.2 -4.45 8.2 -7.75 L8.2 -14.0 Q8.2 -17.75 9.65 -19.95 11.1 -22.2 13.6 -22.2 16.05 -22.2 17.15 -20.5 18.2 -18.8 18.2 -14.95 L18.2 -9.95 18.2 -7.75 18.0 -3.65 Q17.85 -3.0 17.1 -3.0 L16.6 -3.0 16.0 -3.0 Q15.45 -3.0 15.0 -2.5 14.6 -2.0 14.6 -1.3 14.6 0.4 16.25 0.4 L18.2 0.15 20.15 -0.15 21.95 0.15 23.65 0.4 Q25.2 0.4 25.2 -1.3 25.2 -3.0 23.85 -3.0 L23.25 -3.0 22.8 -3.0 Q21.95 -3.0 21.8 -3.75 21.6 -4.5 21.6 -7.8 L21.6 -15.15 Q21.6 -20.55 20.35 -22.65 18.5 -25.6 14.25 -25.6 10.45 -25.6 8.2 -23.05 L8.2 -24.2" fill-rule="evenodd" stroke="none"/>
    </g>
    <g id="font_American_Typewriter_Condensed__0">
      <path d="M5.9 -27.25 L5.9 -27.25 5.75 -26.25 Q5.25 -24.1 4.55 -23.05 L3.95 -22.05 3.7 -21.3 Q3.7 -20.4 4.7 -20.4 5.45 -20.4 6.15 -21.7 L6.75 -22.9 Q8.4 -26.25 8.4 -29.6 8.4 -34.6 5.25 -34.6 2.6 -34.6 2.6 -31.3 2.6 -29.95 3.25 -29.05 3.9 -28.2 4.85 -28.2 L5.7 -28.2 5.9 -27.25" fill-rule="evenodd" stroke="none"/>
    </g>
    <g id="font_American_Typewriter_Condensed_t0">
      <path d="M3.6 -25.95 L3.6 -25.95 Q3.55 -25.2 3.05 -25.2 L2.5 -25.4 1.95 -25.6 Q0.4 -25.6 0.4 -23.75 0.4 -21.8 1.95 -21.8 L2.25 -21.8 2.5 -21.8 3.1 -21.75 Q3.7 -21.75 3.7 -20.65 L3.7 -8.55 Q3.7 -4.8 4.15 -3.2 5.15 0.4 9.15 0.4 14.2 0.4 14.8 -6.05 L15.1 -9.3 Q15.1 -12.35 13.3 -12.35 12.1 -12.35 11.75 -11.2 11.6 -10.75 11.6 -9.1 L11.6 -8.6 Q11.6 -3.4 9.3 -3.4 7.55 -3.4 7.1 -6.15 L7.0 -10.2 7.0 -20.25 Q7.0 -21.25 7.15 -21.5 7.35 -21.8 7.95 -21.8 L9.75 -21.8 11.5 -21.8 Q13.6 -21.8 13.6 -23.75 13.6 -25.6 11.5 -25.6 L9.75 -25.3 8.1 -25.2 7.2 -25.4 Q7.0 -25.65 7.0 -26.55 L7.0 -30.7 Q7.0 -33.0 5.35 -33.0 3.7 -33.0 3.7 -30.7 L3.7 -26.6 3.6 -25.95" fill-rule="evenodd" stroke="none"/>
    </g>
    <g id="font_American_Typewriter_Condensed_y0">
      <path d="M8.15 -20.7 L8.15 -20.7 8.1 -21.25 Q8.1 -22.0 8.9 -22.0 L9.25 -22.0 9.9 -22.0 Q11.4 -22.0 11.4 -23.75 11.4 -25.4 9.85 -25.4 L7.75 -25.1 5.65 -24.8 3.65 -25.1 1.65 -25.4 Q0.0 -25.4 0.0 -23.75 0.0 -23.0 0.45 -22.5 0.9 -22.0 1.45 -22.0 L2.2 -22.0 2.5 -22.0 Q3.75 -22.0 4.45 -19.85 L9.35 -3.1 9.85 -1.45 10.05 -0.15 Q10.05 2.45 8.6 4.55 7.15 6.6 5.35 6.6 4.3 6.6 3.65 5.8 4.6 5.05 4.6 3.65 4.6 2.5 4.0 1.75 3.35 1.0 2.3 1.0 1.15 1.0 0.4 2.0 -0.4 3.0 -0.4 4.45 -0.4 6.85 1.2 8.45 2.85 10.0 5.25 10.0 8.6 10.0 10.8 6.95 13.05 3.9 15.25 -3.65 L19.5 -18.45 20.15 -20.55 Q20.6 -22.15 21.35 -22.15 L21.95 -22.0 22.25 -22.0 22.55 -22.0 Q24.2 -22.0 24.2 -23.65 24.2 -25.4 22.6 -25.4 L20.75 -25.2 18.8 -25.0 16.75 -25.2 14.75 -25.4 Q13.0 -25.4 13.0 -23.7 13.0 -23.0 13.5 -22.5 13.95 -22.0 14.55 -22.0 L15.3 -22.0 15.6 -22.0 Q16.5 -22.0 16.5 -21.3 L16.35 -20.45 12.4 -4.15 8.45 -19.35 8.15 -20.7" fill-rule="evenodd" stroke="none"/>
    </g>
    <g id="font_American_Typewriter_Condensed_u0">
      <path d="M17.2 -1.2 L17.2 -1.2 Q17.2 0.4 18.1 0.4 L19.05 0.15 20.1 -0.1 21.4 0.15 22.7 0.4 Q24.2 0.4 24.2 -1.35 24.2 -3.0 22.9 -3.0 L22.1 -3.0 21.85 -3.0 Q21.0 -3.0 20.8 -3.85 20.6 -4.75 20.6 -8.0 L20.6 -19.15 20.6 -23.25 20.6 -24.0 Q20.6 -25.4 19.8 -25.4 L18.55 -25.2 17.35 -24.95 16.15 -25.2 15.05 -25.4 Q14.4 -25.4 13.9 -24.85 13.4 -24.3 13.4 -23.6 13.4 -22.0 15.0 -22.0 L15.3 -22.0 15.55 -22.0 15.9 -22.0 Q17.15 -22.0 17.2 -20.25 L17.2 -17.55 17.2 -13.85 17.2 -12.4 Q17.2 -2.8 12.05 -2.8 9.5 -2.8 8.45 -4.55 7.4 -6.35 7.4 -10.6 L7.4 -15.05 7.4 -21.75 7.8 -23.95 7.8 -24.45 Q7.8 -25.4 7.0 -25.4 L6.85 -25.4 6.6 -25.35 5.75 -25.15 4.55 -25.0 3.3 -25.2 2.0 -25.4 Q1.35 -25.4 0.9 -24.85 0.4 -24.35 0.4 -23.6 0.4 -22.0 1.75 -22.0 L2.1 -22.0 2.55 -22.0 2.65 -22.0 2.75 -22.0 Q3.55 -22.0 3.8 -21.1 4.0 -20.25 4.0 -17.05 L3.9 -10.25 4.0 -6.85 Q4.05 -4.85 4.85 -3.2 5.7 -1.55 7.55 -0.45 9.4 0.6 11.4 0.6 14.95 0.6 17.2 -2.35 L17.2 -1.2" fill-rule="evenodd" stroke="none"/>
    </g>
    <g id="font_American_Typewriter_Condensed_h0">
      <path d="M7.6 -32.9 L7.6 -32.9 Q7.6 -34.2 6.8 -34.2 L5.8 -34.05 4.4 -33.9 3.2 -34.05 2.05 -34.2 Q1.4 -34.2 0.9 -33.65 0.4 -33.1 0.4 -32.4 0.4 -30.8 2.05 -30.8 L2.6 -30.8 2.9 -30.8 Q4.15 -30.8 4.2 -29.05 L4.2 -26.35 4.2 -24.1 4.2 -22.6 4.2 -10.05 4.2 -7.8 3.95 -3.7 Q3.8 -3.0 2.95 -3.0 L2.5 -3.0 1.9 -3.0 Q0.4 -3.0 0.4 -1.3 0.4 0.4 2.1 0.4 L4.1 0.15 6.1 -0.15 7.9 0.0 9.75 0.4 Q11.4 0.4 11.4 -1.3 11.4 -3.0 9.95 -3.0 L9.35 -3.0 8.85 -3.0 Q8.0 -3.0 7.8 -3.75 7.6 -4.5 7.6 -7.85 L7.6 -10.05 7.6 -12.8 7.6 -13.5 Q7.6 -16.6 8.65 -19.2 9.8 -22.2 13.2 -22.2 17.8 -22.2 17.8 -15.35 L17.8 -7.85 17.65 -3.75 Q17.45 -3.0 16.65 -3.0 L16.15 -3.0 15.6 -3.0 Q14.2 -3.0 14.2 -1.3 14.2 0.4 15.8 0.4 L17.25 0.0 18.9 -0.2 21.5 0.15 23.2 0.4 Q24.8 0.4 24.8 -1.3 24.8 -3.0 23.45 -3.0 L22.85 -3.0 22.4 -3.0 Q21.55 -3.0 21.4 -3.75 21.2 -4.5 21.2 -7.8 L21.2 -16.05 Q21.2 -20.35 19.85 -22.4 17.9 -25.6 13.75 -25.6 10.35 -25.6 7.6 -22.75 L7.6 -32.8 7.6 -32.9" fill-rule="evenodd" stroke="none"/>
    </g>
    <g id="font_American_Typewriter_Condensed_i0">
      <path d="M6.2 -27.4 L6.2 -27.4 Q7.3 -27.4 8.05 -28.3 8.8 -29.25 8.8 -30.55 8.8 -31.8 8.05 -32.7 7.35 -33.6 6.3 -33.6 5.35 -33.6 4.6 -32.65 3.8 -31.65 3.8 -30.5 3.8 -29.15 4.5 -28.25 5.2 -27.4 6.2 -27.4 M8.2 -21.6 L8.2 -21.6 8.6 -23.0 8.6 -23.7 8.6 -24.35 Q8.6 -25.6 7.8 -25.6 L6.5 -25.3 5.15 -24.95 4.05 -25.2 2.85 -25.6 Q2.2 -25.6 1.7 -25.05 1.2 -24.5 1.2 -23.8 1.2 -22.2 2.7 -22.2 L2.95 -22.2 3.2 -22.2 3.55 -22.2 Q4.75 -22.2 4.75 -20.4 L4.8 -17.7 4.8 -15.45 4.8 -13.9 4.8 -7.9 4.65 -3.75 Q4.45 -3.0 3.65 -3.0 L3.2 -3.0 2.65 -3.0 Q1.2 -3.0 1.2 -1.3 1.2 0.4 2.85 0.4 L4.45 0.15 6.25 -0.15 8.25 0.15 10.2 0.4 Q11.8 0.4 11.8 -1.3 11.8 -3.0 10.45 -3.0 L9.85 -3.0 9.4 -3.0 Q8.55 -3.0 8.4 -3.75 8.2 -4.5 8.2 -7.9 L8.2 -10.15 8.2 -12.9 8.2 -16.25 8.2 -21.6" fill-rule="evenodd" stroke="none"/>
    </g>
    <g id="font_American_Typewriter_Condensed_k0">
      <path d="M7.6 -24.35 L7.6 -24.35 7.6 -27.45 7.6 -30.6 7.6 -32.4 Q8.0 -32.6 8.0 -33.0 8.0 -34.2 7.1 -34.2 L6.05 -34.0 4.55 -33.9 3.5 -33.95 2.25 -34.2 Q1.6 -34.2 1.1 -33.65 0.6 -33.1 0.6 -32.4 0.6 -30.8 2.15 -30.8 L2.65 -30.8 3.0 -30.8 Q4.15 -30.8 4.2 -29.05 L4.2 -26.35 4.2 -24.1 4.2 -22.6 4.2 -10.05 4.2 -7.8 3.95 -3.7 Q3.8 -3.0 3.05 -3.0 L2.55 -3.0 2.0 -3.0 Q0.6 -3.0 0.6 -1.3 0.6 0.4 2.2 0.4 L4.05 0.15 5.95 -0.15 7.7 0.15 9.4 0.4 Q10.05 0.4 10.65 -0.2 11.2 -0.75 11.2 -1.5 11.2 -3.0 9.8 -3.0 L9.1 -3.0 8.65 -3.0 Q7.9 -3.0 7.8 -4.25 L7.6 -5.0 7.6 -8.05 Q7.6 -9.0 8.35 -9.8 L9.65 -11.3 10.15 -11.8 Q10.5 -12.2 10.75 -12.2 11.25 -12.2 12.25 -10.4 L14.95 -5.4 15.5 -4.35 15.75 -3.55 Q15.75 -3.0 15.1 -3.0 L14.9 -3.0 14.3 -3.0 Q12.8 -3.0 12.8 -1.4 12.8 0.4 14.45 0.4 L16.3 0.15 18.15 -0.15 20.85 0.15 22.25 0.4 Q23.8 0.4 23.8 -1.3 23.8 -3.0 22.45 -3.0 L21.7 -3.05 21.5 -3.05 Q20.5 -3.05 19.75 -4.35 L14.7 -13.35 14.15 -14.35 13.75 -15.2 14.35 -16.15 17.65 -19.95 Q19.45 -22.0 20.25 -22.0 L20.4 -22.0 21.15 -22.0 Q21.75 -21.95 22.2 -22.5 22.6 -23.05 22.6 -23.75 22.6 -25.4 21.0 -25.4 L19.05 -25.15 17.1 -24.85 14.95 -25.15 12.95 -25.4 Q12.25 -25.4 11.7 -24.85 11.2 -24.3 11.2 -23.55 11.2 -22.0 12.85 -22.0 L13.3 -22.0 13.75 -22.0 Q14.5 -22.0 14.5 -21.35 14.5 -20.9 13.65 -20.0 L7.6 -13.35 7.6 -24.35" fill-rule="evenodd" stroke="none"/>
    </g>
    <g id="font_American_Typewriter_Condensed_w0">
      <path d="M7.7 -18.95 L7.7 -18.95 7.45 -20.85 Q7.45 -22.0 8.45 -22.0 L9.1 -22.0 Q10.6 -22.0 10.6 -23.75 10.6 -25.4 9.15 -25.4 L7.05 -25.15 5.0 -24.85 3.2 -25.1 1.45 -25.4 Q-0.2 -25.4 -0.2 -23.7 -0.2 -23.1 0.2 -22.55 0.65 -21.95 1.15 -22.0 L1.85 -22.0 2.0 -22.0 Q2.9 -22.0 3.3 -21.1 L3.8 -19.45 7.9 -2.2 Q8.55 0.6 10.45 0.6 12.45 0.6 13.0 -2.2 L16.25 -18.95 19.6 -2.65 Q20.3 0.6 22.35 0.6 24.5 0.6 25.05 -2.2 L27.85 -16.8 Q28.45 -19.9 29.0 -21.0 29.55 -22.05 30.5 -22.05 32.4 -22.05 32.4 -23.7 32.4 -25.4 31.0 -25.4 L29.15 -25.1 27.2 -24.8 25.2 -25.1 23.25 -25.4 Q21.8 -25.4 21.8 -23.65 21.8 -22.0 23.15 -22.0 L23.85 -22.0 24.0 -22.0 Q25.05 -22.0 25.05 -20.85 L24.8 -18.6 22.35 -4.45 18.75 -22.65 Q18.45 -24.25 17.9 -24.8 17.4 -25.4 16.25 -25.4 14.2 -25.4 13.75 -22.65 L10.6 -4.45 7.7 -18.95" fill-rule="evenodd" stroke="none"/>
    </g>
    <g id="font_American_Typewriter_Condensed_e0">
      <path d="M5.8 -16.1 L5.8 -16.1 5.85 -16.6 6.45 -18.8 Q7.8 -22.2 10.8 -22.2 12.75 -22.2 14.1 -20.55 15.4 -18.9 15.4 -16.4 15.4 -15.6 15.1 -15.4 L13.55 -15.2 7.15 -15.2 Q5.8 -15.2 5.8 -16.1 M19.2 -14.55 L19.2 -14.55 Q19.2 -19.4 16.95 -22.5 14.65 -25.6 11.05 -25.6 6.95 -25.6 4.35 -21.85 1.8 -18.15 1.8 -12.25 1.8 -6.35 4.2 -2.85 6.65 0.6 10.65 0.6 13.95 0.6 16.45 -1.9 18.9 -4.35 18.9 -7.7 18.9 -9.5 17.3 -9.5 15.85 -9.5 15.5 -8.05 L15.05 -6.3 Q14.65 -4.75 13.45 -3.75 12.3 -2.8 10.8 -2.8 8.45 -2.8 7.05 -4.9 5.6 -7.0 5.6 -10.35 5.6 -11.35 5.9 -11.55 L7.45 -11.8 17.6 -11.8 Q18.7 -11.8 18.95 -12.2 L19.2 -14.55" fill-rule="evenodd" stroke="none"/>
    </g>
    <g id="font_American_Typewriter_Condensed_s0">
      <path d="M10.15 -25.6 L10.15 -25.6 Q6.9 -25.6 4.75 -23.4 2.6 -21.25 2.6 -17.95 2.6 -14.55 4.95 -12.9 6.7 -11.7 10.5 -11.05 13.35 -10.55 14.5 -9.65 15.6 -8.75 15.6 -6.95 15.6 -5.25 14.4 -4.1 13.15 -3.0 11.25 -3.0 5.8 -3.0 5.6 -8.55 5.5 -10.6 3.9 -10.6 2.4 -10.6 2.4 -8.95 L2.5 -7.05 2.6 -5.15 2.55 -2.75 2.4 -1.15 Q2.4 0.8 4.15 0.8 5.8 0.8 5.8 -1.4 L5.8 -1.85 Q8.3 0.4 11.15 0.4 14.6 0.4 16.8 -1.8 19.0 -4.05 19.0 -7.45 19.0 -10.85 16.65 -12.65 15.15 -13.8 11.2 -14.6 8.3 -15.25 7.25 -16.05 6.2 -16.85 6.2 -18.55 6.2 -20.25 7.3 -21.3 8.4 -22.4 10.15 -22.4 12.15 -22.4 13.3 -21.15 14.4 -19.95 14.4 -17.8 14.4 -15.4 16.25 -15.4 17.8 -15.4 17.8 -17.1 L17.6 -18.65 17.4 -20.25 17.7 -23.0 17.8 -24.1 Q17.8 -26.0 16.2 -26.0 14.7 -26.0 14.7 -23.85 12.45 -25.6 10.15 -25.6" fill-rule="evenodd" stroke="none"/>
    </g>
    <g id="font_American_Typewriter_Condensed_l0">
      <path d="M7.8 -27.2 L7.8 -27.2 8.0 -30.4 8.0 -32.4 8.0 -33.05 Q8.0 -34.2 7.05 -34.2 L5.8 -34.0 4.45 -33.85 3.45 -33.95 2.25 -34.2 Q1.6 -34.2 1.1 -33.65 0.6 -33.1 0.6 -32.4 0.6 -30.8 2.25 -30.8 L2.8 -30.8 3.1 -30.8 Q4.35 -30.8 4.4 -29.05 L4.4 -26.35 4.4 -24.1 4.4 -22.6 4.4 -10.05 4.4 -7.8 4.15 -3.7 Q4.0 -3.0 3.15 -3.0 L2.7 -3.0 2.1 -3.0 Q0.6 -3.0 0.6 -1.3 0.6 0.4 2.2 0.4 L3.65 0.05 5.35 -0.15 7.6 0.05 9.7 0.4 Q11.4 0.4 11.4 -1.3 11.4 -2.0 11.0 -2.5 10.6 -3.0 10.05 -3.0 L9.45 -3.0 9.0 -3.0 Q8.15 -3.0 8.0 -3.75 7.8 -4.5 7.8 -7.8 L7.8 -23.7 7.8 -27.2" fill-rule="evenodd" stroke="none"/>
    </g>
    <g id="font_American_Typewriter_Condensed_d0">
      <path d="M10.7 -21.8 L10.7 -21.8 Q13.3 -21.8 14.6 -19.1 15.6 -16.95 15.6 -12.35 15.6 -8.05 14.3 -5.6 12.95 -3.2 10.6 -3.2 8.25 -3.2 6.9 -5.6 5.6 -8.05 5.6 -12.45 L5.6 -12.85 Q5.6 -16.85 7.0 -19.3 8.45 -21.8 10.7 -21.8 M10.75 -25.6 L10.75 -25.6 Q6.8 -25.6 4.3 -21.85 1.8 -18.1 1.8 -12.15 1.8 -6.5 4.2 -2.95 6.6 0.6 10.35 0.6 13.15 0.6 15.6 -2.1 L15.6 -0.9 Q15.6 0.4 16.5 0.4 L17.5 0.15 18.65 -0.1 20.15 0.15 21.2 0.4 Q22.8 0.4 22.8 -1.35 22.8 -3.0 21.4 -3.0 L20.55 -3.0 20.35 -3.0 Q19.3 -3.0 19.0 -5.05 L19.0 -7.95 19.0 -19.85 19.0 -23.6 19.2 -27.25 19.2 -30.35 19.2 -32.9 19.2 -33.1 Q19.2 -34.2 18.4 -34.2 L17.3 -34.0 15.95 -33.9 14.8 -34.05 13.6 -34.2 Q12.95 -34.2 12.5 -33.65 12.0 -33.1 12.0 -32.4 12.0 -30.8 13.45 -30.8 L13.95 -30.8 14.25 -30.8 Q15.4 -30.8 15.4 -29.05 L15.5 -28.05 15.6 -26.45 15.6 -23.45 Q13.5 -25.6 10.75 -25.6" fill-rule="evenodd" stroke="none"/>
    </g>
    <g id="font_American_Typewriter_Condensed_a0">
      <path d="M13.7 -7.7 L13.7 -7.7 Q13.35 -5.5 12.0 -4.15 10.65 -2.8 8.85 -2.8 7.15 -2.8 6.05 -3.9 5.0 -5.0 5.0 -6.8 5.0 -10.3 8.8 -10.95 L11.1 -11.35 Q12.5 -11.6 13.95 -12.2 L13.7 -7.7 M18.0 0.6 L18.0 0.6 Q20.5 0.6 21.45 -1.1 22.4 -2.8 22.4 -7.25 22.4 -10.2 20.7 -10.2 19.2 -10.2 19.2 -7.95 L19.2 -7.45 19.2 -6.45 Q19.2 -2.8 18.2 -2.8 17.45 -2.8 17.4 -4.25 L17.4 -16.75 Q17.4 -20.35 16.85 -21.85 16.15 -23.7 14.2 -24.7 12.45 -25.6 10.3 -25.6 7.05 -25.6 4.95 -23.75 2.8 -21.9 2.8 -19.1 2.8 -15.8 5.5 -15.8 7.8 -15.8 7.8 -18.0 7.8 -18.85 7.15 -19.85 6.8 -20.35 6.8 -20.6 6.8 -21.45 8.15 -22.05 9.4 -22.6 10.35 -22.6 14.0 -22.6 14.0 -18.45 14.0 -16.45 13.2 -15.65 12.35 -14.8 10.1 -14.5 6.15 -13.95 4.3 -12.75 1.6 -11.0 1.6 -6.85 1.6 -3.55 3.55 -1.5 5.45 0.6 8.4 0.6 12.05 0.6 14.25 -2.4 15.05 0.6 18.0 0.6" fill-rule="evenodd" stroke="none"/>
    </g>
    <g id="font_American_Typewriter_Condensed_b0">
      <path d="M12.2 -22.2 L12.2 -22.2 Q14.65 -22.2 16.0 -19.55 17.4 -16.9 17.4 -12.45 17.4 -8.1 15.95 -5.45 14.45 -2.8 12.05 -2.8 7.2 -2.8 7.2 -12.7 7.2 -22.2 12.2 -22.2 M7.35 -32.1 L7.35 -32.1 7.4 -32.6 7.4 -33.0 Q7.4 -34.2 6.55 -34.2 L5.7 -34.05 4.65 -33.9 3.45 -34.05 2.55 -34.2 Q1.0 -34.2 1.0 -32.35 1.0 -30.8 2.3 -30.8 L2.65 -30.8 Q3.35 -30.8 3.5 -30.45 L3.8 -28.65 3.8 -4.1 3.8 -2.65 3.8 -1.35 Q3.8 0.6 5.55 0.6 7.2 0.6 7.2 -1.3 L7.2 -2.05 Q9.15 0.6 12.15 0.6 15.95 0.6 18.4 -3.0 20.8 -6.65 20.8 -12.45 20.8 -18.45 18.55 -22.05 16.25 -25.6 12.4 -25.6 9.35 -25.6 7.2 -23.2 L7.35 -32.1" fill-rule="evenodd" stroke="none"/>
    </g>
    <g id="font_American_Typewriter_Condensed__2">
      <path d="M17.05 -16.1 L17.05 -16.1 Q22.4 -19.45 22.4 -24.9 22.4 -29.3 19.8 -31.95 17.2 -34.6 12.9 -34.6 8.6 -34.6 5.8 -31.85 3.0 -29.15 3.0 -24.95 3.0 -22.5 4.2 -20.95 5.35 -19.4 7.25 -19.4 8.6 -19.4 9.5 -20.35 10.4 -21.35 10.4 -22.75 10.4 -23.8 9.85 -24.5 9.25 -25.2 8.4 -25.2 7.85 -25.2 7.25 -24.6 L6.8 -24.35 Q6.4 -24.35 6.4 -25.25 6.4 -27.65 8.35 -29.4 10.25 -31.2 12.85 -31.2 15.5 -31.2 17.15 -29.4 18.8 -27.65 18.8 -24.85 18.8 -23.0 18.0 -21.75 17.15 -20.55 14.95 -19.05 11.9 -17.0 10.8 -15.25 9.4 -13.0 9.4 -10.0 9.4 -7.45 11.1 -7.45 12.75 -7.45 12.8 -9.1 L12.8 -10.4 Q12.85 -12.3 13.75 -13.45 14.6 -14.55 17.05 -16.1 M11.4 0.4 L11.4 0.4 Q12.55 0.4 13.3 -0.5 14.0 -1.4 14.0 -2.8 14.0 -4.2 13.3 -5.1 12.55 -6.0 11.4 -6.0 10.3 -6.0 9.55 -5.1 8.8 -4.2 8.8 -2.8 8.8 -1.4 9.55 -0.5 10.3 0.4 11.4 0.4" fill-rule="evenodd" stroke="none"/>
    </g>
  </defs>
</svg>
