<?xml version="1.0" encoding="UTF-8" standalone="no"?>
<svg xmlns:xlink="http://www.w3.org/1999/xlink" height="11.9px" width="63.55px" xmlns="http://www.w3.org/2000/svg">
  <g transform="matrix(1.0, 0.0, 0.0, 1.0, -11.4, -2.45)">
    <g transform="matrix(1.0, 0.0, 0.0, 1.0, 0.0, 0.0)">
      <use fill="#000000" height="11.9" transform="matrix(0.2734, 0.0, 0.0, 0.2734, 11.0, 12.0)" width="63.55" xlink:href="#font_American_Typewriter_Condensed_S0"/>
      <use fill="#000000" height="11.9" transform="matrix(0.2734, 0.0, 0.0, 0.2734, 17.7, 12.0)" width="63.55" xlink:href="#font_American_Typewriter_Condensed_t0"/>
      <use fill="#000000" height="11.9" transform="matrix(0.2734, 0.0, 0.0, 0.2734, 22.2, 12.0)" width="63.55" xlink:href="#font_American_Typewriter_Condensed_i0"/>
      <use fill="#000000" height="11.9" transform="matrix(0.2734, 0.0, 0.0, 0.2734, 25.65, 12.0)" width="63.55" xlink:href="#font_American_Typewriter_Condensed_c0"/>
      <use fill="#000000" height="11.9" transform="matrix(0.2734, 0.0, 0.0, 0.2734, 31.3, 12.0)" width="63.55" xlink:href="#font_American_Typewriter_Condensed_k0"/>
      <use fill="#000000" height="11.9" transform="matrix(0.2734, 0.0, 0.0, 0.2734, 37.85, 12.0)" width="63.55" xlink:href="#font_American_Typewriter_Condensed__0"/>
      <use fill="#000000" height="11.9" transform="matrix(0.2734, 0.0, 0.0, 0.2734, 40.95, 12.0)" width="63.55" xlink:href="#font_American_Typewriter_Condensed_e0"/>
      <use fill="#000000" height="11.9" transform="matrix(0.2734, 0.0, 0.0, 0.2734, 46.75, 12.0)" width="63.55" xlink:href="#font_American_Typewriter_Condensed_m0"/>
      <use fill="#000000" height="11.9" transform="matrix(0.2734, 0.0, 0.0, 0.2734, 60.05, 12.0)" width="63.55" xlink:href="#font_American_Typewriter_Condensed_u0"/>
      <use fill="#000000" height="11.9" transform="matrix(0.2734, 0.0, 0.0, 0.2734, 66.75, 12.0)" width="63.55" xlink:href="#font_American_Typewriter_Condensed_p0"/>
      <use fill="#000000" height="11.9" transform="matrix(0.2734, 0.0, 0.0, 0.2734, 72.95, 12.0)" width="63.55" xlink:href="#font_American_Typewriter_Condensed__2"/>
    </g>
  </g>
  <defs>
    <g id="font_American_Typewriter_Condensed_S0">
      <path d="M11.4 -34.8 L11.4 -34.8 Q7.8 -34.8 5.3 -32.0 2.8 -29.2 2.8 -25.2 2.8 -22.85 3.9 -20.85 5.75 -17.4 11.8 -16.05 L15.35 -15.05 Q19.0 -13.75 19.0 -9.75 19.0 -6.95 17.25 -5.15 15.5 -3.4 12.7 -3.4 9.9 -3.4 7.95 -5.3 6.0 -7.2 6.0 -9.95 L6.15 -11.4 6.25 -12.65 Q6.25 -14.8 4.55 -14.8 2.8 -14.8 2.8 -12.7 L2.9 -10.65 3.0 -8.55 2.9 -5.2 2.8 -1.95 2.8 -1.8 Q2.8 0.4 4.3 0.4 5.85 0.4 5.85 -1.75 L5.8 -3.0 Q8.85 0.4 12.9 0.4 17.05 0.4 19.75 -2.55 22.4 -5.55 22.4 -10.1 22.4 -12.75 21.45 -14.75 20.6 -16.5 19.0 -17.45 17.45 -18.45 13.8 -19.4 9.45 -20.5 8.05 -21.65 6.6 -22.8 6.6 -25.15 6.6 -27.7 8.05 -29.35 9.5 -31.0 11.8 -31.0 14.25 -31.0 15.7 -29.35 17.2 -27.65 17.2 -25.0 L17.2 -24.6 17.3 -23.35 17.3 -23.15 Q17.3 -21.2 18.9 -21.2 20.6 -21.2 20.6 -23.4 L20.5 -25.65 20.4 -27.9 20.5 -30.2 20.6 -32.5 Q20.6 -34.6 18.85 -34.6 17.2 -34.6 17.2 -32.9 L17.2 -32.5 17.2 -32.1 Q14.8 -34.8 11.4 -34.8" fill-rule="evenodd" stroke="none"/>
    </g>
    <g id="font_American_Typewriter_Condensed_t0">
      <path d="M3.6 -25.95 L3.6 -25.95 Q3.55 -25.2 3.05 -25.2 L2.5 -25.4 1.95 -25.6 Q0.4 -25.6 0.4 -23.75 0.4 -21.8 1.95 -21.8 L2.25 -21.8 2.5 -21.8 3.1 -21.75 Q3.7 -21.75 3.7 -20.65 L3.7 -8.55 Q3.7 -4.8 4.15 -3.2 5.15 0.4 9.15 0.4 14.2 0.4 14.8 -6.05 L15.1 -9.3 Q15.1 -12.35 13.3 -12.35 12.1 -12.35 11.75 -11.2 11.6 -10.75 11.6 -9.1 L11.6 -8.6 Q11.6 -3.4 9.3 -3.4 7.55 -3.4 7.1 -6.15 L7.0 -10.2 7.0 -20.25 Q7.0 -21.25 7.15 -21.5 7.35 -21.8 7.95 -21.8 L9.75 -21.8 11.5 -21.8 Q13.6 -21.8 13.6 -23.75 13.6 -25.6 11.5 -25.6 L9.75 -25.3 8.1 -25.2 7.2 -25.4 Q7.0 -25.65 7.0 -26.55 L7.0 -30.7 Q7.0 -33.0 5.35 -33.0 3.7 -33.0 3.7 -30.7 L3.7 -26.6 3.6 -25.95" fill-rule="evenodd" stroke="none"/>
    </g>
    <g id="font_American_Typewriter_Condensed_i0">
      <path d="M6.2 -27.4 L6.2 -27.4 Q7.3 -27.4 8.05 -28.3 8.8 -29.25 8.8 -30.55 8.8 -31.8 8.05 -32.7 7.35 -33.6 6.3 -33.6 5.35 -33.6 4.6 -32.65 3.8 -31.65 3.8 -30.5 3.8 -29.15 4.5 -28.25 5.2 -27.4 6.2 -27.4 M8.2 -21.6 L8.2 -21.6 8.6 -23.0 8.6 -23.7 8.6 -24.35 Q8.6 -25.6 7.8 -25.6 L6.5 -25.3 5.15 -24.95 4.05 -25.2 2.85 -25.6 Q2.2 -25.6 1.7 -25.05 1.2 -24.5 1.2 -23.8 1.2 -22.2 2.7 -22.2 L2.95 -22.2 3.2 -22.2 3.55 -22.2 Q4.75 -22.2 4.75 -20.4 L4.8 -17.7 4.8 -15.45 4.8 -13.9 4.8 -7.9 4.65 -3.75 Q4.45 -3.0 3.65 -3.0 L3.2 -3.0 2.65 -3.0 Q1.2 -3.0 1.2 -1.3 1.2 0.4 2.85 0.4 L4.45 0.15 6.25 -0.15 8.25 0.15 10.2 0.4 Q11.8 0.4 11.8 -1.3 11.8 -3.0 10.45 -3.0 L9.85 -3.0 9.4 -3.0 Q8.55 -3.0 8.4 -3.75 8.2 -4.5 8.2 -7.9 L8.2 -10.15 8.2 -12.9 8.2 -16.25 8.2 -21.6" fill-rule="evenodd" stroke="none"/>
    </g>
    <g id="font_American_Typewriter_Condensed_c0">
      <path d="M12.6 -16.2 L12.6 -16.2 Q12.6 -15.05 13.3 -14.3 14.0 -13.6 15.1 -13.6 18.2 -13.6 18.2 -17.9 18.2 -21.25 16.15 -23.45 14.1 -25.6 10.8 -25.6 6.6 -25.6 4.2 -22.0 1.8 -18.4 1.8 -12.15 1.8 -6.25 4.2 -2.8 6.55 0.6 10.65 0.6 14.0 0.6 16.4 -2.0 18.8 -4.6 18.8 -8.15 18.8 -10.55 17.1 -10.55 15.55 -10.55 15.4 -7.9 15.25 -5.65 14.0 -4.2 12.8 -2.8 10.95 -2.8 8.35 -2.8 6.9 -5.3 5.4 -7.8 5.4 -12.15 5.4 -16.65 6.9 -19.45 8.4 -22.2 10.8 -22.2 13.6 -22.2 14.55 -18.8 12.6 -18.35 12.6 -16.2" fill-rule="evenodd" stroke="none"/>
    </g>
    <g id="font_American_Typewriter_Condensed_k0">
      <path d="M7.6 -24.35 L7.6 -24.35 7.6 -27.45 7.6 -30.6 7.6 -32.4 Q8.0 -32.6 8.0 -33.0 8.0 -34.2 7.1 -34.2 L6.05 -34.0 4.55 -33.9 3.5 -33.95 2.25 -34.2 Q1.6 -34.2 1.1 -33.65 0.6 -33.1 0.6 -32.4 0.6 -30.8 2.15 -30.8 L2.65 -30.8 3.0 -30.8 Q4.15 -30.8 4.2 -29.05 L4.2 -26.35 4.2 -24.1 4.2 -22.6 4.2 -10.05 4.2 -7.8 3.95 -3.7 Q3.8 -3.0 3.05 -3.0 L2.55 -3.0 2.0 -3.0 Q0.6 -3.0 0.6 -1.3 0.6 0.4 2.2 0.4 L4.05 0.15 5.95 -0.15 7.7 0.15 9.4 0.4 Q10.05 0.4 10.65 -0.2 11.2 -0.75 11.2 -1.5 11.2 -3.0 9.8 -3.0 L9.1 -3.0 8.65 -3.0 Q7.9 -3.0 7.8 -4.25 L7.6 -5.0 7.6 -8.05 Q7.6 -9.0 8.35 -9.8 L9.65 -11.3 10.15 -11.8 Q10.5 -12.2 10.75 -12.2 11.25 -12.2 12.25 -10.4 L14.95 -5.4 15.5 -4.35 15.75 -3.55 Q15.75 -3.0 15.1 -3.0 L14.9 -3.0 14.3 -3.0 Q12.8 -3.0 12.8 -1.4 12.8 0.4 14.45 0.4 L16.3 0.15 18.15 -0.15 20.85 0.15 22.25 0.4 Q23.8 0.4 23.8 -1.3 23.8 -3.0 22.45 -3.0 L21.7 -3.05 21.5 -3.05 Q20.5 -3.05 19.75 -4.35 L14.7 -13.35 14.15 -14.35 13.75 -15.2 14.35 -16.15 17.65 -19.95 Q19.45 -22.0 20.25 -22.0 L20.4 -22.0 21.15 -22.0 Q21.75 -21.95 22.2 -22.5 22.6 -23.05 22.6 -23.75 22.6 -25.4 21.0 -25.4 L19.05 -25.15 17.1 -24.85 14.95 -25.15 12.95 -25.4 Q12.25 -25.4 11.7 -24.85 11.2 -24.3 11.2 -23.55 11.2 -22.0 12.85 -22.0 L13.3 -22.0 13.75 -22.0 Q14.5 -22.0 14.5 -21.35 14.5 -20.9 13.65 -20.0 L7.6 -13.35 7.6 -24.35" fill-rule="evenodd" stroke="none"/>
    </g>
    <g id="font_American_Typewriter_Condensed__0">
      <path d="M5.9 -27.25 L5.9 -27.25 5.75 -26.25 Q5.25 -24.1 4.55 -23.05 L3.95 -22.05 3.7 -21.3 Q3.7 -20.4 4.7 -20.4 5.45 -20.4 6.15 -21.7 L6.75 -22.9 Q8.4 -26.25 8.4 -29.6 8.4 -34.6 5.25 -34.6 2.6 -34.6 2.6 -31.3 2.6 -29.95 3.25 -29.05 3.9 -28.2 4.85 -28.2 L5.7 -28.2 5.9 -27.25" fill-rule="evenodd" stroke="none"/>
    </g>
    <g id="font_American_Typewriter_Condensed_e0">
      <path d="M5.8 -16.1 L5.8 -16.1 5.85 -16.6 6.45 -18.8 Q7.8 -22.2 10.8 -22.2 12.75 -22.2 14.1 -20.55 15.4 -18.9 15.4 -16.4 15.4 -15.6 15.1 -15.4 L13.55 -15.2 7.15 -15.2 Q5.8 -15.2 5.8 -16.1 M19.2 -14.55 L19.2 -14.55 Q19.2 -19.4 16.95 -22.5 14.65 -25.6 11.05 -25.6 6.95 -25.6 4.35 -21.85 1.8 -18.15 1.8 -12.25 1.8 -6.35 4.2 -2.85 6.65 0.6 10.65 0.6 13.95 0.6 16.45 -1.9 18.9 -4.35 18.9 -7.7 18.9 -9.5 17.3 -9.5 15.85 -9.5 15.5 -8.05 L15.05 -6.3 Q14.65 -4.75 13.45 -3.75 12.3 -2.8 10.8 -2.8 8.45 -2.8 7.05 -4.9 5.6 -7.0 5.6 -10.35 5.6 -11.35 5.9 -11.55 L7.45 -11.8 17.6 -11.8 Q18.7 -11.8 18.95 -12.2 L19.2 -14.55" fill-rule="evenodd" stroke="none"/>
    </g>
    <g id="font_American_Typewriter_Condensed_m0">
      <path d="M8.2 -23.75 L8.2 -23.75 Q8.2 -25.4 7.4 -25.4 L6.8 -25.25 5.3 -25.0 4.05 -25.2 2.8 -25.4 Q2.15 -25.4 1.65 -24.85 1.2 -24.35 1.2 -23.6 1.2 -22.0 2.55 -22.0 L2.9 -22.0 3.35 -22.0 3.45 -22.0 3.55 -22.0 Q4.35 -22.0 4.6 -21.1 4.8 -20.25 4.8 -16.95 L4.8 -7.85 4.65 -3.75 Q4.45 -3.0 3.65 -3.0 L3.2 -3.0 2.65 -3.0 Q1.2 -3.0 1.2 -1.3 1.2 0.4 2.85 0.4 L4.4 0.15 6.0 -0.15 7.8 0.15 9.6 0.4 Q11.4 0.4 11.4 -1.4 11.4 -3.0 10.0 -3.0 L9.45 -3.0 8.85 -3.0 Q8.3 -3.0 8.25 -5.1 L8.2 -12.95 Q8.2 -17.8 9.3 -20.0 10.35 -22.2 12.8 -22.2 15.1 -22.2 15.95 -20.5 16.8 -18.85 16.8 -14.45 L16.8 -7.25 16.6 -4.9 Q16.5 -3.0 15.5 -3.0 L14.65 -3.0 Q13.4 -3.0 13.4 -1.4 13.4 0.4 14.9 0.4 L16.3 0.15 18.4 -0.15 20.15 0.15 21.9 0.4 Q23.4 0.4 23.4 -1.25 23.4 -3.0 21.65 -3.0 L21.25 -3.0 Q20.7 -3.0 20.45 -3.25 20.2 -3.5 20.2 -4.4 L20.2 -14.7 Q20.2 -18.8 21.15 -20.5 22.1 -22.2 24.35 -22.2 26.75 -22.2 27.6 -20.6 28.4 -19.0 28.4 -14.5 L28.4 -10.95 28.4 -8.0 28.2 -5.0 28.2 -4.85 28.1 -3.3 Q27.95 -3.0 27.5 -3.0 L27.35 -3.0 26.55 -3.0 Q25.2 -3.0 25.2 -1.45 25.2 0.4 27.05 0.4 L28.65 0.15 30.45 -0.15 32.1 0.15 33.8 0.4 Q35.4 0.4 35.4 -1.3 35.4 -3.0 34.05 -3.0 L33.45 -3.0 33.0 -3.0 Q32.15 -3.0 32.0 -3.75 31.8 -4.5 31.8 -7.8 L31.8 -15.4 Q31.8 -20.3 30.85 -22.3 29.2 -25.6 24.8 -25.6 20.65 -25.6 18.8 -22.4 17.55 -24.2 16.4 -24.9 15.25 -25.6 13.45 -25.6 10.85 -25.6 8.2 -22.9 L8.2 -23.75" fill-rule="evenodd" stroke="none"/>
    </g>
    <g id="font_American_Typewriter_Condensed_u0">
      <path d="M17.2 -1.2 L17.2 -1.2 Q17.2 0.4 18.1 0.4 L19.05 0.15 20.1 -0.1 21.4 0.15 22.7 0.4 Q24.2 0.4 24.2 -1.35 24.2 -3.0 22.9 -3.0 L22.1 -3.0 21.85 -3.0 Q21.0 -3.0 20.8 -3.85 20.6 -4.75 20.6 -8.0 L20.6 -19.15 20.6 -23.25 20.6 -24.0 Q20.6 -25.4 19.8 -25.4 L18.55 -25.2 17.35 -24.95 16.15 -25.2 15.05 -25.4 Q14.4 -25.4 13.9 -24.85 13.4 -24.3 13.4 -23.6 13.4 -22.0 15.0 -22.0 L15.3 -22.0 15.55 -22.0 15.9 -22.0 Q17.15 -22.0 17.2 -20.25 L17.2 -17.55 17.2 -13.85 17.2 -12.4 Q17.2 -2.8 12.05 -2.8 9.5 -2.8 8.45 -4.55 7.4 -6.35 7.4 -10.6 L7.4 -15.05 7.4 -21.75 7.8 -23.95 7.8 -24.45 Q7.8 -25.4 7.0 -25.4 L6.85 -25.4 6.6 -25.35 5.75 -25.15 4.55 -25.0 3.3 -25.2 2.0 -25.4 Q1.35 -25.4 0.9 -24.85 0.4 -24.35 0.4 -23.6 0.4 -22.0 1.75 -22.0 L2.1 -22.0 2.55 -22.0 2.65 -22.0 2.75 -22.0 Q3.55 -22.0 3.8 -21.1 4.0 -20.25 4.0 -17.05 L3.9 -10.25 4.0 -6.85 Q4.05 -4.85 4.85 -3.2 5.7 -1.55 7.55 -0.45 9.4 0.6 11.4 0.6 14.95 0.6 17.2 -2.35 L17.2 -1.2" fill-rule="evenodd" stroke="none"/>
    </g>
    <g id="font_American_Typewriter_Condensed_p0">
      <path d="M12.15 -2.8 L12.15 -2.8 Q9.8 -2.8 8.5 -5.25 7.2 -7.75 7.2 -12.2 7.2 -16.8 8.55 -19.3 9.85 -21.8 12.3 -21.8 14.7 -21.8 16.05 -19.4 17.4 -17.05 17.4 -12.75 17.4 -8.1 16.0 -5.45 14.6 -2.8 12.15 -2.8 M7.2 -23.8 L7.2 -23.8 Q7.2 -25.4 6.5 -25.4 L6.0 -25.35 4.4 -25.0 2.9 -25.2 1.75 -25.4 Q0.2 -25.4 0.2 -23.6 0.2 -22.0 1.55 -22.0 L1.9 -22.0 2.35 -22.0 2.5 -22.0 2.6 -22.0 Q3.4 -22.0 3.6 -21.1 3.8 -20.25 3.8 -17.0 L3.8 0.35 3.65 4.45 Q3.45 5.2 2.65 5.2 L2.15 5.2 1.6 5.2 Q0.2 5.2 0.2 6.95 0.2 8.6 1.8 8.6 L3.25 8.3 5.55 8.0 7.5 8.3 9.2 8.6 Q10.8 8.6 10.8 6.95 10.8 5.2 9.45 5.2 L8.85 5.2 8.4 5.2 Q7.55 5.2 7.4 4.45 7.2 3.7 7.2 0.3 L7.2 -1.55 Q9.5 0.6 12.2 0.6 16.15 0.6 18.6 -3.1 21.0 -6.8 21.0 -12.85 21.0 -18.7 18.8 -22.15 16.6 -25.6 12.9 -25.6 10.05 -25.6 7.05 -22.85 L7.2 -23.8" fill-rule="evenodd" stroke="none"/>
    </g>
    <g id="font_American_Typewriter_Condensed__2">
      <path d="M5.9 -7.75 L5.9 -7.75 Q7.55 -7.75 7.6 -10.35 L8.0 -32.6 Q8.05 -35.0 5.9 -35.0 4.0 -35.0 4.05 -32.6 L4.2 -10.35 Q4.25 -7.75 5.9 -7.75 M6.0 0.4 L6.0 0.4 Q7.15 0.4 7.85 -0.5 8.6 -1.4 8.6 -2.8 8.6 -4.2 7.85 -5.1 7.15 -6.0 6.0 -6.0 4.9 -6.0 4.15 -5.1 3.4 -4.2 3.4 -2.8 3.4 -1.4 4.15 -0.5 4.9 0.4 6.0 0.4" fill-rule="evenodd" stroke="none"/>
    </g>
  </defs>
</svg>
