<?xml version="1.0" encoding="UTF-8" standalone="no"?>
<svg xmlns:xlink="http://www.w3.org/1999/xlink" height="28.8px" width="71.35px" xmlns="http://www.w3.org/2000/svg">
  <g transform="matrix(1.0, 0.0, 0.0, 1.0, 0.05, -2.55)">
    <g transform="matrix(1.0, 0.0, 0.0, 1.0, 0.0, 0.0)">
      <use fill="#000000" height="28.8" transform="matrix(0.2734, 0.0, 0.0, 0.2734, 0.0, 12.0)" width="71.35" xlink:href="#font_American_Typewriter_Condensed_W0"/>
      <use fill="#000000" height="28.8" transform="matrix(0.2734, 0.0, 0.0, 0.2734, 9.6, 12.0)" width="71.35" xlink:href="#font_American_Typewriter_Condensed_h0"/>
      <use fill="#000000" height="28.8" transform="matrix(0.2734, 0.0, 0.0, 0.2734, 16.45, 12.0)" width="71.35" xlink:href="#font_American_Typewriter_Condensed_o0"/>
      <use fill="#000000" height="28.8" transform="matrix(0.2734, 0.0, 0.0, 0.2734, 22.45, 12.0)" width="71.35" xlink:href="#font_American_Typewriter_Condensed__0"/>
      <use fill="#000000" height="28.8" transform="matrix(0.2734, 0.0, 0.0, 0.2734, 25.55, 12.0)" width="71.35" xlink:href="#font_American_Typewriter_Condensed_s0"/>
      <use fill="#000000" height="28.8" transform="matrix(0.2734, 0.0, 0.0, 0.2734, 34.8, 12.0)" width="71.35" xlink:href="#font_American_Typewriter_Condensed_g0"/>
      <use fill="#000000" height="28.8" transform="matrix(0.2734, 0.0, 0.0, 0.2734, 40.7, 12.0)" width="71.35" xlink:href="#font_American_Typewriter_Condensed_o0"/>
      <use fill="#000000" height="28.8" transform="matrix(0.2734, 0.0, 0.0, 0.2734, 46.7, 12.0)" width="71.35" xlink:href="#font_American_Typewriter_Condensed_t0"/>
      <use fill="#000000" height="28.8" transform="matrix(0.2734, 0.0, 0.0, 0.2734, 54.7, 12.0)" width="71.35" xlink:href="#font_American_Typewriter_Condensed_t0"/>
      <use fill="#000000" height="28.8" transform="matrix(0.2734, 0.0, 0.0, 0.2734, 59.2, 12.0)" width="71.35" xlink:href="#font_American_Typewriter_Condensed_h0"/>
      <use fill="#000000" height="28.8" transform="matrix(0.2734, 0.0, 0.0, 0.2734, 66.05, 12.0)" width="71.35" xlink:href="#font_American_Typewriter_Condensed_e0"/>
    </g>
    <g transform="matrix(1.0, 0.0, 0.0, 1.0, 0.0, 0.0)">
      <use fill="#000000" height="28.8" transform="matrix(0.2734, 0.0, 0.0, 0.2734, 0.0, 29.0)" width="71.35" xlink:href="#font_American_Typewriter_Condensed_p0"/>
      <use fill="#000000" height="28.8" transform="matrix(0.2734, 0.0, 0.0, 0.2734, 6.2, 29.0)" width="71.35" xlink:href="#font_American_Typewriter_Condensed_o0"/>
      <use fill="#000000" height="28.8" transform="matrix(0.2734, 0.0, 0.0, 0.2734, 12.2, 29.0)" width="71.35" xlink:href="#font_American_Typewriter_Condensed_w0"/>
      <use fill="#000000" height="28.8" transform="matrix(0.2734, 0.0, 0.0, 0.2734, 21.0, 29.0)" width="71.35" xlink:href="#font_American_Typewriter_Condensed_e0"/>
      <use fill="#000000" height="28.8" transform="matrix(0.2734, 0.0, 0.0, 0.2734, 26.8, 29.0)" width="71.35" xlink:href="#font_American_Typewriter_Condensed_r0"/>
      <use fill="#000000" height="28.8" transform="matrix(0.2734, 0.0, 0.0, 0.2734, 35.75, 29.0)" width="71.35" xlink:href="#font_American_Typewriter_Condensed_n0"/>
      <use fill="#000000" height="28.8" transform="matrix(0.2734, 0.0, 0.0, 0.2734, 42.8, 29.0)" width="71.35" xlink:href="#font_American_Typewriter_Condensed_o0"/>
      <use fill="#000000" height="28.8" transform="matrix(0.2734, 0.0, 0.0, 0.2734, 48.8, 29.0)" width="71.35" xlink:href="#font_American_Typewriter_Condensed_w0"/>
      <use fill="#000000" height="28.8" transform="matrix(0.2734, 0.0, 0.0, 0.2734, 57.6, 29.0)" width="71.35" xlink:href="#font_American_Typewriter_Condensed__2"/>
    </g>
  </g>
  <defs>
    <g id="font_American_Typewriter_Condensed_W0">
      <path d="M7.7 -29.15 L7.7 -29.15 7.7 -29.45 Q7.7 -30.9 8.95 -30.9 L9.8 -30.75 10.6 -30.6 Q12.2 -30.6 12.2 -32.4 12.2 -34.4 10.5 -34.4 L8.15 -34.1 5.75 -33.8 3.7 -34.1 1.6 -34.4 Q0.9 -34.4 0.35 -33.8 -0.2 -33.25 -0.2 -32.45 -0.2 -30.6 1.2 -30.6 L1.3 -30.6 2.1 -30.85 2.2 -30.85 Q3.05 -30.85 3.45 -29.85 L4.65 -24.6 8.9 -1.85 Q9.15 -0.4 9.5 0.0 9.9 0.4 11.2 0.4 12.3 0.4 12.75 -0.25 L13.3 -2.1 17.6 -26.8 21.55 -3.85 21.75 -2.25 Q22.1 0.4 24.25 0.4 26.05 0.4 26.45 -1.85 L30.45 -23.5 30.95 -26.35 31.25 -28.4 Q31.6 -30.9 32.65 -30.9 L33.3 -30.75 34.1 -30.6 Q35.6 -30.6 35.6 -32.45 35.6 -34.4 33.85 -34.4 L31.55 -34.1 29.25 -33.8 26.95 -34.1 24.65 -34.4 Q22.8 -34.4 22.8 -32.5 22.8 -30.6 24.35 -30.6 L25.35 -30.85 25.65 -30.9 26.0 -30.9 Q27.45 -30.9 27.45 -29.15 L27.25 -27.1 24.2 -6.1 19.95 -31.3 19.4 -33.45 Q18.9 -34.4 17.65 -34.4 16.6 -34.4 16.1 -33.75 15.65 -33.1 15.35 -31.3 L11.15 -6.6 7.95 -27.6 7.7 -29.15" fill-rule="evenodd" stroke="none"/>
    </g>
    <g id="font_American_Typewriter_Condensed_h0">
      <path d="M7.6 -32.9 L7.6 -32.9 Q7.6 -34.2 6.8 -34.2 L5.8 -34.05 4.4 -33.9 3.2 -34.05 2.05 -34.2 Q1.4 -34.2 0.9 -33.65 0.4 -33.1 0.4 -32.4 0.4 -30.8 2.05 -30.8 L2.6 -30.8 2.9 -30.8 Q4.15 -30.8 4.2 -29.05 L4.2 -26.35 4.2 -24.1 4.2 -22.6 4.2 -10.05 4.2 -7.8 3.95 -3.7 Q3.8 -3.0 2.95 -3.0 L2.5 -3.0 1.9 -3.0 Q0.4 -3.0 0.4 -1.3 0.4 0.4 2.1 0.4 L4.1 0.15 6.1 -0.15 7.9 0.0 9.75 0.4 Q11.4 0.4 11.4 -1.3 11.4 -3.0 9.95 -3.0 L9.35 -3.0 8.85 -3.0 Q8.0 -3.0 7.8 -3.75 7.6 -4.5 7.6 -7.85 L7.6 -10.05 7.6 -12.8 7.6 -13.5 Q7.6 -16.6 8.65 -19.2 9.8 -22.2 13.2 -22.2 17.8 -22.2 17.8 -15.35 L17.8 -7.85 17.65 -3.75 Q17.45 -3.0 16.65 -3.0 L16.15 -3.0 15.6 -3.0 Q14.2 -3.0 14.2 -1.3 14.2 0.4 15.8 0.4 L17.25 0.0 18.9 -0.2 21.5 0.15 23.2 0.4 Q24.8 0.4 24.8 -1.3 24.8 -3.0 23.45 -3.0 L22.85 -3.0 22.4 -3.0 Q21.55 -3.0 21.4 -3.75 21.2 -4.5 21.2 -7.8 L21.2 -16.05 Q21.2 -20.35 19.85 -22.4 17.9 -25.6 13.75 -25.6 10.35 -25.6 7.6 -22.75 L7.6 -32.8 7.6 -32.9" fill-rule="evenodd" stroke="none"/>
    </g>
    <g id="font_American_Typewriter_Condensed_o0">
      <path d="M11.0 -22.2 L11.0 -22.2 Q13.55 -22.2 15.1 -19.5 16.6 -16.85 16.6 -12.45 16.6 -8.1 15.1 -5.45 13.55 -2.8 11.0 -2.8 8.45 -2.8 6.9 -5.45 5.4 -8.1 5.4 -12.45 5.4 -16.85 6.9 -19.5 8.45 -22.2 11.0 -22.2 M10.9 0.6 L10.9 0.6 Q15.1 0.6 17.55 -2.9 20.0 -6.45 20.0 -12.45 20.0 -18.45 17.55 -22.05 15.1 -25.6 10.9 -25.6 6.7 -25.6 4.25 -22.05 1.8 -18.45 1.8 -12.45 1.8 -6.45 4.25 -2.9 6.7 0.6 10.9 0.6" fill-rule="evenodd" stroke="none"/>
    </g>
    <g id="font_American_Typewriter_Condensed__0">
      <path d="M5.9 -27.25 L5.9 -27.25 5.75 -26.25 Q5.25 -24.1 4.55 -23.05 L3.95 -22.05 3.7 -21.3 Q3.7 -20.4 4.7 -20.4 5.45 -20.4 6.15 -21.7 L6.75 -22.9 Q8.4 -26.25 8.4 -29.6 8.4 -34.6 5.25 -34.6 2.6 -34.6 2.6 -31.3 2.6 -29.95 3.25 -29.05 3.9 -28.2 4.85 -28.2 L5.7 -28.2 5.9 -27.25" fill-rule="evenodd" stroke="none"/>
    </g>
    <g id="font_American_Typewriter_Condensed_s0">
      <path d="M10.15 -25.6 L10.15 -25.6 Q6.9 -25.6 4.75 -23.4 2.6 -21.25 2.6 -17.95 2.6 -14.55 4.95 -12.9 6.7 -11.7 10.5 -11.05 13.35 -10.55 14.5 -9.65 15.6 -8.75 15.6 -6.95 15.6 -5.25 14.4 -4.1 13.15 -3.0 11.25 -3.0 5.8 -3.0 5.6 -8.55 5.5 -10.6 3.9 -10.6 2.4 -10.6 2.4 -8.95 L2.5 -7.05 2.6 -5.15 2.55 -2.75 2.4 -1.15 Q2.4 0.8 4.15 0.8 5.8 0.8 5.8 -1.4 L5.8 -1.85 Q8.3 0.4 11.15 0.4 14.6 0.4 16.8 -1.8 19.0 -4.05 19.0 -7.45 19.0 -10.85 16.65 -12.65 15.15 -13.8 11.2 -14.6 8.3 -15.25 7.25 -16.05 6.2 -16.85 6.2 -18.55 6.2 -20.25 7.3 -21.3 8.4 -22.4 10.15 -22.4 12.15 -22.4 13.3 -21.15 14.4 -19.95 14.4 -17.8 14.4 -15.4 16.25 -15.4 17.8 -15.4 17.8 -17.1 L17.6 -18.65 17.4 -20.25 17.7 -23.0 17.8 -24.1 Q17.8 -26.0 16.2 -26.0 14.7 -26.0 14.7 -23.85 12.45 -25.6 10.15 -25.6" fill-rule="evenodd" stroke="none"/>
    </g>
    <g id="font_American_Typewriter_Condensed_g0">
      <path d="M11.05 -3.2 L11.05 -3.2 Q13.85 -3.2 15.55 -2.0 17.2 -0.75 17.2 1.3 17.2 3.4 15.55 4.6 13.85 5.8 10.9 5.8 8.05 5.8 6.45 4.6 4.8 3.35 4.8 1.2 4.8 -0.8 6.5 -2.0 8.15 -3.2 11.05 -3.2 M11.2 -22.2 L11.2 -22.2 Q13.0 -22.2 14.1 -20.85 15.2 -19.55 15.2 -17.45 15.2 -15.3 14.15 -14.05 13.15 -12.8 11.4 -12.8 9.6 -12.8 8.5 -14.05 7.4 -15.3 7.4 -17.4 L7.45 -17.7 Q7.6 -22.2 11.2 -22.2 M11.55 -25.6 L11.55 -25.6 Q8.25 -25.6 6.15 -23.35 4.0 -21.1 4.0 -17.6 4.0 -15.7 4.85 -13.7 1.8 -11.95 1.8 -8.85 1.8 -5.7 4.85 -4.1 1.2 -2.2 1.2 1.8 1.2 5.1 3.85 7.15 6.5 9.2 10.85 9.2 15.25 9.2 17.95 7.0 20.6 4.75 20.6 1.05 20.6 -2.9 17.5 -5.05 15.85 -6.15 13.15 -6.45 L8.5 -6.7 Q5.2 -6.7 5.2 -8.95 5.2 -10.75 6.25 -10.75 L6.9 -10.55 Q9.25 -9.4 11.35 -9.4 14.5 -9.4 16.55 -11.75 18.6 -14.15 18.6 -17.75 18.6 -22.0 15.95 -24.3 L15.9 -25.0 Q15.9 -25.85 16.4 -26.5 16.9 -27.2 17.55 -27.2 18.05 -27.2 18.45 -26.45 17.8 -25.55 17.8 -24.75 17.8 -23.9 18.35 -23.35 18.95 -22.8 19.75 -22.8 21.8 -22.8 21.8 -25.5 21.8 -27.45 20.5 -28.8 19.2 -30.2 17.4 -30.2 13.45 -30.2 13.0 -25.6 L11.55 -25.6" fill-rule="evenodd" stroke="none"/>
    </g>
    <g id="font_American_Typewriter_Condensed_t0">
      <path d="M3.6 -25.95 L3.6 -25.95 Q3.55 -25.2 3.05 -25.2 L2.5 -25.4 1.95 -25.6 Q0.4 -25.6 0.4 -23.75 0.4 -21.8 1.95 -21.8 L2.25 -21.8 2.5 -21.8 3.1 -21.75 Q3.7 -21.75 3.7 -20.65 L3.7 -8.55 Q3.7 -4.8 4.15 -3.2 5.15 0.4 9.15 0.4 14.2 0.4 14.8 -6.05 L15.1 -9.3 Q15.1 -12.35 13.3 -12.35 12.1 -12.35 11.75 -11.2 11.6 -10.75 11.6 -9.1 L11.6 -8.6 Q11.6 -3.4 9.3 -3.4 7.55 -3.4 7.1 -6.15 L7.0 -10.2 7.0 -20.25 Q7.0 -21.25 7.15 -21.5 7.35 -21.8 7.95 -21.8 L9.75 -21.8 11.5 -21.8 Q13.6 -21.8 13.6 -23.75 13.6 -25.6 11.5 -25.6 L9.75 -25.3 8.1 -25.2 7.2 -25.4 Q7.0 -25.65 7.0 -26.55 L7.0 -30.7 Q7.0 -33.0 5.35 -33.0 3.7 -33.0 3.7 -30.7 L3.7 -26.6 3.6 -25.95" fill-rule="evenodd" stroke="none"/>
    </g>
    <g id="font_American_Typewriter_Condensed_e0">
      <path d="M5.8 -16.1 L5.8 -16.1 5.85 -16.6 6.45 -18.8 Q7.8 -22.2 10.8 -22.2 12.75 -22.2 14.1 -20.55 15.4 -18.9 15.4 -16.4 15.4 -15.6 15.1 -15.4 L13.55 -15.2 7.15 -15.2 Q5.8 -15.2 5.8 -16.1 M19.2 -14.55 L19.2 -14.55 Q19.2 -19.4 16.95 -22.5 14.65 -25.6 11.05 -25.6 6.95 -25.6 4.35 -21.85 1.8 -18.15 1.8 -12.25 1.8 -6.35 4.2 -2.85 6.65 0.6 10.65 0.6 13.95 0.6 16.45 -1.9 18.9 -4.35 18.9 -7.7 18.9 -9.5 17.3 -9.5 15.85 -9.5 15.5 -8.05 L15.05 -6.3 Q14.65 -4.75 13.45 -3.75 12.3 -2.8 10.8 -2.8 8.45 -2.8 7.05 -4.9 5.6 -7.0 5.6 -10.35 5.6 -11.35 5.9 -11.55 L7.45 -11.8 17.6 -11.8 Q18.7 -11.8 18.95 -12.2 L19.2 -14.55" fill-rule="evenodd" stroke="none"/>
    </g>
    <g id="font_American_Typewriter_Condensed_p0">
      <path d="M12.15 -2.8 L12.15 -2.8 Q9.8 -2.8 8.5 -5.25 7.2 -7.75 7.2 -12.2 7.2 -16.8 8.55 -19.3 9.85 -21.8 12.3 -21.8 14.7 -21.8 16.05 -19.4 17.4 -17.05 17.4 -12.75 17.4 -8.1 16.0 -5.45 14.6 -2.8 12.15 -2.8 M7.2 -23.8 L7.2 -23.8 Q7.2 -25.4 6.5 -25.4 L6.0 -25.35 4.4 -25.0 2.9 -25.2 1.75 -25.4 Q0.2 -25.4 0.2 -23.6 0.2 -22.0 1.55 -22.0 L1.9 -22.0 2.35 -22.0 2.5 -22.0 2.6 -22.0 Q3.4 -22.0 3.6 -21.1 3.8 -20.25 3.8 -17.0 L3.8 0.35 3.65 4.45 Q3.45 5.2 2.65 5.2 L2.15 5.2 1.6 5.2 Q0.2 5.2 0.2 6.95 0.2 8.6 1.8 8.6 L3.25 8.3 5.55 8.0 7.5 8.3 9.2 8.6 Q10.8 8.6 10.8 6.95 10.8 5.2 9.45 5.2 L8.85 5.2 8.4 5.2 Q7.55 5.2 7.4 4.45 7.2 3.7 7.2 0.3 L7.2 -1.55 Q9.5 0.6 12.2 0.6 16.15 0.6 18.6 -3.1 21.0 -6.8 21.0 -12.85 21.0 -18.7 18.8 -22.15 16.6 -25.6 12.9 -25.6 10.05 -25.6 7.05 -22.85 L7.2 -23.8" fill-rule="evenodd" stroke="none"/>
    </g>
    <g id="font_American_Typewriter_Condensed_w0">
      <path d="M7.7 -18.95 L7.7 -18.95 7.45 -20.85 Q7.45 -22.0 8.45 -22.0 L9.1 -22.0 Q10.6 -22.0 10.6 -23.75 10.6 -25.4 9.15 -25.4 L7.05 -25.15 5.0 -24.85 3.2 -25.1 1.45 -25.4 Q-0.2 -25.4 -0.2 -23.7 -0.2 -23.1 0.2 -22.55 0.65 -21.95 1.15 -22.0 L1.85 -22.0 2.0 -22.0 Q2.9 -22.0 3.3 -21.1 L3.8 -19.45 7.9 -2.2 Q8.55 0.6 10.45 0.6 12.45 0.6 13.0 -2.2 L16.25 -18.95 19.6 -2.65 Q20.3 0.6 22.35 0.6 24.5 0.6 25.05 -2.2 L27.85 -16.8 Q28.45 -19.9 29.0 -21.0 29.55 -22.05 30.5 -22.05 32.4 -22.05 32.4 -23.7 32.4 -25.4 31.0 -25.4 L29.15 -25.1 27.2 -24.8 25.2 -25.1 23.25 -25.4 Q21.8 -25.4 21.8 -23.65 21.8 -22.0 23.15 -22.0 L23.85 -22.0 24.0 -22.0 Q25.05 -22.0 25.05 -20.85 L24.8 -18.6 22.35 -4.45 18.75 -22.65 Q18.45 -24.25 17.9 -24.8 17.4 -25.4 16.25 -25.4 14.2 -25.4 13.75 -22.65 L10.6 -4.45 7.7 -18.95" fill-rule="evenodd" stroke="none"/>
    </g>
    <g id="font_American_Typewriter_Condensed_r0">
      <path d="M8.0 -23.9 L8.0 -23.9 Q7.95 -25.4 7.5 -25.4 L7.1 -25.35 5.45 -25.0 4.1 -25.2 2.8 -25.4 Q2.15 -25.4 1.7 -24.85 1.2 -24.35 1.2 -23.6 1.2 -22.0 2.55 -22.0 L2.9 -22.0 3.35 -22.0 3.45 -22.0 3.55 -22.0 Q4.35 -22.0 4.6 -21.1 4.8 -20.25 4.8 -16.95 L4.8 -7.85 4.65 -3.75 Q4.45 -3.0 3.65 -3.0 L3.2 -3.0 2.65 -3.0 Q1.2 -3.0 1.2 -1.3 1.2 0.4 2.85 0.4 L4.65 0.15 6.75 -0.15 8.9 0.0 11.15 0.4 Q12.8 0.4 12.8 -1.4 12.8 -3.0 11.3 -3.0 L10.35 -3.0 9.45 -3.0 Q8.6 -3.0 8.4 -4.05 8.2 -5.05 8.2 -9.45 L8.2 -13.6 Q8.2 -22.2 12.55 -22.2 13.75 -22.2 14.55 -21.3 15.4 -20.45 15.4 -19.2 L15.35 -18.35 Q13.2 -18.05 13.2 -16.05 13.2 -15.0 13.9 -14.3 14.65 -13.6 15.7 -13.6 17.05 -13.6 17.95 -15.0 18.8 -16.45 18.8 -18.7 18.8 -21.75 17.15 -23.65 15.5 -25.6 12.8 -25.6 10.1 -25.6 8.0 -23.25 L8.0 -23.9" fill-rule="evenodd" stroke="none"/>
    </g>
    <g id="font_American_Typewriter_Condensed_n0">
      <path d="M8.2 -24.2 L8.2 -24.2 Q8.2 -25.4 7.4 -25.4 L6.35 -25.15 5.2 -25.0 3.9 -25.2 2.6 -25.4 Q1.95 -25.4 1.5 -24.85 1.0 -24.35 1.0 -23.6 1.0 -22.0 2.45 -22.0 L2.8 -22.0 3.3 -22.0 3.4 -22.0 3.5 -22.0 Q4.35 -22.0 4.6 -21.1 4.8 -20.25 4.8 -16.95 L4.8 -7.85 4.65 -3.75 Q4.45 -3.0 3.6 -3.0 L3.1 -3.0 2.5 -3.0 Q1.0 -3.0 1.0 -1.3 1.0 0.4 2.6 0.4 L4.35 0.05 6.3 -0.15 8.25 0.0 10.2 0.4 Q11.8 0.4 11.8 -1.3 11.8 -3.0 10.45 -3.0 L9.85 -3.0 9.4 -3.0 Q8.55 -3.0 8.4 -3.75 8.2 -4.45 8.2 -7.75 L8.2 -14.0 Q8.2 -17.75 9.65 -19.95 11.1 -22.2 13.6 -22.2 16.05 -22.2 17.15 -20.5 18.2 -18.8 18.2 -14.95 L18.2 -9.95 18.2 -7.75 18.0 -3.65 Q17.85 -3.0 17.1 -3.0 L16.6 -3.0 16.0 -3.0 Q15.45 -3.0 15.0 -2.5 14.6 -2.0 14.6 -1.3 14.6 0.4 16.25 0.4 L18.2 0.15 20.15 -0.15 21.95 0.15 23.65 0.4 Q25.2 0.4 25.2 -1.3 25.2 -3.0 23.85 -3.0 L23.25 -3.0 22.8 -3.0 Q21.95 -3.0 21.8 -3.75 21.6 -4.5 21.6 -7.8 L21.6 -15.15 Q21.6 -20.55 20.35 -22.65 18.5 -25.6 14.25 -25.6 10.45 -25.6 8.2 -23.05 L8.2 -24.2" fill-rule="evenodd" stroke="none"/>
    </g>
    <g id="font_American_Typewriter_Condensed__2">
      <path d="M17.05 -16.1 L17.05 -16.1 Q22.4 -19.45 22.4 -24.9 22.4 -29.3 19.8 -31.95 17.2 -34.6 12.9 -34.6 8.6 -34.6 5.8 -31.85 3.0 -29.15 3.0 -24.95 3.0 -22.5 4.2 -20.95 5.35 -19.4 7.25 -19.4 8.6 -19.4 9.5 -20.35 10.4 -21.35 10.4 -22.75 10.4 -23.8 9.85 -24.5 9.25 -25.2 8.4 -25.2 7.85 -25.2 7.25 -24.6 L6.8 -24.35 Q6.4 -24.35 6.4 -25.25 6.4 -27.65 8.35 -29.4 10.25 -31.2 12.85 -31.2 15.5 -31.2 17.15 -29.4 18.8 -27.65 18.8 -24.85 18.8 -23.0 18.0 -21.75 17.15 -20.55 14.95 -19.05 11.9 -17.0 10.8 -15.25 9.4 -13.0 9.4 -10.0 9.4 -7.45 11.1 -7.45 12.75 -7.45 12.8 -9.1 L12.8 -10.4 Q12.85 -12.3 13.75 -13.45 14.6 -14.55 17.05 -16.1 M11.4 0.4 L11.4 0.4 Q12.55 0.4 13.3 -0.5 14.0 -1.4 14.0 -2.8 14.0 -4.2 13.3 -5.1 12.55 -6.0 11.4 -6.0 10.3 -6.0 9.55 -5.1 8.8 -4.2 8.8 -2.8 8.8 -1.4 9.55 -0.5 10.3 0.4 11.4 0.4" fill-rule="evenodd" stroke="none"/>
    </g>
  </defs>
</svg>
