<?xml version="1.0" encoding="UTF-8" standalone="no"?>
<svg xmlns:xlink="http://www.w3.org/1999/xlink" height="13.85px" width="97.4px" xmlns="http://www.w3.org/2000/svg">
  <g transform="matrix(1.0, 0.0, 0.0, 1.0, -46.6, -3.75)">
    <g transform="matrix(1.0, 0.0, 0.0, 1.0, 0.0, 0.0)">
      <use fill="#e5e6c7" height="13.85" transform="matrix(0.3906, 0.0, 0.0, 0.3906, 46.0, 17.0)" width="97.4" xlink:href="#font_SignPainter-HouseInformal_T0"/>
      <use fill="#e5e6c7" height="13.85" transform="matrix(0.3906, 0.0, 0.0, 0.3906, 57.5, 17.0)" width="97.4" xlink:href="#font_SignPainter-HouseInformal_i0"/>
      <use fill="#e5e6c7" height="13.85" transform="matrix(0.3906, 0.0, 0.0, 0.3906, 62.55, 17.0)" width="97.4" xlink:href="#font_SignPainter-HouseInformal_g0"/>
      <use fill="#e5e6c7" height="13.85" transform="matrix(0.3906, 0.0, 0.0, 0.3906, 77.1, 17.0)" width="97.4" xlink:href="#font_SignPainter-HouseInformal_h0"/>
      <use fill="#e5e6c7" height="13.85" transform="matrix(0.3906, 0.0, 0.0, 0.3906, 90.65, 17.0)" width="97.4" xlink:href="#font_SignPainter-HouseInformal_t0"/>
      <use fill="#e5e6c7" height="13.85" transform="matrix(0.3906, 0.0, 0.0, 0.3906, 102.55, 17.0)" width="97.4" xlink:href="#font_SignPainter-HouseInformal_w0"/>
      <use fill="#e5e6c7" height="13.85" transform="matrix(0.3906, 0.0, 0.0, 0.3906, 117.85, 17.0)" width="97.4" xlink:href="#font_SignPainter-HouseInformal_a0"/>
      <use fill="#e5e6c7" height="13.85" transform="matrix(0.3906, 0.0, 0.0, 0.3906, 128.3, 17.0)" width="97.4" xlink:href="#font_SignPainter-HouseInformal_d0"/>
    </g>
  </g>
  <defs>
    <g id="font_SignPainter-HouseInformal_T0">
      <path d="M32.6 -28.9 L32.6 -28.9 Q34.05 -30.6 31.35 -30.7 L18.35 -30.7 Q11.0 -30.7 5.25 -30.35 2.3 -30.3 0.95 -28.45 -0.6 -25.95 2.65 -26.15 L11.65 -26.5 11.85 -18.5 12.05 -9.0 12.3 -1.05 Q12.45 2.3 16.45 0.65 18.45 -0.05 19.4 -1.25 20.35 -2.4 20.4 -4.7 L20.7 -15.15 20.95 -26.9 27.85 -27.35 Q31.5 -27.45 32.6 -28.9 L32.6 -28.9" fill-rule="evenodd" stroke="none"/>
    </g>
    <g id="font_SignPainter-HouseInformal_i0">
      <path d="M7.85 1.2 L7.85 1.2 Q9.9 0.4 10.75 -0.8 11.6 -2.0 11.55 -4.3 L11.65 -16.0 11.75 -28.7 Q11.9 -32.65 7.05 -30.85 4.8 -30.1 3.55 -28.8 2.25 -27.5 2.4 -24.75 L3.05 -12.85 3.8 -0.55 Q4.1 2.8 7.85 1.2 L7.85 1.2" fill-rule="evenodd" stroke="none"/>
    </g>
    <g id="font_SignPainter-HouseInformal_g0">
      <path d="M38.65 -17.2 L38.65 -17.2 37.0 -18.65 34.8 -18.9 Q31.1 -18.65 26.75 -17.6 22.4 -16.5 19.6 -15.35 17.0 -14.45 15.8 -12.6 14.85 -11.0 14.55 -9.0 14.3 -6.8 16.55 -7.7 L23.95 -10.05 32.05 -11.85 Q31.15 -8.4 27.9 -5.85 24.65 -3.35 20.15 -3.05 15.65 -2.95 13.2 -5.45 10.7 -7.95 10.5 -12.2 10.45 -19.8 14.05 -23.3 17.65 -26.8 20.9 -26.75 23.95 -26.8 26.35 -23.45 29.65 -20.05 33.35 -20.55 37.4 -20.85 36.0 -23.55 34.8 -26.45 31.35 -28.85 27.9 -31.25 23.15 -31.25 20.15 -31.1 17.7 -30.0 L12.5 -27.55 Q8.05 -25.7 4.4 -22.35 0.75 -18.95 1.05 -11.7 1.5 -6.1 5.7 -2.5 9.95 1.05 17.45 0.9 24.45 0.5 31.0 -3.6 37.5 -7.65 39.75 -13.8 40.3 -15.35 38.65 -17.2 L38.65 -17.2" fill-rule="evenodd" stroke="none"/>
    </g>
    <g id="font_SignPainter-HouseInformal_h0">
      <path d="M11.55 -7.35 L11.55 -7.35 27.0 -8.8 Q27.15 -3.55 27.45 0.1 27.6 3.25 31.45 1.5 33.2 0.7 34.15 -0.4 35.1 -1.5 35.2 -4.1 L35.5 -16.3 35.9 -29.85 Q35.8 -33.45 31.5 -31.7 29.4 -31.0 28.0 -29.4 26.65 -27.8 26.6 -24.6 L26.65 -19.9 26.9 -12.75 11.55 -11.65 11.55 -21.3 11.5 -30.1 Q11.2 -33.65 6.9 -31.75 4.75 -31.0 3.4 -29.9 2.0 -28.8 2.0 -26.15 L2.3 -19.2 3.0 -8.95 3.75 -0.1 Q3.95 2.85 7.8 1.2 9.7 0.45 10.6 -0.8 11.55 -2.0 11.55 -4.3 L11.55 -7.35 11.55 -7.35" fill-rule="evenodd" stroke="none"/>
    </g>
    <g id="font_SignPainter-HouseInformal_t0">
      <path d="M32.6 -28.9 L32.6 -28.9 Q34.05 -30.6 31.35 -30.7 L18.35 -30.7 Q11.0 -30.7 5.25 -30.35 2.3 -30.3 0.95 -28.45 -0.6 -25.95 2.65 -26.15 L11.65 -26.5 11.85 -18.5 12.05 -9.0 12.3 -1.05 Q12.45 2.3 16.45 0.65 18.45 -0.05 19.4 -1.25 20.35 -2.4 20.4 -4.7 L20.7 -15.15 20.95 -26.9 27.85 -27.35 Q31.5 -27.45 32.6 -28.9 L32.6 -28.9" fill-rule="evenodd" stroke="none"/>
    </g>
    <g id="font_SignPainter-HouseInformal_w0">
      <path d="M38.35 -7.75 L38.35 -7.75 Q36.15 -14.05 34.5 -19.55 L31.7 -28.75 Q30.95 -31.45 28.05 -30.9 24.15 -30.35 22.95 -27.05 L19.7 -16.55 16.7 -6.95 Q13.9 -13.7 11.45 -20.15 L7.6 -30.55 Q6.85 -32.6 4.35 -31.25 -0.75 -28.6 0.85 -24.35 2.45 -19.6 5.3 -12.5 8.15 -5.4 10.45 -0.55 11.3 1.3 13.55 0.75 16.05 0.45 17.55 -0.45 19.1 -1.35 19.65 -3.6 21.1 -9.15 22.4 -13.1 23.7 -17.05 24.95 -20.15 L28.25 -10.05 Q30.05 -4.8 31.55 -1.5 32.6 0.65 35.2 0.25 37.7 -0.05 39.1 -0.95 40.5 -1.85 41.25 -4.05 43.75 -11.15 45.4 -15.3 L48.85 -23.55 Q49.8 -25.55 50.25 -27.65 50.7 -29.8 50.15 -31.35 48.25 -34.85 46.65 -30.85 45.25 -26.25 42.9 -19.9 L38.35 -7.75 38.35 -7.75" fill-rule="evenodd" stroke="none"/>
    </g>
    <g id="font_SignPainter-HouseInformal_a0">
      <path d="M9.25 -9.05 L9.25 -9.05 12.7 -16.85 16.05 -23.95 21.15 -10.7 9.25 -9.05 9.25 -9.05 M22.3 -30.15 L22.3 -30.15 Q21.55 -32.1 19.25 -31.35 L15.55 -30.1 Q14.0 -29.4 13.25 -27.9 L6.1 -11.5 1.1 -0.55 Q0.15 1.65 0.95 2.2 1.8 2.8 3.1 2.2 5.3 1.4 6.95 -3.35 L7.6 -5.15 14.85 -6.4 22.3 -7.45 25.4 1.1 Q26.15 3.0 28.55 1.7 30.45 0.85 31.6 -0.8 32.55 -1.95 31.7 -4.25 L27.3 -16.9 22.3 -30.15 22.3 -30.15" fill-rule="evenodd" stroke="none"/>
    </g>
    <g id="font_SignPainter-HouseInformal_d0">
      <path d="M13.35 -21.95 L13.35 -21.95 Q19.95 -20.35 25.25 -18.05 30.5 -15.75 30.8 -12.95 30.4 -9.55 24.75 -6.55 19.15 -3.6 13.45 -2.75 13.25 -10.95 13.35 -21.95 L13.35 -21.95 M4.25 -23.9 L4.25 -23.9 4.7 -12.15 Q4.95 -6.8 5.35 -1.7 5.4 -0.05 6.5 0.55 7.65 1.2 10.6 1.1 17.0 0.85 23.5 -1.5 30.05 -3.9 34.5 -7.6 38.95 -11.3 39.1 -15.6 38.65 -20.75 32.55 -24.05 26.4 -27.4 19.3 -29.1 12.2 -30.8 8.85 -31.05 4.6 -31.45 3.2 -29.95 1.6 -28.55 0.6 -26.7 -0.55 -24.95 1.95 -24.3 L4.25 -23.9 4.25 -23.9" fill-rule="evenodd" stroke="none"/>
    </g>
  </defs>
</svg>
