<?xml version="1.0" encoding="UTF-8" standalone="no"?>
<svg xmlns:xlink="http://www.w3.org/1999/xlink" height="14.65px" width="84.1px" xmlns="http://www.w3.org/2000/svg">
  <g transform="matrix(1.0, 0.0, 0.0, 1.0, -52.95, -3.2)">
    <g transform="matrix(1.0, 0.0, 0.0, 1.0, 0.0, 0.0)">
      <use fill="#e5e6c7" height="14.65" transform="matrix(0.3906, 0.0, 0.0, 0.3906, 53.0, 17.0)" width="84.1" xlink:href="#font_SignPainter-HouseInformal_Y0"/>
      <use fill="#e5e6c7" height="14.65" transform="matrix(0.3906, 0.0, 0.0, 0.3906, 65.3, 17.0)" width="84.1" xlink:href="#font_SignPainter-HouseInformal_e0"/>
      <use fill="#e5e6c7" height="14.65" transform="matrix(0.3906, 0.0, 0.0, 0.3906, 75.4, 17.0)" width="84.1" xlink:href="#font_SignPainter-HouseInformal_s0"/>
      <use fill="#e5e6c7" height="14.65" transform="matrix(0.3906, 0.0, 0.0, 0.3906, 97.1, 17.0)" width="84.1" xlink:href="#font_SignPainter-HouseInformal_M0"/>
      <use fill="#e5e6c7" height="14.65" transform="matrix(0.3906, 0.0, 0.0, 0.3906, 113.1, 17.0)" width="84.1" xlink:href="#font_SignPainter-HouseInformal_a0"/>
      <use fill="#e5e6c7" height="14.65" transform="matrix(0.3906, 0.0, 0.0, 0.3906, 124.7, 17.0)" width="84.1" xlink:href="#font_SignPainter-HouseInformal_n0"/>
    </g>
  </g>
  <defs>
    <g id="font_SignPainter-HouseInformal_Y0">
      <path d="M22.2 -12.7 L22.2 -12.7 31.8 -24.3 Q35.95 -28.7 35.95 -32.05 35.6 -36.05 32.7 -33.1 29.8 -29.6 26.35 -24.75 L19.35 -15.1 Q12.55 -23.2 6.7 -30.65 4.4 -33.65 2.45 -30.9 -1.15 -26.55 2.45 -21.85 L7.35 -16.0 13.75 -8.9 14.15 -0.3 Q14.35 3.05 18.15 1.45 20.25 0.75 21.15 -0.4 22.0 -1.55 22.0 -3.9 21.95 -7.5 22.2 -12.7 L22.2 -12.7" fill-rule="evenodd" stroke="none"/>
    </g>
    <g id="font_SignPainter-HouseInformal_e0">
      <path d="M11.1 -13.0 L11.1 -13.0 11.4 -19.7 11.85 -25.95 18.4 -26.5 23.4 -26.9 Q27.9 -27.55 27.85 -29.55 27.45 -30.75 25.35 -30.55 L16.25 -30.3 5.95 -30.2 Q3.6 -30.25 2.8 -29.5 2.05 -28.8 2.1 -27.15 L2.2 -18.95 2.5 -9.85 Q2.7 -5.5 3.0 -3.2 3.5 -0.2 5.65 0.65 7.75 1.5 10.7 1.3 L18.15 0.6 24.7 -0.65 Q26.9 -1.15 27.7 -2.85 28.25 -4.3 26.2 -4.1 L19.0 -3.1 13.85 -2.7 Q11.25 -2.35 11.1 -5.0 11.0 -6.45 11.05 -9.25 L15.5 -9.8 19.8 -10.25 Q23.7 -10.4 25.35 -12.55 26.3 -14.4 23.7 -14.1 L18.1 -13.55 11.1 -13.0 11.1 -13.0" fill-rule="evenodd" stroke="none"/>
    </g>
    <g id="font_SignPainter-HouseInformal_s0">
      <path d="M29.2 -7.15 L29.2 -7.15 Q29.1 -6.3 25.5 -5.0 21.9 -3.7 16.45 -3.45 12.05 -3.45 8.9 -4.45 5.7 -5.45 3.8 -6.65 1.2 -8.4 1.05 -5.8 1.45 -2.25 4.3 -0.9 7.95 0.85 14.45 0.9 20.6 0.9 27.25 -2.2 32.35 -4.75 34.15 -6.7 35.95 -8.65 35.85 -9.95 35.75 -11.35 34.3 -11.95 32.85 -12.55 30.9 -12.55 L24.8 -12.25 18.5 -11.8 Q13.7 -11.6 12.1 -12.65 10.55 -13.7 10.65 -15.65 10.85 -20.15 13.3 -23.5 15.8 -26.85 18.1 -27.0 20.25 -26.9 21.65 -25.15 L24.1 -21.6 Q25.5 -19.6 27.4 -19.05 L31.05 -18.8 Q34.3 -18.85 33.5 -21.7 32.45 -25.35 29.1 -28.4 25.8 -31.45 21.1 -31.65 18.8 -31.55 16.65 -30.5 14.5 -29.45 11.55 -28.15 7.7 -26.7 4.7 -23.75 1.7 -20.8 1.55 -15.4 1.45 -11.7 4.25 -9.3 7.0 -6.9 13.35 -6.8 L23.6 -7.55 Q28.7 -8.15 29.2 -7.15 L29.2 -7.15" fill-rule="evenodd" stroke="none"/>
    </g>
    <g id="font_SignPainter-HouseInformal_M0">
      <path d="M31.4 -20.1 L31.4 -20.1 34.35 -9.95 Q35.9 -4.65 37.2 -1.05 38.45 2.15 41.75 0.0 45.25 -2.05 43.95 -6.4 L41.1 -17.15 37.75 -29.25 Q37.25 -31.1 36.2 -31.5 35.15 -31.9 32.9 -31.05 30.65 -30.3 30.0 -29.45 29.35 -28.6 29.15 -27.1 28.1 -22.4 26.1 -16.95 24.1 -11.5 22.15 -8.75 L21.15 -8.8 Q19.3 -11.9 18.7 -17.55 18.1 -23.25 18.2 -28.5 18.2 -30.7 17.2 -31.2 L15.05 -31.4 10.0 -29.95 Q7.6 -29.3 7.45 -26.7 6.2 -20.05 4.3 -13.25 L0.8 -0.5 Q0.4 1.45 1.3 1.7 2.25 1.9 3.55 1.2 5.3 0.55 6.2 -3.25 L8.0 -11.0 10.6 -21.05 Q10.45 -15.7 12.1 -10.1 13.8 -4.5 17.85 -2.4 20.85 -1.35 22.65 -3.1 24.2 -4.65 26.85 -9.65 29.5 -14.65 31.4 -20.1 L31.4 -20.1" fill-rule="evenodd" stroke="none"/>
    </g>
    <g id="font_SignPainter-HouseInformal_a0">
      <path d="M9.25 -9.05 L9.25 -9.05 12.7 -16.85 16.05 -23.95 21.15 -10.7 9.25 -9.05 9.25 -9.05 M22.3 -30.15 L22.3 -30.15 Q21.55 -32.1 19.25 -31.35 L15.55 -30.1 Q14.0 -29.4 13.25 -27.9 L6.1 -11.5 1.1 -0.55 Q0.15 1.65 0.95 2.2 1.8 2.8 3.1 2.2 5.3 1.4 6.95 -3.35 L7.6 -5.15 14.85 -6.4 22.3 -7.45 25.4 1.1 Q26.15 3.0 28.55 1.7 30.45 0.85 31.6 -0.8 32.55 -1.95 31.7 -4.25 L27.3 -16.9 22.3 -30.15 22.3 -30.15" fill-rule="evenodd" stroke="none"/>
    </g>
    <g id="font_SignPainter-HouseInformal_n0">
      <path d="M6.7 -18.6 L6.7 -18.6 Q9.0 -9.3 12.2 -5.2 15.35 -1.05 18.25 -0.1 21.2 0.9 22.65 0.75 L25.95 0.2 Q27.25 -0.4 29.2 -1.95 31.55 -3.8 31.75 -5.65 32.0 -7.55 31.85 -10.45 L31.9 -16.0 32.15 -22.45 32.4 -27.45 Q32.35 -29.6 30.95 -30.95 27.7 -33.45 27.25 -29.8 L27.3 -17.65 27.65 -4.95 Q27.8 -3.75 26.35 -3.6 22.45 -3.45 18.8 -9.35 15.2 -15.25 13.15 -28.55 12.75 -30.7 10.95 -30.95 9.1 -31.2 6.3 -30.3 3.65 -29.45 2.9 -28.35 2.15 -27.2 2.3 -25.6 2.55 -11.95 2.4 0.45 2.8 4.55 5.7 2.2 8.0 -0.35 7.3 -5.9 6.9 -10.85 6.7 -18.6 L6.7 -18.6" fill-rule="evenodd" stroke="none"/>
    </g>
  </defs>
</svg>
