<?xml version="1.0" encoding="UTF-8" standalone="no"?>
<svg xmlns:xlink="http://www.w3.org/1999/xlink" height="13.2px" width="48.45px" xmlns="http://www.w3.org/2000/svg">
  <g transform="matrix(1.0, 0.0, 0.0, 1.0, -48.25, -2.6)">
    <g transform="matrix(1.0, 0.0, 0.0, 1.0, 48.05, 0.0)">
      <use fill="#014765" height="13.2" transform="matrix(0.3711, 0.0, 0.0, 0.3711, 0.0, 15.0)" width="48.45" xlink:href="#font_Coop_Flaired_S0"/>
      <use fill="#014765" height="13.2" transform="matrix(0.3711, 0.0, 0.0, 0.3711, 9.1, 15.0)" width="48.45" xlink:href="#font_Coop_Flaired_C0"/>
      <use fill="#014765" height="13.2" transform="matrix(0.3711, 0.0, 0.0, 0.3711, 18.75, 15.0)" width="48.45" xlink:href="#font_Coop_Flaired_O0"/>
      <use fill="#014765" height="13.2" transform="matrix(0.3711, 0.0, 0.0, 0.3711, 29.05, 15.0)" width="48.45" xlink:href="#font_Coop_Flaired_R0"/>
      <use fill="#014765" height="13.2" transform="matrix(0.3711, 0.0, 0.0, 0.3711, 39.05, 15.0)" width="48.45" xlink:href="#font_Coop_Flaired_E0"/>
    </g>
  </g>
  <defs>
    <g id="font_Coop_Flaired_S0">
      <path d="M26.65 -19.85 L26.65 -19.85 Q26.05 -26.1 22.95 -29.65 19.8 -33.15 13.0 -33.2 6.0 -32.85 3.15 -29.45 0.25 -26.1 0.25 -23.1 0.35 -17.85 4.6 -15.8 8.9 -13.75 13.1 -12.45 17.35 -11.2 17.4 -8.3 17.1 -6.35 15.35 -5.8 13.55 -5.2 11.85 -6.35 10.15 -7.55 10.2 -11.0 L6.65 -10.55 Q3.35 -10.2 0.55 -10.5 1.15 -5.05 4.7 -2.0 8.2 1.1 14.0 1.0 20.75 0.65 23.45 -2.1 26.2 -4.8 25.95 -7.7 25.45 -12.2 21.45 -13.95 17.4 -15.7 13.55 -17.05 9.7 -18.35 9.7 -21.6 10.35 -24.3 13.2 -24.15 16.05 -24.0 16.3 -18.5 L19.6 -19.25 26.65 -19.85 26.65 -19.85" fill-rule="evenodd" stroke="none"/>
    </g>
    <g id="font_Coop_Flaired_C0">
      <path d="M28.2 -19.0 L28.2 -19.0 Q27.6 -22.25 26.4 -25.9 25.15 -29.6 21.75 -31.9 18.9 -33.6 15.35 -33.6 11.8 -33.55 8.55 -32.1 5.55 -30.95 2.95 -26.75 0.3 -22.6 1.15 -13.85 1.95 -7.65 4.35 -4.3 6.75 -1.0 9.75 0.4 13.6 2.4 19.1 1.0 24.6 -0.45 26.95 -8.2 23.95 -7.85 21.3 -8.2 L18.4 -8.65 Q18.15 -7.0 17.1 -5.75 16.05 -4.55 14.25 -4.65 10.65 -4.8 9.2 -12.2 8.75 -15.4 9.55 -19.15 10.3 -22.9 12.6 -23.85 15.4 -24.45 16.55 -22.0 17.7 -19.5 17.8 -17.15 21.75 -18.4 24.9 -18.75 L28.2 -19.0 28.2 -19.0" fill-rule="evenodd" stroke="none"/>
    </g>
    <g id="font_Coop_Flaired_O0">
      <path d="M21.35 -12.35 L21.35 -12.35 Q19.9 -4.4 15.3 -4.4 13.5 -4.4 11.7 -6.55 9.9 -8.7 9.45 -12.7 9.15 -18.25 11.15 -20.95 13.15 -23.7 15.85 -23.6 18.7 -23.4 20.35 -20.25 22.05 -17.1 21.35 -12.35 L21.35 -12.35 M29.4 -13.7 L29.4 -13.7 Q30.5 -22.55 26.25 -27.95 22.0 -33.35 15.3 -33.35 9.2 -33.25 5.25 -29.1 1.25 -24.9 0.9 -16.7 1.0 -8.35 5.15 -3.7 9.3 0.95 13.85 1.2 19.9 1.45 24.1 -2.55 28.25 -6.55 29.4 -13.7 L29.4 -13.7" fill-rule="evenodd" stroke="none"/>
    </g>
    <g id="font_Coop_Flaired_R0">
      <path d="M10.6 -23.8 L10.6 -23.8 Q15.75 -24.35 17.8 -22.3 19.9 -20.25 18.1 -18.0 16.35 -15.75 10.0 -15.55 9.9 -20.2 10.6 -23.8 L10.6 -23.8 M29.0 0.4 L29.0 0.4 Q27.65 -1.8 26.9 -4.55 26.2 -7.35 24.45 -9.75 22.75 -12.1 18.3 -13.05 24.4 -14.15 26.75 -17.3 29.1 -20.5 28.5 -24.15 27.9 -27.8 25.0 -30.3 21.55 -33.05 14.7 -33.8 7.85 -34.55 0.3 -32.05 2.4 -27.95 3.15 -21.55 3.95 -15.15 3.35 -8.9 2.75 -2.7 0.85 0.85 L4.95 0.4 Q8.85 0.0 13.35 0.5 10.75 -4.75 10.2 -11.95 14.95 -11.45 16.7 -7.35 18.45 -3.25 16.35 1.6 23.1 -0.25 29.0 0.4 L29.0 0.4" fill-rule="evenodd" stroke="none"/>
    </g>
    <g id="font_Coop_Flaired_E0">
      <path d="M25.6 -33.6 L25.6 -33.6 13.6 -32.65 Q7.1 -32.35 0.35 -32.35 2.25 -24.3 2.6 -15.6 2.95 -6.95 1.25 1.65 L13.25 0.8 24.0 1.1 24.05 -0.75 24.4 -5.35 Q16.4 -3.85 9.7 -4.3 L9.4 -9.45 Q12.95 -9.7 15.45 -9.4 L18.1 -9.05 Q17.85 -11.65 18.3 -13.65 L18.75 -15.75 15.6 -15.05 9.55 -14.5 Q9.8 -20.05 10.5 -23.35 17.45 -24.15 24.45 -23.0 24.2 -25.65 24.55 -28.5 24.9 -31.35 25.6 -33.6 L25.6 -33.6" fill-rule="evenodd" stroke="none"/>
    </g>
  </defs>
</svg>
