<?xml version="1.0" encoding="UTF-8" standalone="no"?>
<svg xmlns:xlink="http://www.w3.org/1999/xlink" height="9.9px" width="31.8px" xmlns="http://www.w3.org/2000/svg">
  <g transform="matrix(1.0, 0.0, 0.0, 1.0, -23.9, -1.85)">
    <g transform="matrix(1.0, 0.0, 0.0, 1.0, 0.0, 0.0)">
      <use fill="#013c54" height="9.9" transform="matrix(0.2734, 0.0, 0.0, 0.2734, 24.0, 11.0)" width="31.8" xlink:href="#font_Coop_Flaired_B0"/>
      <use fill="#013c54" height="9.9" transform="matrix(0.2734, 0.0, 0.0, 0.2734, 30.7, 11.0)" width="31.8" xlink:href="#font_Coop_Flaired_A0"/>
      <use fill="#013c54" height="9.9" transform="matrix(0.2734, 0.0, 0.0, 0.2734, 37.4, 11.0)" width="31.8" xlink:href="#font_Coop_Flaired_L0"/>
      <use fill="#013c54" height="9.9" transform="matrix(0.2734, 0.0, 0.0, 0.2734, 42.95, 11.0)" width="31.8" xlink:href="#font_Coop_Flaired_L0"/>
      <use fill="#013c54" height="9.9" transform="matrix(0.2734, 0.0, 0.0, 0.2734, 48.5, 11.0)" width="31.8" xlink:href="#font_Coop_Flaired_S0"/>
    </g>
  </g>
  <defs>
    <g id="font_Coop_Flaired_B0">
      <path d="M9.65 -4.25 L9.65 -4.25 Q9.2 -7.55 9.15 -11.65 14.3 -11.55 15.75 -9.7 17.15 -7.85 15.45 -6.05 13.75 -4.25 9.65 -4.25 L9.65 -4.25 M9.9 -24.55 L9.9 -24.55 Q15.1 -24.75 16.45 -22.8 17.85 -20.8 15.95 -18.65 14.0 -16.5 9.25 -16.25 9.4 -20.6 9.9 -24.55 L9.9 -24.55 M25.7 -26.05 L25.7 -26.05 Q23.35 -32.2 15.7 -33.2 8.05 -34.2 -0.05 -32.45 1.45 -27.95 2.2 -21.7 3.0 -15.4 2.95 -9.2 2.85 -3.0 1.8 1.25 7.65 2.2 13.9 1.35 20.15 0.45 23.3 -3.4 25.6 -6.75 24.5 -9.9 23.35 -13.05 19.1 -14.65 22.6 -16.15 24.7 -19.05 26.75 -21.95 25.7 -26.05 L25.7 -26.05" fill-rule="evenodd" stroke="none"/>
    </g>
    <g id="font_Coop_Flaired_A0">
      <path d="M15.55 -13.4 L15.55 -13.4 10.15 -13.2 Q11.25 -18.15 13.1 -22.0 14.75 -17.95 15.55 -13.4 L15.55 -13.4 M27.95 0.0 L27.95 0.0 Q25.3 -3.45 23.05 -9.35 20.75 -15.3 19.9 -22.0 19.05 -28.65 20.6 -34.2 17.85 -33.25 13.6 -32.95 9.35 -32.65 6.4 -32.85 7.0 -28.05 6.15 -21.75 5.3 -15.5 3.45 -9.6 1.55 -3.75 -0.85 0.0 L2.9 -0.6 9.8 -0.85 Q8.95 -3.9 9.4 -8.4 L16.0 -9.05 Q16.35 -3.1 14.8 1.2 L19.3 0.25 27.95 0.0 27.95 0.0" fill-rule="evenodd" stroke="none"/>
    </g>
    <g id="font_Coop_Flaired_L0">
      <path d="M22.35 0.9 L22.35 0.9 Q21.9 -0.75 21.75 -3.3 21.6 -5.9 22.1 -8.75 16.05 -5.2 9.55 -5.3 9.0 -10.1 9.4 -18.3 9.8 -26.45 11.6 -34.2 7.9 -32.95 4.2 -32.85 L0.25 -32.8 Q1.65 -28.6 2.4 -22.25 3.1 -15.9 2.8 -9.35 2.45 -2.85 0.8 2.0 11.4 -0.55 22.35 0.9 L22.35 0.9" fill-rule="evenodd" stroke="none"/>
    </g>
    <g id="font_Coop_Flaired_S0">
      <path d="M26.65 -19.85 L26.65 -19.85 Q26.05 -26.1 22.95 -29.65 19.8 -33.15 13.0 -33.2 6.0 -32.85 3.15 -29.45 0.25 -26.1 0.25 -23.1 0.35 -17.85 4.6 -15.8 8.9 -13.75 13.1 -12.45 17.35 -11.2 17.4 -8.3 17.1 -6.35 15.35 -5.8 13.55 -5.2 11.85 -6.35 10.15 -7.55 10.2 -11.0 L6.65 -10.55 Q3.35 -10.2 0.55 -10.5 1.15 -5.05 4.7 -2.0 8.2 1.1 14.0 1.0 20.75 0.65 23.45 -2.1 26.2 -4.8 25.95 -7.7 25.45 -12.2 21.45 -13.95 17.4 -15.7 13.55 -17.05 9.7 -18.35 9.7 -21.6 10.35 -24.3 13.2 -24.15 16.05 -24.0 16.3 -18.5 L19.6 -19.25 26.65 -19.85 26.65 -19.85" fill-rule="evenodd" stroke="none"/>
    </g>
  </defs>
</svg>
