<?xml version="1.0" encoding="UTF-8" standalone="no"?>
<svg xmlns:xlink="http://www.w3.org/1999/xlink" height="9.9px" width="58.35px" xmlns="http://www.w3.org/2000/svg">
  <g transform="matrix(1.0, 0.0, 0.0, 1.0, -11.7, -1.85)">
    <g transform="matrix(1.0, 0.0, 0.0, 1.0, 0.0, 0.0)">
      <use fill="#01425c" height="9.9" transform="matrix(0.2734, 0.0, 0.0, 0.2734, 12.0, 11.0)" width="58.35" xlink:href="#font_Coop_Flaired_R0"/>
      <use fill="#01425c" height="9.9" transform="matrix(0.2734, 0.0, 0.0, 0.2734, 19.4, 11.0)" width="58.35" xlink:href="#font_Coop_Flaired_E0"/>
      <use fill="#01425c" height="9.9" transform="matrix(0.2734, 0.0, 0.0, 0.2734, 25.75, 11.0)" width="58.35" xlink:href="#font_Coop_Flaired_M0"/>
      <use fill="#01425c" height="9.9" transform="matrix(0.2734, 0.0, 0.0, 0.2734, 34.65, 11.0)" width="58.35" xlink:href="#font_Coop_Flaired_A0"/>
      <use fill="#01425c" height="9.9" transform="matrix(0.2734, 0.0, 0.0, 0.2734, 41.35, 11.0)" width="58.35" xlink:href="#font_Coop_Flaired_I0"/>
      <use fill="#01425c" height="9.9" transform="matrix(0.2734, 0.0, 0.0, 0.2734, 44.2, 11.0)" width="58.35" xlink:href="#font_Coop_Flaired_N0"/>
      <use fill="#01425c" height="9.9" transform="matrix(0.2734, 0.0, 0.0, 0.2734, 51.85, 11.0)" width="58.35" xlink:href="#font_Coop_Flaired_I0"/>
      <use fill="#01425c" height="9.9" transform="matrix(0.2734, 0.0, 0.0, 0.2734, 54.7, 11.0)" width="58.35" xlink:href="#font_Coop_Flaired_N0"/>
      <use fill="#01425c" height="9.9" transform="matrix(0.2734, 0.0, 0.0, 0.2734, 62.35, 11.0)" width="58.35" xlink:href="#font_Coop_Flaired_G0"/>
    </g>
  </g>
  <defs>
    <g id="font_Coop_Flaired_R0">
      <path d="M10.6 -23.8 L10.6 -23.8 Q15.75 -24.35 17.8 -22.3 19.9 -20.25 18.1 -18.0 16.35 -15.75 10.0 -15.55 9.9 -20.2 10.6 -23.8 L10.6 -23.8 M29.0 0.4 L29.0 0.4 Q27.65 -1.8 26.9 -4.55 26.2 -7.35 24.45 -9.75 22.75 -12.1 18.3 -13.05 24.4 -14.15 26.75 -17.3 29.1 -20.5 28.5 -24.15 27.9 -27.8 25.0 -30.3 21.55 -33.05 14.7 -33.8 7.85 -34.55 0.3 -32.05 2.4 -27.95 3.15 -21.55 3.95 -15.15 3.35 -8.9 2.75 -2.7 0.85 0.85 L4.95 0.4 Q8.85 0.0 13.35 0.5 10.75 -4.75 10.2 -11.95 14.95 -11.45 16.7 -7.35 18.45 -3.25 16.35 1.6 23.1 -0.25 29.0 0.4 L29.0 0.4" fill-rule="evenodd" stroke="none"/>
    </g>
    <g id="font_Coop_Flaired_E0">
      <path d="M25.6 -33.6 L25.6 -33.6 13.6 -32.65 Q7.1 -32.35 0.35 -32.35 2.25 -24.3 2.6 -15.6 2.95 -6.95 1.25 1.65 L13.25 0.8 24.0 1.1 24.05 -0.75 24.4 -5.35 Q16.4 -3.85 9.7 -4.3 L9.4 -9.45 Q12.95 -9.7 15.45 -9.4 L18.1 -9.05 Q17.85 -11.65 18.3 -13.65 L18.75 -15.75 15.6 -15.05 9.55 -14.5 Q9.8 -20.05 10.5 -23.35 17.45 -24.15 24.45 -23.0 24.2 -25.65 24.55 -28.5 24.9 -31.35 25.6 -33.6 L25.6 -33.6" fill-rule="evenodd" stroke="none"/>
    </g>
    <g id="font_Coop_Flaired_M0">
      <path d="M35.25 -34.2 L35.25 -34.2 Q30.9 -33.2 26.8 -33.25 L22.45 -33.35 Q23.35 -28.85 21.7 -23.8 20.05 -18.75 17.7 -15.9 15.85 -18.9 14.45 -24.15 13.05 -29.35 13.4 -33.85 8.85 -32.6 4.8 -32.55 0.75 -32.5 0.45 -32.6 2.7 -23.65 2.95 -14.8 3.2 -5.95 1.25 1.6 L4.2 1.1 12.0 0.8 Q10.8 -3.0 10.2 -8.2 9.6 -13.35 9.65 -17.8 L13.25 -12.6 Q15.55 -9.0 17.8 -3.8 L20.35 -8.7 Q22.8 -13.35 26.75 -18.9 26.8 -14.0 26.35 -8.3 25.85 -2.6 24.6 1.4 L31.6 1.2 34.8 1.55 Q33.35 -6.35 33.25 -16.1 33.15 -25.8 35.25 -34.2 L35.25 -34.2" fill-rule="evenodd" stroke="none"/>
    </g>
    <g id="font_Coop_Flaired_A0">
      <path d="M15.55 -13.4 L15.55 -13.4 10.15 -13.2 Q11.25 -18.15 13.1 -22.0 14.75 -17.95 15.55 -13.4 L15.55 -13.4 M27.95 0.0 L27.95 0.0 Q25.3 -3.45 23.05 -9.35 20.75 -15.3 19.9 -22.0 19.05 -28.65 20.6 -34.2 17.85 -33.25 13.6 -32.95 9.35 -32.65 6.4 -32.85 7.0 -28.05 6.15 -21.75 5.3 -15.5 3.45 -9.6 1.55 -3.75 -0.85 0.0 L2.9 -0.6 9.8 -0.85 Q8.95 -3.9 9.4 -8.4 L16.0 -9.05 Q16.35 -3.1 14.8 1.2 L19.3 0.25 27.95 0.0 27.95 0.0" fill-rule="evenodd" stroke="none"/>
    </g>
    <g id="font_Coop_Flaired_I0">
      <path d="M11.25 -33.6 L11.25 -33.6 Q8.1 -32.8 4.45 -32.8 L0.45 -32.8 Q1.65 -28.25 2.15 -22.0 2.6 -15.7 2.35 -9.3 2.1 -2.9 1.15 2.0 4.7 0.9 7.45 0.8 L10.35 0.8 Q8.9 -6.65 9.1 -16.35 9.25 -26.05 11.25 -33.6 L11.25 -33.6" fill-rule="evenodd" stroke="none"/>
    </g>
    <g id="font_Coop_Flaired_N0">
      <path d="M30.4 -33.8 L30.4 -33.8 Q27.0 -32.8 23.25 -33.0 L19.1 -33.3 Q20.05 -28.7 20.45 -23.05 20.9 -17.4 20.45 -11.8 17.3 -16.4 14.85 -22.45 12.45 -28.55 12.3 -33.7 8.45 -32.7 4.6 -32.6 L0.4 -32.55 Q2.85 -24.35 3.0 -15.4 3.15 -6.4 1.7 1.2 L4.65 0.7 12.2 0.4 Q10.85 -2.95 10.45 -8.05 10.0 -13.15 10.05 -17.6 12.95 -13.85 15.4 -8.6 17.8 -3.4 18.3 0.65 L25.4 0.45 28.55 0.95 Q27.0 -6.5 27.35 -15.7 27.7 -24.85 30.4 -33.8 L30.4 -33.8" fill-rule="evenodd" stroke="none"/>
    </g>
    <g id="font_Coop_Flaired_G0">
      <path d="M29.6 -12.0 L29.6 -12.0 Q21.2 -11.7 13.6 -12.25 L13.8 -10.8 13.9 -7.7 17.2 -7.6 18.7 -7.45 Q17.8 -4.35 15.1 -4.2 13.4 -4.1 11.85 -5.75 10.35 -7.45 9.7 -11.8 9.0 -17.55 10.25 -20.75 11.45 -23.95 13.3 -24.25 15.25 -24.45 16.45 -22.5 17.65 -20.6 18.1 -17.3 L21.65 -18.3 28.7 -19.2 Q26.65 -34.1 14.35 -33.75 8.3 -33.45 4.35 -29.1 0.35 -24.75 0.9 -16.0 1.7 -7.8 5.4 -3.35 9.1 1.1 14.35 1.4 20.4 1.6 24.4 -2.0 28.35 -5.65 29.6 -12.0 L29.6 -12.0" fill-rule="evenodd" stroke="none"/>
    </g>
  </defs>
</svg>
