<?xml version="1.0" encoding="UTF-8" standalone="no"?>
<svg xmlns:xlink="http://www.w3.org/1999/xlink" height="29.15px" width="60.1px" xmlns="http://www.w3.org/2000/svg">
  <g transform="matrix(1.0, 0.0, 0.0, 1.0, -24.75, -2.25)">
    <g transform="matrix(1.0, 0.0, 0.0, 1.0, 0.0, 0.0)">
      <use fill="#3e7186" height="29.15" transform="matrix(0.3125, 0.0, 0.0, 0.3125, 38.0, 13.0)" width="60.1" xlink:href="#font_Coop_Flaired_C0"/>
      <use fill="#3e7186" height="29.15" transform="matrix(0.3125, 0.0, 0.0, 0.3125, 46.15, 13.0)" width="60.1" xlink:href="#font_Coop_Flaired_O0"/>
      <use fill="#3e7186" height="29.15" transform="matrix(0.3125, 0.0, 0.0, 0.3125, 54.8, 13.0)" width="60.1" xlink:href="#font_Coop_Flaired_G0"/>
      <use fill="#3e7186" height="29.15" transform="matrix(0.3125, 0.0, 0.0, 0.3125, 63.3, 13.0)" width="60.1" xlink:href="#font_Coop_Flaired_S0"/>
    </g>
    <g transform="matrix(1.0, 0.0, 0.0, 1.0, 0.0, 0.0)">
      <use fill="#3e7186" height="29.15" transform="matrix(0.3125, 0.0, 0.0, 0.3125, 25.0, 31.0)" width="60.1" xlink:href="#font_Coop_Flaired_S0"/>
      <use fill="#3e7186" height="29.15" transform="matrix(0.3125, 0.0, 0.0, 0.3125, 32.65, 31.0)" width="60.1" xlink:href="#font_Coop_Flaired_T0"/>
      <use fill="#3e7186" height="29.15" transform="matrix(0.3125, 0.0, 0.0, 0.3125, 39.6, 31.0)" width="60.1" xlink:href="#font_Coop_Flaired_A0"/>
      <use fill="#3e7186" height="29.15" transform="matrix(0.3125, 0.0, 0.0, 0.3125, 47.3, 31.0)" width="60.1" xlink:href="#font_Coop_Flaired_N0"/>
      <use fill="#3e7186" height="29.15" transform="matrix(0.3125, 0.0, 0.0, 0.3125, 56.0, 31.0)" width="60.1" xlink:href="#font_Coop_Flaired_D0"/>
      <use fill="#3e7186" height="29.15" transform="matrix(0.3125, 0.0, 0.0, 0.3125, 63.95, 31.0)" width="60.1" xlink:href="#font_Coop_Flaired_I0"/>
      <use fill="#3e7186" height="29.15" transform="matrix(0.3125, 0.0, 0.0, 0.3125, 67.2, 31.0)" width="60.1" xlink:href="#font_Coop_Flaired_N0"/>
      <use fill="#3e7186" height="29.15" transform="matrix(0.3125, 0.0, 0.0, 0.3125, 75.9, 31.0)" width="60.1" xlink:href="#font_Coop_Flaired_G0"/>
    </g>
  </g>
  <defs>
    <g id="font_Coop_Flaired_C0">
      <path d="M28.2 -19.0 L28.2 -19.0 Q27.6 -22.25 26.4 -25.9 25.15 -29.6 21.75 -31.9 18.9 -33.6 15.35 -33.6 11.8 -33.55 8.55 -32.1 5.55 -30.95 2.95 -26.75 0.3 -22.6 1.15 -13.85 1.95 -7.65 4.35 -4.3 6.75 -1.0 9.75 0.4 13.6 2.4 19.1 1.0 24.6 -0.45 26.95 -8.2 23.95 -7.85 21.3 -8.2 L18.4 -8.65 Q18.15 -7.0 17.1 -5.75 16.05 -4.55 14.25 -4.65 10.65 -4.8 9.2 -12.2 8.75 -15.4 9.55 -19.15 10.3 -22.9 12.6 -23.85 15.4 -24.45 16.55 -22.0 17.7 -19.5 17.8 -17.15 21.75 -18.4 24.9 -18.75 L28.2 -19.0 28.2 -19.0" fill-rule="evenodd" stroke="none"/>
    </g>
    <g id="font_Coop_Flaired_O0">
      <path d="M21.35 -12.35 L21.35 -12.35 Q19.9 -4.4 15.3 -4.4 13.5 -4.4 11.7 -6.55 9.9 -8.7 9.45 -12.7 9.15 -18.25 11.15 -20.95 13.15 -23.7 15.85 -23.6 18.7 -23.4 20.35 -20.25 22.05 -17.1 21.35 -12.35 L21.35 -12.35 M29.4 -13.7 L29.4 -13.7 Q30.5 -22.55 26.25 -27.95 22.0 -33.35 15.3 -33.35 9.2 -33.25 5.25 -29.1 1.25 -24.9 0.9 -16.7 1.0 -8.35 5.15 -3.7 9.3 0.95 13.85 1.2 19.9 1.45 24.1 -2.55 28.25 -6.55 29.4 -13.7 L29.4 -13.7" fill-rule="evenodd" stroke="none"/>
    </g>
    <g id="font_Coop_Flaired_G0">
      <path d="M29.6 -12.0 L29.6 -12.0 Q21.2 -11.7 13.6 -12.25 L13.8 -10.8 13.9 -7.7 17.2 -7.6 18.7 -7.45 Q17.8 -4.35 15.1 -4.2 13.4 -4.1 11.85 -5.75 10.35 -7.45 9.7 -11.8 9.0 -17.55 10.25 -20.75 11.45 -23.95 13.3 -24.25 15.25 -24.45 16.45 -22.5 17.65 -20.6 18.1 -17.3 L21.65 -18.3 28.7 -19.2 Q26.65 -34.1 14.35 -33.75 8.3 -33.45 4.35 -29.1 0.35 -24.75 0.9 -16.0 1.7 -7.8 5.4 -3.35 9.1 1.1 14.35 1.4 20.4 1.6 24.4 -2.0 28.35 -5.65 29.6 -12.0 L29.6 -12.0" fill-rule="evenodd" stroke="none"/>
    </g>
    <g id="font_Coop_Flaired_S0">
      <path d="M26.65 -19.85 L26.65 -19.85 Q26.05 -26.1 22.95 -29.65 19.8 -33.15 13.0 -33.2 6.0 -32.85 3.15 -29.45 0.25 -26.1 0.25 -23.1 0.35 -17.85 4.6 -15.8 8.9 -13.75 13.1 -12.45 17.35 -11.2 17.4 -8.3 17.1 -6.35 15.35 -5.8 13.55 -5.2 11.85 -6.35 10.15 -7.55 10.2 -11.0 L6.65 -10.55 Q3.35 -10.2 0.55 -10.5 1.15 -5.05 4.7 -2.0 8.2 1.1 14.0 1.0 20.75 0.65 23.45 -2.1 26.2 -4.8 25.95 -7.7 25.45 -12.2 21.45 -13.95 17.4 -15.7 13.55 -17.05 9.7 -18.35 9.7 -21.6 10.35 -24.3 13.2 -24.15 16.05 -24.0 16.3 -18.5 L19.6 -19.25 26.65 -19.85 26.65 -19.85" fill-rule="evenodd" stroke="none"/>
    </g>
    <g id="font_Coop_Flaired_T0">
      <path d="M25.1 -33.6 L25.1 -33.6 Q13.2 -31.45 -0.6 -32.8 0.95 -28.8 0.9 -25.55 L0.7 -22.2 8.9 -23.65 Q9.55 -17.1 9.05 -10.65 8.55 -4.2 6.95 1.2 L10.55 0.5 18.1 0.3 Q16.15 -4.8 15.65 -11.65 15.1 -18.55 15.8 -23.9 L24.35 -22.85 Q23.65 -26.35 24.3 -29.85 L25.1 -33.6 25.1 -33.6" fill-rule="evenodd" stroke="none"/>
    </g>
    <g id="font_Coop_Flaired_A0">
      <path d="M15.55 -13.4 L15.55 -13.4 10.15 -13.2 Q11.25 -18.15 13.1 -22.0 14.75 -17.95 15.55 -13.4 L15.55 -13.4 M27.95 0.0 L27.95 0.0 Q25.3 -3.45 23.05 -9.35 20.75 -15.3 19.9 -22.0 19.05 -28.65 20.6 -34.2 17.85 -33.25 13.6 -32.95 9.35 -32.65 6.4 -32.85 7.0 -28.05 6.15 -21.75 5.3 -15.5 3.45 -9.6 1.55 -3.75 -0.85 0.0 L2.9 -0.6 9.8 -0.85 Q8.95 -3.9 9.4 -8.4 L16.0 -9.05 Q16.35 -3.1 14.8 1.2 L19.3 0.25 27.95 0.0 27.95 0.0" fill-rule="evenodd" stroke="none"/>
    </g>
    <g id="font_Coop_Flaired_N0">
      <path d="M30.4 -33.8 L30.4 -33.8 Q27.0 -32.8 23.25 -33.0 L19.1 -33.3 Q20.05 -28.7 20.45 -23.05 20.9 -17.4 20.45 -11.8 17.3 -16.4 14.85 -22.45 12.45 -28.55 12.3 -33.7 8.45 -32.7 4.6 -32.6 L0.4 -32.55 Q2.85 -24.35 3.0 -15.4 3.15 -6.4 1.7 1.2 L4.65 0.7 12.2 0.4 Q10.85 -2.95 10.45 -8.05 10.0 -13.15 10.05 -17.6 12.95 -13.85 15.4 -8.6 17.8 -3.4 18.3 0.65 L25.4 0.45 28.55 0.95 Q27.0 -6.5 27.35 -15.7 27.7 -24.85 30.4 -33.8 L30.4 -33.8" fill-rule="evenodd" stroke="none"/>
    </g>
    <g id="font_Coop_Flaired_D0">
      <path d="M18.95 -13.15 L18.95 -13.15 Q17.85 -5.5 9.85 -4.8 9.35 -9.05 9.5 -14.5 9.7 -19.95 10.35 -23.5 15.8 -23.7 17.8 -20.75 19.75 -17.75 18.95 -13.15 L18.95 -13.15 M25.15 -25.75 L25.15 -25.75 Q22.0 -31.6 15.2 -32.85 8.45 -34.05 0.15 -32.55 1.65 -28.1 2.4 -21.75 3.2 -15.45 3.1 -9.2 3.05 -2.95 2.0 1.35 L12.85 0.9 Q18.1 -0.1 21.6 -3.45 25.45 -7.35 26.7 -13.45 27.95 -19.6 25.15 -25.75 L25.15 -25.75" fill-rule="evenodd" stroke="none"/>
    </g>
    <g id="font_Coop_Flaired_I0">
      <path d="M11.25 -33.6 L11.25 -33.6 Q8.1 -32.8 4.45 -32.8 L0.45 -32.8 Q1.65 -28.25 2.15 -22.0 2.6 -15.7 2.35 -9.3 2.1 -2.9 1.15 2.0 4.7 0.9 7.45 0.8 L10.35 0.8 Q8.9 -6.65 9.1 -16.35 9.25 -26.05 11.25 -33.6 L11.25 -33.6" fill-rule="evenodd" stroke="none"/>
    </g>
  </defs>
</svg>
