<?xml version="1.0" encoding="UTF-8" standalone="no"?>
<svg xmlns:xlink="http://www.w3.org/1999/xlink" height="10.35px" width="87.25px" xmlns="http://www.w3.org/2000/svg">
  <g transform="matrix(1.0, 0.0, 0.0, 1.0, -61.7, 0.35)">
    <g transform="matrix(1.0, 0.0, 0.0, 1.0, 61.4, 0.0)">
      <use fill="#006699" height="10.35" transform="matrix(0.2539, 0.0, 0.0, 0.2539, 0.0, 10.0)" width="87.25" xlink:href="#font_Minnie_P0"/>
      <use fill="#006699" height="10.35" transform="matrix(0.2539, 0.0, 0.0, 0.2539, 9.35, 10.0)" width="87.25" xlink:href="#font_Minnie_l0"/>
      <use fill="#006699" height="10.35" transform="matrix(0.2539, 0.0, 0.0, 0.2539, 15.85, 10.0)" width="87.25" xlink:href="#font_Minnie_a0"/>
      <use fill="#006699" height="10.35" transform="matrix(0.2539, 0.0, 0.0, 0.2539, 25.75, 10.0)" width="87.25" xlink:href="#font_Minnie_y0"/>
      <use fill="#006699" height="10.35" transform="matrix(0.2539, 0.0, 0.0, 0.2539, 41.15, 10.0)" width="87.25" xlink:href="#font_Minnie_A0"/>
      <use fill="#006699" height="10.35" transform="matrix(0.2539, 0.0, 0.0, 0.2539, 53.85, 10.0)" width="87.25" xlink:href="#font_Minnie_g0"/>
      <use fill="#006699" height="10.35" transform="matrix(0.2539, 0.0, 0.0, 0.2539, 62.65, 10.0)" width="87.25" xlink:href="#font_Minnie_a0"/>
      <use fill="#006699" height="10.35" transform="matrix(0.2539, 0.0, 0.0, 0.2539, 72.55, 10.0)" width="87.25" xlink:href="#font_Minnie_i0"/>
      <use fill="#006699" height="10.35" transform="matrix(0.2539, 0.0, 0.0, 0.2539, 78.0, 10.0)" width="87.25" xlink:href="#font_Minnie_n0"/>
    </g>
  </g>
  <defs>
    <g id="font_Minnie_P0">
      <path d="M15.3 -31.25 L15.3 -31.25 18.6 -31.6 Q23.15 -31.6 23.1 -28.7 23.05 -25.25 16.7 -24.55 L15.3 -31.25 M20.05 -1.9 L20.05 -1.9 Q19.65 -3.0 18.25 -10.05 L17.85 -12.2 Q27.15 -15.2 32.4 -20.35 37.4 -25.15 37.4 -30.4 L37.25 -32.35 Q35.55 -40.65 21.9 -40.8 15.45 -40.85 1.1 -38.5 L8.75 0.0 20.05 -1.9" fill-rule="evenodd" stroke="none"/>
    </g>
    <g id="font_Minnie_l0">
      <path d="M23.85 -12.5 L23.85 -12.5 14.5 -11.35 11.8 -32.6 1.35 -31.45 3.35 -15.4 5.35 0.0 26.25 -2.4 23.85 -12.5" fill-rule="evenodd" stroke="none"/>
    </g>
    <g id="font_Minnie_a0">
      <path d="M17.4 -12.8 L17.4 -12.8 19.25 -16.0 21.15 -19.25 25.3 -12.8 17.4 -12.8 M10.8 0.0 L10.8 0.0 12.6 -2.9 14.6 -6.2 28.15 -6.2 30.75 -2.8 32.95 0.0 41.7 -2.4 31.55 -17.45 21.1 -32.6 20.7 -32.6 10.8 -17.85 Q1.05 -3.2 0.9 -2.5 L10.8 0.0" fill-rule="evenodd" stroke="none"/>
    </g>
    <g id="font_Minnie_y0">
      <path d="M20.9 0.0 L20.9 0.0 22.35 -8.95 30.35 -16.0 38.7 -23.1 30.8 -29.95 Q30.15 -29.7 24.3 -24.55 18.45 -19.45 18.3 -19.0 L10.05 -32.6 1.1 -27.2 6.3 -18.75 Q11.2 -10.35 11.15 -9.9 L9.85 -1.4 20.9 0.0" fill-rule="evenodd" stroke="none"/>
    </g>
    <g id="font_Minnie_A0">
      <path d="M21.95 -16.0 L21.95 -16.0 24.35 -20.1 26.8 -24.15 32.1 -16.0 21.95 -16.0 M13.7 0.0 L13.7 0.0 16.1 -3.55 18.6 -7.6 35.4 -7.6 38.75 -3.45 41.45 0.0 52.35 -3.0 39.6 -21.85 26.55 -40.8 26.1 -40.8 13.7 -22.35 Q1.5 -4.05 1.35 -3.1 L13.7 0.0" fill-rule="evenodd" stroke="none"/>
    </g>
    <g id="font_Minnie_g0">
      <path d="M32.25 -5.1 L32.25 -5.1 Q35.2 -8.1 35.2 -13.45 35.2 -15.45 34.8 -17.8 L34.35 -20.2 19.4 -15.35 25.1 -12.1 Q24.4 -9.7 21.25 -9.3 L19.5 -9.2 Q16.2 -9.2 14.4 -10.9 12.6 -12.6 12.55 -15.55 12.45 -17.9 14.45 -20.2 16.65 -22.8 19.85 -22.8 21.3 -22.8 22.75 -22.0 L26.45 -25.25 Q29.85 -28.6 29.6 -28.8 24.65 -32.6 18.9 -32.6 11.85 -32.6 6.6 -27.5 1.35 -22.4 1.35 -15.7 L1.45 -13.7 Q2.4 -6.85 7.3 -3.25 11.85 0.05 18.9 0.0 27.3 -0.1 32.25 -5.1" fill-rule="evenodd" stroke="none"/>
    </g>
    <g id="font_Minnie_i0">
      <path d="M16.2 0.0 L16.2 0.0 18.35 -16.0 20.65 -31.75 5.5 -32.6 3.5 -17.05 1.1 -0.8 16.2 0.0" fill-rule="evenodd" stroke="none"/>
    </g>
    <g id="font_Minnie_n0">
      <path d="M11.8 -3.3 L11.8 -3.3 13.7 -12.1 28.9 -2.5 32.4 0.0 Q36.8 -23.6 37.55 -26.95 L26.35 -29.15 24.55 -18.1 16.25 -24.6 Q8.1 -30.75 6.2 -32.6 L0.9 -4.7 11.8 -3.3" fill-rule="evenodd" stroke="none"/>
    </g>
  </defs>
</svg>
