<?xml version="1.0" encoding="UTF-8" standalone="no"?>
<svg xmlns:xlink="http://www.w3.org/1999/xlink" height="9.3px" width="60.05px" xmlns="http://www.w3.org/2000/svg">
  <g transform="matrix(1.0, 0.0, 0.0, 1.0, 0.6, -3.05)">
    <g transform="matrix(1.0, 0.0, 0.0, 1.0, 0.0, 0.0)">
      <use fill="#3d749c" height="9.3" transform="matrix(0.2734, 0.0, 0.0, 0.2734, 0.0, 12.0)" width="60.05" xlink:href="#font_SignPainter_HouseBrush_House_Brush_P0"/>
      <use fill="#3d749c" height="9.3" transform="matrix(0.2734, 0.0, 0.0, 0.2734, 7.8, 12.0)" width="60.05" xlink:href="#font_SignPainter_HouseBrush_House_Brush_R0"/>
      <use fill="#3d749c" height="9.3" transform="matrix(0.2734, 0.0, 0.0, 0.2734, 15.9, 12.0)" width="60.05" xlink:href="#font_SignPainter_HouseBrush_House_Brush_E0"/>
      <use fill="#3d749c" height="9.3" transform="matrix(0.2734, 0.0, 0.0, 0.2734, 22.75, 12.0)" width="60.05" xlink:href="#font_SignPainter_HouseBrush_House_Brush_S0"/>
      <use fill="#3d749c" height="9.3" transform="matrix(0.2734, 0.0, 0.0, 0.2734, 29.9, 12.0)" width="60.05" xlink:href="#font_SignPainter_HouseBrush_House_Brush_E0"/>
      <use fill="#3d749c" height="9.3" transform="matrix(0.2734, 0.0, 0.0, 0.2734, 36.9, 12.0)" width="60.05" xlink:href="#font_SignPainter_HouseBrush_House_Brush_N0"/>
      <use fill="#3d749c" height="9.3" transform="matrix(0.2734, 0.0, 0.0, 0.2734, 44.75, 12.0)" width="60.05" xlink:href="#font_SignPainter_HouseBrush_House_Brush_T0"/>
      <use fill="#3d749c" height="9.3" transform="matrix(0.2734, 0.0, 0.0, 0.2734, 51.4, 12.0)" width="60.05" xlink:href="#font_SignPainter_HouseBrush_House_Brush_S0"/>
    </g>
  </g>
  <defs>
    <g id="font_SignPainter_HouseBrush_House_Brush_P0">
      <path d="M9.05 -11.4 L9.05 -11.4 Q10.0 -10.25 10.9 -9.75 11.85 -9.25 12.95 -9.25 L14.5 -9.4 Q17.75 -10.0 21.2 -11.95 24.6 -13.9 27.3 -16.3 30.0 -18.75 31.1 -20.65 L31.9 -22.0 32.55 -23.4 32.8 -24.8 Q32.8 -26.6 31.15 -28.2 29.3 -30.15 26.6 -31.25 23.95 -32.4 20.95 -32.4 14.95 -32.25 8.85 -29.7 8.0 -29.4 8.0 -28.8 8.0 -28.45 8.45 -27.8 9.2 -26.7 10.45 -25.45 L6.95 -20.3 3.65 -14.9 0.75 -9.75 -1.9 -4.4 -2.25 -3.15 Q-2.25 -2.2 -1.5 -1.4 -0.5 -0.2 0.4 0.45 1.2 1.0 1.5 1.0 2.05 1.0 2.5 0.2 L5.4 -5.15 9.05 -11.4 M10.45 -13.55 L10.45 -13.55 13.6 -18.5 16.4 -22.55 19.1 -26.25 Q22.35 -27.4 24.75 -27.4 26.25 -27.4 26.5 -26.8 L26.65 -26.4 Q26.65 -25.35 25.1 -23.45 23.55 -21.55 21.0 -19.4 18.5 -17.2 15.65 -15.65 12.85 -14.05 10.45 -13.55" fill-rule="evenodd" stroke="none"/>
    </g>
    <g id="font_SignPainter_HouseBrush_House_Brush_R0">
      <path d="M7.4 -8.8 L7.4 -8.8 Q9.4 -6.45 11.55 -4.35 13.7 -2.3 15.65 -1.0 17.2 0.0 18.2 0.0 L19.25 -0.1 Q20.75 -0.3 22.25 -1.1 22.8 -1.45 22.8 -1.85 L22.2 -2.65 18.4 -6.35 Q16.3 -8.55 14.65 -10.9 19.75 -12.55 24.55 -15.65 29.3 -18.7 31.5 -21.4 L32.75 -23.15 Q33.25 -24.0 33.25 -24.9 33.25 -26.5 31.45 -28.4 L29.45 -30.05 27.0 -31.3 24.15 -32.1 21.2 -32.4 15.05 -31.75 Q11.9 -31.1 9.0 -29.8 8.15 -29.45 8.15 -28.9 8.15 -28.4 8.6 -28.0 L9.25 -27.25 9.95 -26.55 10.75 -25.85 6.15 -19.05 1.6 -11.4 -1.9 -4.55 -2.2 -3.35 Q-2.2 -2.6 -1.5 -1.55 -0.75 -0.45 0.3 0.25 1.1 0.8 1.55 0.8 2.1 0.8 2.5 0.05 L5.1 -4.8 7.4 -8.8 M11.6 -15.45 L11.6 -15.45 Q15.4 -21.3 19.2 -26.35 22.6 -27.4 25.3 -27.4 26.85 -27.4 27.05 -26.9 27.05 -25.6 24.6 -23.3 22.15 -21.0 18.55 -18.8 15.0 -16.6 11.6 -15.45" fill-rule="evenodd" stroke="none"/>
    </g>
    <g id="font_SignPainter_HouseBrush_House_Brush_E0">
      <path d="M11.4 -17.2 L11.4 -17.2 13.5 -20.6 15.4 -23.55 16.65 -25.5 21.35 -26.3 25.65 -26.85 30.25 -27.35 31.2 -27.65 31.45 -28.6 29.7 -31.2 Q28.55 -32.3 26.4 -32.3 L18.05 -31.85 9.95 -30.65 Q8.75 -30.35 8.75 -29.55 L8.9 -28.95 9.6 -26.85 Q6.4 -22.05 2.85 -15.4 -0.65 -8.8 -2.75 -3.75 L-3.05 -2.5 Q-3.05 -1.85 -2.25 -1.05 L-0.25 0.6 Q0.6 1.2 1.25 1.2 L2.95 0.9 Q7.25 -0.3 16.65 -1.5 17.8 -1.55 17.8 -2.25 L17.65 -2.95 15.9 -5.2 Q15.05 -6.1 13.0 -6.1 L4.6 -5.3 7.9 -11.3 19.15 -13.25 Q19.95 -13.3 19.95 -13.9 L19.85 -14.55 18.4 -16.6 Q17.65 -17.45 15.8 -17.45 L11.4 -17.2" fill-rule="evenodd" stroke="none"/>
    </g>
    <g id="font_SignPainter_HouseBrush_House_Brush_S0">
      <path d="M-2.85 -7.3 L-2.85 -7.3 Q-2.85 -5.85 -2.4 -4.9 -2.0 -3.9 -0.95 -2.95 1.35 -1.05 4.05 -0.1 6.75 0.8 9.15 0.8 14.25 0.8 17.8 -3.2 19.15 -4.7 19.15 -6.15 19.15 -7.95 17.4 -9.6 L14.65 -11.9 11.9 -14.1 Q10.5 -15.5 10.5 -16.6 10.5 -17.65 11.6 -19.25 12.85 -20.95 15.15 -22.85 17.45 -24.8 19.65 -26.05 21.85 -27.35 22.85 -27.35 L23.05 -26.95 Q23.05 -26.35 22.3 -25.0 L20.4 -21.9 18.75 -19.35 Q18.05 -18.0 18.05 -17.4 L18.25 -16.65 Q18.9 -15.25 19.9 -14.35 20.3 -13.95 20.8 -13.95 21.35 -13.95 21.95 -14.6 24.05 -16.6 25.95 -19.1 27.8 -21.6 29.0 -24.2 29.5 -25.25 29.5 -26.25 29.5 -27.25 28.75 -28.2 L27.6 -29.45 26.1 -30.55 24.5 -31.6 Q23.0 -32.4 21.5 -32.4 19.75 -32.4 17.6 -31.35 15.4 -30.4 13.1 -29.0 10.75 -27.6 8.35 -25.5 6.0 -23.35 4.05 -20.55 2.75 -18.5 2.75 -16.8 2.75 -14.8 4.55 -12.85 5.55 -11.8 8.7 -9.3 L12.3 -6.2 12.75 -5.1 Q12.75 -4.5 12.1 -4.15 11.45 -3.8 10.3 -3.8 L6.75 -4.25 Q4.9 -4.7 2.85 -5.65 0.85 -6.6 -1.25 -8.0 L-2.05 -8.25 Q-2.75 -8.25 -2.85 -7.3" fill-rule="evenodd" stroke="none"/>
    </g>
    <g id="font_SignPainter_HouseBrush_House_Brush_N0">
      <path d="M12.85 -19.95 L12.85 -19.95 12.15 -15.2 11.6 -9.75 11.45 -5.15 Q11.45 -2.9 13.15 -1.75 15.05 -0.5 16.85 0.15 L17.95 0.4 Q18.9 0.4 19.35 -0.6 L22.95 -7.6 27.1 -15.2 30.25 -20.75 33.0 -25.55 Q33.9 -27.1 33.9 -28.5 33.9 -29.9 32.8 -31.35 32.35 -32.0 31.8 -32.0 31.4 -32.0 30.9 -31.35 L27.45 -26.7 24.0 -21.45 20.65 -15.95 17.45 -10.35 Q17.85 -14.4 18.6 -18.9 L20.05 -26.75 20.25 -28.3 Q20.25 -29.15 19.35 -29.8 16.8 -31.55 14.7 -32.2 L13.5 -32.4 Q12.6 -32.4 11.95 -31.4 L8.15 -25.0 3.75 -17.05 -0.1 -9.55 -2.7 -3.65 -2.85 -2.9 -2.4 -1.5 Q-1.65 -0.25 0.05 0.7 L0.95 1.0 Q1.5 1.0 1.8 0.35 L4.8 -5.65 8.75 -12.95 12.85 -19.95" fill-rule="evenodd" stroke="none"/>
    </g>
    <g id="font_SignPainter_HouseBrush_House_Brush_T0">
      <path d="M15.1 -26.45 L15.1 -26.45 11.5 -21.0 8.15 -15.35 4.8 -9.15 2.5 -4.15 2.2 -2.95 Q2.2 -2.15 2.95 -1.3 3.85 -0.25 5.2 0.65 L6.05 1.0 Q6.55 1.0 6.9 0.25 8.45 -3.2 11.4 -8.35 14.35 -13.5 17.45 -18.1 20.55 -22.75 23.45 -26.4 L23.9 -27.15 28.05 -27.6 31.3 -28.0 Q32.55 -28.15 32.55 -28.85 32.55 -29.4 32.0 -29.95 30.95 -31.2 29.05 -32.0 27.15 -32.75 25.1 -32.8 L17.0 -32.25 8.25 -30.8 Q7.2 -30.55 7.2 -29.8 7.2 -29.4 7.7 -28.9 9.1 -27.55 10.65 -27.0 12.15 -26.45 14.55 -26.45 L15.1 -26.45" fill-rule="evenodd" stroke="none"/>
    </g>
  </defs>
</svg>
