<?xml version="1.0" encoding="UTF-8" standalone="no"?>
<svg xmlns:xlink="http://www.w3.org/1999/xlink" height="11.3px" width="82.05px" xmlns="http://www.w3.org/2000/svg">
  <g transform="matrix(1.0, 0.0, 0.0, 1.0, 4.85, -2.1)">
    <g transform="matrix(1.0, 0.0, 0.0, 1.0, -5.05, 0.0)">
      <use fill="#3e7186" height="11.3" transform="matrix(0.3125, 0.0, 0.0, 0.3125, 0.0, 13.0)" width="82.05" xlink:href="#font_Coop_Flaired_P0"/>
      <use fill="#3e7186" height="11.3" transform="matrix(0.3125, 0.0, 0.0, 0.3125, 8.1, 13.0)" width="82.05" xlink:href="#font_Coop_Flaired_I0"/>
      <use fill="#3e7186" height="11.3" transform="matrix(0.3125, 0.0, 0.0, 0.3125, 11.1, 13.0)" width="82.05" xlink:href="#font_Coop_Flaired_E0"/>
      <use fill="#3e7186" height="11.3" transform="matrix(0.3125, 0.0, 0.0, 0.3125, 21.95, 13.0)" width="82.05" xlink:href="#font_Coop_Flaired_T0"/>
      <use fill="#3e7186" height="11.3" transform="matrix(0.3125, 0.0, 0.0, 0.3125, 28.25, 13.0)" width="82.05" xlink:href="#font_Coop_Flaired_O0"/>
      <use fill="#3e7186" height="11.3" transform="matrix(0.3125, 0.0, 0.0, 0.3125, 36.65, 13.0)" width="82.05" xlink:href="#font_Coop_Flaired_S0"/>
      <use fill="#3e7186" height="11.3" transform="matrix(0.3125, 0.0, 0.0, 0.3125, 44.1, 13.0)" width="82.05" xlink:href="#font_Coop_Flaired_S0"/>
      <use fill="#3e7186" height="11.3" transform="matrix(0.3125, 0.0, 0.0, 0.3125, 55.35, 13.0)" width="82.05" xlink:href="#font_Coop_Flaired_B0"/>
      <use fill="#3e7186" height="11.3" transform="matrix(0.3125, 0.0, 0.0, 0.3125, 62.1, 13.0)" width="82.05" xlink:href="#font_Coop_Flaired_A0"/>
      <use fill="#3e7186" height="11.3" transform="matrix(0.3125, 0.0, 0.0, 0.3125, 69.2, 13.0)" width="82.05" xlink:href="#font_Coop_Flaired_L0"/>
      <use fill="#3e7186" height="11.3" transform="matrix(0.3125, 0.0, 0.0, 0.3125, 75.15, 13.0)" width="82.05" xlink:href="#font_Coop_Flaired_L0"/>
    </g>
  </g>
  <defs>
    <g id="font_Coop_Flaired_P0">
      <path d="M10.65 -24.1 L10.65 -24.1 Q16.1 -24.5 18.2 -22.1 20.25 -19.7 18.35 -17.0 16.45 -14.25 10.0 -13.7 9.8 -19.7 10.65 -24.1 L10.65 -24.1 M28.6 -22.9 L28.6 -22.9 Q28.05 -28.7 23.35 -31.35 18.65 -34.0 12.3 -34.15 5.9 -34.3 0.35 -32.6 2.45 -28.4 3.15 -21.75 3.85 -15.05 3.2 -8.55 2.55 -2.05 0.65 1.6 L4.75 1.1 Q8.6 0.7 13.15 1.3 11.0 -2.9 10.35 -9.05 18.6 -9.55 23.7 -13.1 28.8 -16.65 28.6 -22.9 L28.6 -22.9" fill-rule="evenodd" stroke="none"/>
    </g>
    <g id="font_Coop_Flaired_I0">
      <path d="M11.25 -33.6 L11.25 -33.6 Q8.1 -32.8 4.45 -32.8 L0.45 -32.8 Q1.65 -28.25 2.15 -22.0 2.6 -15.7 2.35 -9.3 2.1 -2.9 1.15 2.0 4.7 0.9 7.45 0.8 L10.35 0.8 Q8.9 -6.65 9.1 -16.35 9.25 -26.05 11.25 -33.6 L11.25 -33.6" fill-rule="evenodd" stroke="none"/>
    </g>
    <g id="font_Coop_Flaired_E0">
      <path d="M25.6 -33.6 L25.6 -33.6 13.6 -32.65 Q7.1 -32.35 0.35 -32.35 2.25 -24.3 2.6 -15.6 2.95 -6.95 1.25 1.65 L13.25 0.8 24.0 1.1 24.05 -0.75 24.4 -5.35 Q16.4 -3.85 9.7 -4.3 L9.4 -9.45 Q12.95 -9.7 15.45 -9.4 L18.1 -9.05 Q17.85 -11.65 18.3 -13.65 L18.75 -15.75 15.6 -15.05 9.55 -14.5 Q9.8 -20.05 10.5 -23.35 17.45 -24.15 24.45 -23.0 24.2 -25.65 24.55 -28.5 24.9 -31.35 25.6 -33.6 L25.6 -33.6" fill-rule="evenodd" stroke="none"/>
    </g>
    <g id="font_Coop_Flaired_T0">
      <path d="M25.1 -33.6 L25.1 -33.6 Q13.2 -31.45 -0.6 -32.8 0.95 -28.8 0.9 -25.55 L0.7 -22.2 8.9 -23.65 Q9.55 -17.1 9.05 -10.65 8.55 -4.2 6.95 1.2 L10.55 0.5 18.1 0.3 Q16.15 -4.8 15.65 -11.65 15.1 -18.55 15.8 -23.9 L24.35 -22.85 Q23.65 -26.35 24.3 -29.85 L25.1 -33.6 25.1 -33.6" fill-rule="evenodd" stroke="none"/>
    </g>
    <g id="font_Coop_Flaired_O0">
      <path d="M21.35 -12.35 L21.35 -12.35 Q19.9 -4.4 15.3 -4.4 13.5 -4.4 11.7 -6.55 9.9 -8.7 9.45 -12.7 9.15 -18.25 11.15 -20.95 13.15 -23.7 15.85 -23.6 18.7 -23.4 20.35 -20.25 22.05 -17.1 21.35 -12.35 L21.35 -12.35 M29.4 -13.7 L29.4 -13.7 Q30.5 -22.55 26.25 -27.95 22.0 -33.35 15.3 -33.35 9.2 -33.25 5.25 -29.1 1.25 -24.9 0.9 -16.7 1.0 -8.35 5.15 -3.7 9.3 0.95 13.85 1.2 19.9 1.45 24.1 -2.55 28.25 -6.55 29.4 -13.7 L29.4 -13.7" fill-rule="evenodd" stroke="none"/>
    </g>
    <g id="font_Coop_Flaired_S0">
      <path d="M26.65 -19.85 L26.65 -19.85 Q26.05 -26.1 22.95 -29.65 19.8 -33.15 13.0 -33.2 6.0 -32.85 3.15 -29.45 0.25 -26.1 0.25 -23.1 0.35 -17.85 4.6 -15.8 8.9 -13.75 13.1 -12.45 17.35 -11.2 17.4 -8.3 17.1 -6.35 15.35 -5.8 13.55 -5.2 11.85 -6.35 10.15 -7.55 10.2 -11.0 L6.65 -10.55 Q3.35 -10.2 0.55 -10.5 1.15 -5.05 4.7 -2.0 8.2 1.1 14.0 1.0 20.75 0.65 23.45 -2.1 26.2 -4.8 25.95 -7.7 25.45 -12.2 21.45 -13.95 17.4 -15.7 13.55 -17.05 9.7 -18.35 9.7 -21.6 10.35 -24.3 13.2 -24.15 16.05 -24.0 16.3 -18.5 L19.6 -19.25 26.65 -19.85 26.65 -19.85" fill-rule="evenodd" stroke="none"/>
    </g>
    <g id="font_Coop_Flaired_B0">
      <path d="M9.65 -4.25 L9.65 -4.25 Q9.2 -7.55 9.15 -11.65 14.3 -11.55 15.75 -9.7 17.15 -7.85 15.45 -6.05 13.75 -4.25 9.65 -4.25 L9.65 -4.25 M9.9 -24.55 L9.9 -24.55 Q15.1 -24.75 16.45 -22.8 17.85 -20.8 15.95 -18.65 14.0 -16.5 9.25 -16.25 9.4 -20.6 9.9 -24.55 L9.9 -24.55 M25.7 -26.05 L25.7 -26.05 Q23.35 -32.2 15.7 -33.2 8.05 -34.2 -0.05 -32.45 1.45 -27.95 2.2 -21.7 3.0 -15.4 2.95 -9.2 2.85 -3.0 1.8 1.25 7.65 2.2 13.9 1.35 20.15 0.45 23.3 -3.4 25.6 -6.75 24.5 -9.9 23.35 -13.05 19.1 -14.65 22.6 -16.15 24.7 -19.05 26.75 -21.95 25.7 -26.05 L25.7 -26.05" fill-rule="evenodd" stroke="none"/>
    </g>
    <g id="font_Coop_Flaired_A0">
      <path d="M15.55 -13.4 L15.55 -13.4 10.15 -13.2 Q11.25 -18.15 13.1 -22.0 14.75 -17.95 15.55 -13.4 L15.55 -13.4 M27.95 0.0 L27.95 0.0 Q25.3 -3.45 23.05 -9.35 20.75 -15.3 19.9 -22.0 19.05 -28.65 20.6 -34.2 17.85 -33.25 13.6 -32.95 9.35 -32.65 6.4 -32.85 7.0 -28.05 6.15 -21.75 5.3 -15.5 3.45 -9.6 1.55 -3.75 -0.85 0.0 L2.9 -0.6 9.8 -0.85 Q8.95 -3.9 9.4 -8.4 L16.0 -9.05 Q16.35 -3.1 14.8 1.2 L19.3 0.25 27.95 0.0 27.95 0.0" fill-rule="evenodd" stroke="none"/>
    </g>
    <g id="font_Coop_Flaired_L0">
      <path d="M22.35 0.9 L22.35 0.9 Q21.9 -0.75 21.75 -3.3 21.6 -5.9 22.1 -8.75 16.05 -5.2 9.55 -5.3 9.0 -10.1 9.4 -18.3 9.8 -26.45 11.6 -34.2 7.9 -32.95 4.2 -32.85 L0.25 -32.8 Q1.65 -28.6 2.4 -22.25 3.1 -15.9 2.8 -9.35 2.45 -2.85 0.8 2.0 11.4 -0.55 22.35 0.9 L22.35 0.9" fill-rule="evenodd" stroke="none"/>
    </g>
  </defs>
</svg>
