<?xml version="1.0" encoding="UTF-8" standalone="no"?>
<svg xmlns:xlink="http://www.w3.org/1999/xlink" height="11.3px" width="88.3px" xmlns="http://www.w3.org/2000/svg">
  <g transform="matrix(1.0, 0.0, 0.0, 1.0, 8.0, -2.1)">
    <g transform="matrix(1.0, 0.0, 0.0, 1.0, -8.15, 0.0)">
      <use fill="#3e7186" height="11.3" transform="matrix(0.3125, 0.0, 0.0, 0.3125, 0.0, 13.0)" width="88.3" xlink:href="#font_Coop_Flaired_D0"/>
      <use fill="#3e7186" height="11.3" transform="matrix(0.3125, 0.0, 0.0, 0.3125, 6.9, 13.0)" width="88.3" xlink:href="#font_Coop_Flaired_Y0"/>
      <use fill="#3e7186" height="11.3" transform="matrix(0.3125, 0.0, 0.0, 0.3125, 14.9, 13.0)" width="88.3" xlink:href="#font_Coop_Flaired_N0"/>
      <use fill="#3e7186" height="11.3" transform="matrix(0.3125, 0.0, 0.0, 0.3125, 23.3, 13.0)" width="88.3" xlink:href="#font_Coop_Flaired_A0"/>
      <use fill="#3e7186" height="11.3" transform="matrix(0.3125, 0.0, 0.0, 0.3125, 30.4, 13.0)" width="88.3" xlink:href="#font_Coop_Flaired_M0"/>
      <use fill="#3e7186" height="11.3" transform="matrix(0.3125, 0.0, 0.0, 0.3125, 40.55, 13.0)" width="88.3" xlink:href="#font_Coop_Flaired_I0"/>
      <use fill="#3e7186" height="11.3" transform="matrix(0.3125, 0.0, 0.0, 0.3125, 43.75, 13.0)" width="88.3" xlink:href="#font_Coop_Flaired_T0"/>
      <use fill="#3e7186" height="11.3" transform="matrix(0.3125, 0.0, 0.0, 0.3125, 50.7, 13.0)" width="88.3" xlink:href="#font_Coop_Flaired_E0"/>
      <use fill="#3e7186" height="11.3" transform="matrix(0.3125, 0.0, 0.0, 0.3125, 61.55, 13.0)" width="88.3" xlink:href="#font_Coop_Flaired_B0"/>
      <use fill="#3e7186" height="11.3" transform="matrix(0.3125, 0.0, 0.0, 0.3125, 68.3, 13.0)" width="88.3" xlink:href="#font_Coop_Flaired_A0"/>
      <use fill="#3e7186" height="11.3" transform="matrix(0.3125, 0.0, 0.0, 0.3125, 75.4, 13.0)" width="88.3" xlink:href="#font_Coop_Flaired_L0"/>
      <use fill="#3e7186" height="11.3" transform="matrix(0.3125, 0.0, 0.0, 0.3125, 81.35, 13.0)" width="88.3" xlink:href="#font_Coop_Flaired_L0"/>
    </g>
  </g>
  <defs>
    <g id="font_Coop_Flaired_D0">
      <path d="M18.95 -13.15 L18.95 -13.15 Q17.85 -5.5 9.85 -4.8 9.35 -9.05 9.5 -14.5 9.7 -19.95 10.35 -23.5 15.8 -23.7 17.8 -20.75 19.75 -17.75 18.95 -13.15 L18.95 -13.15 M25.15 -25.75 L25.15 -25.75 Q22.0 -31.6 15.2 -32.85 8.45 -34.05 0.15 -32.55 1.65 -28.1 2.4 -21.75 3.2 -15.45 3.1 -9.2 3.05 -2.95 2.0 1.35 L12.85 0.9 Q18.1 -0.1 21.6 -3.45 25.45 -7.35 26.7 -13.45 27.95 -19.6 25.15 -25.75 L25.15 -25.75" fill-rule="evenodd" stroke="none"/>
    </g>
    <g id="font_Coop_Flaired_Y0">
      <path d="M30.15 -32.8 L30.15 -32.8 25.35 -32.25 Q20.9 -31.85 17.1 -32.35 17.4 -30.2 16.6 -27.0 15.8 -23.8 14.15 -20.35 12.7 -23.6 11.95 -26.8 11.15 -30.0 11.15 -32.4 L2.85 -32.15 -1.95 -32.6 Q5.5 -25.15 10.9 -14.25 10.85 -10.25 10.1 -6.15 9.35 -2.05 7.95 1.2 L11.8 0.45 20.05 0.2 Q18.7 -2.25 18.05 -6.05 17.35 -9.8 17.25 -13.8 19.65 -18.9 23.05 -24.0 26.45 -29.05 30.15 -32.8 L30.15 -32.8" fill-rule="evenodd" stroke="none"/>
    </g>
    <g id="font_Coop_Flaired_N0">
      <path d="M30.4 -33.8 L30.4 -33.8 Q27.0 -32.8 23.25 -33.0 L19.1 -33.3 Q20.05 -28.7 20.45 -23.05 20.9 -17.4 20.45 -11.8 17.3 -16.4 14.85 -22.45 12.45 -28.55 12.3 -33.7 8.45 -32.7 4.6 -32.6 L0.4 -32.55 Q2.85 -24.35 3.0 -15.4 3.15 -6.4 1.7 1.2 L4.65 0.7 12.2 0.4 Q10.85 -2.95 10.45 -8.05 10.0 -13.15 10.05 -17.6 12.95 -13.85 15.4 -8.6 17.8 -3.4 18.3 0.65 L25.4 0.45 28.55 0.95 Q27.0 -6.5 27.35 -15.7 27.7 -24.85 30.4 -33.8 L30.4 -33.8" fill-rule="evenodd" stroke="none"/>
    </g>
    <g id="font_Coop_Flaired_A0">
      <path d="M15.55 -13.4 L15.55 -13.4 10.15 -13.2 Q11.25 -18.15 13.1 -22.0 14.75 -17.95 15.55 -13.4 L15.55 -13.4 M27.95 0.0 L27.95 0.0 Q25.3 -3.45 23.05 -9.35 20.75 -15.3 19.9 -22.0 19.05 -28.65 20.6 -34.2 17.85 -33.25 13.6 -32.95 9.35 -32.65 6.4 -32.85 7.0 -28.05 6.15 -21.75 5.3 -15.5 3.45 -9.6 1.55 -3.75 -0.85 0.0 L2.9 -0.6 9.8 -0.85 Q8.95 -3.9 9.4 -8.4 L16.0 -9.05 Q16.35 -3.1 14.8 1.2 L19.3 0.25 27.95 0.0 27.95 0.0" fill-rule="evenodd" stroke="none"/>
    </g>
    <g id="font_Coop_Flaired_M0">
      <path d="M35.25 -34.2 L35.25 -34.2 Q30.9 -33.2 26.8 -33.25 L22.45 -33.35 Q23.35 -28.85 21.7 -23.8 20.05 -18.75 17.7 -15.9 15.85 -18.9 14.45 -24.15 13.05 -29.35 13.4 -33.85 8.85 -32.6 4.8 -32.55 0.75 -32.5 0.45 -32.6 2.7 -23.65 2.95 -14.8 3.2 -5.95 1.25 1.6 L4.2 1.1 12.0 0.8 Q10.8 -3.0 10.2 -8.2 9.6 -13.35 9.65 -17.8 L13.25 -12.6 Q15.55 -9.0 17.8 -3.8 L20.35 -8.7 Q22.8 -13.35 26.75 -18.9 26.8 -14.0 26.35 -8.3 25.85 -2.6 24.6 1.4 L31.6 1.2 34.8 1.55 Q33.35 -6.35 33.25 -16.1 33.15 -25.8 35.25 -34.2 L35.25 -34.2" fill-rule="evenodd" stroke="none"/>
    </g>
    <g id="font_Coop_Flaired_I0">
      <path d="M11.25 -33.6 L11.25 -33.6 Q8.1 -32.8 4.45 -32.8 L0.45 -32.8 Q1.65 -28.25 2.15 -22.0 2.6 -15.7 2.35 -9.3 2.1 -2.9 1.15 2.0 4.7 0.9 7.45 0.8 L10.35 0.8 Q8.9 -6.65 9.1 -16.35 9.25 -26.05 11.25 -33.6 L11.25 -33.6" fill-rule="evenodd" stroke="none"/>
    </g>
    <g id="font_Coop_Flaired_T0">
      <path d="M25.1 -33.6 L25.1 -33.6 Q13.2 -31.45 -0.6 -32.8 0.95 -28.8 0.9 -25.55 L0.7 -22.2 8.9 -23.65 Q9.55 -17.1 9.05 -10.65 8.55 -4.2 6.95 1.2 L10.55 0.5 18.1 0.3 Q16.15 -4.8 15.65 -11.65 15.1 -18.55 15.8 -23.9 L24.35 -22.85 Q23.65 -26.35 24.3 -29.85 L25.1 -33.6 25.1 -33.6" fill-rule="evenodd" stroke="none"/>
    </g>
    <g id="font_Coop_Flaired_E0">
      <path d="M25.6 -33.6 L25.6 -33.6 13.6 -32.65 Q7.1 -32.35 0.35 -32.35 2.25 -24.3 2.6 -15.6 2.95 -6.95 1.25 1.65 L13.25 0.8 24.0 1.1 24.05 -0.75 24.4 -5.35 Q16.4 -3.85 9.7 -4.3 L9.4 -9.45 Q12.95 -9.7 15.45 -9.4 L18.1 -9.05 Q17.85 -11.65 18.3 -13.65 L18.75 -15.75 15.6 -15.05 9.55 -14.5 Q9.8 -20.05 10.5 -23.35 17.45 -24.15 24.45 -23.0 24.2 -25.65 24.55 -28.5 24.9 -31.35 25.6 -33.6 L25.6 -33.6" fill-rule="evenodd" stroke="none"/>
    </g>
    <g id="font_Coop_Flaired_B0">
      <path d="M9.65 -4.25 L9.65 -4.25 Q9.2 -7.55 9.15 -11.65 14.3 -11.55 15.75 -9.7 17.15 -7.85 15.45 -6.05 13.75 -4.25 9.65 -4.25 L9.65 -4.25 M9.9 -24.55 L9.9 -24.55 Q15.1 -24.75 16.45 -22.8 17.85 -20.8 15.95 -18.65 14.0 -16.5 9.25 -16.25 9.4 -20.6 9.9 -24.55 L9.9 -24.55 M25.7 -26.05 L25.7 -26.05 Q23.35 -32.2 15.7 -33.2 8.05 -34.2 -0.05 -32.45 1.45 -27.95 2.2 -21.7 3.0 -15.4 2.95 -9.2 2.85 -3.0 1.8 1.25 7.65 2.2 13.9 1.35 20.15 0.45 23.3 -3.4 25.6 -6.75 24.5 -9.9 23.35 -13.05 19.1 -14.65 22.6 -16.15 24.7 -19.05 26.75 -21.95 25.7 -26.05 L25.7 -26.05" fill-rule="evenodd" stroke="none"/>
    </g>
    <g id="font_Coop_Flaired_L0">
      <path d="M22.35 0.9 L22.35 0.9 Q21.9 -0.75 21.75 -3.3 21.6 -5.9 22.1 -8.75 16.05 -5.2 9.55 -5.3 9.0 -10.1 9.4 -18.3 9.8 -26.45 11.6 -34.2 7.9 -32.95 4.2 -32.85 L0.25 -32.8 Q1.65 -28.6 2.4 -22.25 3.1 -15.9 2.8 -9.35 2.45 -2.85 0.8 2.0 11.4 -0.55 22.35 0.9 L22.35 0.9" fill-rule="evenodd" stroke="none"/>
    </g>
  </defs>
</svg>
