<?xml version="1.0" encoding="UTF-8" standalone="no"?>
<svg xmlns:xlink="http://www.w3.org/1999/xlink" height="0.0px" width="17.35px" xmlns="http://www.w3.org/2000/svg">
  <g transform="matrix(1.0, 0.0, 0.0, 1.0, 0.0, 0.0)">
    <g transform="matrix(1.0, 0.0, 0.0, 1.0, 0.0, 0.0)">
      <use fill="#ffcc00" height="0.0" transform="matrix(0.0, 0.0, 0.0, 0.0, 0.0, 0.0)" width="17.35" xlink:href="#font_Coop_Black_20"/>
      <use fill="#ffcc00" height="0.0" transform="matrix(0.0, 0.0, 0.0, 0.0, 8.65, 0.0)" width="17.35" xlink:href="#font_Coop_Black_00"/>
      <use fill="#ffcc00" height="0.0" transform="matrix(0.0, 0.0, 0.0, 0.0, 17.35, 0.0)" width="17.35" xlink:href="#font_Coop_Black_00"/>
    </g>
  </g>
  <defs>
    <g id="font_Coop_Black_20">
      <path d="M35.75 -26.95 L35.75 -26.95 Q35.4 -30.2 31.95 -32.6 28.5 -35.05 21.95 -35.15 15.25 -35.15 9.3 -31.95 3.4 -28.8 0.9 -22.65 L10.45 -20.95 15.2 -19.95 Q16.7 -22.1 18.7 -22.95 L21.55 -23.05 Q22.45 -22.0 20.0 -20.15 17.55 -18.3 12.9 -16.1 8.7 -14.25 4.75 -10.35 0.75 -6.5 0.65 0.6 L17.9 0.35 35.25 -0.2 35.25 -4.1 35.4 -13.3 30.35 -12.7 20.05 -11.6 Q22.2 -13.3 26.1 -15.0 30.0 -16.75 33.05 -19.5 36.15 -22.25 35.75 -26.95 L35.75 -26.95" fill-rule="evenodd" stroke="none"/>
    </g>
    <g id="font_Coop_Black_00">
      <path d="M27.05 -17.2 L27.05 -17.2 Q26.95 -15.4 25.45 -14.2 23.9 -13.0 21.6 -12.95 19.3 -13.0 17.8 -14.2 16.25 -15.4 16.2 -17.2 16.25 -19.0 17.8 -20.2 19.3 -21.35 21.6 -21.4 23.9 -21.35 25.45 -20.2 26.95 -19.0 27.05 -17.2 L27.05 -17.2 M42.6 -17.7 L42.6 -17.7 Q42.1 -25.25 36.5 -30.2 30.95 -35.2 21.8 -35.35 13.5 -35.35 7.25 -30.8 1.0 -26.25 0.6 -17.45 0.75 -8.65 6.55 -4.15 12.3 0.4 21.1 0.4 31.85 0.15 37.35 -5.15 42.9 -10.45 42.6 -17.7 L42.6 -17.7" fill-rule="evenodd" stroke="none"/>
    </g>
  </defs>
</svg>
