<?xml version="1.0" encoding="UTF-8" standalone="no"?>
<svg xmlns:xlink="http://www.w3.org/1999/xlink" height="3.75px" width="39.95px" xmlns="http://www.w3.org/2000/svg">
  <g transform="matrix(1.0, 0.0, 0.0, 1.0, -55.4, -1.85)">
    <g transform="matrix(1.0, 0.0, 0.0, 1.0, 55.05, 0.0)">
      <use fill="#000000" height="3.75" transform="matrix(0.0977, 0.0, 0.0, 0.0977, 0.0, 6.0)" width="39.95" xlink:href="#font_Arial_Black__0"/>
      <use fill="#000000" height="3.75" transform="matrix(0.0977, 0.0, 0.0, 0.0977, 4.0, 6.0)" width="39.95" xlink:href="#font_Arial_Black_20"/>
      <use fill="#000000" height="3.75" transform="matrix(0.0977, 0.0, 0.0, 0.0977, 7.35, 6.0)" width="39.95" xlink:href="#font_Arial_Black_00"/>
      <use fill="#000000" height="3.75" transform="matrix(0.0977, 0.0, 0.0, 0.0977, 10.65, 6.0)" width="39.95" xlink:href="#font_Arial_Black_00"/>
      <use fill="#000000" height="3.75" transform="matrix(0.0977, 0.0, 0.0, 0.0977, 13.95, 6.0)" width="39.95" xlink:href="#font_Arial_Black_70"/>
      <use fill="#000000" height="3.75" transform="matrix(0.0977, 0.0, 0.0, 0.0977, 18.9, 6.0)" width="39.95" xlink:href="#font_Arial_Black_D0"/>
      <use fill="#000000" height="3.75" transform="matrix(0.0977, 0.0, 0.0, 0.0977, 22.8, 6.0)" width="39.95" xlink:href="#font_Arial_Black_I0"/>
      <use fill="#000000" height="3.75" transform="matrix(0.0977, 0.0, 0.0, 0.0977, 24.75, 6.0)" width="39.95" xlink:href="#font_Arial_Black_S0"/>
      <use fill="#000000" height="3.75" transform="matrix(0.0977, 0.0, 0.0, 0.0977, 28.35, 6.0)" width="39.95" xlink:href="#font_Arial_Black_N0"/>
      <use fill="#000000" height="3.75" transform="matrix(0.0977, 0.0, 0.0, 0.0977, 32.55, 6.0)" width="39.95" xlink:href="#font_Arial_Black_E0"/>
      <use fill="#000000" height="3.75" transform="matrix(0.0977, 0.0, 0.0, 0.0977, 36.2, 6.0)" width="39.95" xlink:href="#font_Arial_Black_Y0"/>
    </g>
  </g>
  <defs>
    <g id="font_Arial_Black__0">
      <path d="M25.0 -16.0 L25.0 -16.0 Q24.5 -13.55 23.25 -12.45 22.05 -11.4 20.5 -11.4 18.05 -11.4 16.7 -13.5 15.8 -14.95 15.8 -18.4 15.8 -21.8 17.15 -23.4 18.5 -25.0 20.45 -25.0 22.15 -25.0 23.35 -24.05 24.55 -23.1 25.0 -21.2 L30.0 -21.9 Q29.35 -24.95 26.85 -26.85 24.35 -28.8 20.7 -28.8 16.2 -28.8 13.2 -25.8 10.2 -22.85 10.2 -18.25 10.2 -13.45 13.15 -10.5 16.05 -7.6 20.7 -7.6 24.95 -7.6 27.55 -10.15 29.25 -11.75 30.2 -14.8 L25.0 -16.0 M35.8 -18.2 L35.8 -18.2 Q35.8 -11.9 31.35 -7.45 26.85 -3.0 20.5 -3.0 14.2 -3.0 9.7 -7.45 5.2 -11.9 5.2 -18.2 5.2 -24.5 9.7 -28.95 14.2 -33.4 20.5 -33.4 26.85 -33.4 31.35 -28.95 35.8 -24.5 35.8 -18.2 M39.6 -18.2 L39.6 -18.2 Q39.6 -23.25 37.05 -27.7 34.5 -32.1 30.05 -34.65 25.65 -37.2 20.5 -37.2 15.4 -37.2 10.95 -34.65 6.55 -32.1 4.0 -27.7 1.4 -23.25 1.4 -18.2 1.4 -13.1 4.0 -8.65 6.55 -4.25 10.95 -1.75 15.4 0.8 20.5 0.8 25.65 0.8 30.05 -1.75 34.5 -4.25 37.05 -8.65 39.6 -13.1 39.6 -18.2" fill-rule="evenodd" stroke="none"/>
    </g>
    <g id="font_Arial_Black_20">
      <path d="M32.0 -8.4 L32.0 -8.4 16.1 -8.4 18.55 -10.6 22.7 -13.55 Q27.85 -17.15 29.85 -20.2 31.8 -23.25 31.8 -26.55 31.8 -29.7 30.1 -32.2 28.4 -34.75 25.4 -35.95 22.4 -37.2 17.0 -37.2 11.85 -37.2 8.95 -35.9 6.0 -34.6 4.4 -32.15 2.8 -29.75 2.2 -25.4 L12.4 -24.6 Q12.85 -27.7 14.1 -28.95 15.3 -30.2 17.25 -30.2 19.15 -30.2 20.4 -29.0 21.6 -27.85 21.6 -26.15 21.6 -24.65 20.35 -22.95 19.1 -21.2 14.65 -17.9 7.3 -12.55 4.6 -8.55 1.95 -4.55 1.4 0.0 L32.0 0.0 32.0 -8.4" fill-rule="evenodd" stroke="none"/>
    </g>
    <g id="font_Arial_Black_00">
      <path d="M12.4 -18.4 L12.4 -18.4 Q12.4 -25.3 13.5 -27.85 14.65 -30.4 17.15 -30.4 19.55 -30.4 20.8 -27.9 22.0 -25.4 22.0 -18.15 22.0 -13.2 21.5 -10.9 20.95 -8.55 19.85 -7.45 18.7 -6.4 17.2 -6.4 14.85 -6.4 13.65 -8.95 12.4 -11.45 12.4 -18.4 M2.2 -18.45 L2.2 -18.45 Q2.2 -14.2 2.95 -10.7 3.7 -7.2 5.0 -5.15 6.85 -2.35 9.7 -0.85 12.55 0.6 17.2 0.6 25.45 0.6 28.85 -4.0 32.2 -8.6 32.2 -18.55 32.2 -23.0 31.2 -27.1 30.65 -29.25 29.8 -30.85 28.95 -32.45 27.45 -33.9 25.95 -35.35 23.55 -36.3 21.15 -37.2 17.45 -37.2 9.75 -37.2 6.0 -33.0 2.2 -28.85 2.2 -18.45" fill-rule="evenodd" stroke="none"/>
    </g>
    <g id="font_Arial_Black_70">
      <path d="M2.2 -28.0 L2.2 -28.0 20.4 -28.0 Q14.8 -21.05 12.2 -15.0 9.6 -8.95 8.4 0.0 L18.6 0.0 Q19.1 -6.45 20.55 -11.15 22.4 -17.2 25.55 -22.15 28.15 -26.2 32.0 -29.7 L32.0 -36.6 2.2 -36.6 2.2 -28.0" fill-rule="evenodd" stroke="none"/>
    </g>
    <g id="font_Arial_Black_D0">
      <path d="M18.2 -28.2 L18.2 -28.2 Q22.5 -28.2 24.35 -26.05 26.2 -23.95 26.2 -18.15 26.2 -13.8 25.4 -11.9 24.55 -9.95 23.1 -9.15 21.6 -8.4 18.15 -8.4 L15.4 -8.4 15.4 -28.2 18.2 -28.2 M4.0 0.0 L4.0 0.0 20.8 0.0 Q23.8 0.0 27.5 -1.0 30.2 -1.7 32.6 -3.9 34.95 -6.1 36.3 -9.3 37.6 -12.55 37.6 -18.4 37.6 -22.15 36.7 -25.5 35.8 -28.85 33.85 -31.35 31.85 -33.9 28.8 -35.25 25.75 -36.6 20.8 -36.6 L4.0 -36.6 4.0 0.0" fill-rule="evenodd" stroke="none"/>
    </g>
    <g id="font_Arial_Black_I0">
      <path d="M4.2 0.0 L4.2 0.0 15.6 0.0 15.6 -36.6 4.2 -36.6 4.2 0.0" fill-rule="evenodd" stroke="none"/>
    </g>
    <g id="font_Arial_Black_S0">
      <path d="M1.8 -12.1 L1.8 -12.1 Q2.3 -6.55 5.9 -3.0 9.5 0.6 18.8 0.6 24.15 0.6 27.6 -0.9 31.1 -2.45 33.05 -5.4 35.0 -8.4 35.0 -11.9 35.0 -14.9 33.55 -17.3 32.1 -19.75 28.9 -21.35 25.7 -23.0 18.3 -24.6 15.3 -25.25 14.45 -25.95 13.6 -26.65 13.6 -27.5 13.6 -28.7 14.6 -29.55 15.65 -30.4 17.6 -30.4 20.05 -30.4 21.4 -29.25 22.8 -28.1 23.2 -25.6 L33.8 -26.2 Q33.1 -31.95 29.45 -34.55 25.75 -37.2 18.75 -37.2 13.05 -37.2 9.75 -35.75 6.5 -34.3 4.85 -31.8 3.2 -29.3 3.2 -26.5 3.2 -22.2 6.4 -19.45 9.55 -16.7 17.0 -15.0 21.55 -14.0 22.8 -12.9 24.0 -11.75 24.0 -10.35 24.0 -8.85 22.7 -7.7 21.4 -6.6 19.0 -6.6 15.75 -6.6 14.05 -8.8 12.95 -10.15 12.6 -12.8 L1.8 -12.1" fill-rule="evenodd" stroke="none"/>
    </g>
    <g id="font_Arial_Black_N0">
      <path d="M3.8 0.0 L3.8 0.0 14.4 0.0 14.4 -20.2 28.2 0.0 38.8 0.0 38.8 -36.6 28.2 -36.6 28.2 -16.3 14.35 -36.6 3.8 -36.6 3.8 0.0" fill-rule="evenodd" stroke="none"/>
    </g>
    <g id="font_Arial_Black_E0">
      <path d="M3.8 0.0 L3.8 0.0 34.6 0.0 34.6 -8.4 15.2 -8.4 15.2 -15.6 32.6 -15.6 32.6 -23.0 15.2 -23.0 15.2 -28.8 34.0 -28.8 34.0 -36.6 3.8 -36.6 3.8 0.0" fill-rule="evenodd" stroke="none"/>
    </g>
    <g id="font_Arial_Black_Y0">
      <path d="M14.4 -15.3 L14.4 -15.3 14.4 0.0 25.8 0.0 25.8 -15.3 40.0 -36.6 27.5 -36.6 20.15 -24.5 12.8 -36.6 0.2 -36.6 14.4 -15.3" fill-rule="evenodd" stroke="none"/>
    </g>
  </defs>
</svg>
