<?xml version="1.0" encoding="UTF-8" standalone="no"?>
<svg xmlns:xlink="http://www.w3.org/1999/xlink" height="16.25px" width="102.2px" xmlns="http://www.w3.org/2000/svg">
  <g transform="matrix(1.0, 0.0, 0.0, 1.0, -2.25, -2.4)">
    <g transform="matrix(1.0, 0.0, 0.0, 1.0, 0.0, 0.0)">
      <use fill="#0c3c6b" height="16.25" transform="matrix(0.4297, 0.0, 0.0, 0.4297, 2.0, 18.0)" width="102.2" xlink:href="#font_SignPainter-HouseInformal_T0"/>
      <use fill="#0c3c6b" height="16.25" transform="matrix(0.4297, 0.0, 0.0, 0.4297, 15.1, 18.0)" width="102.2" xlink:href="#font_SignPainter-HouseInformal_A0"/>
      <use fill="#0c3c6b" height="16.25" transform="matrix(0.4297, 0.0, 0.0, 0.4297, 27.85, 18.0)" width="102.2" xlink:href="#font_SignPainter-HouseInformal_K0"/>
      <use fill="#0c3c6b" height="16.25" transform="matrix(0.4297, 0.0, 0.0, 0.4297, 41.45, 18.0)" width="102.2" xlink:href="#font_SignPainter-HouseInformal_E0"/>
      <use fill="#0c3c6b" height="16.25" transform="matrix(0.4297, 0.0, 0.0, 0.4297, 62.0, 18.0)" width="102.2" xlink:href="#font_SignPainter-HouseInformal_A0"/>
      <use fill="#0c3c6b" height="16.25" transform="matrix(0.4297, 0.0, 0.0, 0.4297, 74.75, 18.0)" width="102.2" xlink:href="#font_SignPainter-HouseInformal_I0"/>
      <use fill="#0c3c6b" height="16.25" transform="matrix(0.4297, 0.0, 0.0, 0.4297, 80.25, 18.0)" width="102.2" xlink:href="#font_SignPainter-HouseInformal_M0"/>
      <use fill="#0c3c6b" height="16.25" transform="matrix(0.4297, 0.0, 0.0, 0.4297, 97.85, 18.0)" width="102.2" xlink:href="#font_SignPainter-HouseInformal__1"/>
    </g>
  </g>
  <defs>
    <g id="font_SignPainter-HouseInformal_T0">
      <path d="M29.65 -28.9 L29.65 -28.9 Q30.95 -30.6 28.5 -30.7 L16.7 -30.7 4.75 -30.35 Q2.1 -30.3 0.9 -28.45 -0.55 -25.95 2.4 -26.15 L10.6 -26.5 10.8 -18.5 10.95 -9.0 11.15 -1.05 Q11.3 2.3 14.95 0.65 16.8 -0.05 17.65 -1.25 18.5 -2.4 18.55 -4.7 L18.8 -15.15 19.05 -26.9 25.3 -27.35 Q28.65 -27.45 29.65 -28.9 L29.65 -28.9" fill-rule="evenodd" stroke="none"/>
    </g>
    <g id="font_SignPainter-HouseInformal_A0">
      <path d="M8.4 -9.05 L8.4 -9.05 11.55 -16.85 14.6 -23.95 19.2 -10.7 8.4 -9.05 8.4 -9.05 M20.3 -30.15 L20.3 -30.15 Q19.6 -32.1 17.5 -31.35 L14.15 -30.1 Q12.7 -29.4 12.05 -27.9 L5.55 -11.5 1.0 -0.55 Q0.1 1.65 0.85 2.2 1.6 2.8 2.85 2.2 4.85 1.4 6.3 -3.35 L6.9 -5.15 13.5 -6.4 20.3 -7.45 23.1 1.1 Q23.75 3.0 25.95 1.7 27.7 0.85 28.75 -0.8 29.6 -1.95 28.85 -4.25 L24.8 -16.9 20.3 -30.15 20.3 -30.15" fill-rule="evenodd" stroke="none"/>
    </g>
    <g id="font_SignPainter-HouseInformal_K0">
      <path d="M10.1 -15.7 L10.1 -15.7 10.45 -29.25 Q10.7 -33.15 6.15 -31.4 4.25 -30.8 3.05 -29.5 1.85 -28.2 1.85 -25.5 L2.05 -17.7 2.35 -8.25 2.65 -0.1 Q2.8 3.25 6.25 1.7 8.2 1.0 9.0 -0.2 9.8 -1.4 9.8 -3.65 L9.85 -5.95 20.7 -4.4 Q23.15 -3.95 25.85 -4.3 28.6 -4.7 30.15 -6.6 32.55 -9.5 29.1 -10.2 L21.7 -11.55 12.65 -13.3 25.45 -23.9 Q30.05 -27.2 31.0 -30.6 31.3 -32.45 30.7 -33.05 30.1 -33.65 28.5 -32.35 L19.75 -24.55 10.1 -15.7 10.1 -15.7" fill-rule="evenodd" stroke="none"/>
    </g>
    <g id="font_SignPainter-HouseInformal_E0">
      <path d="M10.1 -13.0 L10.1 -13.0 10.35 -19.7 10.75 -25.95 16.75 -26.5 21.25 -26.9 Q25.35 -27.55 25.3 -29.55 24.95 -30.75 23.05 -30.55 L14.8 -30.3 5.4 -30.2 Q3.25 -30.25 2.55 -29.5 1.85 -28.8 1.9 -27.15 L2.0 -18.95 2.25 -9.85 Q2.45 -5.5 2.75 -3.2 3.2 -0.2 5.1 0.65 7.05 1.5 9.75 1.3 L16.5 0.6 22.45 -0.65 Q24.45 -1.15 25.2 -2.85 25.65 -4.3 23.8 -4.1 L17.25 -3.1 12.6 -2.7 Q10.25 -2.35 10.1 -5.0 10.0 -6.45 10.05 -9.25 L14.1 -9.8 18.0 -10.25 Q21.55 -10.4 23.05 -12.55 23.9 -14.4 21.55 -14.1 L16.45 -13.55 10.1 -13.0 10.1 -13.0" fill-rule="evenodd" stroke="none"/>
    </g>
    <g id="font_SignPainter-HouseInformal_I0">
      <path d="M7.15 1.2 L7.15 1.2 Q9.0 0.4 9.8 -0.8 10.55 -2.0 10.5 -4.3 L10.6 -16.0 10.65 -28.7 Q10.85 -32.65 6.4 -30.85 4.4 -30.1 3.2 -28.8 2.05 -27.5 2.15 -24.75 L2.75 -12.85 3.45 -0.55 Q3.75 2.8 7.15 1.2 L7.15 1.2" fill-rule="evenodd" stroke="none"/>
    </g>
    <g id="font_SignPainter-HouseInformal_M0">
      <path d="M28.55 -20.1 L28.55 -20.1 31.25 -9.95 Q32.65 -4.65 33.8 -1.05 34.95 2.15 37.95 0.0 41.15 -2.05 39.95 -6.4 L37.35 -17.15 34.3 -29.25 Q33.85 -31.1 32.9 -31.5 31.95 -31.9 29.9 -31.05 27.85 -30.3 27.3 -29.45 26.7 -28.6 26.5 -27.1 25.55 -22.4 23.75 -16.95 21.95 -11.5 20.15 -8.75 L19.2 -8.8 Q17.55 -11.9 17.0 -17.55 16.45 -23.25 16.55 -28.5 16.55 -30.7 15.65 -31.2 L13.7 -31.4 9.05 -29.95 Q6.9 -29.3 6.75 -26.7 5.65 -20.05 3.9 -13.25 L0.75 -0.5 Q0.35 1.45 1.2 1.7 2.05 1.9 3.25 1.2 4.85 0.55 5.65 -3.25 L7.3 -11.0 9.65 -21.05 Q9.5 -15.7 11.0 -10.1 12.55 -4.5 16.25 -2.4 18.95 -1.35 20.6 -3.1 22.0 -4.65 24.4 -9.65 26.8 -14.65 28.55 -20.1 L28.55 -20.1" fill-rule="evenodd" stroke="none"/>
    </g>
    <g id="font_SignPainter-HouseInformal__1">
      <path d="M5.55 -4.2 L5.55 -4.2 Q1.8 -4.15 1.75 -1.75 1.75 -0.4 2.75 0.35 3.8 1.1 5.15 1.25 8.4 1.55 9.25 -1.0 9.65 -3.65 5.55 -4.2 L5.55 -4.2 M3.55 -8.9 L3.55 -8.9 Q3.15 -5.75 5.6 -6.0 9.45 -5.75 10.4 -9.35 12.8 -17.8 15.0 -27.75 16.15 -33.2 11.65 -35.0 8.0 -36.4 7.65 -32.5 6.75 -27.8 5.6 -20.9 L3.55 -8.9 3.55 -8.9" fill-rule="evenodd" stroke="none"/>
    </g>
  </defs>
</svg>
