<?xml version="1.0" encoding="UTF-8" standalone="no"?>
<svg xmlns:xlink="http://www.w3.org/1999/xlink" height="11.15px" width="105.05px" xmlns="http://www.w3.org/2000/svg">
  <g transform="matrix(1.0, 0.0, 0.0, 1.0, -19.75, 0.15)">
    <g transform="matrix(1.0, 0.0, 0.0, 1.0, 19.45, 0.0)">
      <use fill="#006699" height="11.15" transform="matrix(0.2734, 0.0, 0.0, 0.2734, 0.0, 11.0)" width="105.05" xlink:href="#font_Minnie_H0"/>
      <use fill="#006699" height="11.15" transform="matrix(0.2734, 0.0, 0.0, 0.2734, 12.3, 11.0)" width="105.05" xlink:href="#font_Minnie_o0"/>
      <use fill="#006699" height="11.15" transform="matrix(0.2734, 0.0, 0.0, 0.2734, 22.75, 11.0)" width="105.05" xlink:href="#font_Minnie_w0"/>
      <use fill="#006699" height="11.15" transform="matrix(0.2734, 0.0, 0.0, 0.2734, 40.6, 11.0)" width="105.05" xlink:href="#font_Minnie_T0"/>
      <use fill="#006699" height="11.15" transform="matrix(0.2734, 0.0, 0.0, 0.2734, 50.15, 11.0)" width="105.05" xlink:href="#font_Minnie_o0"/>
      <use fill="#006699" height="11.15" transform="matrix(0.2734, 0.0, 0.0, 0.2734, 66.95, 11.0)" width="105.05" xlink:href="#font_Minnie_P0"/>
      <use fill="#006699" height="11.15" transform="matrix(0.2734, 0.0, 0.0, 0.2734, 77.05, 11.0)" width="105.05" xlink:href="#font_Minnie_l0"/>
      <use fill="#006699" height="11.15" transform="matrix(0.2734, 0.0, 0.0, 0.2734, 84.05, 11.0)" width="105.05" xlink:href="#font_Minnie_a0"/>
      <use fill="#006699" height="11.15" transform="matrix(0.2734, 0.0, 0.0, 0.2734, 94.7, 11.0)" width="105.05" xlink:href="#font_Minnie_y0"/>
    </g>
  </g>
  <defs>
    <g id="font_Minnie_H0">
      <path d="M18.95 -1.15 L18.95 -1.15 17.55 -14.3 30.6 -15.4 31.9 -2.35 46.0 -3.5 42.2 -40.8 29.1 -39.75 30.15 -29.2 15.4 -28.05 14.9 -33.45 14.3 -38.85 0.9 -37.75 4.65 0.0 18.95 -1.15" fill-rule="evenodd" stroke="none"/>
    </g>
    <g id="font_Minnie_o0">
      <path d="M20.2 -11.4 L20.2 -11.4 Q18.45 -11.4 16.75 -12.55 14.55 -14.1 14.55 -16.55 14.55 -19.3 16.75 -20.9 18.55 -22.2 20.75 -22.2 22.7 -22.2 24.3 -21.15 26.4 -19.8 26.4 -17.1 26.35 -14.1 24.0 -12.5 22.25 -11.4 20.2 -11.4 M21.15 -32.6 L21.15 -32.6 Q12.0 -32.6 6.3 -27.15 1.1 -22.2 1.1 -15.25 1.1 -8.65 5.8 -4.4 10.7 0.0 18.7 0.0 28.9 0.0 34.5 -6.05 38.95 -10.85 38.95 -16.85 38.95 -24.3 34.0 -28.55 29.15 -32.6 21.15 -32.6" fill-rule="evenodd" stroke="none"/>
    </g>
    <g id="font_Minnie_w0">
      <path d="M0.65 -30.45 L0.65 -30.45 Q1.7 -27.3 7.45 -14.9 L14.0 -0.8 21.95 -7.45 25.15 -3.6 Q28.35 -0.05 28.7 0.0 L46.8 -27.15 38.35 -31.4 Q37.55 -29.75 33.15 -22.9 28.7 -16.05 28.35 -15.9 L23.45 -24.55 17.1 -16.75 13.9 -24.4 Q10.85 -31.3 10.45 -32.6 L0.65 -30.45" fill-rule="evenodd" stroke="none"/>
    </g>
    <g id="font_Minnie_T0">
      <path d="M29.2 -1.25 L29.2 -1.25 24.55 -29.15 35.75 -30.9 34.1 -40.6 1.1 -36.0 2.85 -25.85 13.9 -27.35 18.75 0.0 29.2 -1.25" fill-rule="evenodd" stroke="none"/>
    </g>
    <g id="font_Minnie_P0">
      <path d="M15.3 -31.25 L15.3 -31.25 18.6 -31.6 Q23.15 -31.6 23.1 -28.7 23.05 -25.25 16.7 -24.55 L15.3 -31.25 M20.05 -1.9 L20.05 -1.9 Q19.65 -3.0 18.25 -10.05 L17.85 -12.2 Q27.15 -15.2 32.4 -20.35 37.4 -25.15 37.4 -30.4 L37.25 -32.35 Q35.55 -40.65 21.9 -40.8 15.45 -40.85 1.1 -38.5 L8.75 0.0 20.05 -1.9" fill-rule="evenodd" stroke="none"/>
    </g>
    <g id="font_Minnie_l0">
      <path d="M23.85 -12.5 L23.85 -12.5 14.5 -11.35 11.8 -32.6 1.35 -31.45 3.35 -15.4 5.35 0.0 26.25 -2.4 23.85 -12.5" fill-rule="evenodd" stroke="none"/>
    </g>
    <g id="font_Minnie_a0">
      <path d="M17.4 -12.8 L17.4 -12.8 19.25 -16.0 21.15 -19.25 25.3 -12.8 17.4 -12.8 M10.8 0.0 L10.8 0.0 12.6 -2.9 14.6 -6.2 28.15 -6.2 30.75 -2.8 32.95 0.0 41.7 -2.4 31.55 -17.45 21.1 -32.6 20.7 -32.6 10.8 -17.85 Q1.05 -3.2 0.9 -2.5 L10.8 0.0" fill-rule="evenodd" stroke="none"/>
    </g>
    <g id="font_Minnie_y0">
      <path d="M20.9 0.0 L20.9 0.0 22.35 -8.95 30.35 -16.0 38.7 -23.1 30.8 -29.95 Q30.15 -29.7 24.3 -24.55 18.45 -19.45 18.3 -19.0 L10.05 -32.6 1.1 -27.2 6.3 -18.75 Q11.2 -10.35 11.15 -9.9 L9.85 -1.4 20.9 0.0" fill-rule="evenodd" stroke="none"/>
    </g>
  </defs>
</svg>
