<?xml version="1.0" encoding="UTF-8" standalone="no"?>
<svg xmlns:xlink="http://www.w3.org/1999/xlink" height="16.05px" width="131.45px" xmlns="http://www.w3.org/2000/svg">
  <g transform="matrix(1.0, 0.0, 0.0, 1.0, -69.4, -0.05)">
    <g transform="matrix(1.0, 0.0, 0.0, 1.0, 68.9, 0.0)">
      <use fill="#006699" height="16.05" transform="matrix(0.3906, 0.0, 0.0, 0.3906, 0.0, 16.0)" width="131.45" xlink:href="#font_Minnie_L0"/>
      <use fill="#006699" height="16.05" transform="matrix(0.3906, 0.0, 0.0, 0.3906, 12.05, 16.0)" width="131.45" xlink:href="#font_Minnie_e0"/>
      <use fill="#006699" height="16.05" transform="matrix(0.3906, 0.0, 0.0, 0.3906, 22.3, 16.0)" width="131.45" xlink:href="#font_Minnie_t0"/>
      <use fill="#006699" height="16.05" transform="matrix(0.3906, 0.0, 0.0, 0.3906, 33.55, 16.0)" width="131.45" xlink:href="#font_Minnie__0"/>
      <use fill="#006699" height="16.05" transform="matrix(0.3906, 0.0, 0.0, 0.3906, 41.2, 16.0)" width="131.45" xlink:href="#font_Minnie_s0"/>
      <use fill="#006699" height="16.05" transform="matrix(0.3906, 0.0, 0.0, 0.3906, 63.0, 16.0)" width="131.45" xlink:href="#font_Minnie_B0"/>
      <use fill="#006699" height="16.05" transform="matrix(0.3906, 0.0, 0.0, 0.3906, 76.7, 16.0)" width="131.45" xlink:href="#font_Minnie_O0"/>
      <use fill="#006699" height="16.05" transform="matrix(0.3906, 0.0, 0.0, 0.3906, 95.0, 16.0)" width="131.45" xlink:href="#font_Minnie_W0"/>
      <use fill="#006699" height="16.05" transform="matrix(0.3906, 0.0, 0.0, 0.3906, 115.1, 16.0)" width="131.45" xlink:href="#font_Minnie_L0"/>
      <use fill="#006699" height="16.05" transform="matrix(0.3906, 0.0, 0.0, 0.3906, 127.15, 16.0)" width="131.45" xlink:href="#font_Minnie__2"/>
    </g>
  </g>
  <defs>
    <g id="font_Minnie_L0">
      <path d="M29.45 -15.55 L29.45 -15.55 17.65 -14.15 14.35 -40.8 1.35 -39.25 3.9 -19.2 6.35 0.0 32.5 -3.05 29.45 -15.55" fill-rule="evenodd" stroke="none"/>
    </g>
    <g id="font_Minnie_e0">
      <path d="M24.95 -6.0 L24.95 -6.0 14.3 -6.65 14.7 -10.75 18.2 -10.6 21.85 -10.4 22.8 -21.6 15.65 -22.0 15.8 -25.0 25.7 -24.2 26.25 -31.4 3.55 -32.6 1.1 -1.3 12.1 -0.65 24.5 0.0 24.95 -6.0" fill-rule="evenodd" stroke="none"/>
    </g>
    <g id="font_Minnie_t0">
      <path d="M23.6 -1.0 L23.6 -1.0 19.85 -23.35 28.85 -24.65 27.55 -32.6 1.1 -28.75 2.5 -20.85 11.15 -22.1 15.1 0.0 23.6 -1.0" fill-rule="evenodd" stroke="none"/>
    </g>
    <g id="font_Minnie__0">
      <path d="M17.2 -37.15 L17.2 -37.15 Q13.45 -40.8 10.85 -40.8 7.65 -40.8 7.7 -34.45 L1.1 -22.9 3.95 -20.6 15.1 -29.75 Q18.5 -31.6 18.5 -34.1 18.5 -35.75 17.2 -37.15" fill-rule="evenodd" stroke="none"/>
    </g>
    <g id="font_Minnie_s0">
      <path d="M2.3 -0.25 L2.3 -0.25 4.55 0.0 12.05 -0.2 Q16.05 -0.3 19.2 -2.25 21.7 -3.9 22.6 -5.8 23.5 -7.7 24.5 -14.85 25.25 -20.9 26.9 -22.2 27.45 -22.6 28.15 -22.6 L29.8 -22.1 30.45 -21.55 32.75 -29.6 Q29.1 -32.6 25.65 -32.6 L22.6 -32.2 Q19.15 -31.2 17.35 -28.5 16.0 -26.5 15.45 -23.2 L14.9 -18.1 Q14.35 -14.05 13.45 -12.35 12.15 -9.7 9.2 -9.3 L7.65 -9.2 3.55 -9.7 1.1 -10.35 2.3 -0.25" fill-rule="evenodd" stroke="none"/>
    </g>
    <g id="font_Minnie_B0">
      <path d="M14.75 -32.45 L14.75 -32.45 16.1 -32.65 18.0 -32.8 Q21.55 -32.8 21.7 -30.45 21.8 -28.75 20.35 -27.55 18.7 -26.2 15.85 -26.2 L14.3 -26.3 14.75 -32.45 M13.6 -16.35 L13.6 -16.35 16.4 -16.6 Q21.3 -16.6 21.15 -12.75 21.0 -10.2 19.75 -9.3 18.75 -8.6 16.45 -8.6 L14.75 -8.65 13.0 -8.7 13.6 -16.35 M1.1 -1.25 L1.1 -1.25 Q8.5 0.0 14.5 0.0 27.15 0.0 32.55 -5.6 34.8 -7.9 35.45 -11.15 35.75 -16.35 33.25 -19.5 31.2 -22.1 27.7 -22.85 32.05 -24.35 34.0 -28.8 34.85 -30.6 35.15 -32.9 35.35 -36.0 32.25 -38.05 28.3 -40.75 19.85 -40.8 L9.9 -40.4 4.05 -39.8 2.6 -20.65 1.1 -1.25" fill-rule="evenodd" stroke="none"/>
    </g>
    <g id="font_Minnie_O0">
      <path d="M25.15 -14.2 L25.15 -14.2 Q22.95 -14.2 20.75 -15.65 18.05 -17.55 18.05 -20.65 18.05 -24.1 20.8 -26.15 23.1 -27.8 25.75 -27.8 28.2 -27.8 30.2 -26.45 32.8 -24.75 32.8 -21.4 32.75 -17.55 29.8 -15.6 27.65 -14.2 25.15 -14.2 M26.1 -40.8 L26.1 -40.8 Q14.7 -40.8 7.65 -33.95 1.1 -27.75 1.1 -19.1 1.1 -10.8 7.05 -5.55 13.1 0.0 23.15 0.0 35.9 0.0 42.85 -7.6 48.4 -13.6 48.4 -21.15 48.4 -30.35 42.15 -35.7 36.2 -40.8 26.1 -40.8" fill-rule="evenodd" stroke="none"/>
    </g>
    <g id="font_Minnie_W0">
      <path d="M0.65 -38.05 L0.65 -38.05 Q1.9 -34.15 9.1 -18.65 L17.35 -1.0 Q27.35 -9.1 27.25 -9.35 27.7 -8.65 31.3 -4.5 35.25 -0.05 35.75 0.0 L58.35 -34.0 47.75 -39.25 Q46.75 -37.15 41.2 -28.6 35.7 -20.05 35.25 -19.9 L29.1 -30.7 21.25 -20.9 17.25 -30.4 Q13.4 -39.15 12.9 -40.8 L0.65 -38.05" fill-rule="evenodd" stroke="none"/>
    </g>
    <g id="font_Minnie__2">
      <path d="M6.0 0.2 L6.0 0.2 Q4.2 0.2 2.9 -0.95 1.6 -2.1 1.6 -3.8 1.6 -5.4 2.9 -6.6 4.2 -7.75 6.0 -7.75 7.8 -7.75 9.1 -6.6 10.4 -5.4 10.4 -3.8 10.4 -2.1 9.1 -0.95 7.8 0.2 6.0 0.2 M1.35 -40.6 L1.35 -40.6 2.9 -14.7 8.9 -15.1 Q10.9 -30.9 12.25 -40.15 L1.35 -40.6" fill-rule="evenodd" stroke="none"/>
    </g>
  </defs>
</svg>
