<?xml version="1.0" encoding="UTF-8" standalone="no"?>
<svg xmlns:xlink="http://www.w3.org/1999/xlink" height="34.25px" width="130.8px" xmlns="http://www.w3.org/2000/svg">
  <g transform="matrix(1.0, 0.0, 0.0, 1.0, -21.4, -5.1)">
    <g transform="matrix(1.0, 0.0, 0.0, 1.0, 0.0, 0.0)">
      <use fill="#0099cc" height="34.25" transform="matrix(0.918, 0.0, 0.0, 0.918, 21.0, 38.0)" width="130.8" xlink:href="#font_SignPainter-HouseInformal_S0"/>
      <use fill="#0099cc" height="34.25" transform="matrix(0.918, 0.0, 0.0, 0.918, 49.05, 38.0)" width="130.8" xlink:href="#font_SignPainter-HouseInformal_P0"/>
      <use fill="#0099cc" height="34.25" transform="matrix(0.918, 0.0, 0.0, 0.918, 79.4, 38.0)" width="130.8" xlink:href="#font_SignPainter-HouseInformal_L0"/>
      <use fill="#0099cc" height="34.25" transform="matrix(0.918, 0.0, 0.0, 0.918, 101.45, 38.0)" width="130.8" xlink:href="#font_SignPainter-HouseInformal_I0"/>
      <use fill="#0099cc" height="34.25" transform="matrix(0.918, 0.0, 0.0, 0.918, 113.25, 38.0)" width="130.8" xlink:href="#font_SignPainter-HouseInformal_T0"/>
      <use fill="#0099cc" height="34.25" transform="matrix(0.918, 0.0, 0.0, 0.918, 138.7, 38.0)" width="130.8" xlink:href="#font_SignPainter-HouseInformal__0"/>
    </g>
  </g>
  <defs>
    <g id="font_SignPainter-HouseInformal_S0">
      <path d="M26.55 -7.15 L26.55 -7.15 Q26.5 -6.3 23.2 -5.0 19.9 -3.7 14.95 -3.45 10.95 -3.45 8.05 -4.45 5.2 -5.45 3.45 -6.65 1.05 -8.4 0.95 -5.8 1.3 -2.25 3.9 -0.9 7.2 0.85 13.1 0.9 18.75 0.9 24.8 -2.2 29.4 -4.75 31.05 -6.7 32.7 -8.65 32.6 -9.95 32.5 -11.35 31.2 -11.95 L28.05 -12.55 22.55 -12.25 16.8 -11.8 Q12.45 -11.6 11.0 -12.65 9.6 -13.7 9.7 -15.65 9.85 -20.15 12.1 -23.5 14.35 -26.85 16.45 -27.0 18.4 -26.9 19.7 -25.15 L21.95 -21.6 Q23.2 -19.6 24.9 -19.05 L28.2 -18.8 Q31.2 -18.85 30.5 -21.7 29.5 -25.35 26.45 -28.4 23.45 -31.45 19.15 -31.65 17.1 -31.55 15.1 -30.5 13.15 -29.45 10.5 -28.15 7.0 -26.7 4.3 -23.75 1.55 -20.8 1.4 -15.4 1.35 -11.7 3.85 -9.3 6.35 -6.9 12.15 -6.8 L21.45 -7.55 Q26.1 -8.15 26.55 -7.15 L26.55 -7.15" fill-rule="evenodd" stroke="none"/>
    </g>
    <g id="font_SignPainter-HouseInformal_P0">
      <path d="M12.5 -11.6 L12.5 -11.6 12.55 -23.7 20.75 -21.2 Q24.25 -19.9 24.5 -18.75 24.25 -17.0 20.35 -15.0 16.5 -12.95 12.5 -11.6 L12.5 -11.6 M4.2 -25.65 L4.2 -25.65 4.75 -13.15 5.35 -0.85 Q5.6 2.45 9.0 0.75 10.95 -0.05 11.7 -1.15 12.5 -2.25 12.45 -4.55 L12.45 -7.65 Q16.5 -9.1 21.05 -11.25 25.65 -13.4 28.9 -15.9 32.15 -18.4 32.3 -20.95 32.0 -24.45 27.3 -26.95 22.6 -29.45 17.0 -30.9 L8.45 -32.7 Q6.2 -33.05 5.15 -32.75 4.1 -32.45 3.35 -31.8 1.8 -30.45 0.8 -28.6 0.35 -27.85 0.35 -27.2 0.4 -26.6 1.7 -26.25 L4.2 -25.65 4.2 -25.65" fill-rule="evenodd" stroke="none"/>
    </g>
    <g id="font_SignPainter-HouseInformal_L0">
      <path d="M19.0 0.7 L19.0 0.7 Q21.85 0.45 23.6 -1.3 24.95 -3.15 22.5 -3.25 L15.9 -2.7 11.65 -2.5 Q9.5 -2.25 9.65 -4.2 9.6 -9.45 10.05 -16.7 L10.7 -29.25 Q11.05 -33.2 6.5 -31.5 4.6 -30.85 3.45 -29.6 2.3 -28.3 2.1 -25.6 1.85 -20.55 1.95 -13.2 2.0 -5.8 2.45 -0.7 2.65 1.0 3.45 1.5 4.25 1.95 5.45 1.9 L12.5 1.45 19.0 0.7 19.0 0.7" fill-rule="evenodd" stroke="none"/>
    </g>
    <g id="font_SignPainter-HouseInformal_I0">
      <path d="M7.15 1.2 L7.15 1.2 Q9.0 0.4 9.8 -0.8 10.55 -2.0 10.5 -4.3 L10.6 -16.0 10.65 -28.7 Q10.85 -32.65 6.4 -30.85 4.4 -30.1 3.2 -28.8 2.05 -27.5 2.15 -24.75 L2.75 -12.85 3.45 -0.55 Q3.75 2.8 7.15 1.2 L7.15 1.2" fill-rule="evenodd" stroke="none"/>
    </g>
    <g id="font_SignPainter-HouseInformal_T0">
      <path d="M29.65 -28.9 L29.65 -28.9 Q30.95 -30.6 28.5 -30.7 L16.7 -30.7 4.75 -30.35 Q2.1 -30.3 0.9 -28.45 -0.55 -25.95 2.4 -26.15 L10.6 -26.5 10.8 -18.5 10.95 -9.0 11.15 -1.05 Q11.3 2.3 14.95 0.65 16.8 -0.05 17.65 -1.25 18.5 -2.4 18.55 -4.7 L18.8 -15.15 19.05 -26.9 25.3 -27.35 Q28.65 -27.45 29.65 -28.9 L29.65 -28.9" fill-rule="evenodd" stroke="none"/>
    </g>
    <g id="font_SignPainter-HouseInformal__0">
      <path d="M5.55 -4.2 L5.55 -4.2 Q1.8 -4.15 1.75 -1.75 1.75 -0.4 2.75 0.35 3.8 1.1 5.15 1.25 8.4 1.55 9.25 -1.0 9.65 -3.65 5.55 -4.2 L5.55 -4.2 M3.55 -8.9 L3.55 -8.9 Q3.15 -5.75 5.6 -6.0 9.45 -5.75 10.4 -9.35 12.8 -17.8 15.0 -27.75 16.15 -33.2 11.65 -35.0 8.0 -36.4 7.65 -32.5 6.75 -27.8 5.6 -20.9 L3.55 -8.9 3.55 -8.9" fill-rule="evenodd" stroke="none"/>
    </g>
  </defs>
</svg>
