<?xml version="1.0" encoding="UTF-8" standalone="no"?>
<svg xmlns:xlink="http://www.w3.org/1999/xlink" height="26.85px" width="58.75px" xmlns="http://www.w3.org/2000/svg">
  <g transform="matrix(1.0, 0.0, 0.0, 1.0, -57.95, -3.5)">
    <g transform="matrix(1.0, 0.0, 0.0, 1.0, 0.0, 0.0)">
      <use fill="#666666" height="26.85" transform="matrix(0.5469, 0.0, 0.0, 0.5469, 58.0, 22.0)" width="58.75" xlink:href="#font_Coop_Flaired_p0"/>
      <use fill="#666666" height="26.85" transform="matrix(0.5469, 0.0, 0.0, 0.5469, 70.05, 22.0)" width="58.75" xlink:href="#font_Coop_Flaired_o0"/>
      <use fill="#666666" height="26.85" transform="matrix(0.5469, 0.0, 0.0, 0.5469, 80.7, 22.0)" width="58.75" xlink:href="#font_Coop_Flaired_i0"/>
      <use fill="#666666" height="26.85" transform="matrix(0.5469, 0.0, 0.0, 0.5469, 85.85, 22.0)" width="58.75" xlink:href="#font_Coop_Flaired_n0"/>
      <use fill="#666666" height="26.85" transform="matrix(0.5469, 0.0, 0.0, 0.5469, 96.9, 22.0)" width="58.75" xlink:href="#font_Coop_Flaired_t0"/>
      <use fill="#666666" height="26.85" transform="matrix(0.5469, 0.0, 0.0, 0.5469, 106.3, 22.0)" width="58.75" xlink:href="#font_Coop_Flaired_s0"/>
    </g>
  </g>
  <defs>
    <g id="font_Coop_Flaired_p0">
      <path d="M15.4 -12.15 L15.4 -12.15 Q15.4 -10.15 14.3 -8.75 13.15 -7.35 11.25 -7.5 7.75 -8.35 7.6 -12.15 7.5 -13.8 8.25 -15.4 9.0 -17.0 10.9 -17.2 12.75 -17.2 14.05 -15.75 15.3 -14.3 15.4 -12.15 L15.4 -12.15 M21.8 -12.25 L21.8 -12.25 Q21.7 -16.75 18.85 -19.75 16.05 -22.7 11.7 -22.75 9.0 -22.7 7.2 -21.3 L8.05 -24.0 5.5 -23.5 Q3.1 -23.1 0.05 -23.6 1.1 -19.65 1.55 -13.0 2.0 -6.35 1.6 1.05 1.2 8.4 -0.4 14.6 3.1 12.65 6.1 12.4 L9.25 12.2 Q7.2 5.7 6.3 -3.55 8.75 -0.35 12.65 -0.4 17.15 -0.75 19.5 -4.15 21.85 -7.6 21.8 -12.25 L21.8 -12.25" fill-rule="evenodd" stroke="none"/>
    </g>
    <g id="font_Coop_Flaired_o0">
      <path d="M14.45 -10.25 L14.45 -10.25 Q14.55 -8.3 13.8 -6.65 13.05 -4.95 11.25 -4.65 9.45 -4.5 8.25 -6.1 7.05 -7.65 7.0 -10.0 7.0 -12.15 8.0 -13.8 9.0 -15.5 10.85 -15.45 12.7 -15.2 13.55 -13.65 14.4 -12.1 14.45 -10.25 L14.45 -10.25 M20.6 -11.2 L20.6 -11.2 Q20.65 -15.55 18.1 -19.4 15.5 -23.25 10.6 -23.15 5.7 -22.7 3.25 -19.2 0.75 -15.7 0.6 -11.05 0.6 -6.1 3.6 -2.85 6.65 0.4 11.25 0.4 16.1 0.0 18.35 -3.5 20.6 -7.05 20.6 -11.2 L20.6 -11.2" fill-rule="evenodd" stroke="none"/>
    </g>
    <g id="font_Coop_Flaired_i0">
      <path d="M9.5 -0.2 L9.5 -0.2 Q7.6 -4.9 7.6 -11.65 7.65 -18.35 8.8 -22.8 6.05 -22.0 3.55 -22.1 L0.95 -22.35 Q2.6 -17.55 2.4 -11.1 2.15 -4.6 0.25 0.2 L3.05 -0.35 Q5.8 -0.75 9.5 -0.2 L9.5 -0.2 M9.45 -30.3 L9.45 -30.3 Q9.0 -32.25 7.05 -33.1 L3.05 -33.3 Q1.1 -32.55 0.35 -31.0 -0.35 -29.5 -0.05 -28.0 0.25 -26.5 1.65 -25.4 3.0 -24.3 5.3 -24.7 7.55 -25.25 8.65 -26.85 9.75 -28.5 9.45 -30.3 L9.45 -30.3" fill-rule="evenodd" stroke="none"/>
    </g>
    <g id="font_Coop_Flaired_n0">
      <path d="M20.95 0.95 L20.95 0.95 Q19.25 -2.65 19.4 -7.45 19.55 -12.2 19.2 -16.35 18.8 -20.55 15.6 -22.4 13.55 -23.4 11.25 -23.05 8.9 -22.65 7.0 -20.75 7.6 -23.35 7.75 -23.5 5.4 -22.6 2.9 -22.55 L0.25 -22.6 Q2.0 -17.3 2.0 -10.9 2.0 -4.55 0.05 0.95 0.2 0.75 2.9 -0.05 L9.1 -0.35 Q6.5 -6.25 6.85 -11.55 7.25 -16.85 9.95 -17.4 11.9 -17.4 12.55 -14.25 13.25 -11.1 12.85 -6.55 12.5 -2.0 11.2 2.2 14.9 0.65 17.85 0.75 L20.95 0.95 20.95 0.95" fill-rule="evenodd" stroke="none"/>
    </g>
    <g id="font_Coop_Flaired_t0">
      <path d="M16.85 -13.3 L16.85 -13.3 Q13.8 -12.0 11.35 -12.45 L8.8 -13.05 Q9.5 -10.55 9.45 -8.15 9.45 -5.7 8.55 -5.35 7.55 -5.4 7.3 -9.5 7.1 -13.65 7.5 -19.35 L12.25 -18.65 14.2 -18.05 Q13.65 -21.55 14.0 -23.6 L14.5 -25.75 Q11.15 -24.65 7.95 -24.55 8.65 -31.05 9.95 -34.6 6.55 -33.2 3.55 -33.05 L0.35 -33.0 Q1.95 -29.05 2.3 -24.7 L-0.85 -25.1 -0.3 -22.95 Q0.15 -20.85 -0.35 -18.15 L2.35 -18.95 1.8 -7.7 Q1.7 -2.65 4.1 -0.05 6.9 2.5 10.05 1.95 13.2 1.45 14.9 -1.0 16.5 -3.55 16.85 -6.9 17.15 -10.2 16.85 -13.3 L16.85 -13.3" fill-rule="evenodd" stroke="none"/>
    </g>
    <g id="font_Coop_Flaired_s0">
      <path d="M18.8 -5.75 L18.8 -5.75 Q18.35 -9.1 15.75 -10.25 13.1 -11.45 10.55 -12.15 8.0 -12.9 7.85 -15.0 8.15 -17.1 9.8 -16.8 11.5 -16.55 11.65 -13.85 L14.05 -14.7 18.8 -15.55 Q17.95 -17.75 16.3 -20.35 14.6 -22.9 9.9 -23.35 6.05 -23.45 3.6 -21.35 1.15 -19.2 1.2 -15.9 1.6 -12.35 4.15 -11.0 6.7 -9.65 9.2 -8.95 11.65 -8.25 11.8 -6.6 11.55 -4.9 9.7 -5.0 7.9 -5.15 7.45 -8.3 L5.15 -7.45 Q2.95 -6.7 0.05 -6.9 2.4 0.95 10.3 1.2 13.55 1.15 16.2 -0.6 18.8 -2.4 18.8 -5.75 L18.8 -5.75" fill-rule="evenodd" stroke="none"/>
    </g>
  </defs>
</svg>
