<?xml version="1.0" encoding="UTF-8" standalone="no"?>
<svg xmlns:xlink="http://www.w3.org/1999/xlink" height="30.85px" width="147.75px" xmlns="http://www.w3.org/2000/svg">
  <g transform="matrix(1.0, 0.0, 0.0, 1.0, -13.05, -4.55)">
    <g transform="matrix(1.0, 0.0, 0.0, 1.0, 0.0, 0.0)">
      <use fill="#666666" height="30.85" transform="matrix(0.8203, 0.0, 0.0, 0.8203, 12.0, 34.0)" width="147.75" xlink:href="#font_SignPainter-HouseInformal_S0"/>
      <use fill="#666666" height="30.85" transform="matrix(0.8203, 0.0, 0.0, 0.8203, 36.6, 34.0)" width="147.75" xlink:href="#font_SignPainter-HouseInformal_T0"/>
      <use fill="#666666" height="30.85" transform="matrix(0.8203, 0.0, 0.0, 0.8203, 61.25, 34.0)" width="147.75" xlink:href="#font_SignPainter-HouseInformal_R0"/>
      <use fill="#666666" height="30.85" transform="matrix(0.8203, 0.0, 0.0, 0.8203, 90.3, 34.0)" width="147.75" xlink:href="#font_SignPainter-HouseInformal_I0"/>
      <use fill="#666666" height="30.85" transform="matrix(0.8203, 0.0, 0.0, 0.8203, 100.85, 34.0)" width="147.75" xlink:href="#font_SignPainter-HouseInformal_K0"/>
      <use fill="#666666" height="30.85" transform="matrix(0.8203, 0.0, 0.0, 0.8203, 126.8, 34.0)" width="147.75" xlink:href="#font_SignPainter-HouseInformal_E0"/>
      <use fill="#666666" height="30.85" transform="matrix(0.8203, 0.0, 0.0, 0.8203, 148.0, 34.0)" width="147.75" xlink:href="#font_SignPainter-HouseInformal__0"/>
    </g>
  </g>
  <defs>
    <g id="font_SignPainter-HouseInformal_S0">
      <path d="M26.55 -7.15 L26.55 -7.15 Q26.5 -6.3 23.2 -5.0 19.9 -3.7 14.95 -3.45 10.95 -3.45 8.05 -4.45 5.2 -5.45 3.45 -6.65 1.05 -8.4 0.95 -5.8 1.3 -2.25 3.9 -0.9 7.2 0.85 13.1 0.9 18.75 0.9 24.8 -2.2 29.4 -4.75 31.05 -6.7 32.7 -8.65 32.6 -9.95 32.5 -11.35 31.2 -11.95 L28.05 -12.55 22.55 -12.25 16.8 -11.8 Q12.45 -11.6 11.0 -12.65 9.6 -13.7 9.7 -15.65 9.85 -20.15 12.1 -23.5 14.35 -26.85 16.45 -27.0 18.4 -26.9 19.7 -25.15 L21.95 -21.6 Q23.2 -19.6 24.9 -19.05 L28.2 -18.8 Q31.2 -18.85 30.5 -21.7 29.5 -25.35 26.45 -28.4 23.45 -31.45 19.15 -31.65 17.1 -31.55 15.1 -30.5 13.15 -29.45 10.5 -28.15 7.0 -26.7 4.3 -23.75 1.55 -20.8 1.4 -15.4 1.35 -11.7 3.85 -9.3 6.35 -6.9 12.15 -6.8 L21.45 -7.55 Q26.1 -8.15 26.55 -7.15 L26.55 -7.15" fill-rule="evenodd" stroke="none"/>
    </g>
    <g id="font_SignPainter-HouseInformal_T0">
      <path d="M29.65 -28.9 L29.65 -28.9 Q30.95 -30.6 28.5 -30.7 L16.7 -30.7 4.75 -30.35 Q2.1 -30.3 0.9 -28.45 -0.55 -25.95 2.4 -26.15 L10.6 -26.5 10.8 -18.5 10.95 -9.0 11.15 -1.05 Q11.3 2.3 14.95 0.65 16.8 -0.05 17.65 -1.25 18.5 -2.4 18.55 -4.7 L18.8 -15.15 19.05 -26.9 25.3 -27.35 Q28.65 -27.45 29.65 -28.9 L29.65 -28.9" fill-rule="evenodd" stroke="none"/>
    </g>
    <g id="font_SignPainter-HouseInformal_R0">
      <path d="M12.25 -12.1 L12.25 -12.1 12.4 -22.9 21.65 -20.95 Q25.8 -19.9 26.2 -18.8 26.0 -17.3 21.3 -15.35 16.65 -13.35 12.25 -12.1 L12.25 -12.1 M4.05 -24.35 L4.05 -24.35 4.65 -12.25 5.2 -0.8 Q5.25 0.95 6.25 1.15 7.2 1.35 8.85 0.75 10.65 0.15 11.45 -0.95 12.2 -2.05 12.2 -4.35 L12.2 -7.8 23.95 -4.95 Q28.6 -3.55 31.8 -4.45 35.1 -5.85 31.6 -7.1 L17.3 -10.1 Q23.7 -12.25 28.9 -15.3 34.15 -18.4 34.4 -21.3 34.1 -24.3 29.25 -26.35 24.45 -28.45 18.55 -29.6 L9.05 -31.05 5.6 -31.1 3.6 -30.45 Q1.85 -29.25 0.95 -27.75 0.35 -27.05 0.35 -26.1 0.35 -25.15 2.95 -24.55 L4.05 -24.35 4.05 -24.35" fill-rule="evenodd" stroke="none"/>
    </g>
    <g id="font_SignPainter-HouseInformal_I0">
      <path d="M7.15 1.2 L7.15 1.2 Q9.0 0.4 9.8 -0.8 10.55 -2.0 10.5 -4.3 L10.6 -16.0 10.65 -28.7 Q10.85 -32.65 6.4 -30.85 4.4 -30.1 3.2 -28.8 2.05 -27.5 2.15 -24.75 L2.75 -12.85 3.45 -0.55 Q3.75 2.8 7.15 1.2 L7.15 1.2" fill-rule="evenodd" stroke="none"/>
    </g>
    <g id="font_SignPainter-HouseInformal_K0">
      <path d="M10.1 -15.7 L10.1 -15.7 10.45 -29.25 Q10.7 -33.15 6.15 -31.4 4.25 -30.8 3.05 -29.5 1.85 -28.2 1.85 -25.5 L2.05 -17.7 2.35 -8.25 2.65 -0.1 Q2.8 3.25 6.25 1.7 8.2 1.0 9.0 -0.2 9.8 -1.4 9.8 -3.65 L9.85 -5.95 20.7 -4.4 Q23.15 -3.95 25.85 -4.3 28.6 -4.7 30.15 -6.6 32.55 -9.5 29.1 -10.2 L21.7 -11.55 12.65 -13.3 25.45 -23.9 Q30.05 -27.2 31.0 -30.6 31.3 -32.45 30.7 -33.05 30.1 -33.65 28.5 -32.35 L19.75 -24.55 10.1 -15.7 10.1 -15.7" fill-rule="evenodd" stroke="none"/>
    </g>
    <g id="font_SignPainter-HouseInformal_E0">
      <path d="M10.1 -13.0 L10.1 -13.0 10.35 -19.7 10.75 -25.95 16.75 -26.5 21.25 -26.9 Q25.35 -27.55 25.3 -29.55 24.95 -30.75 23.05 -30.55 L14.8 -30.3 5.4 -30.2 Q3.25 -30.25 2.55 -29.5 1.85 -28.8 1.9 -27.15 L2.0 -18.95 2.25 -9.85 Q2.45 -5.5 2.75 -3.2 3.2 -0.2 5.1 0.65 7.05 1.5 9.75 1.3 L16.5 0.6 22.45 -0.65 Q24.45 -1.15 25.2 -2.85 25.65 -4.3 23.8 -4.1 L17.25 -3.1 12.6 -2.7 Q10.25 -2.35 10.1 -5.0 10.0 -6.45 10.05 -9.25 L14.1 -9.8 18.0 -10.25 Q21.55 -10.4 23.05 -12.55 23.9 -14.4 21.55 -14.1 L16.45 -13.55 10.1 -13.0 10.1 -13.0" fill-rule="evenodd" stroke="none"/>
    </g>
    <g id="font_SignPainter-HouseInformal__0">
      <path d="M5.55 -4.2 L5.55 -4.2 Q1.8 -4.15 1.75 -1.75 1.75 -0.4 2.75 0.35 3.8 1.1 5.15 1.25 8.4 1.55 9.25 -1.0 9.65 -3.65 5.55 -4.2 L5.55 -4.2 M3.55 -8.9 L3.55 -8.9 Q3.15 -5.75 5.6 -6.0 9.45 -5.75 10.4 -9.35 12.8 -17.8 15.0 -27.75 16.15 -33.2 11.65 -35.0 8.0 -36.4 7.65 -32.5 6.75 -27.8 5.6 -20.9 L3.55 -8.9 3.55 -8.9" fill-rule="evenodd" stroke="none"/>
    </g>
  </defs>
</svg>
