<?xml version="1.0" encoding="UTF-8" standalone="no"?>
<svg xmlns:xlink="http://www.w3.org/1999/xlink" height="8.5px" width="18.8px" xmlns="http://www.w3.org/2000/svg">
  <g transform="matrix(1.0, 0.0, 0.0, 1.0, -0.15, -2.0)">
    <g transform="matrix(1.0, 0.0, 0.0, 1.0, 0.0, 0.0)">
      <use fill="#0a4382" height="8.5" transform="matrix(0.2344, 0.0, 0.0, 0.2344, 0.0, 10.0)" width="18.8" xlink:href="#font_Coop_Flaired_50"/>
      <use fill="#0a4382" height="8.5" transform="matrix(0.2344, 0.0, 0.0, 0.2344, 5.7, 10.0)" width="18.8" xlink:href="#font_Coop_Flaired_00"/>
      <use fill="#0a4382" height="8.5" transform="matrix(0.2344, 0.0, 0.0, 0.2344, 12.4, 10.0)" width="18.8" xlink:href="#font_Coop_Flaired_00"/>
    </g>
  </g>
  <defs>
    <g id="font_Coop_Flaired_50">
      <path d="M24.6 -11.45 L24.6 -11.45 Q23.85 -17.95 18.9 -19.5 13.9 -21.1 8.95 -18.6 8.7 -20.7 8.95 -22.35 L9.25 -24.15 16.0 -24.55 Q19.35 -24.35 21.65 -23.5 20.4 -28.35 22.3 -34.2 17.55 -32.7 11.8 -32.45 L0.65 -32.95 Q1.75 -28.45 2.25 -22.2 2.75 -15.95 1.9 -10.8 5.65 -13.5 10.25 -14.35 14.9 -15.15 16.3 -11.55 17.05 -8.6 15.75 -7.2 14.5 -5.8 12.85 -6.3 11.2 -6.8 10.7 -9.65 7.95 -8.5 5.8 -8.45 L1.15 -8.6 Q1.6 -4.5 4.15 -1.25 6.75 2.0 12.15 2.2 17.7 2.15 21.25 -1.4 24.85 -4.9 24.6 -11.45 L24.6 -11.45" fill-rule="evenodd" stroke="none"/>
    </g>
    <g id="font_Coop_Flaired_00">
      <path d="M19.7 -10.65 L19.7 -10.65 Q19.05 -7.6 17.35 -5.95 15.7 -4.3 13.6 -4.6 11.6 -5.0 10.1 -7.4 8.6 -9.75 8.4 -13.75 8.35 -18.5 10.35 -21.15 12.35 -23.8 15.3 -23.6 18.15 -23.25 19.45 -19.75 20.75 -16.25 19.7 -10.65 L19.7 -10.65 M27.75 -14.1 L27.75 -14.1 Q28.75 -22.7 25.0 -28.25 21.2 -33.8 13.75 -33.6 8.05 -33.25 4.35 -28.9 0.65 -24.55 0.6 -16.7 0.9 -8.35 4.65 -3.8 8.4 0.75 13.45 1.0 19.5 1.1 23.15 -2.95 26.8 -7.05 27.75 -14.1 L27.75 -14.1" fill-rule="evenodd" stroke="none"/>
    </g>
  </defs>
</svg>
