<?xml version="1.0" encoding="UTF-8" standalone="no"?>
<svg xmlns:xlink="http://www.w3.org/1999/xlink" height="28.9px" width="159.25px" xmlns="http://www.w3.org/2000/svg">
  <g transform="matrix(1.0, 0.0, 0.0, 1.0, -7.3, -4.35)">
    <g transform="matrix(1.0, 0.0, 0.0, 1.0, 0.0, 0.0)">
      <use fill="#cc3300" height="28.9" transform="matrix(0.7813, 0.0, 0.0, 0.7813, 7.0, 32.0)" width="159.25" xlink:href="#font_SignPainter-HouseInformal_G0"/>
      <use fill="#cc3300" height="28.9" transform="matrix(0.7813, 0.0, 0.0, 0.7813, 36.1, 32.0)" width="159.25" xlink:href="#font_SignPainter-HouseInformal_U0"/>
      <use fill="#cc3300" height="28.9" transform="matrix(0.7813, 0.0, 0.0, 0.7813, 61.65, 32.0)" width="159.25" xlink:href="#font_SignPainter-HouseInformal_T0"/>
      <use fill="#cc3300" height="28.9" transform="matrix(0.7813, 0.0, 0.0, 0.7813, 84.8, 32.0)" width="159.25" xlink:href="#font_SignPainter-HouseInformal_T0"/>
      <use fill="#cc3300" height="28.9" transform="matrix(0.7813, 0.0, 0.0, 0.7813, 107.2, 32.0)" width="159.25" xlink:href="#font_SignPainter-HouseInformal_E0"/>
      <use fill="#cc3300" height="28.9" transform="matrix(0.7813, 0.0, 0.0, 0.7813, 127.4, 32.0)" width="159.25" xlink:href="#font_SignPainter-HouseInformal_R0"/>
      <use fill="#cc3300" height="28.9" transform="matrix(0.7813, 0.0, 0.0, 0.7813, 155.05, 32.0)" width="159.25" xlink:href="#font_SignPainter-HouseInformal__0"/>
    </g>
  </g>
  <defs>
    <g id="font_SignPainter-HouseInformal_G0">
      <path d="M35.15 -17.2 L35.15 -17.2 33.6 -18.65 31.65 -18.9 Q28.25 -18.65 24.3 -17.6 20.35 -16.5 17.85 -15.35 15.45 -14.45 14.35 -12.6 13.5 -11.0 13.2 -9.0 13.0 -6.8 15.05 -7.7 L21.8 -10.05 Q25.75 -11.3 29.15 -11.85 28.3 -8.4 25.35 -5.85 22.4 -3.35 18.35 -3.05 14.2 -2.95 12.0 -5.45 9.75 -7.95 9.55 -12.2 9.5 -19.8 12.75 -23.3 16.05 -26.8 19.0 -26.75 21.75 -26.8 23.95 -23.45 26.95 -20.05 30.3 -20.55 34.0 -20.85 32.75 -23.55 31.65 -26.45 28.5 -28.85 25.35 -31.25 21.05 -31.25 18.3 -31.1 16.1 -30.0 L11.4 -27.55 Q7.35 -25.7 4.0 -22.35 0.65 -18.95 0.95 -11.7 1.35 -6.1 5.2 -2.5 9.05 1.05 15.9 0.9 22.25 0.5 28.15 -3.6 34.1 -7.65 36.15 -13.8 36.65 -15.35 35.15 -17.2 L35.15 -17.2" fill-rule="evenodd" stroke="none"/>
    </g>
    <g id="font_SignPainter-HouseInformal_U0">
      <path d="M22.85 -8.65 L22.85 -8.65 23.1 -0.7 Q23.25 2.65 26.75 1.15 28.65 0.4 29.45 -0.8 30.25 -2.0 30.25 -4.3 L30.55 -16.0 30.8 -28.7 Q31.05 -32.8 26.75 -30.95 22.6 -29.75 22.5 -24.6 L22.65 -18.05 Q20.9 -9.15 17.1 -5.7 13.3 -2.2 10.9 -3.65 9.35 -4.85 9.1 -9.0 8.8 -13.1 9.25 -18.4 L10.35 -28.5 Q10.8 -31.25 8.65 -30.95 6.9 -30.7 5.05 -29.55 3.25 -28.4 2.5 -25.65 L1.6 -19.7 Q1.1 -15.75 1.2 -11.35 1.3 -6.95 2.6 -3.5 4.2 0.75 10.25 0.95 12.5 1.05 15.95 -0.9 19.45 -2.9 22.85 -8.65 L22.85 -8.65" fill-rule="evenodd" stroke="none"/>
    </g>
    <g id="font_SignPainter-HouseInformal_T0">
      <path d="M29.65 -28.9 L29.65 -28.9 Q30.95 -30.6 28.5 -30.7 L16.7 -30.7 4.75 -30.35 Q2.1 -30.3 0.9 -28.45 -0.55 -25.95 2.4 -26.15 L10.6 -26.5 10.8 -18.5 10.95 -9.0 11.15 -1.05 Q11.3 2.3 14.95 0.65 16.8 -0.05 17.65 -1.25 18.5 -2.4 18.55 -4.7 L18.8 -15.15 19.05 -26.9 25.3 -27.35 Q28.65 -27.45 29.65 -28.9 L29.65 -28.9" fill-rule="evenodd" stroke="none"/>
    </g>
    <g id="font_SignPainter-HouseInformal_E0">
      <path d="M10.1 -13.0 L10.1 -13.0 10.35 -19.7 10.75 -25.95 16.75 -26.5 21.25 -26.9 Q25.35 -27.55 25.3 -29.55 24.95 -30.75 23.05 -30.55 L14.8 -30.3 5.4 -30.2 Q3.25 -30.25 2.55 -29.5 1.85 -28.8 1.9 -27.15 L2.0 -18.95 2.25 -9.85 Q2.45 -5.5 2.75 -3.2 3.2 -0.2 5.1 0.65 7.05 1.5 9.75 1.3 L16.5 0.6 22.45 -0.65 Q24.45 -1.15 25.2 -2.85 25.65 -4.3 23.8 -4.1 L17.25 -3.1 12.6 -2.7 Q10.25 -2.35 10.1 -5.0 10.0 -6.45 10.05 -9.25 L14.1 -9.8 18.0 -10.25 Q21.55 -10.4 23.05 -12.55 23.9 -14.4 21.55 -14.1 L16.45 -13.55 10.1 -13.0 10.1 -13.0" fill-rule="evenodd" stroke="none"/>
    </g>
    <g id="font_SignPainter-HouseInformal_R0">
      <path d="M12.25 -12.1 L12.25 -12.1 12.4 -22.9 21.65 -20.95 Q25.8 -19.9 26.2 -18.8 26.0 -17.3 21.3 -15.35 16.65 -13.35 12.25 -12.1 L12.25 -12.1 M4.05 -24.35 L4.05 -24.35 4.65 -12.25 5.2 -0.8 Q5.25 0.95 6.25 1.15 7.2 1.35 8.85 0.75 10.65 0.15 11.45 -0.95 12.2 -2.05 12.2 -4.35 L12.2 -7.8 23.95 -4.95 Q28.6 -3.55 31.8 -4.45 35.1 -5.85 31.6 -7.1 L17.3 -10.1 Q23.7 -12.25 28.9 -15.3 34.15 -18.4 34.4 -21.3 34.1 -24.3 29.25 -26.35 24.45 -28.45 18.55 -29.6 L9.05 -31.05 5.6 -31.1 3.6 -30.45 Q1.85 -29.25 0.95 -27.75 0.35 -27.05 0.35 -26.1 0.35 -25.15 2.95 -24.55 L4.05 -24.35 4.05 -24.35" fill-rule="evenodd" stroke="none"/>
    </g>
    <g id="font_SignPainter-HouseInformal__0">
      <path d="M5.55 -4.2 L5.55 -4.2 Q1.8 -4.15 1.75 -1.75 1.75 -0.4 2.75 0.35 3.8 1.1 5.15 1.25 8.4 1.55 9.25 -1.0 9.65 -3.65 5.55 -4.2 L5.55 -4.2 M3.55 -8.9 L3.55 -8.9 Q3.15 -5.75 5.6 -6.0 9.45 -5.75 10.4 -9.35 12.8 -17.8 15.0 -27.75 16.15 -33.2 11.65 -35.0 8.0 -36.4 7.65 -32.5 6.75 -27.8 5.6 -20.9 L3.55 -8.9 3.55 -8.9" fill-rule="evenodd" stroke="none"/>
    </g>
  </defs>
</svg>
