<?xml version="1.0" encoding="UTF-8" standalone="no"?>
<svg xmlns:xlink="http://www.w3.org/1999/xlink" height="25.85px" width="107.2px" xmlns="http://www.w3.org/2000/svg">
  <g transform="matrix(1.0, 0.0, 0.0, 1.0, -33.15, -7.55)">
    <g transform="matrix(1.0, 0.0, 0.0, 1.0, 0.0, 0.0)">
      <use fill="#cc3300" height="25.85" transform="matrix(0.6836, 0.0, 0.0, 0.6836, 31.0, 33.0)" width="107.2" xlink:href="#font_Arial_Rounded_MT_Bold_S0"/>
      <use fill="#cc3300" height="25.85" transform="matrix(0.6836, 0.0, 0.0, 0.6836, 54.35, 33.0)" width="107.2" xlink:href="#font_Arial_Rounded_MT_Bold_P0"/>
      <use fill="#cc3300" height="25.85" transform="matrix(0.6836, 0.0, 0.0, 0.6836, 77.7, 33.0)" width="107.2" xlink:href="#font_Arial_Rounded_MT_Bold_L0"/>
      <use fill="#cc3300" height="25.85" transform="matrix(0.6836, 0.0, 0.0, 0.6836, 98.85, 33.0)" width="107.2" xlink:href="#font_Arial_Rounded_MT_Bold_I0"/>
      <use fill="#cc3300" height="25.85" transform="matrix(0.6836, 0.0, 0.0, 0.6836, 109.8, 33.0)" width="107.2" xlink:href="#font_Arial_Rounded_MT_Bold_T0"/>
      <use fill="#cc3300" height="25.85" transform="matrix(0.6836, 0.0, 0.0, 0.6836, 131.7, 33.0)" width="107.2" xlink:href="#font_Arial_Rounded_MT_Bold__0"/>
    </g>
  </g>
  <defs>
    <g id="font_Arial_Rounded_MT_Bold_S0">
      <path d="M31.8 -10.95 L31.8 -10.95 Q31.8 -13.75 30.85 -15.65 29.85 -17.55 28.1 -18.8 26.35 -20.05 23.85 -20.95 21.35 -21.85 18.25 -22.55 L14.65 -23.5 12.5 -24.4 Q11.45 -25.0 10.8 -25.8 10.2 -26.6 10.2 -27.7 10.2 -29.45 12.0 -30.7 13.8 -32.0 16.7 -32.0 19.85 -32.0 21.25 -30.8 22.65 -29.65 23.7 -27.6 24.45 -26.15 25.1 -25.5 25.75 -24.85 27.0 -24.85 28.4 -24.85 29.3 -25.9 30.25 -26.95 30.25 -28.3 30.25 -29.75 29.5 -31.25 28.75 -32.75 27.1 -34.15 25.5 -35.5 23.05 -36.35 20.55 -37.2 17.2 -37.2 12.95 -37.2 9.85 -35.95 6.7 -34.65 5.05 -32.35 3.4 -30.0 3.4 -26.95 3.4 -23.8 4.95 -21.65 6.55 -19.55 9.2 -18.3 11.85 -17.05 15.8 -16.15 L20.6 -14.85 Q22.35 -14.25 23.5 -13.15 24.6 -12.0 24.6 -10.15 24.6 -7.85 22.55 -6.35 20.45 -4.8 17.1 -4.8 14.7 -4.8 13.2 -5.55 11.7 -6.3 10.9 -7.5 10.05 -8.65 9.35 -10.4 8.8 -11.9 7.95 -12.65 7.15 -13.4 6.0 -13.4 4.55 -13.4 3.65 -12.45 2.7 -11.45 2.7 -10.1 2.7 -7.8 4.25 -5.35 5.8 -2.9 8.3 -1.4 11.8 0.6 17.25 0.6 21.8 0.6 25.1 -0.9 28.4 -2.35 30.1 -5.0 31.8 -7.65 31.8 -10.95" fill-rule="evenodd" stroke="none"/>
    </g>
    <g id="font_Arial_Rounded_MT_Bold_P0">
      <path d="M16.4 -31.0 L16.4 -31.0 Q21.4 -31.0 23.0 -29.35 24.4 -27.85 24.4 -25.4 24.4 -23.4 23.5 -22.15 22.55 -20.9 20.8 -20.35 L16.4 -19.8 11.4 -19.8 11.4 -31.0 16.4 -31.0 M18.2 -14.2 L18.2 -14.2 Q25.0 -14.2 28.4 -17.1 31.8 -19.95 31.8 -25.55 31.8 -28.2 31.0 -30.3 30.15 -32.4 28.55 -33.85 26.9 -35.3 24.7 -35.95 L18.2 -36.6 8.7 -36.6 Q6.25 -36.6 5.15 -35.55 4.0 -34.5 4.0 -32.05 L4.0 -3.85 Q4.0 -1.65 5.05 -0.5 6.05 0.6 7.75 0.6 9.3 0.6 10.35 -0.55 11.4 -1.65 11.4 -3.9 L11.4 -14.2 18.2 -14.2" fill-rule="evenodd" stroke="none"/>
    </g>
    <g id="font_Arial_Rounded_MT_Bold_L0">
      <path d="M11.2 -32.7 L11.2 -32.7 Q11.2 -34.95 10.2 -36.05 9.15 -37.2 7.5 -37.2 5.85 -37.2 4.8 -36.05 3.8 -34.95 3.8 -32.7 L3.8 -4.55 Q3.8 -2.15 4.85 -1.05 5.95 0.0 8.35 0.0 L26.25 0.0 Q28.1 0.0 29.05 -0.8 30.0 -1.65 30.0 -2.95 30.0 -4.25 29.05 -5.15 28.05 -6.0 26.25 -6.0 L11.2 -6.0 11.2 -32.7" fill-rule="evenodd" stroke="none"/>
    </g>
    <g id="font_Arial_Rounded_MT_Bold_I0">
      <path d="M4.4 -3.9 L4.4 -3.9 Q4.4 -1.65 5.45 -0.5 6.5 0.6 8.1 0.6 9.75 0.6 10.8 -0.5 11.8 -1.65 11.8 -3.9 L11.8 -32.7 Q11.8 -34.95 10.8 -36.1 9.75 -37.2 8.1 -37.2 6.45 -37.2 5.45 -36.05 4.4 -34.95 4.4 -32.7 L4.4 -3.9" fill-rule="evenodd" stroke="none"/>
    </g>
    <g id="font_Arial_Rounded_MT_Bold_T0">
      <path d="M27.9 -30.6 L27.9 -30.6 Q29.8 -30.6 30.75 -31.4 31.7 -32.25 31.7 -33.55 31.7 -34.9 30.8 -35.75 29.85 -36.6 27.9 -36.6 L4.3 -36.6 Q2.5 -36.6 1.55 -35.8 0.55 -34.95 0.55 -33.55 0.55 -32.25 1.5 -31.4 2.4 -30.6 4.3 -30.6 L12.4 -30.6 12.4 -3.9 Q12.4 -1.65 13.45 -0.5 14.5 0.6 16.15 0.6 17.75 0.6 18.8 -0.5 19.8 -1.6 19.8 -3.9 L19.8 -30.6 27.9 -30.6" fill-rule="evenodd" stroke="none"/>
    </g>
    <g id="font_Arial_Rounded_MT_Bold__0">
      <path d="M8.55 0.6 L8.55 0.6 Q10.0 0.6 11.1 -0.4 12.2 -1.35 12.2 -3.1 12.2 -4.65 11.1 -5.7 10.05 -6.8 8.5 -6.8 6.95 -6.8 5.9 -5.7 4.8 -4.65 4.8 -3.1 4.8 -1.35 5.95 -0.35 7.05 0.6 8.55 0.6 M5.8 -15.75 L5.8 -15.75 Q6.05 -13.45 6.55 -12.3 7.05 -11.15 8.4 -11.15 9.7 -11.15 10.25 -12.35 10.8 -13.5 11.0 -15.7 L12.05 -28.05 12.2 -31.4 Q12.2 -34.2 11.5 -35.7 10.8 -37.2 8.7 -37.2 6.95 -37.2 5.9 -36.0 4.8 -34.85 4.8 -32.8 L5.05 -27.75 5.8 -15.75" fill-rule="evenodd" stroke="none"/>
    </g>
  </defs>
</svg>
