<?xml version="1.0" encoding="UTF-8" standalone="no"?>
<svg xmlns:xlink="http://www.w3.org/1999/xlink" height="8.55px" width="22.85px" xmlns="http://www.w3.org/2000/svg">
  <g transform="matrix(1.0, 0.0, 0.0, 1.0, 0.0, -2.05)">
    <g transform="matrix(1.0, 0.0, 0.0, 1.0, 0.0, 0.0)">
      <use fill="#ffcc00" height="8.55" transform="matrix(0.2344, 0.0, 0.0, 0.2344, 0.0, 10.0)" width="22.85" xlink:href="#font_Coop_Flaired_10"/>
      <use fill="#ffcc00" height="8.55" transform="matrix(0.2344, 0.0, 0.0, 0.2344, 2.9, 10.0)" width="22.85" xlink:href="#font_Coop_Flaired_00"/>
      <use fill="#ffcc00" height="8.55" transform="matrix(0.2344, 0.0, 0.0, 0.2344, 9.6, 10.0)" width="22.85" xlink:href="#font_Coop_Flaired_00"/>
      <use fill="#ffcc00" height="8.55" transform="matrix(0.2344, 0.0, 0.0, 0.2344, 16.3, 10.0)" width="22.85" xlink:href="#font_Coop_Flaired_00"/>
    </g>
  </g>
  <defs>
    <g id="font_Coop_Flaired_10">
      <path d="M13.45 1.25 L13.45 1.25 Q11.55 -5.15 11.25 -14.7 10.95 -24.25 12.25 -32.2 L10.25 -32.5 Q8.35 -32.85 6.65 -34.0 5.8 -31.15 4.05 -28.35 2.35 -25.6 0.1 -23.65 L1.85 -23.6 5.2 -23.15 Q5.5 -16.55 4.8 -9.3 4.1 -2.05 2.55 2.6 5.25 1.55 8.1 1.25 11.0 0.9 13.45 1.25 L13.45 1.25" fill-rule="evenodd" stroke="none"/>
    </g>
    <g id="font_Coop_Flaired_00">
      <path d="M19.7 -10.65 L19.7 -10.65 Q19.05 -7.6 17.35 -5.95 15.7 -4.3 13.6 -4.6 11.6 -5.0 10.1 -7.4 8.6 -9.75 8.4 -13.75 8.35 -18.5 10.35 -21.15 12.35 -23.8 15.3 -23.6 18.15 -23.25 19.45 -19.75 20.75 -16.25 19.7 -10.65 L19.7 -10.65 M27.75 -14.1 L27.75 -14.1 Q28.75 -22.7 25.0 -28.25 21.2 -33.8 13.75 -33.6 8.05 -33.25 4.35 -28.9 0.65 -24.55 0.6 -16.7 0.9 -8.35 4.65 -3.8 8.4 0.75 13.45 1.0 19.5 1.1 23.15 -2.95 26.8 -7.05 27.75 -14.1 L27.75 -14.1" fill-rule="evenodd" stroke="none"/>
    </g>
  </defs>
</svg>
