<?xml version="1.0" encoding="UTF-8" standalone="no"?>
<svg xmlns:xlink="http://www.w3.org/1999/xlink" height="5.8px" width="45.45px" xmlns="http://www.w3.org/2000/svg">
  <g transform="matrix(1.0, 0.0, 0.0, 1.0, -6.4, -0.9)">
    <g transform="matrix(1.0, 0.0, 0.0, 1.0, 0.0, 0.0)">
      <use fill="#0a4382" height="5.8" transform="matrix(0.1563, 0.0, 0.0, 0.1563, 6.0, 6.0)" width="45.45" xlink:href="#font_SignPainter-HouseInformal_Y0"/>
      <use fill="#0a4382" height="5.8" transform="matrix(0.1563, 0.0, 0.0, 0.1563, 11.15, 6.0)" width="45.45" xlink:href="#font_SignPainter-HouseInformal_o0"/>
      <use fill="#0a4382" height="5.8" transform="matrix(0.1563, 0.0, 0.0, 0.1563, 17.0, 6.0)" width="45.45" xlink:href="#font_SignPainter-HouseInformal_u0"/>
      <use fill="#0a4382" height="5.8" transform="matrix(0.1563, 0.0, 0.0, 0.1563, 25.55, 6.0)" width="45.45" xlink:href="#font_SignPainter-HouseInformal_d0"/>
      <use fill="#0a4382" height="5.8" transform="matrix(0.1563, 0.0, 0.0, 0.1563, 31.25, 6.0)" width="45.45" xlink:href="#font_SignPainter-HouseInformal_i0"/>
      <use fill="#0a4382" height="5.8" transform="matrix(0.1563, 0.0, 0.0, 0.1563, 33.25, 6.0)" width="45.45" xlink:href="#font_SignPainter-HouseInformal_d0"/>
      <use fill="#0a4382" height="5.8" transform="matrix(0.1563, 0.0, 0.0, 0.1563, 42.4, 6.0)" width="45.45" xlink:href="#font_SignPainter-HouseInformal_i0"/>
      <use fill="#0a4382" height="5.8" transform="matrix(0.1563, 0.0, 0.0, 0.1563, 44.4, 6.0)" width="45.45" xlink:href="#font_SignPainter-HouseInformal_t0"/>
      <use fill="#0a4382" height="5.8" transform="matrix(0.1563, 0.0, 0.0, 0.1563, 49.15, 6.0)" width="45.45" xlink:href="#font_SignPainter-HouseInformal__1"/>
    </g>
  </g>
  <defs>
    <g id="font_SignPainter-HouseInformal_Y0">
      <path d="M20.2 -12.7 L20.2 -12.7 Q24.4 -18.55 28.9 -24.3 32.65 -28.7 32.7 -32.05 32.35 -36.05 29.7 -33.1 L23.95 -24.75 17.55 -15.1 Q11.4 -23.2 6.1 -30.65 4.0 -33.65 2.2 -30.9 -1.05 -26.55 2.2 -21.85 L6.65 -16.0 12.5 -8.9 12.85 -0.3 Q13.05 3.05 16.5 1.45 18.45 0.75 19.2 -0.4 20.0 -1.55 20.0 -3.9 19.95 -7.5 20.2 -12.7 L20.2 -12.7" fill-rule="evenodd" stroke="none"/>
    </g>
    <g id="font_SignPainter-HouseInformal_o0">
      <path d="M19.9 -27.15 L19.9 -27.15 Q23.6 -27.05 25.85 -23.8 28.15 -20.55 28.2 -15.95 28.25 -11.3 25.8 -7.6 23.4 -3.95 18.1 -3.35 14.8 -3.1 12.5 -5.4 10.2 -7.75 10.05 -13.25 10.1 -19.45 13.0 -23.25 15.95 -27.05 19.9 -27.15 L19.9 -27.15 M10.05 -27.4 L10.05 -27.4 Q4.9 -25.4 2.8 -21.25 0.7 -17.05 0.95 -12.9 1.4 -5.85 5.4 -2.75 9.4 0.3 14.9 0.3 18.7 0.45 24.15 -1.75 29.65 -4.0 33.8 -9.45 36.6 -13.4 36.45 -17.85 36.25 -22.3 32.25 -26.65 29.7 -29.2 26.5 -30.1 L20.4 -30.9 Q17.4 -30.85 15.2 -29.7 13.05 -28.55 10.05 -27.4 L10.05 -27.4" fill-rule="evenodd" stroke="none"/>
    </g>
    <g id="font_SignPainter-HouseInformal_u0">
      <path d="M22.85 -8.65 L22.85 -8.65 23.1 -0.7 Q23.25 2.65 26.75 1.15 28.65 0.4 29.45 -0.8 30.25 -2.0 30.25 -4.3 L30.55 -16.0 30.8 -28.7 Q31.05 -32.8 26.75 -30.95 22.6 -29.75 22.5 -24.6 L22.65 -18.05 Q20.9 -9.15 17.1 -5.7 13.3 -2.2 10.9 -3.65 9.35 -4.85 9.1 -9.0 8.8 -13.1 9.25 -18.4 L10.35 -28.5 Q10.8 -31.25 8.65 -30.95 6.9 -30.7 5.05 -29.55 3.25 -28.4 2.5 -25.65 L1.6 -19.7 Q1.1 -15.75 1.2 -11.35 1.3 -6.95 2.6 -3.5 4.2 0.75 10.25 0.95 12.5 1.05 15.95 -0.9 19.45 -2.9 22.85 -8.65 L22.85 -8.65" fill-rule="evenodd" stroke="none"/>
    </g>
    <g id="font_SignPainter-HouseInformal_d0">
      <path d="M12.15 -21.95 L12.15 -21.95 Q18.15 -20.35 22.95 -18.05 27.75 -15.75 28.0 -12.95 27.65 -9.55 22.5 -6.55 17.4 -3.6 12.25 -2.75 12.05 -10.95 12.15 -21.95 L12.15 -21.95 M3.85 -23.9 L3.85 -23.9 4.3 -12.15 4.9 -1.7 Q4.95 -0.05 5.95 0.55 6.95 1.2 9.65 1.1 15.45 0.85 21.35 -1.5 27.3 -3.9 31.35 -7.6 35.4 -11.3 35.55 -15.6 35.15 -20.75 29.6 -24.05 24.0 -27.4 17.55 -29.1 11.05 -30.8 8.05 -31.05 4.2 -31.45 2.95 -29.95 1.45 -28.55 0.5 -26.7 -0.5 -24.95 1.75 -24.3 L3.85 -23.9 3.85 -23.9" fill-rule="evenodd" stroke="none"/>
    </g>
    <g id="font_SignPainter-HouseInformal_i0">
      <path d="M7.15 1.2 L7.15 1.2 Q9.0 0.4 9.8 -0.8 10.55 -2.0 10.5 -4.3 L10.6 -16.0 10.65 -28.7 Q10.85 -32.65 6.4 -30.85 4.4 -30.1 3.2 -28.8 2.05 -27.5 2.15 -24.75 L2.75 -12.85 3.45 -0.55 Q3.75 2.8 7.15 1.2 L7.15 1.2" fill-rule="evenodd" stroke="none"/>
    </g>
    <g id="font_SignPainter-HouseInformal_t0">
      <path d="M29.65 -28.9 L29.65 -28.9 Q30.95 -30.6 28.5 -30.7 L16.7 -30.7 4.75 -30.35 Q2.1 -30.3 0.9 -28.45 -0.55 -25.95 2.4 -26.15 L10.6 -26.5 10.8 -18.5 10.95 -9.0 11.15 -1.05 Q11.3 2.3 14.95 0.65 16.8 -0.05 17.65 -1.25 18.5 -2.4 18.55 -4.7 L18.8 -15.15 19.05 -26.9 25.3 -27.35 Q28.65 -27.45 29.65 -28.9 L29.65 -28.9" fill-rule="evenodd" stroke="none"/>
    </g>
    <g id="font_SignPainter-HouseInformal__1">
      <path d="M5.55 -4.2 L5.55 -4.2 Q1.8 -4.15 1.75 -1.75 1.75 -0.4 2.75 0.35 3.8 1.1 5.15 1.25 8.4 1.55 9.25 -1.0 9.65 -3.65 5.55 -4.2 L5.55 -4.2 M3.55 -8.9 L3.55 -8.9 Q3.15 -5.75 5.6 -6.0 9.45 -5.75 10.4 -9.35 12.8 -17.8 15.0 -27.75 16.15 -33.2 11.65 -35.0 8.0 -36.4 7.65 -32.5 6.75 -27.8 5.6 -20.9 L3.55 -8.9 3.55 -8.9" fill-rule="evenodd" stroke="none"/>
    </g>
  </defs>
</svg>
