<?xml version="1.0" encoding="UTF-8" standalone="no"?>
<svg xmlns:xlink="http://www.w3.org/1999/xlink" height="23.6px" width="85.65px" xmlns="http://www.w3.org/2000/svg">
  <g transform="matrix(1.0, 0.0, 0.0, 1.0, -68.25, -0.45)">
    <g transform="matrix(1.0, 0.0, 0.0, 1.0, 53.8, 0.0)">
      <use fill="#006699" height="23.6" transform="matrix(0.2344, 0.0, 0.0, 0.2344, 14.0, 10.0)" width="85.65" xlink:href="#font_Minnie_C0"/>
      <use fill="#006699" height="23.6" transform="matrix(0.2344, 0.0, 0.0, 0.2344, 24.55, 10.0)" width="85.65" xlink:href="#font_Minnie_o0"/>
      <use fill="#006699" height="23.6" transform="matrix(0.2344, 0.0, 0.0, 0.2344, 33.55, 10.0)" width="85.65" xlink:href="#font_Minnie_g0"/>
      <use fill="#006699" height="23.6" transform="matrix(0.2344, 0.0, 0.0, 0.2344, 47.1, 10.0)" width="85.65" xlink:href="#font_Minnie_S0"/>
      <use fill="#006699" height="23.6" transform="matrix(0.2344, 0.0, 0.0, 0.2344, 56.2, 10.0)" width="85.65" xlink:href="#font_Minnie_p0"/>
      <use fill="#006699" height="23.6" transform="matrix(0.2344, 0.0, 0.0, 0.2344, 63.2, 10.0)" width="85.65" xlink:href="#font_Minnie_o0"/>
      <use fill="#006699" height="23.6" transform="matrix(0.2344, 0.0, 0.0, 0.2344, 72.2, 10.0)" width="85.65" xlink:href="#font_Minnie_t0"/>
      <use fill="#006699" height="23.6" transform="matrix(0.2344, 0.0, 0.0, 0.2344, 78.95, 10.0)" width="85.65" xlink:href="#font_Minnie_t0"/>
      <use fill="#006699" height="23.6" transform="matrix(0.2344, 0.0, 0.0, 0.2344, 85.7, 10.0)" width="85.65" xlink:href="#font_Minnie_e0"/>
      <use fill="#006699" height="23.6" transform="matrix(0.2344, 0.0, 0.0, 0.2344, 91.85, 10.0)" width="85.65" xlink:href="#font_Minnie_r0"/>
    </g>
    <g transform="matrix(1.0, 0.0, 0.0, 1.0, 53.8, 0.0)">
      <use fill="#006699" height="23.6" transform="matrix(0.2344, 0.0, 0.0, 0.2344, 38.0, 24.0)" width="85.65" xlink:href="#font_Minnie_G0"/>
      <use fill="#006699" height="23.6" transform="matrix(0.2344, 0.0, 0.0, 0.2344, 47.95, 24.0)" width="85.65" xlink:href="#font_Minnie_u0"/>
      <use fill="#006699" height="23.6" transform="matrix(0.2344, 0.0, 0.0, 0.2344, 56.1, 24.0)" width="85.65" xlink:href="#font_Minnie_i0"/>
      <use fill="#006699" height="23.6" transform="matrix(0.2344, 0.0, 0.0, 0.2344, 61.1, 24.0)" width="85.65" xlink:href="#font_Minnie_d0"/>
      <use fill="#006699" height="23.6" transform="matrix(0.2344, 0.0, 0.0, 0.2344, 69.5, 24.0)" width="85.65" xlink:href="#font_Minnie_e0"/>
    </g>
  </g>
  <defs>
    <g id="font_Minnie_C0">
      <path d="M40.75 -17.35 L40.75 -17.35 35.55 -15.6 Q31.25 -14.2 28.3 -14.2 21.85 -14.15 20.0 -17.9 19.35 -19.1 19.35 -20.3 19.35 -23.6 23.15 -25.85 27.3 -28.4 34.35 -28.4 L36.65 -28.4 Q41.55 -39.65 41.2 -40.6 L35.2 -40.8 Q18.05 -40.8 9.0 -33.85 2.25 -28.65 1.4 -21.2 L1.35 -19.9 Q1.35 -13.0 6.35 -7.3 12.75 0.0 24.6 0.0 L30.5 -0.45 Q39.75 -1.75 47.55 -4.75 L40.75 -17.35" fill-rule="evenodd" stroke="none"/>
    </g>
    <g id="font_Minnie_o0">
      <path d="M20.2 -11.4 L20.2 -11.4 Q18.45 -11.4 16.75 -12.55 14.55 -14.1 14.55 -16.55 14.55 -19.3 16.75 -20.9 18.55 -22.2 20.75 -22.2 22.7 -22.2 24.3 -21.15 26.4 -19.8 26.4 -17.1 26.35 -14.1 24.0 -12.5 22.25 -11.4 20.2 -11.4 M21.15 -32.6 L21.15 -32.6 Q12.0 -32.6 6.3 -27.15 1.1 -22.2 1.1 -15.25 1.1 -8.65 5.8 -4.4 10.7 0.0 18.7 0.0 28.9 0.0 34.5 -6.05 38.95 -10.85 38.95 -16.85 38.95 -24.3 34.0 -28.55 29.15 -32.6 21.15 -32.6" fill-rule="evenodd" stroke="none"/>
    </g>
    <g id="font_Minnie_g0">
      <path d="M32.25 -5.1 L32.25 -5.1 Q35.2 -8.1 35.2 -13.45 35.2 -15.45 34.8 -17.8 L34.35 -20.2 19.4 -15.35 25.1 -12.1 Q24.4 -9.7 21.25 -9.3 L19.5 -9.2 Q16.2 -9.2 14.4 -10.9 12.6 -12.6 12.55 -15.55 12.45 -17.9 14.45 -20.2 16.65 -22.8 19.85 -22.8 21.3 -22.8 22.75 -22.0 L26.45 -25.25 Q29.85 -28.6 29.6 -28.8 24.65 -32.6 18.9 -32.6 11.85 -32.6 6.6 -27.5 1.35 -22.4 1.35 -15.7 L1.45 -13.7 Q2.4 -6.85 7.3 -3.25 11.85 0.05 18.9 0.0 27.3 -0.1 32.25 -5.1" fill-rule="evenodd" stroke="none"/>
    </g>
    <g id="font_Minnie_S0">
      <path d="M2.6 -0.25 L2.6 -0.25 5.4 0.0 14.75 0.0 Q19.75 -0.15 23.7 -2.65 26.9 -4.65 28.05 -7.1 29.15 -9.5 30.3 -18.6 31.3 -26.25 33.35 -27.8 34.05 -28.4 34.9 -28.4 35.9 -28.4 36.95 -27.7 L37.8 -26.9 40.7 -37.0 Q36.1 -40.8 31.8 -40.8 L28.0 -40.2 Q23.65 -39.0 21.4 -35.65 19.7 -33.1 19.1 -28.85 L18.35 -22.5 Q17.6 -17.35 16.55 -15.2 14.9 -11.85 11.25 -11.35 L9.3 -11.2 Q6.95 -11.2 4.15 -12.0 L1.1 -12.9 2.6 -0.25" fill-rule="evenodd" stroke="none"/>
    </g>
    <g id="font_Minnie_p0">
      <path d="M12.35 -24.85 L12.35 -24.85 15.15 -25.2 Q19.0 -25.2 18.95 -22.9 18.95 -20.2 13.6 -19.65 L12.35 -24.85 M16.35 -1.45 L16.35 -1.45 14.85 -7.9 14.5 -9.65 Q21.95 -12.05 26.15 -16.2 30.15 -20.05 30.15 -24.25 L30.05 -25.8 Q28.7 -32.5 17.75 -32.6 12.55 -32.65 1.1 -30.65 L7.25 0.0 16.35 -1.45" fill-rule="evenodd" stroke="none"/>
    </g>
    <g id="font_Minnie_t0">
      <path d="M23.6 -1.0 L23.6 -1.0 19.85 -23.35 28.85 -24.65 27.55 -32.6 1.1 -28.75 2.5 -20.85 11.15 -22.1 15.1 0.0 23.6 -1.0" fill-rule="evenodd" stroke="none"/>
    </g>
    <g id="font_Minnie_e0">
      <path d="M24.95 -6.0 L24.95 -6.0 14.3 -6.65 14.7 -10.75 18.2 -10.6 21.85 -10.4 22.8 -21.6 15.65 -22.0 15.8 -25.0 25.7 -24.2 26.25 -31.4 3.55 -32.6 1.1 -1.3 12.1 -0.65 24.5 0.0 24.95 -6.0" fill-rule="evenodd" stroke="none"/>
    </g>
    <g id="font_Minnie_r0">
      <path d="M16.0 -20.35 L16.0 -20.35 17.2 -24.75 Q22.65 -23.65 22.65 -21.35 L22.55 -20.55 Q22.2 -19.35 19.45 -19.35 L16.0 -19.75 16.0 -20.35 M13.95 -10.85 L13.95 -10.85 16.15 -10.45 18.4 -10.0 19.45 -5.15 20.3 -0.2 31.65 -0.4 28.05 -13.2 29.25 -14.1 Q30.95 -14.9 31.9 -15.8 33.65 -17.25 34.25 -19.25 L34.55 -21.0 Q34.55 -23.6 32.05 -25.8 29.5 -28.0 25.15 -29.3 L17.2 -31.15 8.5 -32.8 4.95 -18.4 1.1 -3.9 11.45 -1.9 12.6 -6.45 13.75 -10.95 13.95 -10.85" fill-rule="evenodd" stroke="none"/>
    </g>
    <g id="font_Minnie_G0">
      <path d="M39.95 -6.2 L39.95 -6.2 Q43.7 -9.95 43.7 -16.75 43.7 -19.25 43.2 -22.2 L42.55 -25.25 23.9 -19.15 31.0 -15.05 Q30.2 -12.05 26.35 -11.55 L24.2 -11.4 Q20.15 -11.4 17.95 -13.55 15.75 -15.7 15.65 -19.3 15.5 -22.35 17.95 -25.2 20.7 -28.4 24.6 -28.4 26.4 -28.4 28.25 -27.5 28.6 -27.4 32.75 -31.55 36.95 -35.7 36.7 -35.9 30.45 -40.6 23.3 -40.6 14.55 -40.6 7.95 -34.2 1.35 -27.8 1.35 -19.45 1.35 -18.2 1.5 -16.95 2.7 -8.35 8.8 -3.9 14.5 0.3 23.3 0.2 33.85 0.05 39.95 -6.2" fill-rule="evenodd" stroke="none"/>
    </g>
    <g id="font_Minnie_u0">
      <path d="M34.75 -23.25 L34.75 -23.25 Q33.65 -30.25 33.0 -32.3 L22.4 -31.05 Q24.0 -26.35 24.0 -22.65 24.0 -20.5 23.6 -17.9 23.25 -16.25 22.0 -14.7 20.5 -12.9 18.6 -12.8 16.05 -12.75 14.35 -14.55 12.95 -16.15 12.75 -18.35 L12.75 -21.45 Q12.75 -25.45 14.05 -30.95 L3.1 -32.6 Q2.45 -31.7 1.55 -23.4 L1.35 -18.45 Q1.35 -13.5 2.8 -10.25 3.4 -8.75 5.65 -5.55 8.15 -2.1 11.4 -0.85 13.85 0.0 18.4 0.0 25.85 0.0 30.05 -4.75 34.95 -10.35 34.95 -18.6 L34.75 -23.25" fill-rule="evenodd" stroke="none"/>
    </g>
    <g id="font_Minnie_i0">
      <path d="M16.2 0.0 L16.2 0.0 18.35 -16.0 20.65 -31.75 5.5 -32.6 3.5 -17.05 1.1 -0.8 16.2 0.0" fill-rule="evenodd" stroke="none"/>
    </g>
    <g id="font_Minnie_d0">
      <path d="M13.9 -22.1 L13.9 -22.1 Q21.95 -21.5 21.25 -16.75 20.95 -14.35 18.65 -12.95 16.35 -11.55 13.0 -11.8 L13.9 -22.1 M3.8 -32.6 L3.8 -32.6 1.1 -0.15 5.1 0.0 Q16.95 0.0 25.45 -4.1 35.6 -8.95 36.35 -17.9 36.7 -21.6 34.0 -24.6 30.1 -28.9 20.6 -30.75 L3.8 -32.6" fill-rule="evenodd" stroke="none"/>
    </g>
  </defs>
</svg>
