<?xml version="1.0" encoding="UTF-8" standalone="no"?>
<svg xmlns:xlink="http://www.w3.org/1999/xlink" height="69.8px" width="161.3px" xmlns="http://www.w3.org/2000/svg">
  <g transform="matrix(1.0, 0.0, 0.0, 1.0, 87.65, -0.35)">
    <g transform="matrix(1.0, 0.0, 0.0, 1.0, -132.8, 0.0)">
      <use fill="#b5b54f" height="69.8" transform="matrix(0.8008, 0.0, 0.0, 0.8008, 44.0, 33.0)" width="161.3" xlink:href="#font_Minnie_G0"/>
      <use fill="#b5b54f" height="69.8" transform="matrix(0.8008, 0.0, 0.0, 0.8008, 78.05, 33.0)" width="161.3" xlink:href="#font_Minnie_R0"/>
      <use fill="#b5b54f" height="69.8" transform="matrix(0.8008, 0.0, 0.0, 0.8008, 111.7, 33.0)" width="161.3" xlink:href="#font_Minnie_E0"/>
      <use fill="#b5b54f" height="69.8" transform="matrix(0.8008, 0.0, 0.0, 0.8008, 137.7, 33.0)" width="161.3" xlink:href="#font_Minnie_A0"/>
      <use fill="#b5b54f" height="69.8" transform="matrix(0.8008, 0.0, 0.0, 0.8008, 177.7, 33.0)" width="161.3" xlink:href="#font_Minnie_T0"/>
    </g>
    <g transform="matrix(1.0, 0.0, 0.0, 1.0, -132.8, 0.0)">
      <use fill="#b5b54f" height="69.8" transform="matrix(0.8008, 0.0, 0.0, 0.8008, 46.0, 70.0)" width="161.3" xlink:href="#font_Minnie_G0"/>
      <use fill="#b5b54f" height="69.8" transform="matrix(0.8008, 0.0, 0.0, 0.8008, 80.05, 70.0)" width="161.3" xlink:href="#font_Minnie_A0"/>
      <use fill="#b5b54f" height="69.8" transform="matrix(0.8008, 0.0, 0.0, 0.8008, 120.05, 70.0)" width="161.3" xlink:href="#font_Minnie_M0"/>
      <use fill="#b5b54f" height="69.8" transform="matrix(0.8008, 0.0, 0.0, 0.8008, 169.65, 70.0)" width="161.3" xlink:href="#font_Minnie_E0"/>
      <use fill="#b5b54f" height="69.8" transform="matrix(0.8008, 0.0, 0.0, 0.8008, 195.65, 70.0)" width="161.3" xlink:href="#font_Minnie__1"/>
    </g>
  </g>
  <defs>
    <g id="font_Minnie_G0">
      <path d="M39.95 -6.2 L39.95 -6.2 Q43.7 -9.95 43.7 -16.75 43.7 -19.25 43.2 -22.2 L42.55 -25.25 23.9 -19.15 31.0 -15.05 Q30.2 -12.05 26.35 -11.55 L24.2 -11.4 Q20.15 -11.4 17.95 -13.55 15.75 -15.7 15.65 -19.3 15.5 -22.35 17.95 -25.2 20.7 -28.4 24.6 -28.4 26.4 -28.4 28.25 -27.5 28.6 -27.4 32.75 -31.55 36.95 -35.7 36.7 -35.9 30.45 -40.6 23.3 -40.6 14.55 -40.6 7.95 -34.2 1.35 -27.8 1.35 -19.45 1.35 -18.2 1.5 -16.95 2.7 -8.35 8.8 -3.9 14.5 0.3 23.3 0.2 33.85 0.05 39.95 -6.2" fill-rule="evenodd" stroke="none"/>
    </g>
    <g id="font_Minnie_R0">
      <path d="M19.9 -25.2 L19.9 -25.2 21.35 -30.65 Q27.95 -29.25 27.95 -26.35 L27.85 -25.45 Q27.4 -23.9 24.1 -23.9 L19.9 -24.4 19.9 -25.2 M17.45 -13.25 L17.45 -13.25 20.15 -12.75 23.0 -12.15 24.3 -6.15 25.4 0.0 39.45 -0.25 34.95 -16.3 Q34.9 -16.55 36.4 -17.4 38.5 -18.45 39.75 -19.55 41.75 -21.35 42.6 -23.9 L42.9 -26.05 Q42.9 -29.35 39.8 -32.05 36.7 -34.8 31.3 -36.45 L21.35 -38.75 10.55 -40.8 6.1 -22.7 1.35 -4.55 14.3 -2.05 15.8 -7.8 17.2 -13.35 17.45 -13.25" fill-rule="evenodd" stroke="none"/>
    </g>
    <g id="font_Minnie_E0">
      <path d="M30.95 -7.4 L30.95 -7.4 24.0 -7.8 17.6 -8.2 18.1 -13.45 22.5 -13.2 27.1 -13.0 28.25 -27.0 19.15 -27.5 19.4 -31.25 31.9 -30.2 32.55 -39.2 4.15 -40.8 1.1 -1.65 14.9 -0.8 30.35 0.0 30.95 -7.4" fill-rule="evenodd" stroke="none"/>
    </g>
    <g id="font_Minnie_A0">
      <path d="M21.95 -16.0 L21.95 -16.0 24.35 -20.1 26.8 -24.15 32.1 -16.0 21.95 -16.0 M13.7 0.0 L13.7 0.0 16.1 -3.55 18.6 -7.6 35.4 -7.6 38.75 -3.45 41.45 0.0 52.35 -3.0 39.6 -21.85 26.55 -40.8 26.1 -40.8 13.7 -22.35 Q1.5 -4.05 1.35 -3.1 L13.7 0.0" fill-rule="evenodd" stroke="none"/>
    </g>
    <g id="font_Minnie_T0">
      <path d="M29.2 -1.25 L29.2 -1.25 24.55 -29.15 35.75 -30.9 34.1 -40.6 1.1 -36.0 2.85 -25.85 13.9 -27.35 18.75 0.0 29.2 -1.25" fill-rule="evenodd" stroke="none"/>
    </g>
    <g id="font_Minnie_M0">
      <path d="M17.25 0.0 L17.25 0.0 24.5 -14.6 33.9 -5.75 42.2 -15.55 46.6 -8.55 51.1 -1.45 65.75 -5.65 46.1 -40.8 39.2 -33.7 Q32.55 -26.85 32.65 -26.35 32.55 -26.8 25.15 -32.9 L17.25 -39.25 0.9 -2.55 17.25 0.0" fill-rule="evenodd" stroke="none"/>
    </g>
    <g id="font_Minnie__1">
      <path d="M6.0 0.2 L6.0 0.2 Q4.2 0.2 2.9 -0.95 1.6 -2.1 1.6 -3.8 1.6 -5.4 2.9 -6.6 4.2 -7.75 6.0 -7.75 7.8 -7.75 9.1 -6.6 10.4 -5.4 10.4 -3.8 10.4 -2.1 9.1 -0.95 7.8 0.2 6.0 0.2 M1.35 -40.6 L1.35 -40.6 2.9 -14.7 8.9 -15.1 Q10.9 -30.9 12.25 -40.15 L1.35 -40.6" fill-rule="evenodd" stroke="none"/>
    </g>
  </defs>
</svg>
