<?xml version="1.0" encoding="UTF-8" standalone="no"?>
<svg xmlns:xlink="http://www.w3.org/1999/xlink" height="49.35px" width="309.2px" xmlns="http://www.w3.org/2000/svg">
  <g transform="matrix(1.0, 0.0, 0.0, 1.0, 0.3, -1.2)">
    <g transform="matrix(1.0, 0.0, 0.0, 1.0, 0.0, 0.0)">
      <use fill="#006699" height="49.35" transform="matrix(0.293, 0.0, 0.0, 0.293, 0.0, 12.0)" width="309.2" xlink:href="#font_Coop_Flaired_T0"/>
      <use fill="#006699" height="49.35" transform="matrix(0.293, 0.0, 0.0, 0.293, 6.5, 12.0)" width="309.2" xlink:href="#font_Coop_Flaired_h0"/>
      <use fill="#006699" height="49.35" transform="matrix(0.293, 0.0, 0.0, 0.293, 12.85, 12.0)" width="309.2" xlink:href="#font_Coop_Flaired_e0"/>
      <use fill="#006699" height="49.35" transform="matrix(0.293, 0.0, 0.0, 0.293, 22.5, 12.0)" width="309.2" xlink:href="#font_Coop_Flaired_n0"/>
      <use fill="#006699" height="49.35" transform="matrix(0.293, 0.0, 0.0, 0.293, 28.5, 12.0)" width="309.2" xlink:href="#font_Coop_Flaired_u0"/>
      <use fill="#006699" height="49.35" transform="matrix(0.293, 0.0, 0.0, 0.293, 34.45, 12.0)" width="309.2" xlink:href="#font_Coop_Flaired_m0"/>
      <use fill="#006699" height="49.35" transform="matrix(0.293, 0.0, 0.0, 0.293, 42.9, 12.0)" width="309.2" xlink:href="#font_Coop_Flaired_b0"/>
      <use fill="#006699" height="49.35" transform="matrix(0.293, 0.0, 0.0, 0.293, 49.85, 12.0)" width="309.2" xlink:href="#font_Coop_Flaired_e0"/>
      <use fill="#006699" height="49.35" transform="matrix(0.293, 0.0, 0.0, 0.293, 56.1, 12.0)" width="309.2" xlink:href="#font_Coop_Flaired_r0"/>
      <use fill="#006699" height="49.35" transform="matrix(0.293, 0.0, 0.0, 0.293, 64.8, 12.0)" width="309.2" xlink:href="#font_Coop_Flaired_o0"/>
      <use fill="#006699" height="49.35" transform="matrix(0.293, 0.0, 0.0, 0.293, 71.0, 12.0)" width="309.2" xlink:href="#font_Coop_Flaired_f0"/>
      <use fill="#006699" height="49.35" transform="matrix(0.293, 0.0, 0.0, 0.293, 80.15, 12.0)" width="309.2" xlink:href="#font_Coop_Flaired_p0"/>
      <use fill="#006699" height="49.35" transform="matrix(0.293, 0.0, 0.0, 0.293, 86.7, 12.0)" width="309.2" xlink:href="#font_Coop_Flaired_o0"/>
      <use fill="#006699" height="49.35" transform="matrix(0.293, 0.0, 0.0, 0.293, 92.9, 12.0)" width="309.2" xlink:href="#font_Coop_Flaired_i0"/>
      <use fill="#006699" height="49.35" transform="matrix(0.293, 0.0, 0.0, 0.293, 95.65, 12.0)" width="309.2" xlink:href="#font_Coop_Flaired_n0"/>
      <use fill="#006699" height="49.35" transform="matrix(0.293, 0.0, 0.0, 0.293, 101.65, 12.0)" width="309.2" xlink:href="#font_Coop_Flaired_t0"/>
      <use fill="#006699" height="49.35" transform="matrix(0.293, 0.0, 0.0, 0.293, 106.8, 12.0)" width="309.2" xlink:href="#font_Coop_Flaired_s0"/>
      <use fill="#006699" height="49.35" transform="matrix(0.293, 0.0, 0.0, 0.293, 115.8, 12.0)" width="309.2" xlink:href="#font_Coop_Flaired_y0"/>
      <use fill="#006699" height="49.35" transform="matrix(0.293, 0.0, 0.0, 0.293, 121.9, 12.0)" width="309.2" xlink:href="#font_Coop_Flaired_o0"/>
      <use fill="#006699" height="49.35" transform="matrix(0.293, 0.0, 0.0, 0.293, 128.1, 12.0)" width="309.2" xlink:href="#font_Coop_Flaired_u0"/>
      <use fill="#006699" height="49.35" transform="matrix(0.293, 0.0, 0.0, 0.293, 137.45, 12.0)" width="309.2" xlink:href="#font_Coop_Flaired_w0"/>
      <use fill="#006699" height="49.35" transform="matrix(0.293, 0.0, 0.0, 0.293, 145.5, 12.0)" width="309.2" xlink:href="#font_Coop_Flaired_i0"/>
      <use fill="#006699" height="49.35" transform="matrix(0.293, 0.0, 0.0, 0.293, 148.25, 12.0)" width="309.2" xlink:href="#font_Coop_Flaired_n0"/>
      <use fill="#006699" height="49.35" transform="matrix(0.293, 0.0, 0.0, 0.293, 157.65, 12.0)" width="309.2" xlink:href="#font_Coop_Flaired_d0"/>
      <use fill="#006699" height="49.35" transform="matrix(0.293, 0.0, 0.0, 0.293, 165.0, 12.0)" width="309.2" xlink:href="#font_Coop_Flaired_e0"/>
      <use fill="#006699" height="49.35" transform="matrix(0.293, 0.0, 0.0, 0.293, 171.25, 12.0)" width="309.2" xlink:href="#font_Coop_Flaired_p0"/>
      <use fill="#006699" height="49.35" transform="matrix(0.293, 0.0, 0.0, 0.293, 177.8, 12.0)" width="309.2" xlink:href="#font_Coop_Flaired_e0"/>
      <use fill="#006699" height="49.35" transform="matrix(0.293, 0.0, 0.0, 0.293, 184.05, 12.0)" width="309.2" xlink:href="#font_Coop_Flaired_n0"/>
      <use fill="#006699" height="49.35" transform="matrix(0.293, 0.0, 0.0, 0.293, 190.05, 12.0)" width="309.2" xlink:href="#font_Coop_Flaired_d0"/>
      <use fill="#006699" height="49.35" transform="matrix(0.293, 0.0, 0.0, 0.293, 197.4, 12.0)" width="309.2" xlink:href="#font_Coop_Flaired_s0"/>
      <use fill="#006699" height="49.35" transform="matrix(0.293, 0.0, 0.0, 0.293, 206.4, 12.0)" width="309.2" xlink:href="#font_Coop_Flaired_o0"/>
      <use fill="#006699" height="49.35" transform="matrix(0.293, 0.0, 0.0, 0.293, 212.6, 12.0)" width="309.2" xlink:href="#font_Coop_Flaired_n0"/>
      <use fill="#006699" height="49.35" transform="matrix(0.293, 0.0, 0.0, 0.293, 222.0, 12.0)" width="309.2" xlink:href="#font_Coop_Flaired_t0"/>
      <use fill="#006699" height="49.35" transform="matrix(0.293, 0.0, 0.0, 0.293, 227.15, 12.0)" width="309.2" xlink:href="#font_Coop_Flaired_h0"/>
      <use fill="#006699" height="49.35" transform="matrix(0.293, 0.0, 0.0, 0.293, 233.5, 12.0)" width="309.2" xlink:href="#font_Coop_Flaired_e0"/>
      <use fill="#006699" height="49.35" transform="matrix(0.293, 0.0, 0.0, 0.293, 243.15, 12.0)" width="309.2" xlink:href="#font_Coop_Flaired_p0"/>
      <use fill="#006699" height="49.35" transform="matrix(0.293, 0.0, 0.0, 0.293, 249.7, 12.0)" width="309.2" xlink:href="#font_Coop_Flaired_o0"/>
      <use fill="#006699" height="49.35" transform="matrix(0.293, 0.0, 0.0, 0.293, 255.9, 12.0)" width="309.2" xlink:href="#font_Coop_Flaired_s0"/>
      <use fill="#006699" height="49.35" transform="matrix(0.293, 0.0, 0.0, 0.293, 261.5, 12.0)" width="309.2" xlink:href="#font_Coop_Flaired_i0"/>
      <use fill="#006699" height="49.35" transform="matrix(0.293, 0.0, 0.0, 0.293, 264.25, 12.0)" width="309.2" xlink:href="#font_Coop_Flaired_t0"/>
      <use fill="#006699" height="49.35" transform="matrix(0.293, 0.0, 0.0, 0.293, 269.4, 12.0)" width="309.2" xlink:href="#font_Coop_Flaired_i0"/>
      <use fill="#006699" height="49.35" transform="matrix(0.293, 0.0, 0.0, 0.293, 272.15, 12.0)" width="309.2" xlink:href="#font_Coop_Flaired_o0"/>
      <use fill="#006699" height="49.35" transform="matrix(0.293, 0.0, 0.0, 0.293, 278.35, 12.0)" width="309.2" xlink:href="#font_Coop_Flaired_n0"/>
      <use fill="#006699" height="49.35" transform="matrix(0.293, 0.0, 0.0, 0.293, 284.35, 12.0)" width="309.2" xlink:href="#font_Coop_Flaired_s0"/>
      <use fill="#006699" height="49.35" transform="matrix(0.293, 0.0, 0.0, 0.293, 293.35, 12.0)" width="309.2" xlink:href="#font_Coop_Flaired_o0"/>
      <use fill="#006699" height="49.35" transform="matrix(0.293, 0.0, 0.0, 0.293, 299.55, 12.0)" width="309.2" xlink:href="#font_Coop_Flaired_f0"/>
    </g>
    <g transform="matrix(1.0, 0.0, 0.0, 1.0, 0.0, 0.0)">
      <use fill="#006699" height="49.35" transform="matrix(0.293, 0.0, 0.0, 0.293, 0.0, 29.0)" width="309.2" xlink:href="#font_Coop_Flaired_t0"/>
      <use fill="#006699" height="49.35" transform="matrix(0.293, 0.0, 0.0, 0.293, 5.15, 29.0)" width="309.2" xlink:href="#font_Coop_Flaired_h0"/>
      <use fill="#006699" height="49.35" transform="matrix(0.293, 0.0, 0.0, 0.293, 11.5, 29.0)" width="309.2" xlink:href="#font_Coop_Flaired_e0"/>
      <use fill="#006699" height="49.35" transform="matrix(0.293, 0.0, 0.0, 0.293, 21.15, 29.0)" width="309.2" xlink:href="#font_Coop_Flaired_c0"/>
      <use fill="#006699" height="49.35" transform="matrix(0.293, 0.0, 0.0, 0.293, 27.45, 29.0)" width="309.2" xlink:href="#font_Coop_Flaired_o0"/>
      <use fill="#006699" height="49.35" transform="matrix(0.293, 0.0, 0.0, 0.293, 33.65, 29.0)" width="309.2" xlink:href="#font_Coop_Flaired_g0"/>
      <use fill="#006699" height="49.35" transform="matrix(0.293, 0.0, 0.0, 0.293, 40.4, 29.0)" width="309.2" xlink:href="#font_Coop_Flaired_s0"/>
      <use fill="#006699" height="49.35" transform="matrix(0.293, 0.0, 0.0, 0.293, 49.4, 29.0)" width="309.2" xlink:href="#font_Coop_Flaired_y0"/>
      <use fill="#006699" height="49.35" transform="matrix(0.293, 0.0, 0.0, 0.293, 55.5, 29.0)" width="309.2" xlink:href="#font_Coop_Flaired_o0"/>
      <use fill="#006699" height="49.35" transform="matrix(0.293, 0.0, 0.0, 0.293, 61.7, 29.0)" width="309.2" xlink:href="#font_Coop_Flaired_u0"/>
      <use fill="#006699" height="49.35" transform="matrix(0.293, 0.0, 0.0, 0.293, 71.05, 29.0)" width="309.2" xlink:href="#font_Coop_Flaired_k0"/>
      <use fill="#006699" height="49.35" transform="matrix(0.293, 0.0, 0.0, 0.293, 77.55, 29.0)" width="309.2" xlink:href="#font_Coop_Flaired_n0"/>
      <use fill="#006699" height="49.35" transform="matrix(0.293, 0.0, 0.0, 0.293, 83.55, 29.0)" width="309.2" xlink:href="#font_Coop_Flaired_o0"/>
      <use fill="#006699" height="49.35" transform="matrix(0.293, 0.0, 0.0, 0.293, 89.75, 29.0)" width="309.2" xlink:href="#font_Coop_Flaired_c0"/>
      <use fill="#006699" height="49.35" transform="matrix(0.293, 0.0, 0.0, 0.293, 96.05, 29.0)" width="309.2" xlink:href="#font_Coop_Flaired_k0"/>
      <use fill="#006699" height="49.35" transform="matrix(0.293, 0.0, 0.0, 0.293, 105.95, 29.0)" width="309.2" xlink:href="#font_Coop_Flaired_d0"/>
      <use fill="#006699" height="49.35" transform="matrix(0.293, 0.0, 0.0, 0.293, 113.3, 29.0)" width="309.2" xlink:href="#font_Coop_Flaired_o0"/>
      <use fill="#006699" height="49.35" transform="matrix(0.293, 0.0, 0.0, 0.293, 119.5, 29.0)" width="309.2" xlink:href="#font_Coop_Flaired_w0"/>
      <use fill="#006699" height="49.35" transform="matrix(0.293, 0.0, 0.0, 0.293, 127.55, 29.0)" width="309.2" xlink:href="#font_Coop_Flaired_n0"/>
      <use fill="#006699" height="49.35" transform="matrix(0.293, 0.0, 0.0, 0.293, 133.55, 29.0)" width="309.2" xlink:href="#font_Coop_Flaired_.0"/>
      <use fill="#006699" height="49.35" transform="matrix(0.293, 0.0, 0.0, 0.293, 142.9, 29.0)" width="309.2" xlink:href="#font_Coop_Flaired_I0"/>
      <use fill="#006699" height="49.35" transform="matrix(0.293, 0.0, 0.0, 0.293, 145.95, 29.0)" width="309.2" xlink:href="#font_Coop_Flaired_f0"/>
      <use fill="#006699" height="49.35" transform="matrix(0.293, 0.0, 0.0, 0.293, 155.1, 29.0)" width="309.2" xlink:href="#font_Coop_Flaired_y0"/>
      <use fill="#006699" height="49.35" transform="matrix(0.293, 0.0, 0.0, 0.293, 161.2, 29.0)" width="309.2" xlink:href="#font_Coop_Flaired_o0"/>
      <use fill="#006699" height="49.35" transform="matrix(0.293, 0.0, 0.0, 0.293, 167.4, 29.0)" width="309.2" xlink:href="#font_Coop_Flaired_u0"/>
      <use fill="#006699" height="49.35" transform="matrix(0.293, 0.0, 0.0, 0.293, 176.75, 29.0)" width="309.2" xlink:href="#font_Coop_Flaired_g0"/>
      <use fill="#006699" height="49.35" transform="matrix(0.293, 0.0, 0.0, 0.293, 183.5, 29.0)" width="309.2" xlink:href="#font_Coop_Flaired_e0"/>
      <use fill="#006699" height="49.35" transform="matrix(0.293, 0.0, 0.0, 0.293, 189.75, 29.0)" width="309.2" xlink:href="#font_Coop_Flaired_t0"/>
      <use fill="#006699" height="49.35" transform="matrix(0.293, 0.0, 0.0, 0.293, 198.3, 29.0)" width="309.2" xlink:href="#font_Coop_Flaired_m0"/>
      <use fill="#006699" height="49.35" transform="matrix(0.293, 0.0, 0.0, 0.293, 206.75, 29.0)" width="309.2" xlink:href="#font_Coop_Flaired_o0"/>
      <use fill="#006699" height="49.35" transform="matrix(0.293, 0.0, 0.0, 0.293, 212.95, 29.0)" width="309.2" xlink:href="#font_Coop_Flaired_r0"/>
      <use fill="#006699" height="49.35" transform="matrix(0.293, 0.0, 0.0, 0.293, 218.25, 29.0)" width="309.2" xlink:href="#font_Coop_Flaired_e0"/>
      <use fill="#006699" height="49.35" transform="matrix(0.293, 0.0, 0.0, 0.293, 227.9, 29.0)" width="309.2" xlink:href="#font_Coop_Flaired_t0"/>
      <use fill="#006699" height="49.35" transform="matrix(0.293, 0.0, 0.0, 0.293, 233.05, 29.0)" width="309.2" xlink:href="#font_Coop_Flaired_h0"/>
      <use fill="#006699" height="49.35" transform="matrix(0.293, 0.0, 0.0, 0.293, 239.4, 29.0)" width="309.2" xlink:href="#font_Coop_Flaired_a0"/>
      <use fill="#006699" height="49.35" transform="matrix(0.293, 0.0, 0.0, 0.293, 245.6, 29.0)" width="309.2" xlink:href="#font_Coop_Flaired_n0"/>
      <use fill="#006699" height="49.35" transform="matrix(0.293, 0.0, 0.0, 0.293, 255.0, 29.0)" width="309.2" xlink:href="#font_Coop_Flaired_o0"/>
      <use fill="#006699" height="49.35" transform="matrix(0.293, 0.0, 0.0, 0.293, 261.2, 29.0)" width="309.2" xlink:href="#font_Coop_Flaired_n0"/>
      <use fill="#006699" height="49.35" transform="matrix(0.293, 0.0, 0.0, 0.293, 267.2, 29.0)" width="309.2" xlink:href="#font_Coop_Flaired_e0"/>
      <use fill="#006699" height="49.35" transform="matrix(0.293, 0.0, 0.0, 0.293, 276.85, 29.0)" width="309.2" xlink:href="#font_Coop_Flaired_s0"/>
      <use fill="#006699" height="49.35" transform="matrix(0.293, 0.0, 0.0, 0.293, 282.45, 29.0)" width="309.2" xlink:href="#font_Coop_Flaired_t0"/>
      <use fill="#006699" height="49.35" transform="matrix(0.293, 0.0, 0.0, 0.293, 287.6, 29.0)" width="309.2" xlink:href="#font_Coop_Flaired_r0"/>
      <use fill="#006699" height="49.35" transform="matrix(0.293, 0.0, 0.0, 0.293, 292.9, 29.0)" width="309.2" xlink:href="#font_Coop_Flaired_i0"/>
      <use fill="#006699" height="49.35" transform="matrix(0.293, 0.0, 0.0, 0.293, 295.65, 29.0)" width="309.2" xlink:href="#font_Coop_Flaired_k0"/>
      <use fill="#006699" height="49.35" transform="matrix(0.293, 0.0, 0.0, 0.293, 302.15, 29.0)" width="309.2" xlink:href="#font_Coop_Flaired_e0"/>
    </g>
    <g transform="matrix(1.0, 0.0, 0.0, 1.0, 0.0, 0.0)">
      <use fill="#006699" height="49.35" transform="matrix(0.293, 0.0, 0.0, 0.293, 0.0, 46.0)" width="309.2" xlink:href="#font_Coop_Flaired_i0"/>
      <use fill="#006699" height="49.35" transform="matrix(0.293, 0.0, 0.0, 0.293, 2.75, 46.0)" width="309.2" xlink:href="#font_Coop_Flaired_n0"/>
      <use fill="#006699" height="49.35" transform="matrix(0.293, 0.0, 0.0, 0.293, 12.15, 46.0)" width="309.2" xlink:href="#font_Coop_Flaired_a0"/>
      <use fill="#006699" height="49.35" transform="matrix(0.293, 0.0, 0.0, 0.293, 21.75, 46.0)" width="309.2" xlink:href="#font_Coop_Flaired_r0"/>
      <use fill="#006699" height="49.35" transform="matrix(0.293, 0.0, 0.0, 0.293, 27.05, 46.0)" width="309.2" xlink:href="#font_Coop_Flaired_o0"/>
      <use fill="#006699" height="49.35" transform="matrix(0.293, 0.0, 0.0, 0.293, 33.25, 46.0)" width="309.2" xlink:href="#font_Coop_Flaired_w0"/>
      <use fill="#006699" height="49.35" transform="matrix(0.293, 0.0, 0.0, 0.293, 41.3, 46.0)" width="309.2" xlink:href="#font_Coop_Flaired__1"/>
      <use fill="#006699" height="49.35" transform="matrix(0.293, 0.0, 0.0, 0.293, 47.2, 46.0)" width="309.2" xlink:href="#font_Coop_Flaired_y0"/>
      <use fill="#006699" height="49.35" transform="matrix(0.293, 0.0, 0.0, 0.293, 53.3, 46.0)" width="309.2" xlink:href="#font_Coop_Flaired_o0"/>
      <use fill="#006699" height="49.35" transform="matrix(0.293, 0.0, 0.0, 0.293, 59.5, 46.0)" width="309.2" xlink:href="#font_Coop_Flaired_u0"/>
      <use fill="#006699" height="49.35" transform="matrix(0.293, 0.0, 0.0, 0.293, 65.45, 46.0)" width="309.2" xlink:href="#font_Coop_Flaired__2"/>
      <use fill="#006699" height="49.35" transform="matrix(0.293, 0.0, 0.0, 0.293, 67.75, 46.0)" width="309.2" xlink:href="#font_Coop_Flaired_l0"/>
      <use fill="#006699" height="49.35" transform="matrix(0.293, 0.0, 0.0, 0.293, 70.8, 46.0)" width="309.2" xlink:href="#font_Coop_Flaired_l0"/>
      <use fill="#006699" height="49.35" transform="matrix(0.293, 0.0, 0.0, 0.293, 77.25, 46.0)" width="309.2" xlink:href="#font_Coop_Flaired_g0"/>
      <use fill="#006699" height="49.35" transform="matrix(0.293, 0.0, 0.0, 0.293, 84.0, 46.0)" width="309.2" xlink:href="#font_Coop_Flaired_e0"/>
      <use fill="#006699" height="49.35" transform="matrix(0.293, 0.0, 0.0, 0.293, 90.25, 46.0)" width="309.2" xlink:href="#font_Coop_Flaired_t0"/>
      <use fill="#006699" height="49.35" transform="matrix(0.293, 0.0, 0.0, 0.293, 98.8, 46.0)" width="309.2" xlink:href="#font_Coop_Flaired_d0"/>
      <use fill="#006699" height="49.35" transform="matrix(0.293, 0.0, 0.0, 0.293, 106.15, 46.0)" width="309.2" xlink:href="#font_Coop_Flaired_o0"/>
      <use fill="#006699" height="49.35" transform="matrix(0.293, 0.0, 0.0, 0.293, 112.35, 46.0)" width="309.2" xlink:href="#font_Coop_Flaired_u0"/>
      <use fill="#006699" height="49.35" transform="matrix(0.293, 0.0, 0.0, 0.293, 118.3, 46.0)" width="309.2" xlink:href="#font_Coop_Flaired_b0"/>
      <use fill="#006699" height="49.35" transform="matrix(0.293, 0.0, 0.0, 0.293, 125.25, 46.0)" width="309.2" xlink:href="#font_Coop_Flaired_l0"/>
      <use fill="#006699" height="49.35" transform="matrix(0.293, 0.0, 0.0, 0.293, 128.3, 46.0)" width="309.2" xlink:href="#font_Coop_Flaired_e0"/>
      <use fill="#006699" height="49.35" transform="matrix(0.293, 0.0, 0.0, 0.293, 137.95, 46.0)" width="309.2" xlink:href="#font_Coop_Flaired_t0"/>
      <use fill="#006699" height="49.35" transform="matrix(0.293, 0.0, 0.0, 0.293, 143.1, 46.0)" width="309.2" xlink:href="#font_Coop_Flaired_h0"/>
      <use fill="#006699" height="49.35" transform="matrix(0.293, 0.0, 0.0, 0.293, 149.45, 46.0)" width="309.2" xlink:href="#font_Coop_Flaired_e0"/>
      <use fill="#006699" height="49.35" transform="matrix(0.293, 0.0, 0.0, 0.293, 159.1, 46.0)" width="309.2" xlink:href="#font_Coop_Flaired_p0"/>
      <use fill="#006699" height="49.35" transform="matrix(0.293, 0.0, 0.0, 0.293, 165.65, 46.0)" width="309.2" xlink:href="#font_Coop_Flaired_o0"/>
      <use fill="#006699" height="49.35" transform="matrix(0.293, 0.0, 0.0, 0.293, 171.85, 46.0)" width="309.2" xlink:href="#font_Coop_Flaired_i0"/>
      <use fill="#006699" height="49.35" transform="matrix(0.293, 0.0, 0.0, 0.293, 174.6, 46.0)" width="309.2" xlink:href="#font_Coop_Flaired_n0"/>
      <use fill="#006699" height="49.35" transform="matrix(0.293, 0.0, 0.0, 0.293, 180.6, 46.0)" width="309.2" xlink:href="#font_Coop_Flaired_t0"/>
      <use fill="#006699" height="49.35" transform="matrix(0.293, 0.0, 0.0, 0.293, 185.75, 46.0)" width="309.2" xlink:href="#font_Coop_Flaired_s0"/>
      <use fill="#006699" height="49.35" transform="matrix(0.293, 0.0, 0.0, 0.293, 191.35, 46.0)" width="309.2" xlink:href="#font_Coop_Flaired_.0"/>
    </g>
  </g>
  <defs>
    <g id="font_Coop_Flaired_T0">
      <path d="M25.1 -33.6 L25.1 -33.6 Q13.2 -31.45 -0.6 -32.8 0.95 -28.8 0.9 -25.55 L0.7 -22.2 8.9 -23.65 Q9.55 -17.1 9.05 -10.65 8.55 -4.2 6.95 1.2 L10.55 0.5 18.1 0.3 Q16.15 -4.8 15.65 -11.65 15.1 -18.55 15.8 -23.9 L24.35 -22.85 Q23.65 -26.35 24.3 -29.85 L25.1 -33.6 25.1 -33.6" fill-rule="evenodd" stroke="none"/>
    </g>
    <g id="font_Coop_Flaired_h0">
      <path d="M23.75 0.9 L23.75 0.9 Q22.2 -2.75 22.4 -7.25 22.55 -11.7 22.0 -15.6 21.4 -19.5 17.55 -21.4 11.6 -23.55 7.55 -19.25 7.8 -27.4 10.15 -34.6 5.75 -33.2 2.65 -33.1 L-0.65 -33.05 Q1.5 -26.85 2.15 -16.7 2.8 -6.6 0.05 2.6 L3.2 1.4 Q6.2 0.3 10.45 0.15 7.55 -5.85 7.9 -11.05 8.25 -16.25 11.15 -16.6 13.15 -16.45 14.05 -13.5 14.95 -10.55 14.7 -6.3 14.5 -2.0 13.1 2.15 17.6 0.95 20.6 0.9 L23.75 0.9 23.75 0.9" fill-rule="evenodd" stroke="none"/>
    </g>
    <g id="font_Coop_Flaired_e0">
      <path d="M14.1 -12.05 L14.1 -12.05 12.3 -11.65 8.05 -11.2 Q9.1 -16.25 11.45 -16.25 14.15 -16.3 14.1 -12.05 L14.1 -12.05 M23.1 -6.55 L23.1 -6.55 20.0 -6.35 14.5 -6.75 Q14.5 -5.4 13.85 -4.3 13.2 -3.25 11.9 -3.15 10.75 -3.2 9.6 -4.5 8.45 -5.8 8.05 -8.05 L17.5 -8.85 22.2 -8.85 Q22.25 -13.0 21.25 -16.15 20.25 -19.25 17.35 -21.0 14.55 -22.5 11.3 -22.15 8.05 -21.75 5.55 -19.9 0.85 -16.55 0.7 -9.65 0.85 -5.15 3.9 -1.8 6.95 1.6 12.25 1.8 15.8 1.9 18.75 -0.05 21.7 -2.0 23.1 -6.55 L23.1 -6.55" fill-rule="evenodd" stroke="none"/>
    </g>
    <g id="font_Coop_Flaired_n0">
      <path d="M23.05 0.95 L23.05 0.95 Q21.15 -2.65 21.35 -7.45 21.5 -12.2 21.1 -16.35 20.7 -20.55 17.2 -22.4 14.9 -23.4 12.35 -23.05 9.8 -22.65 7.7 -20.75 L8.55 -23.5 Q5.9 -22.6 3.2 -22.55 L0.3 -22.6 Q2.2 -17.3 2.2 -10.9 2.2 -4.55 0.05 0.95 L3.15 -0.05 10.0 -0.35 Q7.15 -6.25 7.55 -11.55 8.0 -16.85 10.95 -17.4 13.05 -17.4 13.85 -14.25 14.6 -11.1 14.15 -6.55 13.75 -2.0 12.3 2.2 16.4 0.65 19.6 0.75 L23.05 0.95 23.05 0.95" fill-rule="evenodd" stroke="none"/>
    </g>
    <g id="font_Coop_Flaired_u0">
      <path d="M22.3 -22.65 L22.3 -22.65 19.1 -22.25 Q16.1 -22.0 12.3 -23.2 14.05 -20.0 14.45 -15.85 14.85 -11.7 14.05 -8.5 13.25 -5.25 11.4 -4.85 9.25 -4.7 8.55 -7.5 7.9 -10.35 8.35 -14.6 8.85 -18.8 10.3 -22.95 6.25 -21.75 3.1 -21.9 L-0.25 -22.15 Q1.35 -18.6 1.15 -14.1 0.95 -9.6 1.35 -5.7 1.75 -1.8 5.2 0.0 7.45 1.1 9.95 0.7 12.5 0.35 14.6 -1.6 L13.8 1.2 Q16.45 0.25 19.15 0.2 L22.1 0.2 Q20.15 -4.85 20.25 -11.35 20.35 -17.85 22.3 -22.65 L22.3 -22.65" fill-rule="evenodd" stroke="none"/>
    </g>
    <g id="font_Coop_Flaired_m0">
      <path d="M31.65 0.05 L31.65 0.05 Q30.05 -3.85 30.35 -8.6 30.65 -13.35 30.3 -17.4 29.95 -21.4 26.45 -23.15 24.4 -24.0 21.95 -23.55 19.55 -23.1 17.5 -21.0 15.55 -23.2 12.8 -23.15 10.1 -23.15 7.75 -21.0 L8.5 -23.5 Q5.9 -22.65 3.2 -22.6 L0.3 -22.6 Q2.25 -17.35 2.25 -11.05 2.25 -4.7 0.1 0.75 0.25 0.55 3.15 -0.25 L10.0 -0.5 Q8.2 -3.9 7.85 -7.75 7.5 -11.6 8.25 -14.4 8.95 -17.15 10.35 -17.4 11.9 -17.3 12.35 -13.85 12.8 -10.45 12.3 -5.9 11.8 -1.4 10.45 2.0 14.15 0.45 17.25 0.55 L20.6 0.75 Q19.45 -2.65 19.1 -6.9 18.75 -11.15 19.25 -14.3 19.8 -17.5 21.2 -17.65 22.7 -17.5 23.25 -14.5 23.8 -11.55 23.35 -7.6 22.9 -3.65 21.35 -0.6 25.2 -1.35 28.35 -0.75 L31.65 0.05 31.65 0.05" fill-rule="evenodd" stroke="none"/>
    </g>
    <g id="font_Coop_Flaired_b0">
      <path d="M16.7 -12.55 L16.7 -12.55 Q17.6 -10.9 17.4 -9.3 17.15 -7.75 15.45 -7.0 13.7 -6.4 11.85 -7.3 10.0 -8.25 9.0 -10.2 8.1 -12.1 8.5 -13.7 8.95 -15.3 10.2 -15.8 12.0 -16.35 13.85 -15.4 15.7 -14.4 16.7 -12.55 L16.7 -12.55 M24.8 -13.05 L24.8 -13.05 Q23.55 -16.75 20.55 -19.4 17.55 -22.1 12.9 -22.15 10.1 -22.1 8.05 -20.5 8.7 -29.05 10.85 -36.8 7.0 -35.5 3.7 -35.45 0.35 -35.4 0.15 -35.5 1.4 -31.7 2.15 -25.25 2.9 -18.85 2.6 -11.8 2.25 -4.8 0.3 0.75 L3.0 0.35 Q5.65 0.0 10.05 0.35 L9.3 -2.3 Q12.2 -0.4 15.35 -0.25 18.5 -0.1 20.7 -1.15 24.15 -2.9 25.1 -6.2 26.1 -9.5 24.8 -13.05 L24.8 -13.05" fill-rule="evenodd" stroke="none"/>
    </g>
    <g id="font_Coop_Flaired_r0">
      <path d="M19.8 -12.3 L19.8 -12.3 Q20.0 -18.35 17.9 -20.6 15.8 -22.85 13.5 -22.75 9.6 -22.7 7.65 -19.35 7.85 -20.75 8.4 -22.1 L9.0 -23.55 Q5.75 -22.55 3.1 -22.6 L0.25 -22.75 Q2.05 -18.1 2.05 -11.05 2.05 -4.0 0.3 1.4 5.1 -0.75 10.5 -0.05 7.35 -5.3 7.45 -10.6 7.6 -15.9 9.65 -16.55 10.95 -16.65 11.4 -15.1 11.9 -13.6 11.6 -11.35 14.55 -12.5 17.1 -12.45 L19.8 -12.3 19.8 -12.3" fill-rule="evenodd" stroke="none"/>
    </g>
    <g id="font_Coop_Flaired_o0">
      <path d="M15.9 -10.25 L15.9 -10.25 Q16.0 -8.3 15.2 -6.65 14.35 -4.95 12.35 -4.65 10.4 -4.5 9.05 -6.1 7.75 -7.65 7.7 -10.0 7.7 -12.15 8.8 -13.8 9.9 -15.5 11.9 -15.45 13.95 -15.2 14.9 -13.65 15.85 -12.1 15.9 -10.25 L15.9 -10.25 M22.65 -11.2 L22.65 -11.2 Q22.75 -15.55 19.9 -19.4 17.05 -23.25 11.65 -23.15 6.3 -22.7 3.55 -19.2 0.8 -15.7 0.7 -11.05 0.7 -6.1 4.0 -2.85 7.3 0.4 12.35 0.4 17.7 0.0 20.2 -3.5 22.65 -7.05 22.65 -11.2 L22.65 -11.2" fill-rule="evenodd" stroke="none"/>
    </g>
    <g id="font_Coop_Flaired_f0">
      <path d="M21.6 -23.1 L21.6 -23.1 Q21.55 -27.8 20.1 -30.5 L18.45 -33.3 Q15.45 -36.7 11.3 -36.55 7.15 -36.45 4.4 -33.55 2.05 -30.8 1.85 -27.15 1.7 -23.45 2.3 -18.95 L-0.05 -19.2 0.65 -17.15 Q1.25 -15.25 1.0 -13.35 L2.75 -13.75 Q3.55 -6.85 1.05 1.4 L4.55 0.7 Q7.8 0.15 11.95 0.8 10.55 -2.25 9.6 -6.25 8.7 -10.3 8.3 -14.45 L13.5 -14.45 15.65 -14.3 Q15.5 -16.65 16.0 -18.45 L16.55 -20.4 Q12.4 -19.0 8.05 -18.85 7.95 -23.3 8.55 -26.25 9.15 -29.25 10.45 -29.5 11.6 -29.5 11.8 -27.3 12.0 -25.1 11.35 -22.4 L14.45 -23.0 Q17.45 -23.45 21.6 -23.1 L21.6 -23.1" fill-rule="evenodd" stroke="none"/>
    </g>
    <g id="font_Coop_Flaired_p0">
      <path d="M16.95 -12.15 L16.95 -12.15 Q16.95 -10.15 15.7 -8.75 14.45 -7.35 12.4 -7.5 8.5 -8.35 8.35 -12.15 8.25 -13.8 9.1 -15.4 9.9 -17.0 12.0 -17.2 14.05 -17.2 15.45 -15.75 16.85 -14.3 16.95 -12.15 L16.95 -12.15 M24.0 -12.25 L24.0 -12.25 Q23.85 -16.75 20.75 -19.75 17.65 -22.7 12.9 -22.75 9.9 -22.7 7.9 -21.3 L8.85 -24.0 6.05 -23.5 Q3.4 -23.1 0.1 -23.6 1.2 -19.65 1.7 -13.0 2.2 -6.35 1.75 1.05 1.3 8.4 -0.45 14.6 3.45 12.65 6.7 12.4 L10.2 12.2 Q7.9 5.7 6.95 -3.55 9.65 -0.35 13.95 -0.4 18.85 -0.75 21.45 -4.15 24.0 -7.6 24.0 -12.25 L24.0 -12.25" fill-rule="evenodd" stroke="none"/>
    </g>
    <g id="font_Coop_Flaired_i0">
      <path d="M10.45 -0.2 L10.45 -0.2 Q8.35 -4.9 8.4 -11.65 8.4 -18.35 9.65 -22.8 6.65 -22.0 3.95 -22.1 L1.05 -22.35 Q2.9 -17.55 2.65 -11.1 2.4 -4.6 0.25 0.2 L3.4 -0.35 Q6.35 -0.75 10.45 -0.2 L10.45 -0.2 M10.4 -30.3 L10.4 -30.3 Q9.9 -32.25 7.75 -33.1 L3.35 -33.3 Q1.2 -32.55 0.4 -31.0 -0.4 -29.5 -0.05 -28.0 0.3 -26.5 1.8 -25.4 3.3 -24.3 5.8 -24.7 8.35 -25.25 9.5 -26.85 10.7 -28.5 10.4 -30.3 L10.4 -30.3" fill-rule="evenodd" stroke="none"/>
    </g>
    <g id="font_Coop_Flaired_t0">
      <path d="M18.5 -13.3 L18.5 -13.3 Q15.15 -12.0 12.5 -12.45 L9.65 -13.05 Q10.4 -10.55 10.4 -8.15 10.35 -5.7 9.4 -5.35 8.3 -5.4 8.05 -9.5 7.8 -13.65 8.25 -19.35 L13.45 -18.65 15.6 -18.05 Q15.0 -21.55 15.4 -23.6 L15.95 -25.75 Q12.3 -24.65 8.75 -24.55 9.55 -31.05 10.95 -34.6 7.2 -33.2 3.9 -33.05 L0.35 -33.0 Q2.15 -29.05 2.5 -24.7 L-0.95 -25.1 Q-0.8 -25.0 -0.35 -22.95 0.15 -20.85 -0.35 -18.15 L2.55 -18.95 2.0 -7.7 Q1.85 -2.65 4.5 -0.05 7.6 2.5 11.05 1.95 14.5 1.45 16.4 -1.0 18.15 -3.55 18.5 -6.9 18.85 -10.2 18.5 -13.3 L18.5 -13.3" fill-rule="evenodd" stroke="none"/>
    </g>
    <g id="font_Coop_Flaired_s0">
      <path d="M20.65 -5.75 L20.65 -5.75 Q20.2 -9.1 17.3 -10.25 14.4 -11.45 11.6 -12.15 8.8 -12.9 8.65 -15.0 8.95 -17.1 10.8 -16.8 12.6 -16.55 12.85 -13.85 L15.45 -14.7 20.65 -15.55 Q19.75 -17.75 17.9 -20.35 16.05 -22.9 10.9 -23.35 6.65 -23.45 3.95 -21.35 1.25 -19.2 1.35 -15.9 1.75 -12.35 4.55 -11.0 7.4 -9.65 10.1 -8.95 12.8 -8.25 12.95 -6.6 12.7 -4.9 10.7 -5.0 8.7 -5.15 8.2 -8.3 L5.65 -7.45 Q3.25 -6.7 0.05 -6.9 2.6 0.95 11.35 1.2 14.95 1.15 17.8 -0.6 20.7 -2.4 20.65 -5.75 L20.65 -5.75" fill-rule="evenodd" stroke="none"/>
    </g>
    <g id="font_Coop_Flaired_y0">
      <path d="M22.55 -22.4 L22.55 -22.4 19.35 -21.95 12.5 -22.5 Q14.1 -18.95 14.45 -14.95 14.8 -10.9 14.0 -7.9 13.2 -4.95 11.35 -4.55 9.3 -4.45 8.7 -7.45 8.1 -10.5 8.6 -14.85 9.15 -19.2 10.5 -23.0 6.55 -21.8 3.35 -21.95 L0.05 -22.2 Q1.65 -18.6 1.4 -14.05 1.15 -9.55 1.5 -5.6 1.9 -1.65 5.4 0.15 8.25 1.4 11.2 0.55 14.15 -0.35 15.8 -3.3 16.1 0.95 15.3 4.75 14.5 8.6 12.55 9.25 11.0 9.55 10.05 8.05 9.05 6.55 9.65 3.05 L4.2 3.2 0.9 2.55 Q0.65 10.85 4.1 13.75 7.6 16.65 12.7 15.1 16.8 14.0 18.95 10.85 21.1 7.7 21.65 1.9 22.1 -5.1 21.65 -10.55 21.2 -15.95 22.55 -22.4 L22.55 -22.4" fill-rule="evenodd" stroke="none"/>
    </g>
    <g id="font_Coop_Flaired_w0">
      <path d="M30.5 -23.4 L30.5 -23.4 27.45 -22.55 Q24.55 -21.85 20.6 -22.55 22.35 -19.2 22.75 -15.0 23.15 -10.8 22.55 -7.75 21.95 -4.65 20.65 -4.65 19.15 -4.95 18.6 -7.7 18.05 -10.4 18.4 -14.1 18.7 -17.8 19.95 -21.0 L13.95 -20.7 10.95 -21.15 Q12.1 -17.8 12.4 -14.0 12.75 -10.15 12.2 -7.45 11.65 -4.7 10.2 -4.55 8.75 -4.75 8.3 -8.05 7.9 -11.35 8.45 -15.65 9.05 -19.9 10.6 -23.0 6.6 -21.8 3.45 -22.15 L0.15 -22.7 Q1.75 -18.8 1.25 -14.1 0.75 -9.4 0.95 -5.3 1.15 -1.2 4.8 0.85 7.05 1.95 9.9 1.35 12.7 0.75 14.85 -1.8 17.8 1.35 21.95 1.35 26.1 1.3 28.35 -2.4 29.65 -5.15 29.5 -8.2 L29.15 -14.95 Q29.0 -18.7 30.5 -23.4 L30.5 -23.4" fill-rule="evenodd" stroke="none"/>
    </g>
    <g id="font_Coop_Flaired_d0">
      <path d="M17.15 -9.15 L17.15 -9.15 Q16.1 -7.05 14.2 -6.15 12.3 -5.25 10.45 -5.8 8.7 -6.4 8.4 -8.1 8.1 -9.8 9.2 -11.7 10.25 -13.5 12.15 -14.4 14.1 -15.3 15.95 -14.8 17.25 -14.35 17.7 -12.75 18.1 -11.2 17.15 -9.15 L17.15 -9.15 M27.4 -35.6 L27.4 -35.6 Q23.4 -34.3 20.15 -34.1 L16.8 -34.0 Q17.75 -31.65 18.55 -27.65 19.3 -23.6 19.65 -18.75 17.3 -21.55 13.05 -21.55 8.5 -21.45 5.45 -18.6 2.4 -15.75 1.3 -12.2 0.2 -8.45 1.1 -5.15 2.0 -1.8 5.4 -0.05 7.95 1.15 11.75 0.6 15.6 0.1 18.5 -3.05 18.0 -0.8 17.15 1.15 L19.85 0.75 Q22.5 0.4 26.9 0.75 25.15 -5.3 25.1 -15.5 25.0 -25.75 27.4 -35.6 L27.4 -35.6" fill-rule="evenodd" stroke="none"/>
    </g>
    <g id="font_Coop_Flaired_c0">
      <path d="M23.1 -12.95 L23.1 -12.95 Q22.6 -15.2 21.1 -17.85 19.65 -20.5 16.5 -22.0 13.15 -23.45 9.7 -22.7 6.25 -21.95 3.55 -19.0 0.85 -15.8 0.7 -10.65 0.55 -5.5 4.55 -1.5 9.25 2.45 15.1 0.95 21.0 -0.55 22.9 -6.45 L19.05 -6.5 Q16.8 -6.65 14.7 -7.35 13.75 -3.8 11.1 -4.1 8.15 -4.65 7.45 -9.05 7.25 -11.25 8.3 -13.35 9.3 -15.4 10.9 -15.6 12.35 -15.6 13.15 -14.3 13.95 -13.05 14.05 -11.15 18.45 -12.85 23.1 -12.95 L23.1 -12.95" fill-rule="evenodd" stroke="none"/>
    </g>
    <g id="font_Coop_Flaired_g0">
      <path d="M17.4 -10.0 L17.4 -10.0 Q16.85 -8.0 15.1 -6.85 13.35 -5.75 11.45 -6.0 9.6 -6.4 9.0 -7.9 8.45 -9.45 9.1 -11.35 11.1 -15.85 15.4 -15.5 16.8 -15.15 17.35 -13.6 17.95 -12.05 17.4 -10.0 L17.4 -10.0 M24.65 -24.8 L24.65 -24.8 21.7 -23.85 15.75 -23.4 16.75 -21.0 Q15.3 -21.85 13.15 -22.0 8.65 -21.8 5.5 -18.9 2.4 -15.95 1.3 -12.45 0.2 -8.75 1.1 -5.4 2.0 -2.05 5.4 -0.2 8.05 1.05 11.95 0.3 15.8 -0.5 18.6 -4.45 18.45 0.8 17.5 4.5 16.6 8.2 15.1 8.75 11.2 9.9 11.65 2.25 L6.0 2.4 2.6 1.8 Q2.05 10.35 5.95 13.3 9.85 16.2 15.05 14.8 23.0 12.45 24.2 1.35 24.7 -5.8 24.15 -11.85 23.55 -17.95 24.65 -24.8 L24.65 -24.8" fill-rule="evenodd" stroke="none"/>
    </g>
    <g id="font_Coop_Flaired_k0">
      <path d="M24.35 0.0 L24.35 0.0 Q22.75 -2.8 21.65 -7.35 20.5 -11.85 15.3 -13.4 18.2 -15.1 20.0 -18.05 21.75 -21.05 24.2 -23.1 L20.5 -23.15 Q17.05 -23.35 13.0 -24.7 13.7 -21.25 12.3 -18.35 10.95 -15.45 8.85 -14.5 8.7 -17.4 9.0 -21.7 9.3 -26.0 9.95 -30.25 10.65 -34.5 11.5 -37.2 6.15 -35.0 0.1 -35.8 1.5 -31.8 2.3 -25.25 3.1 -18.65 2.75 -11.4 2.4 -4.2 0.35 1.75 5.25 0.15 10.75 1.0 9.1 -2.3 9.0 -6.0 8.95 -9.7 10.85 -10.2 13.1 -10.05 13.95 -6.25 14.8 -2.4 13.65 1.8 15.75 0.75 18.65 0.3 L24.35 0.0 24.35 0.0" fill-rule="evenodd" stroke="none"/>
    </g>
    <g id="font_Coop_Flaired_.0">
      <path d="M8.9 -3.9 L8.9 -3.9 Q8.55 -5.5 6.8 -6.15 L3.25 -6.35 Q1.55 -5.7 0.9 -4.45 0.25 -3.25 0.5 -2.05 0.75 -0.8 2.0 0.1 3.2 1.0 5.25 0.7 7.25 0.25 8.25 -1.1 9.2 -2.4 8.9 -3.9 L8.9 -3.9" fill-rule="evenodd" stroke="none"/>
    </g>
    <g id="font_Coop_Flaired_I0">
      <path d="M11.25 -33.6 L11.25 -33.6 Q8.1 -32.8 4.45 -32.8 L0.45 -32.8 Q1.65 -28.25 2.15 -22.0 2.6 -15.7 2.35 -9.3 2.1 -2.9 1.15 2.0 4.7 0.9 7.45 0.8 L10.35 0.8 Q8.9 -6.65 9.1 -16.35 9.25 -26.05 11.25 -33.6 L11.25 -33.6" fill-rule="evenodd" stroke="none"/>
    </g>
    <g id="font_Coop_Flaired_a0">
      <path d="M15.7 -6.5 L15.7 -6.5 Q15.6 -5.2 14.55 -4.6 13.5 -4.0 12.3 -4.0 9.35 -4.0 8.8 -6.05 8.75 -6.9 9.7 -7.75 10.65 -8.65 12.35 -8.8 15.65 -8.5 15.7 -6.5 L15.7 -6.5 M22.8 1.35 L22.8 1.35 Q22.0 -3.05 22.3 -7.15 22.6 -11.2 22.2 -15.3 21.75 -18.6 19.25 -21.0 16.7 -23.4 11.45 -23.15 7.55 -22.9 4.65 -20.65 1.8 -18.4 1.55 -14.15 L8.4 -14.5 11.55 -14.05 Q11.6 -16.55 13.6 -16.6 15.6 -16.3 16.3 -11.5 14.35 -12.7 10.7 -12.75 5.9 -12.65 3.05 -10.45 0.15 -8.25 0.55 -5.1 1.15 -2.15 4.0 -0.6 6.85 0.9 10.55 0.8 13.2 0.7 15.5 -0.5 L14.75 1.6 17.1 1.15 22.8 1.35 22.8 1.35" fill-rule="evenodd" stroke="none"/>
    </g>
    <g id="font_Coop_Flaired__1">
      <path d="M9.0 -2.8 L9.0 -2.8 Q8.9 -4.45 7.55 -5.5 6.2 -6.6 4.3 -6.5 2.35 -6.25 1.45 -5.2 0.5 -4.15 0.45 -2.9 0.4 -1.7 1.4 -0.45 2.4 0.75 4.55 0.8 4.55 2.1 3.95 3.05 L3.3 4.0 Q5.9 3.45 7.5 1.6 9.1 -0.25 9.0 -2.8 L9.0 -2.8" fill-rule="evenodd" stroke="none"/>
    </g>
    <g id="font_Coop_Flaired__2">
      <path d="M8.25 -28.4 L8.25 -28.4 Q8.55 -30.0 7.7 -31.3 6.9 -32.6 5.2 -32.9 1.7 -33.3 0.55 -30.2 0.2 -28.7 0.95 -27.45 1.7 -26.2 3.25 -25.95 2.85 -24.9 1.85 -24.25 L0.7 -23.6 Q3.1 -23.55 5.4 -24.75 7.65 -25.95 8.25 -28.4 L8.25 -28.4" fill-rule="evenodd" stroke="none"/>
    </g>
    <g id="font_Coop_Flaired_l0">
      <path d="M11.2 -38.85 L11.2 -38.85 Q7.4 -37.0 4.0 -36.7 L0.4 -36.5 Q1.7 -33.2 2.5 -26.4 3.35 -19.6 3.0 -11.95 2.65 -4.35 0.45 1.4 L3.65 0.55 Q6.65 -0.1 11.0 0.6 9.85 -3.45 9.35 -10.55 8.85 -17.65 9.2 -25.35 9.6 -33.0 11.2 -38.85 L11.2 -38.85" fill-rule="evenodd" stroke="none"/>
    </g>
  </defs>
</svg>
