<?xml version="1.0" encoding="UTF-8" standalone="no"?>
<svg xmlns:xlink="http://www.w3.org/1999/xlink" height="16.35px" width="139.25px" xmlns="http://www.w3.org/2000/svg">
  <g transform="matrix(1.0, 0.0, 0.0, 1.0, -0.05, -1.2)">
    <g transform="matrix(1.0, 0.0, 0.0, 1.0, 0.0, 0.0)">
      <use fill="#006699" height="16.35" transform="matrix(0.3125, 0.0, 0.0, 0.3125, 0.0, 13.0)" width="139.25" xlink:href="#font_Coop_Flaired_30"/>
      <use fill="#006699" height="16.35" transform="matrix(0.3125, 0.0, 0.0, 0.3125, 7.85, 13.0)" width="139.25" xlink:href="#font_Coop_Flaired_.0"/>
    </g>
    <g transform="matrix(1.0, 0.0, 0.0, 1.0, 0.0, 0.0)">
      <use fill="#0a4382" height="16.35" transform="matrix(0.3125, 0.0, 0.0, 0.3125, 14.15, 13.0)" width="139.25" xlink:href="#font_Coop_Flaired_K0"/>
      <use fill="#0a4382" height="16.35" transform="matrix(0.3125, 0.0, 0.0, 0.3125, 21.6, 13.0)" width="139.25" xlink:href="#font_Coop_Flaired_n0"/>
      <use fill="#0a4382" height="16.35" transform="matrix(0.3125, 0.0, 0.0, 0.3125, 28.0, 13.0)" width="139.25" xlink:href="#font_Coop_Flaired_o0"/>
      <use fill="#0a4382" height="16.35" transform="matrix(0.3125, 0.0, 0.0, 0.3125, 34.6, 13.0)" width="139.25" xlink:href="#font_Coop_Flaired_c0"/>
      <use fill="#0a4382" height="16.35" transform="matrix(0.3125, 0.0, 0.0, 0.3125, 41.3, 13.0)" width="139.25" xlink:href="#font_Coop_Flaired_k0"/>
      <use fill="#0a4382" height="16.35" transform="matrix(0.3125, 0.0, 0.0, 0.3125, 51.85, 13.0)" width="139.25" xlink:href="#font_Coop_Flaired_D0"/>
      <use fill="#0a4382" height="16.35" transform="matrix(0.3125, 0.0, 0.0, 0.3125, 59.8, 13.0)" width="139.25" xlink:href="#font_Coop_Flaired_o0"/>
      <use fill="#0a4382" height="16.35" transform="matrix(0.3125, 0.0, 0.0, 0.3125, 66.4, 13.0)" width="139.25" xlink:href="#font_Coop_Flaired_w0"/>
      <use fill="#0a4382" height="16.35" transform="matrix(0.3125, 0.0, 0.0, 0.3125, 75.0, 13.0)" width="139.25" xlink:href="#font_Coop_Flaired_n0"/>
      <use fill="#0a4382" height="16.35" transform="matrix(0.3125, 0.0, 0.0, 0.3125, 85.0, 13.0)" width="139.25" xlink:href="#font_Coop_Flaired_t0"/>
      <use fill="#0a4382" height="16.35" transform="matrix(0.3125, 0.0, 0.0, 0.3125, 90.5, 13.0)" width="139.25" xlink:href="#font_Coop_Flaired_h0"/>
      <use fill="#0a4382" height="16.35" transform="matrix(0.3125, 0.0, 0.0, 0.3125, 97.25, 13.0)" width="139.25" xlink:href="#font_Coop_Flaired_e0"/>
      <use fill="#0a4382" height="16.35" transform="matrix(0.3125, 0.0, 0.0, 0.3125, 107.5, 13.0)" width="139.25" xlink:href="#font_Coop_Flaired_C0"/>
      <use fill="#0a4382" height="16.35" transform="matrix(0.3125, 0.0, 0.0, 0.3125, 115.65, 13.0)" width="139.25" xlink:href="#font_Coop_Flaired_o0"/>
      <use fill="#0a4382" height="16.35" transform="matrix(0.3125, 0.0, 0.0, 0.3125, 122.25, 13.0)" width="139.25" xlink:href="#font_Coop_Flaired_g0"/>
      <use fill="#0a4382" height="16.35" transform="matrix(0.3125, 0.0, 0.0, 0.3125, 129.45, 13.0)" width="139.25" xlink:href="#font_Coop_Flaired_s0"/>
      <use fill="#0a4382" height="16.35" transform="matrix(0.3125, 0.0, 0.0, 0.3125, 135.4, 13.0)" width="139.25" xlink:href="#font_Coop_Flaired__1"/>
    </g>
  </g>
  <defs>
    <g id="font_Coop_Flaired_30">
      <path d="M26.9 -9.55 L26.9 -9.55 Q26.8 -11.5 25.4 -13.3 24.0 -15.1 21.75 -15.95 23.7 -16.95 25.1 -18.9 26.5 -20.8 26.4 -23.8 25.95 -28.3 22.3 -31.0 18.65 -33.7 13.65 -33.75 6.25 -33.5 3.45 -29.05 0.6 -24.6 0.25 -19.4 3.1 -19.7 5.25 -19.45 L10.7 -18.3 Q11.4 -24.1 15.1 -24.0 17.45 -23.5 17.4 -20.85 17.25 -18.8 15.3 -17.45 13.3 -16.1 10.05 -16.0 11.1 -14.55 11.6 -13.0 L12.1 -11.35 Q14.7 -12.95 16.35 -12.5 18.05 -12.05 18.5 -10.75 19.0 -9.1 18.2 -7.4 17.4 -5.75 15.3 -5.45 11.7 -5.55 10.8 -9.35 L6.05 -8.4 0.3 -8.75 Q1.45 -5.55 4.25 -2.25 7.05 1.05 13.65 1.4 20.9 1.25 24.0 -2.45 27.15 -6.15 26.9 -9.55 L26.9 -9.55" fill-rule="evenodd" stroke="none"/>
    </g>
    <g id="font_Coop_Flaired_.0">
      <path d="M8.9 -3.9 L8.9 -3.9 Q8.55 -5.5 6.8 -6.15 L3.25 -6.35 Q1.55 -5.7 0.9 -4.45 0.25 -3.25 0.5 -2.05 0.75 -0.8 2.0 0.1 3.2 1.0 5.25 0.7 7.25 0.25 8.25 -1.1 9.2 -2.4 8.9 -3.9 L8.9 -3.9" fill-rule="evenodd" stroke="none"/>
    </g>
    <g id="font_Coop_Flaired_K0">
      <path d="M27.05 -32.75 L27.05 -32.75 21.0 -31.9 14.35 -32.5 Q15.25 -28.85 13.65 -24.7 12.05 -20.55 9.5 -17.65 9.3 -25.9 11.15 -33.6 8.65 -32.75 4.75 -32.65 L0.45 -32.6 Q1.8 -28.2 2.55 -22.05 3.35 -15.85 3.35 -9.5 3.4 -3.2 2.65 1.75 6.1 0.75 9.05 0.6 L12.2 0.5 Q10.6 -4.95 9.9 -11.15 L12.05 -12.8 Q15.1 -11.15 16.0 -7.1 16.95 -3.05 15.35 1.8 21.65 -0.25 27.05 0.55 25.55 -2.35 24.6 -5.7 23.7 -9.0 21.8 -11.9 19.9 -14.8 15.45 -16.35 19.15 -20.65 22.0 -25.2 L27.05 -32.75 27.05 -32.75" fill-rule="evenodd" stroke="none"/>
    </g>
    <g id="font_Coop_Flaired_n0">
      <path d="M23.05 0.95 L23.05 0.95 Q21.15 -2.65 21.35 -7.45 21.5 -12.2 21.1 -16.35 20.7 -20.55 17.2 -22.4 14.9 -23.4 12.35 -23.05 9.8 -22.65 7.7 -20.75 L8.55 -23.5 Q5.9 -22.6 3.2 -22.55 L0.3 -22.6 Q2.2 -17.3 2.2 -10.9 2.2 -4.55 0.05 0.95 L3.15 -0.05 10.0 -0.35 Q7.15 -6.25 7.55 -11.55 8.0 -16.85 10.95 -17.4 13.05 -17.4 13.85 -14.25 14.6 -11.1 14.15 -6.55 13.75 -2.0 12.3 2.2 16.4 0.65 19.6 0.75 L23.05 0.95 23.05 0.95" fill-rule="evenodd" stroke="none"/>
    </g>
    <g id="font_Coop_Flaired_o0">
      <path d="M15.9 -10.25 L15.9 -10.25 Q16.0 -8.3 15.2 -6.65 14.35 -4.95 12.35 -4.65 10.4 -4.5 9.05 -6.1 7.75 -7.65 7.7 -10.0 7.7 -12.15 8.8 -13.8 9.9 -15.5 11.9 -15.45 13.95 -15.2 14.9 -13.65 15.85 -12.1 15.9 -10.25 L15.9 -10.25 M22.65 -11.2 L22.65 -11.2 Q22.75 -15.55 19.9 -19.4 17.05 -23.25 11.65 -23.15 6.3 -22.7 3.55 -19.2 0.8 -15.7 0.7 -11.05 0.7 -6.1 4.0 -2.85 7.3 0.4 12.35 0.4 17.7 0.0 20.2 -3.5 22.65 -7.05 22.65 -11.2 L22.65 -11.2" fill-rule="evenodd" stroke="none"/>
    </g>
    <g id="font_Coop_Flaired_c0">
      <path d="M23.1 -12.95 L23.1 -12.95 Q22.6 -15.2 21.1 -17.85 19.65 -20.5 16.5 -22.0 13.15 -23.45 9.7 -22.7 6.25 -21.95 3.55 -19.0 0.85 -15.8 0.7 -10.65 0.55 -5.5 4.55 -1.5 9.25 2.45 15.1 0.95 21.0 -0.55 22.9 -6.45 L19.05 -6.5 Q16.8 -6.65 14.7 -7.35 13.75 -3.8 11.1 -4.1 8.15 -4.65 7.45 -9.05 7.25 -11.25 8.3 -13.35 9.3 -15.4 10.9 -15.6 12.35 -15.6 13.15 -14.3 13.95 -13.05 14.05 -11.15 18.45 -12.85 23.1 -12.95 L23.1 -12.95" fill-rule="evenodd" stroke="none"/>
    </g>
    <g id="font_Coop_Flaired_k0">
      <path d="M24.35 0.0 L24.35 0.0 Q22.75 -2.8 21.65 -7.35 20.5 -11.85 15.3 -13.4 18.2 -15.1 20.0 -18.05 21.75 -21.05 24.2 -23.1 L20.5 -23.15 Q17.05 -23.35 13.0 -24.7 13.7 -21.25 12.3 -18.35 10.95 -15.45 8.85 -14.5 8.7 -17.4 9.0 -21.7 9.3 -26.0 9.95 -30.25 10.65 -34.5 11.5 -37.2 6.15 -35.0 0.1 -35.8 1.5 -31.8 2.3 -25.25 3.1 -18.65 2.75 -11.4 2.4 -4.2 0.35 1.75 5.25 0.15 10.75 1.0 9.1 -2.3 9.0 -6.0 8.95 -9.7 10.85 -10.2 13.1 -10.05 13.95 -6.25 14.8 -2.4 13.65 1.8 15.75 0.75 18.65 0.3 L24.35 0.0 24.35 0.0" fill-rule="evenodd" stroke="none"/>
    </g>
    <g id="font_Coop_Flaired_D0">
      <path d="M18.95 -13.15 L18.95 -13.15 Q17.85 -5.5 9.85 -4.8 9.35 -9.05 9.5 -14.5 9.7 -19.95 10.35 -23.5 15.8 -23.7 17.8 -20.75 19.75 -17.75 18.95 -13.15 L18.95 -13.15 M25.15 -25.75 L25.15 -25.75 Q22.0 -31.6 15.2 -32.85 8.45 -34.05 0.15 -32.55 1.65 -28.1 2.4 -21.75 3.2 -15.45 3.1 -9.2 3.05 -2.95 2.0 1.35 L12.85 0.9 Q18.1 -0.1 21.6 -3.45 25.45 -7.35 26.7 -13.45 27.95 -19.6 25.15 -25.75 L25.15 -25.75" fill-rule="evenodd" stroke="none"/>
    </g>
    <g id="font_Coop_Flaired_w0">
      <path d="M30.5 -23.4 L30.5 -23.4 27.45 -22.55 Q24.55 -21.85 20.6 -22.55 22.35 -19.2 22.75 -15.0 23.15 -10.8 22.55 -7.75 21.95 -4.65 20.65 -4.65 19.15 -4.95 18.6 -7.7 18.05 -10.4 18.4 -14.1 18.7 -17.8 19.95 -21.0 L13.95 -20.7 10.95 -21.15 Q12.1 -17.8 12.4 -14.0 12.75 -10.15 12.2 -7.45 11.65 -4.7 10.2 -4.55 8.75 -4.75 8.3 -8.05 7.9 -11.35 8.45 -15.65 9.05 -19.9 10.6 -23.0 6.6 -21.8 3.45 -22.15 L0.15 -22.7 Q1.75 -18.8 1.25 -14.1 0.75 -9.4 0.95 -5.3 1.15 -1.2 4.8 0.85 7.05 1.95 9.9 1.35 12.7 0.75 14.85 -1.8 17.8 1.35 21.95 1.35 26.1 1.3 28.35 -2.4 29.65 -5.15 29.5 -8.2 L29.15 -14.95 Q29.0 -18.7 30.5 -23.4 L30.5 -23.4" fill-rule="evenodd" stroke="none"/>
    </g>
    <g id="font_Coop_Flaired_t0">
      <path d="M18.5 -13.3 L18.5 -13.3 Q15.15 -12.0 12.5 -12.45 L9.65 -13.05 Q10.4 -10.55 10.4 -8.15 10.35 -5.7 9.4 -5.35 8.3 -5.4 8.05 -9.5 7.8 -13.65 8.25 -19.35 L13.45 -18.65 15.6 -18.05 Q15.0 -21.55 15.4 -23.6 L15.95 -25.75 Q12.3 -24.65 8.75 -24.55 9.55 -31.05 10.95 -34.6 7.2 -33.2 3.9 -33.05 L0.35 -33.0 Q2.15 -29.05 2.5 -24.7 L-0.95 -25.1 Q-0.8 -25.0 -0.35 -22.95 0.15 -20.85 -0.35 -18.15 L2.55 -18.95 2.0 -7.7 Q1.85 -2.65 4.5 -0.05 7.6 2.5 11.05 1.95 14.5 1.45 16.4 -1.0 18.15 -3.55 18.5 -6.9 18.85 -10.2 18.5 -13.3 L18.5 -13.3" fill-rule="evenodd" stroke="none"/>
    </g>
    <g id="font_Coop_Flaired_h0">
      <path d="M23.75 0.9 L23.75 0.9 Q22.2 -2.75 22.4 -7.25 22.55 -11.7 22.0 -15.6 21.4 -19.5 17.55 -21.4 11.6 -23.55 7.55 -19.25 7.8 -27.4 10.15 -34.6 5.75 -33.2 2.65 -33.1 L-0.65 -33.05 Q1.5 -26.85 2.15 -16.7 2.8 -6.6 0.05 2.6 L3.2 1.4 Q6.2 0.3 10.45 0.15 7.55 -5.85 7.9 -11.05 8.25 -16.25 11.15 -16.6 13.15 -16.45 14.05 -13.5 14.95 -10.55 14.7 -6.3 14.5 -2.0 13.1 2.15 17.6 0.95 20.6 0.9 L23.75 0.9 23.75 0.9" fill-rule="evenodd" stroke="none"/>
    </g>
    <g id="font_Coop_Flaired_e0">
      <path d="M14.1 -12.05 L14.1 -12.05 12.3 -11.65 8.05 -11.2 Q9.1 -16.25 11.45 -16.25 14.15 -16.3 14.1 -12.05 L14.1 -12.05 M23.1 -6.55 L23.1 -6.55 20.0 -6.35 14.5 -6.75 Q14.5 -5.4 13.85 -4.3 13.2 -3.25 11.9 -3.15 10.75 -3.2 9.6 -4.5 8.45 -5.8 8.05 -8.05 L17.5 -8.85 22.2 -8.85 Q22.25 -13.0 21.25 -16.15 20.25 -19.25 17.35 -21.0 14.55 -22.5 11.3 -22.15 8.05 -21.75 5.55 -19.9 0.85 -16.55 0.7 -9.65 0.85 -5.15 3.9 -1.8 6.95 1.6 12.25 1.8 15.8 1.9 18.75 -0.05 21.7 -2.0 23.1 -6.55 L23.1 -6.55" fill-rule="evenodd" stroke="none"/>
    </g>
    <g id="font_Coop_Flaired_C0">
      <path d="M28.2 -19.0 L28.2 -19.0 Q27.6 -22.25 26.4 -25.9 25.15 -29.6 21.75 -31.9 18.9 -33.6 15.35 -33.6 11.8 -33.55 8.55 -32.1 5.55 -30.95 2.95 -26.75 0.3 -22.6 1.15 -13.85 1.95 -7.65 4.35 -4.3 6.75 -1.0 9.75 0.4 13.6 2.4 19.1 1.0 24.6 -0.45 26.95 -8.2 23.95 -7.85 21.3 -8.2 L18.4 -8.65 Q18.15 -7.0 17.1 -5.75 16.05 -4.55 14.25 -4.65 10.65 -4.8 9.2 -12.2 8.75 -15.4 9.55 -19.15 10.3 -22.9 12.6 -23.85 15.4 -24.45 16.55 -22.0 17.7 -19.5 17.8 -17.15 21.75 -18.4 24.9 -18.75 L28.2 -19.0 28.2 -19.0" fill-rule="evenodd" stroke="none"/>
    </g>
    <g id="font_Coop_Flaired_g0">
      <path d="M17.4 -10.0 L17.4 -10.0 Q16.85 -8.0 15.1 -6.85 13.35 -5.75 11.45 -6.0 9.6 -6.4 9.0 -7.9 8.45 -9.45 9.1 -11.35 11.1 -15.85 15.4 -15.5 16.8 -15.15 17.35 -13.6 17.95 -12.05 17.4 -10.0 L17.4 -10.0 M24.65 -24.8 L24.65 -24.8 21.7 -23.85 15.75 -23.4 16.75 -21.0 Q15.3 -21.85 13.15 -22.0 8.65 -21.8 5.5 -18.9 2.4 -15.95 1.3 -12.45 0.2 -8.75 1.1 -5.4 2.0 -2.05 5.4 -0.2 8.05 1.05 11.95 0.3 15.8 -0.5 18.6 -4.45 18.45 0.8 17.5 4.5 16.6 8.2 15.1 8.75 11.2 9.9 11.65 2.25 L6.0 2.4 2.6 1.8 Q2.05 10.35 5.95 13.3 9.85 16.2 15.05 14.8 23.0 12.45 24.2 1.35 24.7 -5.8 24.15 -11.85 23.55 -17.95 24.65 -24.8 L24.65 -24.8" fill-rule="evenodd" stroke="none"/>
    </g>
    <g id="font_Coop_Flaired_s0">
      <path d="M20.65 -5.75 L20.65 -5.75 Q20.2 -9.1 17.3 -10.25 14.4 -11.45 11.6 -12.15 8.8 -12.9 8.65 -15.0 8.95 -17.1 10.8 -16.8 12.6 -16.55 12.85 -13.85 L15.45 -14.7 20.65 -15.55 Q19.75 -17.75 17.9 -20.35 16.05 -22.9 10.9 -23.35 6.65 -23.45 3.95 -21.35 1.25 -19.2 1.35 -15.9 1.75 -12.35 4.55 -11.0 7.4 -9.65 10.1 -8.95 12.8 -8.25 12.95 -6.6 12.7 -4.9 10.7 -5.0 8.7 -5.15 8.2 -8.3 L5.65 -7.45 Q3.25 -6.7 0.05 -6.9 2.6 0.95 11.35 1.2 14.95 1.15 17.8 -0.6 20.7 -2.4 20.65 -5.75 L20.65 -5.75" fill-rule="evenodd" stroke="none"/>
    </g>
    <g id="font_Coop_Flaired__1">
      <path d="M10.9 -3.15 L10.9 -3.15 Q10.45 -4.75 8.6 -5.4 L4.75 -5.5 Q2.95 -4.85 2.25 -3.6 1.6 -2.35 1.9 -1.1 2.2 0.1 3.55 1.0 4.9 1.85 7.05 1.5 9.25 1.0 10.25 -0.35 11.25 -1.7 10.9 -3.15 L10.9 -3.15 M12.55 -34.85 L12.55 -34.85 Q8.9 -33.85 4.95 -33.7 L0.75 -33.6 Q1.65 -30.65 2.15 -25.9 2.7 -21.15 2.8 -16.25 2.95 -11.3 2.65 -7.7 L5.15 -7.75 10.15 -7.3 Q9.8 -13.1 10.35 -21.0 10.9 -28.95 12.55 -34.85 L12.55 -34.85" fill-rule="evenodd" stroke="none"/>
    </g>
  </defs>
</svg>
