<?xml version="1.0" encoding="UTF-8" standalone="no"?>
<svg xmlns:xlink="http://www.w3.org/1999/xlink" height="12.45px" width="65.35px" xmlns="http://www.w3.org/2000/svg">
  <g transform="matrix(1.0, 0.0, 0.0, 1.0, -0.1, -1.2)">
    <g transform="matrix(1.0, 0.0, 0.0, 1.0, 0.0, 0.0)">
      <use fill="#006699" height="12.45" transform="matrix(0.3125, 0.0, 0.0, 0.3125, 0.0, 13.0)" width="65.35" xlink:href="#font_Coop_Flaired_20"/>
      <use fill="#006699" height="12.45" transform="matrix(0.3125, 0.0, 0.0, 0.3125, 7.8, 13.0)" width="65.35" xlink:href="#font_Coop_Flaired_.0"/>
    </g>
    <g transform="matrix(1.0, 0.0, 0.0, 1.0, 0.0, 0.0)">
      <use fill="#0a4382" height="12.45" transform="matrix(0.3125, 0.0, 0.0, 0.3125, 14.1, 13.0)" width="65.35" xlink:href="#font_Coop_Flaired_T0"/>
      <use fill="#0a4382" height="12.45" transform="matrix(0.3125, 0.0, 0.0, 0.3125, 21.05, 13.0)" width="65.35" xlink:href="#font_Coop_Flaired_a0"/>
      <use fill="#0a4382" height="12.45" transform="matrix(0.3125, 0.0, 0.0, 0.3125, 27.7, 13.0)" width="65.35" xlink:href="#font_Coop_Flaired_k0"/>
      <use fill="#0a4382" height="12.45" transform="matrix(0.3125, 0.0, 0.0, 0.3125, 34.65, 13.0)" width="65.35" xlink:href="#font_Coop_Flaired_e0"/>
      <use fill="#0a4382" height="12.45" transform="matrix(0.3125, 0.0, 0.0, 0.3125, 44.9, 13.0)" width="65.35" xlink:href="#font_Coop_Flaired_A0"/>
      <use fill="#0a4382" height="12.45" transform="matrix(0.3125, 0.0, 0.0, 0.3125, 52.6, 13.0)" width="65.35" xlink:href="#font_Coop_Flaired_i0"/>
      <use fill="#0a4382" height="12.45" transform="matrix(0.3125, 0.0, 0.0, 0.3125, 55.55, 13.0)" width="65.35" xlink:href="#font_Coop_Flaired_m0"/>
    </g>
  </g>
  <defs>
    <g id="font_Coop_Flaired_20">
      <path d="M26.6 -23.45 L26.6 -23.45 Q26.6 -27.55 23.25 -30.5 19.85 -33.45 13.95 -33.55 5.2 -33.15 2.65 -28.65 0.1 -24.2 0.3 -19.6 L6.05 -19.8 10.65 -19.1 Q10.65 -22.75 12.2 -23.9 13.75 -25.05 15.25 -24.3 16.75 -23.55 16.55 -21.55 15.55 -18.45 11.3 -15.65 7.0 -12.8 3.5 -8.65 0.0 -4.45 1.4 2.75 13.9 -1.15 25.25 1.05 23.85 -3.7 25.45 -10.55 22.95 -7.95 18.45 -6.5 13.9 -5.1 9.95 -5.0 10.55 -9.25 14.5 -11.55 L22.35 -16.3 Q26.25 -18.75 26.6 -23.45 L26.6 -23.45" fill-rule="evenodd" stroke="none"/>
    </g>
    <g id="font_Coop_Flaired_.0">
      <path d="M8.9 -3.9 L8.9 -3.9 Q8.55 -5.5 6.8 -6.15 L3.25 -6.35 Q1.55 -5.7 0.9 -4.45 0.25 -3.25 0.5 -2.05 0.75 -0.8 2.0 0.1 3.2 1.0 5.25 0.7 7.25 0.25 8.25 -1.1 9.2 -2.4 8.9 -3.9 L8.9 -3.9" fill-rule="evenodd" stroke="none"/>
    </g>
    <g id="font_Coop_Flaired_T0">
      <path d="M25.1 -33.6 L25.1 -33.6 Q13.2 -31.45 -0.6 -32.8 0.95 -28.8 0.9 -25.55 L0.7 -22.2 8.9 -23.65 Q9.55 -17.1 9.05 -10.65 8.55 -4.2 6.95 1.2 L10.55 0.5 18.1 0.3 Q16.15 -4.8 15.65 -11.65 15.1 -18.55 15.8 -23.9 L24.35 -22.85 Q23.65 -26.35 24.3 -29.85 L25.1 -33.6 25.1 -33.6" fill-rule="evenodd" stroke="none"/>
    </g>
    <g id="font_Coop_Flaired_a0">
      <path d="M15.7 -6.5 L15.7 -6.5 Q15.6 -5.2 14.55 -4.6 13.5 -4.0 12.3 -4.0 9.35 -4.0 8.8 -6.05 8.75 -6.9 9.7 -7.75 10.65 -8.65 12.35 -8.8 15.65 -8.5 15.7 -6.5 L15.7 -6.5 M22.8 1.35 L22.8 1.35 Q22.0 -3.05 22.3 -7.15 22.6 -11.2 22.2 -15.3 21.75 -18.6 19.25 -21.0 16.7 -23.4 11.45 -23.15 7.55 -22.9 4.65 -20.65 1.8 -18.4 1.55 -14.15 L8.4 -14.5 11.55 -14.05 Q11.6 -16.55 13.6 -16.6 15.6 -16.3 16.3 -11.5 14.35 -12.7 10.7 -12.75 5.9 -12.65 3.05 -10.45 0.15 -8.25 0.55 -5.1 1.15 -2.15 4.0 -0.6 6.85 0.9 10.55 0.8 13.2 0.7 15.5 -0.5 L14.75 1.6 17.1 1.15 22.8 1.35 22.8 1.35" fill-rule="evenodd" stroke="none"/>
    </g>
    <g id="font_Coop_Flaired_k0">
      <path d="M24.35 0.0 L24.35 0.0 Q22.75 -2.8 21.65 -7.35 20.5 -11.85 15.3 -13.4 18.2 -15.1 20.0 -18.05 21.75 -21.05 24.2 -23.1 L20.5 -23.15 Q17.05 -23.35 13.0 -24.7 13.7 -21.25 12.3 -18.35 10.95 -15.45 8.85 -14.5 8.7 -17.4 9.0 -21.7 9.3 -26.0 9.95 -30.25 10.65 -34.5 11.5 -37.2 6.15 -35.0 0.1 -35.8 1.5 -31.8 2.3 -25.25 3.1 -18.65 2.75 -11.4 2.4 -4.2 0.35 1.75 5.25 0.15 10.75 1.0 9.1 -2.3 9.0 -6.0 8.95 -9.7 10.85 -10.2 13.1 -10.05 13.95 -6.25 14.8 -2.4 13.65 1.8 15.75 0.75 18.65 0.3 L24.35 0.0 24.35 0.0" fill-rule="evenodd" stroke="none"/>
    </g>
    <g id="font_Coop_Flaired_e0">
      <path d="M14.1 -12.05 L14.1 -12.05 12.3 -11.65 8.05 -11.2 Q9.1 -16.25 11.45 -16.25 14.15 -16.3 14.1 -12.05 L14.1 -12.05 M23.1 -6.55 L23.1 -6.55 20.0 -6.35 14.5 -6.75 Q14.5 -5.4 13.85 -4.3 13.2 -3.25 11.9 -3.15 10.75 -3.2 9.6 -4.5 8.45 -5.8 8.05 -8.05 L17.5 -8.85 22.2 -8.85 Q22.25 -13.0 21.25 -16.15 20.25 -19.25 17.35 -21.0 14.55 -22.5 11.3 -22.15 8.05 -21.75 5.55 -19.9 0.85 -16.55 0.7 -9.65 0.85 -5.15 3.9 -1.8 6.95 1.6 12.25 1.8 15.8 1.9 18.75 -0.05 21.7 -2.0 23.1 -6.55 L23.1 -6.55" fill-rule="evenodd" stroke="none"/>
    </g>
    <g id="font_Coop_Flaired_A0">
      <path d="M15.55 -13.4 L15.55 -13.4 10.15 -13.2 Q11.25 -18.15 13.1 -22.0 14.75 -17.95 15.55 -13.4 L15.55 -13.4 M27.95 0.0 L27.95 0.0 Q25.3 -3.45 23.05 -9.35 20.75 -15.3 19.9 -22.0 19.05 -28.65 20.6 -34.2 17.85 -33.25 13.6 -32.95 9.35 -32.65 6.4 -32.85 7.0 -28.05 6.15 -21.75 5.3 -15.5 3.45 -9.6 1.55 -3.75 -0.85 0.0 L2.9 -0.6 9.8 -0.85 Q8.95 -3.9 9.4 -8.4 L16.0 -9.05 Q16.35 -3.1 14.8 1.2 L19.3 0.25 27.95 0.0 27.95 0.0" fill-rule="evenodd" stroke="none"/>
    </g>
    <g id="font_Coop_Flaired_i0">
      <path d="M10.45 -0.2 L10.45 -0.2 Q8.35 -4.9 8.4 -11.65 8.4 -18.35 9.65 -22.8 6.65 -22.0 3.95 -22.1 L1.05 -22.35 Q2.9 -17.55 2.65 -11.1 2.4 -4.6 0.25 0.2 L3.4 -0.35 Q6.35 -0.75 10.45 -0.2 L10.45 -0.2 M10.4 -30.3 L10.4 -30.3 Q9.9 -32.25 7.75 -33.1 L3.35 -33.3 Q1.2 -32.55 0.4 -31.0 -0.4 -29.5 -0.05 -28.0 0.3 -26.5 1.8 -25.4 3.3 -24.3 5.8 -24.7 8.35 -25.25 9.5 -26.85 10.7 -28.5 10.4 -30.3 L10.4 -30.3" fill-rule="evenodd" stroke="none"/>
    </g>
    <g id="font_Coop_Flaired_m0">
      <path d="M31.65 0.05 L31.65 0.05 Q30.05 -3.85 30.35 -8.6 30.65 -13.35 30.3 -17.4 29.95 -21.4 26.45 -23.15 24.4 -24.0 21.95 -23.55 19.55 -23.1 17.5 -21.0 15.55 -23.2 12.8 -23.15 10.1 -23.15 7.75 -21.0 L8.5 -23.5 Q5.9 -22.65 3.2 -22.6 L0.3 -22.6 Q2.25 -17.35 2.25 -11.05 2.25 -4.7 0.1 0.75 0.25 0.55 3.15 -0.25 L10.0 -0.5 Q8.2 -3.9 7.85 -7.75 7.5 -11.6 8.25 -14.4 8.95 -17.15 10.35 -17.4 11.9 -17.3 12.35 -13.85 12.8 -10.45 12.3 -5.9 11.8 -1.4 10.45 2.0 14.15 0.45 17.25 0.55 L20.6 0.75 Q19.45 -2.65 19.1 -6.9 18.75 -11.15 19.25 -14.3 19.8 -17.5 21.2 -17.65 22.7 -17.5 23.25 -14.5 23.8 -11.55 23.35 -7.6 22.9 -3.65 21.35 -0.6 25.2 -1.35 28.35 -0.75 L31.65 0.05 31.65 0.05" fill-rule="evenodd" stroke="none"/>
    </g>
  </defs>
</svg>
