<?xml version="1.0" encoding="UTF-8" standalone="no"?>
<svg xmlns:xlink="http://www.w3.org/1999/xlink" height="12.95px" width="106.05px" xmlns="http://www.w3.org/2000/svg">
  <g transform="matrix(1.0, 0.0, 0.0, 1.0, -0.05, -0.65)">
    <g transform="matrix(1.0, 0.0, 0.0, 1.0, 0.0, 0.0)">
      <use fill="#006699" height="12.95" transform="matrix(0.3125, 0.0, 0.0, 0.3125, 0.0, 13.0)" width="106.05" xlink:href="#font_Coop_Flaired_10"/>
      <use fill="#006699" height="12.95" transform="matrix(0.3125, 0.0, 0.0, 0.3125, 4.25, 13.0)" width="106.05" xlink:href="#font_Coop_Flaired_.0"/>
    </g>
    <g transform="matrix(1.0, 0.0, 0.0, 1.0, 0.0, 0.0)">
      <use fill="#0a4382" height="12.95" transform="matrix(0.3125, 0.0, 0.0, 0.3125, 10.55, 13.0)" width="106.05" xlink:href="#font_Coop_Flaired_C0"/>
      <use fill="#0a4382" height="12.95" transform="matrix(0.3125, 0.0, 0.0, 0.3125, 18.7, 13.0)" width="106.05" xlink:href="#font_Coop_Flaired_h0"/>
      <use fill="#0a4382" height="12.95" transform="matrix(0.3125, 0.0, 0.0, 0.3125, 25.45, 13.0)" width="106.05" xlink:href="#font_Coop_Flaired_o0"/>
      <use fill="#0a4382" height="12.95" transform="matrix(0.3125, 0.0, 0.0, 0.3125, 32.05, 13.0)" width="106.05" xlink:href="#font_Coop_Flaired_o0"/>
      <use fill="#0a4382" height="12.95" transform="matrix(0.3125, 0.0, 0.0, 0.3125, 38.65, 13.0)" width="106.05" xlink:href="#font_Coop_Flaired_s0"/>
      <use fill="#0a4382" height="12.95" transform="matrix(0.3125, 0.0, 0.0, 0.3125, 44.6, 13.0)" width="106.05" xlink:href="#font_Coop_Flaired_e0"/>
      <use fill="#0a4382" height="12.95" transform="matrix(0.3125, 0.0, 0.0, 0.3125, 54.85, 13.0)" width="106.05" xlink:href="#font_Coop_Flaired_Y0"/>
      <use fill="#0a4382" height="12.95" transform="matrix(0.3125, 0.0, 0.0, 0.3125, 62.85, 13.0)" width="106.05" xlink:href="#font_Coop_Flaired_o0"/>
      <use fill="#0a4382" height="12.95" transform="matrix(0.3125, 0.0, 0.0, 0.3125, 69.45, 13.0)" width="106.05" xlink:href="#font_Coop_Flaired_u0"/>
      <use fill="#0a4382" height="12.95" transform="matrix(0.3125, 0.0, 0.0, 0.3125, 75.8, 13.0)" width="106.05" xlink:href="#font_Coop_Flaired_r0"/>
      <use fill="#0a4382" height="12.95" transform="matrix(0.3125, 0.0, 0.0, 0.3125, 85.05, 13.0)" width="106.05" xlink:href="#font_Coop_Flaired_B0"/>
      <use fill="#0a4382" height="12.95" transform="matrix(0.3125, 0.0, 0.0, 0.3125, 92.7, 13.0)" width="106.05" xlink:href="#font_Coop_Flaired_a0"/>
      <use fill="#0a4382" height="12.95" transform="matrix(0.3125, 0.0, 0.0, 0.3125, 99.35, 13.0)" width="106.05" xlink:href="#font_Coop_Flaired_l0"/>
      <use fill="#0a4382" height="12.95" transform="matrix(0.3125, 0.0, 0.0, 0.3125, 102.6, 13.0)" width="106.05" xlink:href="#font_Coop_Flaired_l0"/>
    </g>
  </g>
  <defs>
    <g id="font_Coop_Flaired_10">
      <path d="M14.8 1.25 L14.8 1.25 Q12.7 -5.15 12.4 -14.7 12.05 -24.25 13.5 -32.2 L11.25 -32.5 Q9.2 -32.85 7.3 -34.0 6.35 -31.15 4.45 -28.35 2.55 -25.6 0.1 -23.65 L2.0 -23.6 5.7 -23.15 Q6.0 -16.55 5.25 -9.3 4.5 -2.05 2.8 2.6 5.75 1.55 8.95 1.25 12.1 0.9 14.8 1.25 L14.8 1.25" fill-rule="evenodd" stroke="none"/>
    </g>
    <g id="font_Coop_Flaired_.0">
      <path d="M8.9 -3.9 L8.9 -3.9 Q8.55 -5.5 6.8 -6.15 L3.25 -6.35 Q1.55 -5.7 0.9 -4.45 0.25 -3.25 0.5 -2.05 0.75 -0.8 2.0 0.1 3.2 1.0 5.25 0.7 7.25 0.25 8.25 -1.1 9.2 -2.4 8.9 -3.9 L8.9 -3.9" fill-rule="evenodd" stroke="none"/>
    </g>
    <g id="font_Coop_Flaired_C0">
      <path d="M28.2 -19.0 L28.2 -19.0 Q27.6 -22.25 26.4 -25.9 25.15 -29.6 21.75 -31.9 18.9 -33.6 15.35 -33.6 11.8 -33.55 8.55 -32.1 5.55 -30.95 2.95 -26.75 0.3 -22.6 1.15 -13.85 1.95 -7.65 4.35 -4.3 6.75 -1.0 9.75 0.4 13.6 2.4 19.1 1.0 24.6 -0.45 26.95 -8.2 23.95 -7.85 21.3 -8.2 L18.4 -8.65 Q18.15 -7.0 17.1 -5.75 16.05 -4.55 14.25 -4.65 10.65 -4.8 9.2 -12.2 8.75 -15.4 9.55 -19.15 10.3 -22.9 12.6 -23.85 15.4 -24.45 16.55 -22.0 17.7 -19.5 17.8 -17.15 21.75 -18.4 24.9 -18.75 L28.2 -19.0 28.2 -19.0" fill-rule="evenodd" stroke="none"/>
    </g>
    <g id="font_Coop_Flaired_h0">
      <path d="M23.75 0.9 L23.75 0.9 Q22.2 -2.75 22.4 -7.25 22.55 -11.7 22.0 -15.6 21.4 -19.5 17.55 -21.4 11.6 -23.55 7.55 -19.25 7.8 -27.4 10.15 -34.6 5.75 -33.2 2.65 -33.1 L-0.65 -33.05 Q1.5 -26.85 2.15 -16.7 2.8 -6.6 0.05 2.6 L3.2 1.4 Q6.2 0.3 10.45 0.15 7.55 -5.85 7.9 -11.05 8.25 -16.25 11.15 -16.6 13.15 -16.45 14.05 -13.5 14.95 -10.55 14.7 -6.3 14.5 -2.0 13.1 2.15 17.6 0.95 20.6 0.9 L23.75 0.9 23.75 0.9" fill-rule="evenodd" stroke="none"/>
    </g>
    <g id="font_Coop_Flaired_o0">
      <path d="M15.9 -10.25 L15.9 -10.25 Q16.0 -8.3 15.2 -6.65 14.35 -4.95 12.35 -4.65 10.4 -4.5 9.05 -6.1 7.75 -7.65 7.7 -10.0 7.7 -12.15 8.8 -13.8 9.9 -15.5 11.9 -15.45 13.95 -15.2 14.9 -13.65 15.85 -12.1 15.9 -10.25 L15.9 -10.25 M22.65 -11.2 L22.65 -11.2 Q22.75 -15.55 19.9 -19.4 17.05 -23.25 11.65 -23.15 6.3 -22.7 3.55 -19.2 0.8 -15.7 0.7 -11.05 0.7 -6.1 4.0 -2.85 7.3 0.4 12.35 0.4 17.7 0.0 20.2 -3.5 22.65 -7.05 22.65 -11.2 L22.65 -11.2" fill-rule="evenodd" stroke="none"/>
    </g>
    <g id="font_Coop_Flaired_s0">
      <path d="M20.65 -5.75 L20.65 -5.75 Q20.2 -9.1 17.3 -10.25 14.4 -11.45 11.6 -12.15 8.8 -12.9 8.65 -15.0 8.95 -17.1 10.8 -16.8 12.6 -16.55 12.85 -13.85 L15.45 -14.7 20.65 -15.55 Q19.75 -17.75 17.9 -20.35 16.05 -22.9 10.9 -23.35 6.65 -23.45 3.95 -21.35 1.25 -19.2 1.35 -15.9 1.75 -12.35 4.55 -11.0 7.4 -9.65 10.1 -8.95 12.8 -8.25 12.95 -6.6 12.7 -4.9 10.7 -5.0 8.7 -5.15 8.2 -8.3 L5.65 -7.45 Q3.25 -6.7 0.05 -6.9 2.6 0.95 11.35 1.2 14.95 1.15 17.8 -0.6 20.7 -2.4 20.65 -5.75 L20.65 -5.75" fill-rule="evenodd" stroke="none"/>
    </g>
    <g id="font_Coop_Flaired_e0">
      <path d="M14.1 -12.05 L14.1 -12.05 12.3 -11.65 8.05 -11.2 Q9.1 -16.25 11.45 -16.25 14.15 -16.3 14.1 -12.05 L14.1 -12.05 M23.1 -6.55 L23.1 -6.55 20.0 -6.35 14.5 -6.75 Q14.5 -5.4 13.85 -4.3 13.2 -3.25 11.9 -3.15 10.75 -3.2 9.6 -4.5 8.45 -5.8 8.05 -8.05 L17.5 -8.85 22.2 -8.85 Q22.25 -13.0 21.25 -16.15 20.25 -19.25 17.35 -21.0 14.55 -22.5 11.3 -22.15 8.05 -21.75 5.55 -19.9 0.85 -16.55 0.7 -9.65 0.85 -5.15 3.9 -1.8 6.95 1.6 12.25 1.8 15.8 1.9 18.75 -0.05 21.7 -2.0 23.1 -6.55 L23.1 -6.55" fill-rule="evenodd" stroke="none"/>
    </g>
    <g id="font_Coop_Flaired_Y0">
      <path d="M30.15 -32.8 L30.15 -32.8 25.35 -32.25 Q20.9 -31.85 17.1 -32.35 17.4 -30.2 16.6 -27.0 15.8 -23.8 14.15 -20.35 12.7 -23.6 11.95 -26.8 11.15 -30.0 11.15 -32.4 L2.85 -32.15 -1.95 -32.6 Q5.5 -25.15 10.9 -14.25 10.85 -10.25 10.1 -6.15 9.35 -2.05 7.95 1.2 L11.8 0.45 20.05 0.2 Q18.7 -2.25 18.05 -6.05 17.35 -9.8 17.25 -13.8 19.65 -18.9 23.05 -24.0 26.45 -29.05 30.15 -32.8 L30.15 -32.8" fill-rule="evenodd" stroke="none"/>
    </g>
    <g id="font_Coop_Flaired_u0">
      <path d="M22.3 -22.65 L22.3 -22.65 19.1 -22.25 Q16.1 -22.0 12.3 -23.2 14.05 -20.0 14.45 -15.85 14.85 -11.7 14.05 -8.5 13.25 -5.25 11.4 -4.85 9.25 -4.7 8.55 -7.5 7.9 -10.35 8.35 -14.6 8.85 -18.8 10.3 -22.95 6.25 -21.75 3.1 -21.9 L-0.25 -22.15 Q1.35 -18.6 1.15 -14.1 0.95 -9.6 1.35 -5.7 1.75 -1.8 5.2 0.0 7.45 1.1 9.95 0.7 12.5 0.35 14.6 -1.6 L13.8 1.2 Q16.45 0.25 19.15 0.2 L22.1 0.2 Q20.15 -4.85 20.25 -11.35 20.35 -17.85 22.3 -22.65 L22.3 -22.65" fill-rule="evenodd" stroke="none"/>
    </g>
    <g id="font_Coop_Flaired_r0">
      <path d="M19.8 -12.3 L19.8 -12.3 Q20.0 -18.35 17.9 -20.6 15.8 -22.85 13.5 -22.75 9.6 -22.7 7.65 -19.35 7.85 -20.75 8.4 -22.1 L9.0 -23.55 Q5.75 -22.55 3.1 -22.6 L0.25 -22.75 Q2.05 -18.1 2.05 -11.05 2.05 -4.0 0.3 1.4 5.1 -0.75 10.5 -0.05 7.35 -5.3 7.45 -10.6 7.6 -15.9 9.65 -16.55 10.95 -16.65 11.4 -15.1 11.9 -13.6 11.6 -11.35 14.55 -12.5 17.1 -12.45 L19.8 -12.3 19.8 -12.3" fill-rule="evenodd" stroke="none"/>
    </g>
    <g id="font_Coop_Flaired_B0">
      <path d="M9.65 -4.25 L9.65 -4.25 Q9.2 -7.55 9.15 -11.65 14.3 -11.55 15.75 -9.7 17.15 -7.85 15.45 -6.05 13.75 -4.25 9.65 -4.25 L9.65 -4.25 M9.9 -24.55 L9.9 -24.55 Q15.1 -24.75 16.45 -22.8 17.85 -20.8 15.95 -18.65 14.0 -16.5 9.25 -16.25 9.4 -20.6 9.9 -24.55 L9.9 -24.55 M25.7 -26.05 L25.7 -26.05 Q23.35 -32.2 15.7 -33.2 8.05 -34.2 -0.05 -32.45 1.45 -27.95 2.2 -21.7 3.0 -15.4 2.95 -9.2 2.85 -3.0 1.8 1.25 7.65 2.2 13.9 1.35 20.15 0.45 23.3 -3.4 25.6 -6.75 24.5 -9.9 23.35 -13.05 19.1 -14.65 22.6 -16.15 24.7 -19.05 26.75 -21.95 25.7 -26.05 L25.7 -26.05" fill-rule="evenodd" stroke="none"/>
    </g>
    <g id="font_Coop_Flaired_a0">
      <path d="M15.7 -6.5 L15.7 -6.5 Q15.6 -5.2 14.55 -4.6 13.5 -4.0 12.3 -4.0 9.35 -4.0 8.8 -6.05 8.75 -6.9 9.7 -7.75 10.65 -8.65 12.35 -8.8 15.65 -8.5 15.7 -6.5 L15.7 -6.5 M22.8 1.35 L22.8 1.35 Q22.0 -3.05 22.3 -7.15 22.6 -11.2 22.2 -15.3 21.75 -18.6 19.25 -21.0 16.7 -23.4 11.45 -23.15 7.55 -22.9 4.65 -20.65 1.8 -18.4 1.55 -14.15 L8.4 -14.5 11.55 -14.05 Q11.6 -16.55 13.6 -16.6 15.6 -16.3 16.3 -11.5 14.35 -12.7 10.7 -12.75 5.9 -12.65 3.05 -10.45 0.15 -8.25 0.55 -5.1 1.15 -2.15 4.0 -0.6 6.85 0.9 10.55 0.8 13.2 0.7 15.5 -0.5 L14.75 1.6 17.1 1.15 22.8 1.35 22.8 1.35" fill-rule="evenodd" stroke="none"/>
    </g>
    <g id="font_Coop_Flaired_l0">
      <path d="M11.2 -38.85 L11.2 -38.85 Q7.4 -37.0 4.0 -36.7 L0.4 -36.5 Q1.7 -33.2 2.5 -26.4 3.35 -19.6 3.0 -11.95 2.65 -4.35 0.45 1.4 L3.65 0.55 Q6.65 -0.1 11.0 0.6 9.85 -3.45 9.35 -10.55 8.85 -17.65 9.2 -25.35 9.6 -33.0 11.2 -38.85 L11.2 -38.85" fill-rule="evenodd" stroke="none"/>
    </g>
  </defs>
</svg>
