<?xml version="1.0" encoding="UTF-8" standalone="no"?>
<svg xmlns:xlink="http://www.w3.org/1999/xlink" height="19.9px" width="213.05px" xmlns="http://www.w3.org/2000/svg">
  <g transform="matrix(1.0, 0.0, 0.0, 1.0, -60.6, -0.1)">
    <g transform="matrix(1.0, 0.0, 0.0, 1.0, 60.15, 0.0)">
      <use fill="#5e7980" height="19.9" transform="matrix(0.4883, 0.0, 0.0, 0.4883, 0.0, 20.0)" width="213.05" xlink:href="#font_Minnie_H0"/>
      <use fill="#5e7980" height="19.9" transform="matrix(0.4883, 0.0, 0.0, 0.4883, 21.95, 20.0)" width="213.05" xlink:href="#font_Minnie_O0"/>
      <use fill="#5e7980" height="19.9" transform="matrix(0.4883, 0.0, 0.0, 0.4883, 44.8, 20.0)" width="213.05" xlink:href="#font_Minnie_W0"/>
      <use fill="#5e7980" height="19.9" transform="matrix(0.4883, 0.0, 0.0, 0.4883, 81.35, 20.0)" width="213.05" xlink:href="#font_Minnie_T0"/>
      <use fill="#5e7980" height="19.9" transform="matrix(0.4883, 0.0, 0.0, 0.4883, 98.35, 20.0)" width="213.05" xlink:href="#font_Minnie_O0"/>
      <use fill="#5e7980" height="19.9" transform="matrix(0.4883, 0.0, 0.0, 0.4883, 132.6, 20.0)" width="213.05" xlink:href="#font_Minnie_P0"/>
      <use fill="#5e7980" height="19.9" transform="matrix(0.4883, 0.0, 0.0, 0.4883, 150.6, 20.0)" width="213.05" xlink:href="#font_Minnie_L0"/>
      <use fill="#5e7980" height="19.9" transform="matrix(0.4883, 0.0, 0.0, 0.4883, 165.65, 20.0)" width="213.05" xlink:href="#font_Minnie_A0"/>
      <use fill="#5e7980" height="19.9" transform="matrix(0.4883, 0.0, 0.0, 0.4883, 190.05, 20.0)" width="213.05" xlink:href="#font_Minnie_Y0"/>
    </g>
  </g>
  <defs>
    <g id="font_Minnie_H0">
      <path d="M18.95 -1.15 L18.95 -1.15 17.55 -14.3 30.6 -15.4 31.9 -2.35 46.0 -3.5 42.2 -40.8 29.1 -39.75 30.15 -29.2 15.4 -28.05 14.9 -33.45 14.3 -38.85 0.9 -37.75 4.65 0.0 18.95 -1.15" fill-rule="evenodd" stroke="none"/>
    </g>
    <g id="font_Minnie_O0">
      <path d="M25.15 -14.2 L25.15 -14.2 Q22.95 -14.2 20.75 -15.65 18.05 -17.55 18.05 -20.65 18.05 -24.1 20.8 -26.15 23.1 -27.8 25.75 -27.8 28.2 -27.8 30.2 -26.45 32.8 -24.75 32.8 -21.4 32.75 -17.55 29.8 -15.6 27.65 -14.2 25.15 -14.2 M26.1 -40.8 L26.1 -40.8 Q14.7 -40.8 7.65 -33.95 1.1 -27.75 1.1 -19.1 1.1 -10.8 7.05 -5.55 13.1 0.0 23.15 0.0 35.9 0.0 42.85 -7.6 48.4 -13.6 48.4 -21.15 48.4 -30.35 42.15 -35.7 36.2 -40.8 26.1 -40.8" fill-rule="evenodd" stroke="none"/>
    </g>
    <g id="font_Minnie_W0">
      <path d="M0.65 -38.05 L0.65 -38.05 Q1.9 -34.15 9.1 -18.65 L17.35 -1.0 Q27.35 -9.1 27.25 -9.35 27.7 -8.65 31.3 -4.5 35.25 -0.05 35.75 0.0 L58.35 -34.0 47.75 -39.25 Q46.75 -37.15 41.2 -28.6 35.7 -20.05 35.25 -19.9 L29.1 -30.7 21.25 -20.9 17.25 -30.4 Q13.4 -39.15 12.9 -40.8 L0.65 -38.05" fill-rule="evenodd" stroke="none"/>
    </g>
    <g id="font_Minnie_T0">
      <path d="M29.2 -1.25 L29.2 -1.25 24.55 -29.15 35.75 -30.9 34.1 -40.6 1.1 -36.0 2.85 -25.85 13.9 -27.35 18.75 0.0 29.2 -1.25" fill-rule="evenodd" stroke="none"/>
    </g>
    <g id="font_Minnie_P0">
      <path d="M15.3 -31.25 L15.3 -31.25 18.6 -31.6 Q23.15 -31.6 23.1 -28.7 23.05 -25.25 16.7 -24.55 L15.3 -31.25 M20.05 -1.9 L20.05 -1.9 Q19.65 -3.0 18.25 -10.05 L17.85 -12.2 Q27.15 -15.2 32.4 -20.35 37.4 -25.15 37.4 -30.4 L37.25 -32.35 Q35.55 -40.65 21.9 -40.8 15.45 -40.85 1.1 -38.5 L8.75 0.0 20.05 -1.9" fill-rule="evenodd" stroke="none"/>
    </g>
    <g id="font_Minnie_L0">
      <path d="M29.45 -15.55 L29.45 -15.55 17.65 -14.15 14.35 -40.8 1.35 -39.25 3.9 -19.2 6.35 0.0 32.5 -3.05 29.45 -15.55" fill-rule="evenodd" stroke="none"/>
    </g>
    <g id="font_Minnie_A0">
      <path d="M21.95 -16.0 L21.95 -16.0 24.35 -20.1 26.8 -24.15 32.1 -16.0 21.95 -16.0 M13.7 0.0 L13.7 0.0 16.1 -3.55 18.6 -7.6 35.4 -7.6 38.75 -3.45 41.45 0.0 52.35 -3.0 39.6 -21.85 26.55 -40.8 26.1 -40.8 13.7 -22.35 Q1.5 -4.05 1.35 -3.1 L13.7 0.0" fill-rule="evenodd" stroke="none"/>
    </g>
    <g id="font_Minnie_Y0">
      <path d="M25.9 0.0 L25.9 0.0 Q25.9 -1.0 27.65 -11.2 L37.7 -20.05 48.1 -28.9 38.25 -37.4 Q37.5 -37.1 30.15 -30.7 22.8 -24.3 22.55 -23.7 L12.25 -40.8 1.1 -34.1 Q1.5 -33.85 7.6 -23.45 13.75 -13.0 13.6 -12.4 L12.05 -1.75 25.9 0.0" fill-rule="evenodd" stroke="none"/>
    </g>
  </defs>
</svg>
